<svg width="274" height="336" viewBox="0 0 274 336" fill="none" xmlns="http://www.w3.org/2000/svg">
<path d="M78.1671 81.8777L186.833 80.9222C188.18 80.9103 189.4 80.0053 189.529 78.665C189.58 78.1385 189.579 77.6369 189.463 77.3132C189.111 76.3336 189.463 73.7057 189.463 72.8276C189.463 71.9495 189.111 69.448 189.111 68.6714C189.111 67.8947 188.126 65.5769 186.85 64.901C185.574 64.225 185.763 63.968 181.016 63.4877C177.599 63.1418 173.178 62.6008 168.676 62.6008C166.542 62.4283 163.538 62.2989 161.207 62.1358C158.481 61.9452 156.397 61.7238 153.484 61.5642C151.641 61.4633 149.06 61.1012 147.171 61.0191C144.61 60.9077 142.725 61.0852 140.127 61.019C137.183 60.9441 134.044 61.0191 131.129 61.0191C129.279 61.0191 127.612 60.919 125.76 60.9506C124.316 60.9751 122.235 61.2471 120.799 61.2884C119.009 61.3398 117.868 61.1649 116.107 61.2385C112.801 61.3767 109.274 61.9569 106.155 62.1519C104.113 62.2795 102.41 62.0097 100.489 62.1519C97.4687 62.3752 93.5869 63.3346 90.9642 63.5689C88.1723 63.8184 86.67 63.3425 84.4717 63.5689C78.8324 64.1497 78.3448 64.1827 77.1708 65.2082C75.9969 66.2337 75.3893 68.1489 75.3893 68.9214C75.3893 69.6938 74.801 72.6953 74.801 73.8722C74.801 74.5472 74.9945 77.0893 75.1596 79.1348C75.2856 80.6972 76.5996 81.8915 78.1671 81.8777Z" fill="#5E4942" stroke="#3D3131" stroke-width="3"/>
<path d="M229.171 160.352C226.502 159.631 224.069 157.861 222.438 156.608C221.556 158.027 220.785 160.053 219.58 161.901C218.054 164.24 216.026 166.479 214.342 168.879C212.915 170.912 211.909 172.927 210.633 174.538C208.874 176.762 206.969 178.297 206.047 178.758C205.48 179.042 204.399 179.312 203.379 179.575C202.182 179.883 200.173 180.396 198.628 180.667C196.533 181.035 194.737 181.147 192.641 181.428C190.62 181.698 189.093 181.925 187.742 182.093L187.368 190.303C189.27 189.913 191.503 190.024 194.209 189.736C196.662 189.476 199.582 188.81 201.56 188.609C203.473 188.416 204.91 188.245 205.383 188.088C206.405 187.747 208.083 187.567 210.125 186.458C211.832 185.531 214.406 183.749 215.146 182.554C215.728 181.615 217.486 179.723 219.518 176.709C220.609 175.09 221.739 172.728 222.899 170.959C224.056 169.195 225.52 167.287 226.502 165.687C227.825 163.529 228.686 161.547 229.171 160.352Z" fill="#FFFBFA" stroke="#3D3131" stroke-width="3" stroke-linejoin="round"/>
<path d="M219.823 152.642L220.146 155.349L224.965 158.532L229.734 161.057L233.754 160.636L235.437 159.093L234.689 156.662L238.99 155.349L245.348 152.081L248.293 149.79L252.22 148.621L255.914 146.611L256.568 144.741L255.914 141.703L256.568 140.253L254.838 137.448L253.062 133.942L248.293 132.82L239.738 134.55L230.435 139.459H228.425L226.087 133.942L222.535 130.576L218.561 131.371L217.673 133.942L220.758 138.944L222.114 143.105L221.833 150.912L219.823 152.642Z" fill="#FFFBFA"/>
<path d="M186.56 95.1732H77.3959C75.739 95.1732 74.3959 96.5164 74.3959 98.1732V103.662C74.3959 106.078 74.5017 109.45 74.9204 112.693C75.3391 115.936 75.0608 118.048 75.4795 120.019C75.8982 121.99 75.902 126.782 75.9479 129.133C75.9938 131.484 76.1497 134.642 76.2016 136.998C76.2536 139.353 76.8255 145.106 76.9082 147.648C76.9909 150.19 77.1335 153.853 77.1335 156.599C77.1335 159.152 77.6626 164.34 77.737 165.057C77.7429 165.114 77.747 165.168 77.7498 165.225L80.9587 232.249C81.0352 233.848 82.3542 235.106 83.9552 235.106H180.151C181.754 235.106 183.073 233.846 183.148 232.245L186.277 165.193C186.278 165.157 186.28 165.123 186.283 165.087C186.327 164.547 186.701 159.942 186.851 156.949C187.01 153.765 187.035 149.848 187.095 147.648C187.155 145.448 187.535 141.669 187.589 139.749C187.642 137.83 187.854 132.001 187.911 130.156C187.968 128.312 187.911 124.35 188.319 121.411C188.727 118.471 188.68 114.529 188.727 112.665C188.775 110.8 189.504 105.721 189.543 104.057C189.566 103.108 189.563 100.349 189.556 98.1557C189.551 96.5053 188.21 95.1732 186.56 95.1732Z" fill="#FFFBFA" stroke="#3D3131" stroke-width="3" stroke-linecap="round"/>
<path d="M80.385 77.3111L67.4949 79.173L65.4897 87.6232V97.5057L67.4949 99.5108H80.385L91.27 98.2218H104.16L122.779 97.5057H134.38H152.713L168.754 98.2218L194.964 99.5108L198.401 97.5057V88.4826L196.826 79.173L191.527 78.1705L177.061 77.3111L153.572 76.0221H135.096H112.467L80.385 77.3111Z" fill="#5E4942"/>
<path d="M101.893 76.8601C104.242 76.4589 107.696 76.5537 110.855 76.4361C112.921 76.3592 114.281 76.0989 116.211 76.0349C118.443 75.961 121.216 76.0859 123.171 76.0349C126.389 75.9509 129.163 75.9021 131.265 75.9021C133.013 75.9021 134.693 75.9753 137.251 76.0349C139.094 76.0779 141.652 76.0949 143.798 76.1619C146.673 76.2517 149.984 76.0413 153.195 76.1619C157.575 76.3265 161.946 76.8323 166.426 77.0235C168.305 77.1036 170.318 76.9431 172.139 77.0235C174.263 77.1172 176.18 77.4517 178.16 77.5419C180.198 77.6348 182.139 77.5129 183.947 77.5419C186.452 77.5821 188.701 77.7613 190.592 77.8523C191.864 77.9135 192.979 78.2396 193.895 78.2844C195.756 78.3753 196.059 78.3872 196.494 78.9254C196.93 79.4636 197.444 81.4843 197.444 82.8876C197.444 84.1644 197.646 86.7295 197.682 87.1818C197.686 87.2282 197.691 87.2716 197.698 87.3177C197.772 87.8064 198.228 90.8181 198.228 91.3487C198.228 91.8591 198.486 95.1541 198.546 95.9159C198.555 96.0216 198.555 96.125 198.544 96.2306C198.487 96.7988 198.252 98.7193 197.688 98.943C197.024 99.2058 196.724 99.8043 193.895 99.5526C192.482 99.4269 190.759 99.2862 188.735 99.1906C186.258 99.0736 182.686 98.9809 178.83 98.6801C175.842 98.4469 172.785 98.2238 170.197 98.1117C165.581 97.9117 161.724 98.2954 156.928 98.1117C153.303 97.9727 151.584 97.8441 148.185 97.7346C145.375 97.6441 141.984 97.7213 139.258 97.7346C135.457 97.7532 132.484 97.7346 130.046 97.7346C128.446 97.7346 126.179 97.3919 124.167 97.3888C122.124 97.3857 120.33 97.7224 118.027 97.7346C116.343 97.7436 114.975 97.6708 113.072 97.7346C110.057 97.8359 105.867 98.4456 101.893 98.4456H95.8976C91.9605 98.4456 89.8609 98.9471 87.4302 99.0558C85.0574 99.162 83.1993 99.1409 80.2965 99.325C77.5301 99.5005 74.6707 99.5986 72.8936 99.6839C69.2376 99.8596 69.8892 99.5867 67.9584 99.6839C66.3937 99.7627 65.8946 99.1932 65.4908 98.7725C65.087 98.3519 65.3291 97.5533 65.4908 95.1974C65.6535 92.8255 65.4458 90.444 65.4908 89.7237C65.5805 88.288 65.9843 85.7755 65.9843 84.6987C65.9843 83.7767 65.9843 81.5719 65.9843 80.957C65.9843 80.8484 65.9927 80.7424 66.0154 80.6362C66.1149 80.1705 66.4658 78.832 67.2405 78.6418C68.181 78.411 67.9471 78.3406 70.8708 78.1976C72.0982 78.1376 72.5895 78.2746 74.1948 78.1976C75.4527 78.1372 77.7596 77.8656 79.205 77.7975C80.7941 77.7226 81.8058 77.3515 83.5717 77.2702C85.6308 77.1753 88.4713 77.3692 90.6942 77.2702C92.0435 77.2101 94.0252 76.8601 96.6828 76.8601" stroke="#3D3131" stroke-width="3" stroke-linecap="round"/>
<path d="M128.62 181.966L76.0875 173.316V180.316C76.0875 181.319 76.8186 185.832 76.7003 187.711C76.582 189.59 77.0319 192.913 77.0067 194.909C76.9814 196.905 76.972 201.191 77.0067 202.185C77.0413 203.18 77.5859 207.144 77.6194 209.304C77.6529 211.464 77.5871 215.25 77.6194 216.592C77.6517 217.934 78.2315 222.229 78.2322 223.699C78.2328 225.169 78.5386 230.897 78.5386 230.897H184.841C184.841 230.897 184.841 225.134 185.265 223.699C185.689 222.264 185.566 218.163 185.689 216.502C185.811 214.84 186.123 210.166 186.218 209.083C186.313 208 186.282 203.275 186.6 201.566C186.918 199.857 186.993 196.092 186.96 194.909C186.926 193.725 187.54 188.809 187.567 187.746C187.595 186.683 187.807 180.513 187.807 180.513L188.23 173.316L128.62 181.966Z" fill="#5E4942" stroke="#3D3131" stroke-width="3"/>
<path d="M2.39593 227.902H270.396C270.396 227.902 270.55 231.193 270.396 231.777C270.242 232.361 270.396 234.278 270.396 235.028C270.396 235.777 270.55 237.102 270.55 237.577C270.55 238.051 270.508 239.017 270.396 239.527C270.284 240.037 270.396 242.6 270.396 243.402C270.396 244.204 270.55 247.144 270.55 247.928C270.55 248.712 270.396 251.219 270.396 251.829C270.396 252.439 270.55 254.695 270.55 255.265C270.55 255.835 270.396 258.902 270.396 258.902H2.39593C2.39593 258.902 2.14026 256.244 2.10648 254.757C2.0727 253.271 2.39593 252.021 2.39593 251.152C2.39593 250.284 2.10648 248.385 2.10648 247.595C2.10648 246.804 2.39593 245.031 2.39593 244.284C2.39593 243.537 2.57945 240.568 2.39593 239.527C2.2124 238.487 2.39593 235.787 2.39593 235.129C2.39593 234.47 2.6808 232.662 2.39593 231.777C2.11105 230.892 2.39593 227.902 2.39593 227.902Z" fill="#948275"/>
<path d="M3.35423 331.07C2.89244 330.709 2.31181 329.658 2.39603 328.692C2.48025 327.726 2.15158 326.424 2.15407 325.06C2.15592 324.042 2.40615 322.976 2.39603 322.272C2.35835 319.65 2.18369 318.371 2.39569 317.758C2.87873 316.362 2.39569 313.3 2.39569 312.127C2.39569 310.955 2.7577 306.508 2.7577 304.955C2.7577 303.402 2.39569 299.551 2.39569 298.1C2.39569 296.649 2.7577 292.912 2.7577 290.83C2.7577 288.749 2.39569 280.216 2.39569 277.21C2.39569 274.204 2.7577 269.818 2.39569 268.077C2.03368 266.337 2.39569 258.945 2.39569 258.945C2.39569 258.945 31.004 258.902 36.0832 258.945C41.1624 258.987 57.8234 258.945 64.3406 258.945C70.8578 258.945 82.3751 258.902 86.5008 258.902C90.6266 258.902 99.0261 258.914 103.458 258.945C107.89 258.975 130.174 258.945 137.146 258.945C144.117 258.945 169.677 258.902 176.491 258.902C183.304 258.902 205.099 258.945 210.405 258.945C215.712 258.945 235.318 258.902 240.273 258.902C245.229 258.902 270.995 259.244 270.995 259.244C270.995 259.244 271.467 265.598 270.896 268.077C270.325 270.557 270.896 271.864 270.896 272.644C270.896 273.424 270.896 275.951 270.896 277.21C270.896 278.47 270.156 283.784 270.526 285.8C270.896 287.817 270.68 293.671 270.896 295.476C271.112 297.281 271.295 302.123 270.896 304.609C270.497 307.094 271.266 312.077 270.896 314.605C270.526 317.133 270.896 322.875 270.896 322.875C270.54 324.599 271.338 326.218 270.896 327.441C270.454 328.664 269.923 329.633 269.082 330.501C268.24 331.369 264.351 331.862 262.102 331.685C260.938 331.594 260.662 331.952 254.674 332.08C252.162 332.133 248.276 331.694 245.144 331.685C241.32 331.674 238.272 332.085 235.86 332.087C232.882 332.089 229.754 332.341 227.01 332.335C223.057 332.326 219.538 332.193 216.053 332.335C211.456 332.522 207.368 332.743 204.064 332.743C200.635 332.743 195.817 332.024 190.435 332.042C183.968 332.063 177.347 332.087 173.595 332.087C171.267 332.087 167.018 332.755 163.408 332.743C156.361 332.719 149.105 332.008 144.812 332.008C142.67 332.008 138.424 332.002 133.371 331.997C127.748 331.991 118.883 332.632 113.048 332.633C108.234 332.634 106.198 331.992 103.458 332.008C100.45 332.024 96.9697 332.633 91.9556 332.633C89.1986 332.633 85.1955 332.028 82.3859 332.026C79.0057 332.023 75.7295 332.019 72.8997 332.015C69.4939 332.011 66.3986 332.633 64.8825 332.633C62.7698 332.633 59.6343 331.997 55.7077 331.988C53.1154 331.981 48.6986 332.266 45.175 332.268C43.9305 332.268 42.8884 331.987 41.9514 331.988C38.6663 331.989 37.7555 332.244 35.4349 332.268C33.9941 332.282 31.5521 332.074 28.4687 332.127C24.7876 332.191 21.1165 332.258 20.2742 332.268C18.7263 332.286 16.8419 332.025 15.2685 332.022C13.5159 332.02 12.2349 332.128 10.6861 332.124C9.8639 332.123 8.9895 332.024 8.25663 332.022C7.48208 332.021 6.6342 331.921 5.98483 331.92C4.63073 331.916 3.81602 331.431 3.35423 331.07Z" fill="#948275"/>
<path d="M2.39587 227.902C2.39587 227.902 4.39587 227.402 5.89587 227.402C7.39587 227.402 13.3959 227.902 14.3959 227.902C15.3959 227.902 18.0834 227.902 19.2396 227.902C20.3959 227.902 22.1114 228.232 23.6114 228.232C25.1114 228.232 29.7269 227.665 31.7269 227.665C33.7269 227.665 35.2709 227.902 36.0834 227.902C36.8959 227.902 44.3959 227.902 45.8959 227.902C47.3959 227.902 50.4819 227.665 52.4819 227.665C54.4819 227.665 57.8959 227.902 60.3959 227.902C62.8959 227.902 66.3297 227.665 68.8297 227.665C71.3297 227.665 73.8959 228.402 75.3959 228.402C76.1768 228.402 79.6071 227.902 85.3959 227.902C90.7265 227.902 95.9371 228.402 96.8959 228.402C98.8959 228.402 100.173 227.902 102.173 227.902C104.173 227.902 107.298 228.402 109.298 228.402C110.083 228.402 111.779 228.496 117.896 228.402C122.277 228.335 127.181 227.589 131.396 227.527C136.289 227.455 139.42 227.902 140.562 227.902C144.062 227.902 148.896 227.902 148.896 227.902C148.896 227.902 152.396 228.402 157.896 228.402C163.396 228.402 168.896 227.902 174.396 227.902C179.896 227.902 179.396 227.902 181.396 227.902C183.396 227.902 186.458 227.902 187.677 227.902C188.896 227.902 199.896 227.902 201.896 227.902C203.896 227.902 206.896 227.402 208.896 227.402C210.896 227.402 221.396 227.902 221.396 227.902L238.896 227.402C238.896 227.402 258.896 227.902 260.396 227.902C261.896 227.902 265.896 227.402 267.396 227.402C268.896 227.402 271.896 227.902 271.896 227.902" stroke="#3D3131" stroke-width="3" stroke-linecap="round" stroke-linejoin="round"/>
<path d="M271.896 258.361C271.896 258.361 269.896 257.861 268.396 257.861C266.896 257.861 260.896 258.361 259.896 258.361C258.896 258.361 256.208 258.361 255.052 258.361C253.896 258.361 252.18 258.69 250.68 258.69C249.18 258.69 244.565 258.123 242.565 258.123C240.565 258.123 239.021 258.361 238.208 258.361C237.396 258.361 229.896 258.361 228.396 258.361C226.896 258.361 223.81 258.123 221.81 258.123C219.81 258.123 216.396 258.361 213.896 258.361M2.39587 258.361C2.39587 258.361 5.39587 257.861 6.89587 257.861C8.39587 257.861 12.3959 258.361 13.8959 258.361C15.3959 258.361 35.3959 257.861 35.3959 257.861L52.8959 258.361C52.8959 258.361 63.3959 257.861 65.3959 257.861C67.3959 257.861 70.3959 258.361 72.3959 258.361C74.3959 258.361 85.3959 258.361 86.6146 258.361C87.8334 258.361 90.8959 258.361 92.8959 258.361C94.8959 258.361 94.3959 258.361 99.8959 258.361C105.396 258.361 110.896 258.861 116.396 258.861C121.896 258.861 125.396 258.361 125.396 258.361C125.396 258.361 130.23 258.361 133.73 258.361C134.872 258.361 138.003 257.914 142.896 257.986C147.111 258.047 152.015 258.794 156.396 258.861C162.512 258.954 164.208 258.861 164.993 258.861C166.993 258.861 170.119 258.361 172.119 258.361C174.119 258.361 175.396 258.861 177.396 258.861C178.355 258.861 183.565 258.361 188.896 258.361C194.685 258.361 195.696 258.861 198.896 258.861C202.095 258.861 205.822 258.361 207.722 258.361" stroke="#3D3131" stroke-width="3" stroke-linecap="round" stroke-linejoin="round"/>
<path d="M129.601 180.332C129.601 180.332 129.895 183.975 129.895 185.091C129.895 186.207 129.44 190.633 129.425 191.975C129.41 193.316 129.865 200.132 129.733 201.835C129.601 203.539 129.41 207.02 129.425 208.474C129.44 209.929 129.748 213.067 129.601 214.291C129.454 215.515 129.557 219.172 129.425 221.341C129.293 223.51 129.425 226.923 129.425 226.923" stroke="#3D3131" stroke-width="3" stroke-linecap="round"/>
<path d="M67.9209 178.168C68.5447 176.543 70.1771 174.089 70.8713 172.961C71.5655 171.833 73.4585 169.902 74.021 168.402C74.281 167.709 74.808 167.016 75.2996 166.47C75.9441 165.756 76.9462 165.545 77.8802 165.777C79.4527 166.168 81.8573 166.744 82.9585 166.902C84.6685 167.147 87.2343 167.835 89.521 168.402C91.8078 168.969 94.569 169.533 96.0835 169.902C97.5981 170.271 100.809 170.711 103.152 171.402C105.495 172.093 111.482 173.534 113.651 174.089C115.821 174.644 120.521 175.258 122.334 175.902C124.146 176.546 126.897 176.688 127.865 177.402C128.834 178.117 129.138 179.759 128.437 180.652C127.735 181.545 126.295 182.762 125.652 183.902C125.009 185.043 124.007 187.267 123.054 187.806C122.53 188.102 121.449 190.309 120.236 191.69C119.24 192.825 118.116 193.201 117.472 193.233C116.044 193.304 112.878 191.702 111.269 191.295C109.661 190.888 105.437 188.755 103.152 188.327C102.021 188.115 100.255 187.278 97.6244 186.643C94.9387 185.995 92.2141 185.369 91.2671 184.938C90.2965 184.495 87.2669 184.449 85.685 183.902C84.1031 183.356 81.0127 182.517 79.8704 182.224C77.5019 181.617 76.396 181.118 74.021 180.652C71.646 180.186 67.2971 179.793 67.9209 178.168Z" fill="#FFFBFA" stroke="#3D3131" stroke-width="3" stroke-linecap="round"/>
<path d="M193.458 179.379C192.834 177.754 191.201 175.301 190.507 174.173C189.813 173.045 187.92 171.114 187.357 169.614C187.067 168.839 186.442 168.063 185.907 167.495C185.346 166.901 184.525 166.666 183.714 166.761C181.999 166.961 179.018 167.313 177.832 167.483C176.122 167.728 171.938 168.636 169.651 169.203C167.364 169.77 164.589 170.196 163.075 170.565C161.56 170.934 158.35 171.374 156.007 172.065C153.664 172.756 147.676 173.618 145.507 174.173C143.337 174.727 138.637 175.342 136.825 175.985C135.012 176.629 132.262 176.771 131.293 177.485C130.324 178.2 130.02 179.842 130.722 180.735C131.423 181.629 132.864 182.845 133.506 183.985C134.149 185.126 135.151 187.351 136.105 187.889C136.628 188.185 137.709 190.392 138.922 191.774C139.918 192.908 141.043 193.284 141.687 193.316C143.115 193.388 146.281 191.785 147.889 191.378C149.497 190.971 152.256 190.213 154.541 189.785C155.671 189.573 158.77 189.04 161.401 188.405C164.087 187.756 166.812 187.131 167.759 186.699C168.729 186.256 171.759 186.21 173.341 185.664C174.922 185.117 178.013 184.278 179.155 183.985C181.524 183.378 184.982 182.33 187.357 181.864C189.732 181.398 194.081 181.004 193.458 179.379Z" fill="#FFFBFA" stroke="#3D3131" stroke-width="3" stroke-linecap="round"/>
<path d="M91.1812 258.902C91.1812 258.902 91.4749 264.206 91.4749 265.831C91.4749 267.456 91.0196 273.899 91.0049 275.853C90.9902 277.806 91.4454 287.728 91.3133 290.209C91.1812 292.689 90.9902 297.757 91.0049 299.875C91.0196 301.992 91.3281 306.56 91.1812 308.343C91.0343 310.125 91.137 315.449 91.0049 318.607C90.8728 321.765 91.0049 326.733 91.0049 326.733" stroke="#3D3131" stroke-width="3" stroke-linecap="round"/>
<path d="M247.052 258.902C247.052 258.902 247.346 264.206 247.346 265.831C247.346 267.456 246.891 273.899 246.876 275.853C246.861 277.806 247.317 287.728 247.185 290.209C247.052 292.689 246.861 297.757 246.876 299.875C246.891 301.992 247.199 306.56 247.052 308.343C246.906 310.125 247.008 315.449 246.876 318.607C246.744 321.765 246.876 326.733 246.876 326.733" stroke="#3D3131" stroke-width="3" stroke-linecap="round"/>
<path d="M125.171 258.902C125.171 258.902 125.465 264.206 125.465 265.831C125.465 267.456 125.009 273.899 124.995 275.853C124.98 277.806 125.435 287.728 125.303 290.209C125.171 292.689 124.98 297.757 124.995 299.875C125.009 301.992 125.318 306.56 125.171 308.343C125.024 310.125 125.127 315.449 124.995 318.607C124.862 321.765 124.995 326.733 124.995 326.733" stroke="#3D3131" stroke-width="3" stroke-linecap="round"/>
<path d="M156.901 258.902C156.901 258.902 157.195 264.206 157.195 265.831C157.195 267.456 156.739 273.899 156.725 275.853C156.71 277.806 157.165 287.728 157.033 290.209C156.901 292.689 156.71 297.757 156.725 299.875C156.739 301.992 157.048 306.56 156.901 308.343C156.754 310.125 156.857 315.449 156.725 318.607C156.592 321.765 156.725 326.733 156.725 326.733" stroke="#3D3131" stroke-width="3" stroke-linecap="round"/>
<path d="M29.1335 258.902C29.1335 258.902 28.8398 264.206 28.8398 265.831C28.8398 267.456 29.2951 273.899 29.3098 275.853C29.3245 277.806 28.8693 287.728 29.0014 290.209C29.1335 292.689 29.3245 297.757 29.3098 299.875C29.2951 301.992 28.9866 306.56 29.1335 308.343C29.2804 310.125 29.1777 315.449 29.3098 318.607C29.4419 321.765 29.3098 326.733 29.3098 326.733" stroke="#3D3131" stroke-width="3" stroke-linecap="round"/>
<path d="M189.855 258.902C189.855 258.902 189.561 264.206 189.561 265.831C189.561 267.456 190.016 273.899 190.031 275.853C190.046 277.806 189.591 287.728 189.723 290.209C189.855 292.689 190.046 297.757 190.031 299.875C190.016 301.992 189.708 306.56 189.855 308.343C190.002 310.125 189.899 315.449 190.031 318.607C190.163 321.765 190.031 326.733 190.031 326.733" stroke="#3D3131" stroke-width="3" stroke-linecap="round"/>
<path d="M219.524 258.902C219.524 258.902 219.231 264.206 219.231 265.831C219.231 267.456 219.686 273.899 219.701 275.853C219.715 277.806 219.26 287.728 219.392 290.209C219.524 292.689 219.715 297.757 219.701 299.875C219.686 301.992 219.377 306.56 219.524 308.343C219.671 310.125 219.569 315.449 219.701 318.607C219.833 321.765 219.701 326.733 219.701 326.733" stroke="#3D3131" stroke-width="3" stroke-linecap="round"/>
<path d="M60.1208 262.836C60.1208 262.836 60.4145 268.139 60.4145 269.764C60.4145 271.39 59.9592 277.833 59.9444 279.786C59.9297 281.74 60.2529 289.279 60.1208 291.76C59.9887 294.241 59.9445 297.526 59.9593 299.643C59.974 301.761 60.2824 306.329 60.1208 312.276C59.9591 318.223 60.0914 315.218 59.9593 318.376C59.8271 321.534 59.9593 326.502 59.9593 326.502" stroke="#3D3131" stroke-width="3" stroke-linecap="round"/>
<path d="M159.763 198.552H156.215C155.051 198.552 154.381 198.902 153.271 198.902C152.161 198.902 151.089 199.062 150.638 199.563C150.187 200.064 150.186 202.082 150.186 202.082C150.186 202.082 150.277 203.626 150.185 204.259C150.094 204.892 150.415 205.824 150.867 206.544C151.319 207.263 153.232 207.077 153.989 207.054C154.381 207.042 156.074 206.905 157.613 206.776C159.043 206.657 158.743 206.544 160.341 206.544C161.154 206.544 162.681 206.604 164.136 206.663C165.543 206.72 166.881 206.776 167.439 206.776C167.956 206.776 168.954 207.131 170.109 207.054C171.489 206.962 173.034 206.843 173.439 206.544C173.784 206.29 174.079 205.56 174.108 204.509C174.143 203.291 173.842 203.042 173.837 202.082C173.833 201.122 173.583 199.563 173.087 199.334C172.591 199.105 172.133 198.702 170.567 198.552C169.001 198.401 168.163 198.902 166.728 198.902C165.293 198.902 163.891 198.552 162.99 198.552H159.763Z" fill="#FFFBFA" stroke="#3D3131" stroke-width="3" stroke-linecap="round"/>
<ellipse cx="13.5489" cy="18.8826" rx="13.5489" ry="18.8826" transform="matrix(0.998204 0.059909 -0.0158165 0.999875 133.97 115.725)" fill="#FFFBFA" stroke="#3D3131" stroke-width="3"/>
<ellipse cx="13.5486" cy="18.8826" rx="13.5486" ry="18.8826" transform="matrix(0.997816 0.0660557 -0.0223505 0.99975 99.8904 116.034)" fill="#FFFBFA" stroke="#3D3131" stroke-width="3"/>
<path d="M147.295 147.915C153.989 147.831 155.725 140.815 155.848 135.426L139.204 135.103C139.081 140.492 140.6 148 147.295 147.915Z" fill="#3D3131"/>
<path d="M112.8 147.245C119.495 147.16 121.231 140.145 121.354 134.756L104.709 134.432C104.587 139.821 106.106 147.33 112.8 147.245Z" fill="#3D3131"/>
<path d="M99.8079 133.539L126.32 134.054" stroke="#3D3131" stroke-width="3"/>
<path d="M134.306 134.209L160.818 134.724" stroke="#3D3131" stroke-width="3"/>
<path d="M128.798 155.698C129.402 156.596 129.783 157.66 129.915 158.89C130.563 164.93 125 168 116.5 168.5C110.008 168.882 104.5 168 99.5 164.5C94.5 161 92.9999 156.631 92.5 153C92 149.369 93.3732 145.21 95.9396 149.369C96.3775 150.079 96.9011 150.726 97.5001 151.301C99.5213 153.242 102.401 154.371 105.748 154.371C110.086 154.371 115.3 151.523 121.447 152.124C124.868 152.458 127.417 153.646 128.798 155.698Z" fill="#FFFBFA"/>
<path d="M128.798 155.698C125.298 154.069 122.5 155.643 119.5 156.5C116.5 157.357 109.94 159.734 105 158.89C100.061 158.047 98.5001 155 97.5001 151.301M129.915 158.89C129.481 154.85 126.365 152.605 121.447 152.124C115.3 151.523 110.086 154.371 105.748 154.371C101.409 154.371 97.8556 152.474 95.9396 149.369C93.3732 145.21 92 149.369 92.5 153C92.9999 156.631 94.5 161 99.5 164.5C104.5 168 110.008 168.882 116.5 168.5C125 168 130.563 164.93 129.915 158.89Z" stroke="#3D3131" stroke-width="3" stroke-linecap="round"/>
<path d="M129.5 159C126.5 157 122 160.5 117.5 162C114 163.167 106 165.5 99.5 160C97.277 158.119 94.5 153.5 94.5 150" stroke="#3D3131" stroke-width="3" stroke-linecap="round"/>
<path d="M155.259 153.615C150.072 153.615 146.362 150.66 140.386 151.026C136.002 151.294 133.028 153.102 132.122 156.5C132.04 156.808 131.974 157.129 131.927 157.463C131.825 158.176 131.87 158.356 131.927 159C132.346 163.782 136.995 166.406 144.075 167.242C150.5 168 154.5 167.242 159 164.5C163.5 161.758 166.903 157.348 168 154.5C170.012 149.277 167.711 145.219 165.067 149.277C164.592 150.006 164.079 150.635 163.5 151.17C161.673 152.86 159.199 153.615 155.259 153.615Z" fill="#FFFBFA"/>
<path d="M132.122 156.5C132.04 156.808 131.974 157.129 131.927 157.463C131.825 158.176 131.87 158.356 131.927 159M132.122 156.5C133.028 153.102 136.002 151.294 140.386 151.026C146.362 150.66 150.072 153.615 155.259 153.615C160.446 153.615 163.093 152.306 165.067 149.277C167.711 145.219 170.012 149.277 168 154.5C166.903 157.348 163.5 161.758 159 164.5C154.5 167.242 150.5 168 144.075 167.242C136.995 166.406 132.346 163.782 131.927 159M132.122 156.5C133.286 156 136.05 155.5 138 155.5C142 155.5 146.435 157.984 151.5 157.463C156 157 161.5 154.5 163.5 151.17M131.927 159C134.14 158.5 138.156 159.707 141 161C146.5 163.5 151.5 163.5 157 161C162.5 158.5 166.5 151.5 166.5 149.277" stroke="#3D3131" stroke-width="3" stroke-linecap="round"/>
<path d="M83.4017 223.258C83.5572 224.696 82.81 228.299 79.1455 227.309C77.7183 226.923 73.7296 227.507 69.4854 226.917C66.6901 226.964 64.0791 226.945 60.9647 226.917C58.3054 226.894 55.5067 226.719 53.0633 226.719C50.6198 226.719 48.9611 226.56 47.2672 226.116C45.3448 225.612 43.6665 225.002 42.6788 223.204C41.1891 220.492 40.8964 219.125 42.6788 215.818C43.5122 214.272 45.4689 212.524 46.7235 210.895C47.3954 210.023 48.2464 208.638 48.9853 207.776C50.6119 205.878 52.6119 204.116 54.2711 202.451C56.0049 200.711 57.3901 199.086 58.7114 197.882C59.653 197.024 60.4317 196.339 60.9647 195.879C62.0866 194.909 63.0468 193.652 65.1815 191.653C65.8679 191.01 67.5121 189.829 68.2309 189.158C69.7508 187.739 71.1602 186.206 72.5797 184.927C74.1258 183.534 75.6569 182.424 76.6712 181.644V193.681C75.9098 194.642 74.6854 196.163 73.4292 197.198C71.7949 198.544 68.8373 201.117 68.0448 202.079C67.4507 202.801 66.8464 203.506 64.6123 205.835C63.2807 207.223 61.4934 208.71 60.1005 210.153C58.8193 211.481 57.9221 212.777 56.9054 213.839C55.4131 215.397 54.587 215.806 54.4817 216.367C54.265 217.523 54.3408 218.07 55.9366 218.441C56.9457 218.676 58.4872 218.596 60.0218 218.516L60.1005 218.512C61.0006 218.465 61.8752 218.676 62.6553 218.697C65.7051 218.778 68.3536 218.441 69.1092 218.441C70.071 218.441 71.7379 218.702 73.6894 218.697C74.9841 218.693 76.4842 218.419 77.8153 218.512C80.0465 218.667 82.2652 218.979 83.4017 219.697V223.258Z" fill="#FFFBFA" stroke="#3D3131" stroke-width="3" stroke-linejoin="round"/>
<path d="M222.615 151.382C222.321 149.555 221.52 145.55 222.225 143.436C223.106 140.792 219.68 138.503 218.518 136.919C217.357 135.335 217.063 132.148 218.996 130.898C222.615 128.557 225.615 132.592 226.596 134.578C227.577 136.564 227.119 140.514 229.469 139.828C231.819 139.143 236.047 136.033 239.941 134.578C243.804 133.134 249.969 131.924 252.674 134.149C254.258 135.452 253.947 136.499 253.654 136.793" stroke="#3D3131" stroke-width="3" stroke-linecap="round" stroke-linejoin="round"/>
<path d="M238.146 141.368C239.451 140.617 242.291 139.046 245.135 138.262C247.979 137.479 252.283 136.696 254.143 137.479C256.004 138.262 256.78 139.724 256.486 140.899" stroke="#3D3131" stroke-width="3" stroke-linecap="round" stroke-linejoin="round"/>
<path d="M243.47 144.333C244.818 143.592 247.175 142.817 248.877 142.226C250.985 141.494 254.268 140.286 256.089 142.577C257.397 144.223 256.522 147.535 252.312 148.319C248.977 148.939 245.764 152.14 242.894 153.556C241.588 154.2 236.329 156.394 234.431 156.73C235.207 157.09 235.546 157.845 235.478 158.714C235.399 159.713 234.247 161.308 231.92 161.073C230.119 160.891 228.473 160.233 227.202 159.797C224.633 158.917 223.223 158.02 222.561 157.322C222.007 156.737 220.578 155.815 219.699 154.731C219.009 153.879 219.143 152.889 219.699 152.14C220.742 150.735 222.122 151.146 222.561 151.366" stroke="#3D3131" stroke-width="3" stroke-linecap="round" stroke-linejoin="round"/>
<path d="M83.8748 215.047L86.6264 217.071H91.5768L93.9367 216.132L102.28 215.539L109.469 215.877L116.323 217.902L117.932 223.146L116.323 227.922H100.28H82.4212L81.0194 224.34L81.902 215.877L83.8748 215.047Z" fill="#FFFBFA"/>
<path d="M86.7972 217.433C86.6231 216.679 86.0763 215.613 84.9537 215.214C83.9098 214.844 82.6071 215.054 81.6738 215.721C79.2246 217.47 80.2905 225.472 80.4584 226.227C80.5156 226.485 81.533 227.611 82.7982 227.657C84.5036 227.72 86.7633 227.645 88.113 227.58C93.2905 227.58 101.163 227.58 103.38 227.58C106.15 227.58 112.438 228.473 112.438 224.506C112.438 220.54 106.518 220.749 104.923 220.749C104.923 220.749 102.267 220.749 99.8964 221.146" stroke="#3D3131" stroke-width="3" stroke-linecap="round" stroke-linejoin="round"/>
<path d="M106.742 227.935C106.742 227.935 110.112 228.212 114.532 227.274C118.952 226.337 118.602 221.796 117.217 219.568C116.057 217.702 113.182 216.586 108.269 216.269C105.191 215.939 95.1645 216.227 93.214 216.587C90.8588 217.021 88.2309 217.563 86.8467 218.142" stroke="#3D3131" stroke-width="3" stroke-linecap="round" stroke-linejoin="round"/>
</svg>
