<svg width="223" height="60" viewBox="0 0 223 60" fill="none" xmlns="http://www.w3.org/2000/svg">
<path d="M221.384 27.7059C221.224 29.6782 220.068 30.0512 220.068 31.6557C220.068 34.009 217.974 34.8192 217.286 36.2223C216.401 38.0298 214.734 38.9273 213.382 39.8592C211.353 41.2579 210.572 41.9143 207.45 42.2276C206.509 42.322 205.012 43.5063 203.97 43.5651C201.901 43.6816 201.976 43.4179 199.497 43.5651C199.153 43.5855 198.061 43.9439 197.979 44.4487C197.898 44.9535 197.923 45.1171 198.741 46.0549C199.396 46.8055 200.041 47.0436 201.081 47.9027C202.06 48.7116 203.202 49.5187 204.415 50.4254C205.396 51.1585 206.377 52.4111 207.45 53.2091C207.885 53.5326 208.846 54.2103 209.29 54.5445C210.199 55.2294 211.123 55.9369 212.046 56.6673C212.51 57.035 212.309 57.6555 212.309 58.446C212.068 58.5265 211.093 58.6549 210.625 58.6595C209.752 58.6681 209.255 58.4855 208.785 58.446C207.173 58.3108 206 57.8565 203.493 57.1717C202.991 57.0346 200.808 56.6575 200.286 56.5026C199.137 56.1613 197.931 55.6014 196.729 55.185C194.801 54.517 194.529 54.1697 192.659 53.3592C192.271 53.1911 191.541 52.6565 191.162 52.4839C189.483 51.7196 187.319 50.7044 185.924 49.8816C184.655 49.1325 184.469 48.9429 183.582 48.1838C182.807 47.8639 182.133 47.3143 181.621 47.1275C180.651 47.1275 180.421 47.3173 180.03 47.3765C179.177 47.5053 178.316 47.6318 177.446 47.7561C176.427 47.9018 174.509 48.4063 173.467 48.5457C171.212 48.8474 168.105 47.8032 165.75 48.0744C163.899 48.2874 163.008 48.4808 161.099 48.6742C159.799 48.8058 158.487 48.9328 157.162 49.055C155.56 49.2028 153.075 50.0615 150.974 50.1425C149.196 50.211 147.907 50.0395 146.496 50.1425C144.841 50.2632 144.776 50.0362 143.088 50.1425C139.831 50.3475 138.195 50.8197 134.828 50.9686C132.209 51.0844 128.961 50.8882 126.282 50.9686C124.172 51.032 120.963 51.0842 118.82 51.1249C116.531 51.1684 115.426 50.9516 113.102 50.9686C112.541 50.9727 110.483 51.1687 109.56 51.1041C108.081 51.0005 106.426 50.8624 105.519 50.8624C103.558 50.8624 103.599 51.2275 101.679 51.2187C98.4496 51.2037 94.6088 50.9029 91.5001 50.8624C86.7888 50.8011 86.3302 51.2187 78.4732 50.8624C75.7956 50.789 74.3227 50.4136 71.7595 50.3178C69.8693 50.2471 63.5874 50.489 60.7033 50.3178C58.5853 50.192 58.6626 49.9399 57.1571 49.8702C53.6276 49.7067 53.154 49.8297 52.1877 49.6527C50.3862 49.529 47.4418 49.751 45.6236 49.6527C43.5609 49.5412 42.6349 49.1079 40.7965 48.9307C39.8144 48.8361 39.2778 48.5651 38.3281 48.4648C36.146 48.2344 34.0499 47.9889 32.043 47.7282C27.876 47.1868 27.4446 47.4714 24.8152 46.9866C23.7336 46.7871 22.3289 46.5863 21.3032 46.3685C19.3567 45.9554 18.0252 45.1022 16.2804 44.6193C15.477 44.397 13.8846 44.4697 13.0862 44.1794C11.7821 43.7052 11.3179 42.869 10.3797 42.699C8.8671 42.4249 8.17782 41.8114 7.16331 41.3331C6.53298 41.0359 5.41429 40.5557 4.95302 39.7032C4.49833 38.8628 4.15745 37.9563 3.62058 37.6392C2.47529 36.9628 2.06778 34.6709 1.66331 33.3331C0.991931 31.1124 1 29.5165 1 27.732C1 26.7705 2.26706 24.2408 2.26706 22.1489C2.08614 20.6208 3.96051 18.2826 4.95302 17.2607C5.65808 16.5348 6.70254 16.3766 7.32673 15.6785C8.36572 14.5165 8.99969 13.5936 9.41089 13.3032C10.2164 12.7344 10.6663 11.9754 11.7131 11.5739C13.306 10.963 15.2803 9.56764 17 9.30711C18.5279 9.07563 18.2331 8.95426 19.6603 8.84759C20.497 8.78506 22.527 7.63931 23.4855 7.53068C25.7211 7.27731 26.8159 6.94424 28.4678 6.74452C29.6343 6.60349 30.6436 6.39745 31.6949 6.10402C32.6577 5.94837 35.0504 5.89089 36.0363 5.74117C38.4928 5.36812 40.4071 5.37651 43.0001 5.04164C45.5706 4.70968 48.2059 4.39697 50.901 4.1045C52.5779 3.92253 55.435 3.33363 57.1571 3.16756C60.8908 2.80752 63.571 2.90017 67.5001 2.61841C69.1969 2.49673 70.3314 2.09374 72.3114 1.98731C74.2396 1.88365 77.0078 2.07614 79.0701 1.98731C80.5369 1.92412 80.6078 1.64924 82.0851 1.59371C84.21 1.51382 87.7341 1.65742 89.7602 1.59371C91.5132 1.53858 93.2026 1.48957 94.7825 1.44681C100.018 1.30509 104.138 0.661497 107.5 1.23197C109.249 1.23197 112.438 1.22304 114.163 1.23198C117.764 1.25066 119.861 1.30207 123.352 1.35836C125.221 1.38849 127.698 1.40632 129.533 1.44681C133.1 1.52549 136.959 1.641 140.393 1.75719C142.289 1.82132 145.139 1.68213 146.992 1.75719C151.402 1.9358 153.733 2.35374 157.887 2.59083C158.736 2.63931 160.26 2.54003 161.099 2.59083C164.557 2.80046 167.239 3.17864 170.498 3.42606C173.023 3.61767 175.144 4.03293 177.885 4.03293C181.621 4.03293 184.839 4.68448 188.095 5.04165C189.386 5.18317 190.834 5.58053 192.074 5.7471C195.173 6.16359 196.734 6.69774 199.497 7.29137C201.74 7.77321 203.873 8.72457 205.879 9.34066C206.914 10.2999 208.972 10.8532 210.394 11.6388C212.472 12.7874 215.048 13.8287 216.333 15.2658C217.01 16.0222 217.589 16.8048 218.085 17.5991C219.448 19.7824 219.414 18.916 220.449 21.1055C220.815 21.8799 221.384 26.5229 221.384 27.7059Z" stroke="#3D3131" stroke-width="2" stroke-linejoin="round"/>
</svg>
