<svg width="140" height="168" viewBox="0 0 140 168" fill="none" xmlns="http://www.w3.org/2000/svg">
<path d="M35.6948 86.2713H30.2051L40.2459 159.082H77.9428H90.156L101.256 86.2713C100.514 86.3956 98.7479 86.5697 97.6154 86.2713C96.1997 85.8983 93.975 86.2713 92.9638 86.2713C91.9526 86.2713 89.6605 86.6443 88.8515 86.6443C88.0426 86.6443 87.6381 86.2713 86.0876 86.6443C84.537 87.0173 83.3236 85.8353 81.9753 85.5656C80.627 85.296 78.4024 86.2713 77.2563 86.2713H70.5149H64.7173H57.6388H50.8974H44.6279C43.347 86.2713 40.9201 86.9813 40.2459 86.2713C39.5718 85.5612 37.0256 86.2713 35.6948 86.2713Z" fill="#219653"/>
<path d="M104.465 69.7943C104.81 66.5349 103.885 64.2431 103.314 61.7032C102.74 59.1437 102.17 56.7527 101.036 54.3039C100.502 53.1498 100.274 52.0953 99.6332 51.0047C98.5452 49.1535 96.9471 47.3288 95.5805 45.6856C93.8814 43.6425 91.9811 41.7724 89.9148 40.1058C89.4685 39.7458 89.1345 39.2246 88.6731 38.8838C87.3896 37.9362 85.929 37.2352 84.5389 36.4457C82.5008 35.2883 80.6209 34.2646 78.3748 33.4853C76.255 32.7498 73.9298 32.3759 71.6615 32.014C69.6463 31.6925 67.5069 31.2562 65.4012 31.2562C60.236 31.2562 55.3826 32.0764 50.8716 33.9014C50.2601 34.1488 49.774 34.6816 49.1784 34.9587C46.1377 36.3732 43.31 38.1684 40.7564 40.2832C39.812 41.0653 38.991 41.9184 38.1247 42.7849C37.0644 43.8454 35.5291 44.8691 34.5962 46.0455C33.6876 47.1912 33.2919 48.4596 32.5147 49.7047C31.3185 51.6211 30.2841 53.649 29.4308 55.7693C29.1204 56.5406 28.5926 57.2657 28.331 58.0606C28.123 58.6927 28.172 59.3904 27.9959 60.0363C27.1036 63.3096 26.693 66.1718 26.693 69.7279" stroke="#3D3131" stroke-width="3" stroke-linecap="round" stroke-linejoin="round"/>
<path d="M22.3922 70.3107C22.7555 70.165 23.5605 70.0803 23.5605 70.0803L29.2772 69.9853L41.175 70.1955H44.3669L61.6759 70.6583L65.1733 70.3107L84.1585 69.9853L86.5638 70.3107L106.511 70.0722L107.954 70.3107L108.247 72.3725L107.954 77.8412L107.466 78.8976L102.127 78.6515L95.8205 78.8399L83.6867 78.8976L79.2785 78.6515L73.221 79.3603L61.6759 78.8976L59.419 79.0131L43.4034 78.7822L39.0198 79.0131L32.249 78.7822L29.9486 78.5357L22.8453 78.7822L22.1668 75.9304L22.3922 74.158L22.1668 71.4989C22.1668 71.4989 22.029 70.4563 22.3922 70.3107Z" stroke="#3D3131" stroke-width="3" stroke-linecap="round" stroke-linejoin="round"/>
<path d="M29.1689 78.7821L29.8142 85.4033L30.9915 90.66L31.9608 101.318L32.4328 104.386L33.5656 107.737L34.334 115.331L35.5226 122.41L36.3767 126.407L37.7108 140.331L38.711 143.821L39.9212 153.893L40.8987 161.216L41.3039 164.852L42.1118 166.039H47.338H50.7544L53.8272 165.759L55.9645 166.039L63.633 166.308L71.3142 166.039H76.3837L77.7673 166.308H86.6415L89.3166 166.039L90.5677 159.154L90.8749 156.969L92.514 145.409L95.3608 130.312L96.0913 124.107L97.3449 117.027L99.188 104.144L99.9705 99.3187L100.883 88.6247L102.024 78.7821" stroke="#3D3131" stroke-width="3" stroke-linecap="round" stroke-linejoin="round"/>
<path d="M46.1118 158.414L47.6289 158.593L59.3244 158.265L63.0744 158.414L73.1293 158.265L75.7621 158.414" stroke="#3D3131" stroke-width="3" stroke-linecap="round" stroke-linejoin="round"/>
<path d="M80.4216 158.414L81.6416 158.294L83.2879 158.414L85.081 158.414" stroke="#3D3131" stroke-width="3" stroke-linecap="round" stroke-linejoin="round"/>
<path d="M35.0994 86.4064L37.7583 86.2317L41.7538 86.4064L49.7135 86.5778L52.4659 86.4064H57.2012L63.4305 86.5778L69.8325 86.4064" stroke="#3D3131" stroke-width="3" stroke-linecap="round" stroke-linejoin="round"/>
<path d="M74.9153 86.4065L76.5431 86.284L77.8271 86.4065H79.151" stroke="#3D3131" stroke-width="3" stroke-linecap="round" stroke-linejoin="round"/>
<path d="M83.3865 86.4064L85.9296 86.5355L87.1103 86.4064H89.1047L90.8494 86.5355L92.7927 86.2157L94.823 86.4064" stroke="#3D3131" stroke-width="3" stroke-linecap="round" stroke-linejoin="round"/>
<path d="M63.688 98.7447L64.9375 92.6784L66.593 86.4121L67.2714 81.625L67.8199 79.5217L68.7078 77.4751L69.323 72.3807L70.2516 67.3013L70.8096 63.0942L74.4044 48.0188L74.8094 46.9726L75.7077 43.0998L76.0273 39.6383L76.8107 34.3997L77.184 32.1723L78.0021 26.6494L72.1843 25.5012L71.6919 28.0366L70.9075 30.6668L70.3862 34.6124L68.7164 42.0613L68.588 43.7237L68.1609 45.3706L66.8756 50.8084L66.7899 52.8349L65.115 60.1368L64.9918 61.9461L64.1925 66.0004L62.998 71.389L62.6611 75.5706L61.7139 77.6012L61.4994 79.897L60.5659 83.5824L59.0995 91.0282L57.5822 97.9205L57.0406 99.9249" stroke="#3D3131" stroke-width="3" stroke-linecap="round" stroke-linejoin="round"/>
<path d="M105.927 2.54517L107.212 4.55686L108.327 6.54608L108.042 7.85092L105.643 9.1622L101.259 11.1479L97.007 13.8354L91.994 16.3032L88.6122 18.577L85.8101 19.9322L83.3082 21.3674L82.3722 21.4301L80.0039 17.1071L79.9294 15.9955L82.2906 14.4162L84.3599 13.4653L91.5401 9.53263L94.2073 7.93268L98.5317 5.81559L102.637 3.44248L104.766 2.38784L105.927 2.54517Z" stroke="#3D3131" stroke-width="3" stroke-linecap="round" stroke-linejoin="round"/>
<path d="M80.1641 23.4065L78.3625 26.295L72.4484 24.9664L74.4688 20.2695L80.1641 23.4065Z" stroke="#3D3131" stroke-width="3" stroke-linecap="round" stroke-linejoin="round"/>
<path d="M82.0665 21.5411L80.4268 23.4854L74.5268 20.3804L79.0913 16.527L82.0665 21.5411Z" stroke="#3D3131" stroke-width="3" stroke-linecap="round" stroke-linejoin="round"/>
<path d="M57.59 99.9449C56.3916 100.406 54.4463 101.683 53.369 102.336C51.3638 103.55 50.7426 104.389 49.274 106.156C48.3481 107.269 47.4057 109.126 46.5897 110.987C45.972 112.395 45.5786 114.226 45.2461 115.281C44.6709 117.104 44.9089 116.981 44.9089 118.982C44.8108 120.075 44.6476 121.745 45.0712 123.424C45.3559 124.552 46.0715 125.607 46.628 126.786C47.0336 127.645 46.7355 127.412 47.2987 128.219C48.0525 129.299 49.732 131.387 50.7914 132.234L51.4691 132.83L52.0139 133.533C52.0139 134.082 52.3809 134.483 52.447 135.195C52.5671 136.49 52.2261 136.932 52.0139 138.202C51.8017 139.473 51.7046 140.526 51.256 141.744C50.8044 142.971 50.669 143.499 50.5706 144.489C50.5303 144.894 50.9777 145.57 51.0581 145.915L52.2261 146.465L59.012 147.221L60.9173 147.44H66.0921L71.4455 147.221H73.453H78.3156L79.5046 146.743L80.4265 145.6V143.664L80.1831 141.368L79.5046 139.716L79.2305 138.202L78.71 136.52V135.195L79.2305 133.289C80.3181 132.408 82.187 130.996 83.7019 129.066C84.9058 127.532 85.7969 125.625 86.5335 123.724C87.1315 122.181 87.2209 120.644 87.2209 118.982C87.2209 118.231 87.4545 117.314 87.2209 116.164C86.9474 114.817 86.1874 113.229 85.9782 112.411C85.5205 110.62 85.4581 110.763 84.5311 109.196C83.9137 108.153 83.3715 107.073 82.5743 106.156C81.7859 105.248 80.7443 104.501 79.802 103.737C78.8839 102.993 77.8073 102.484 76.7636 101.896C75.9853 101.457 75.2655 100.902 74.4271 100.559C72.9267 99.9448 71.4864 99.3424 69.8312 99.0708C68.6509 98.8771 67.2881 98.9244 66.0501 98.9244C64.6623 98.9244 63.0689 98.9832 61.6925 99.2054C60.2841 99.4327 58.8297 99.468 57.59 99.9449Z" fill="#FFFBFA" stroke="#3D3131" stroke-width="3" stroke-linejoin="round"/>
<path d="M77.7443 121.457C77.8639 121.749 77.9991 122.274 78.069 122.575C78.1386 122.875 78.2456 123.152 78.2683 123.454C78.3678 124.136 78.2485 124.169 78.2217 124.495C78.1967 124.798 78.2089 125.027 78.1401 125.308C78.0777 125.563 78.0449 125.957 77.892 126.262C77.7275 126.59 77.4398 126.827 77.2959 127.051C77.1092 127.342 76.8777 127.415 76.6275 127.653C76.3922 127.876 76.2532 128.121 75.9642 128.29C75.6736 128.459 75.4617 128.482 75.1193 128.588C74.7788 128.742 74.4469 128.687 74.1646 128.728C73.7384 128.79 73.4163 128.923 73.0275 128.894C72.8216 128.878 72.7224 128.748 72.4341 128.652C72.2143 128.578 71.797 128.539 71.6551 128.495C71.3674 128.406 71.0931 128.253 70.8338 128.111C70.5271 127.942 70.6396 127.9 70.3746 127.663C70.1921 127.5 70.0198 127.321 69.8581 127.128C69.716 126.958 69.5177 126.805 69.3922 126.614C69.2996 126.472 69.2759 126.298 69.1926 126.145C69.0778 125.935 68.9241 125.452 68.8274 125.222C68.7424 125.02 68.7125 125.075 68.6419 124.858C68.5519 124.583 68.4186 124.396 68.3526 124.099C68.2986 123.856 68.3078 123.505 68.2704 123.248C68.2062 122.809 68.0905 122.812 68.062 122.392C68.0315 121.944 68.0908 121.073 68.1075 120.655C68.1204 120.331 68.0649 120.265 68.11 119.964C68.161 119.623 68.1299 119.274 68.2495 118.901C68.3443 118.606 68.5821 118.276 68.6899 118.06C68.8842 117.671 69.1238 117.392 69.4302 117.101C69.6983 116.846 69.9477 116.539 70.3083 116.396C70.668 116.254 71.0059 116.133 71.4728 116.065C72.2772 115.948 72.4999 116.086 73.1126 116.311C73.4303 116.427 73.4481 116.349 73.6938 116.479C74.0812 116.683 74.6652 117.132 75.066 117.603C75.4634 118.07 75.3885 117.832 75.8331 118.506C75.9598 118.698 76.2182 118.933 76.4196 119.297C76.5787 119.585 76.6704 119.997 76.8534 120.224C77.3939 120.893 77.4414 120.995 77.7443 121.457Z" fill="#3D3131"/>
<path d="M54.0707 121.671C53.9647 121.968 53.8537 122.499 53.7976 122.803C53.7418 123.106 53.6475 123.387 53.6387 123.69C53.5705 124.376 53.6912 124.404 53.7329 124.728C53.7717 125.029 53.77 125.258 53.8516 125.536C53.9256 125.788 53.9764 126.18 54.1431 126.478C54.3224 126.798 54.6207 127.021 54.7747 127.239C54.9745 127.521 55.2091 127.584 55.4699 127.809C55.7152 128.022 55.8653 128.26 56.1617 128.415C56.4597 128.571 56.6724 128.584 57.0194 128.675C57.3665 128.813 57.6955 128.742 57.9794 128.77C58.408 128.813 58.7359 128.932 59.1229 128.884C59.3278 128.859 59.4211 128.725 59.7046 128.615C59.9209 128.532 60.3359 128.474 60.4757 128.423C60.7589 128.321 61.0259 128.156 61.2785 128.002C61.5772 127.82 61.4628 127.782 61.7167 127.533C61.8915 127.362 62.0555 127.176 62.2082 126.975C62.3424 126.799 62.5334 126.637 62.6501 126.44C62.7361 126.295 62.7518 126.119 62.8281 125.963C62.9331 125.748 63.0646 125.258 63.1506 125.024C63.2262 124.819 63.2587 124.872 63.3193 124.652C63.3966 124.373 63.5212 124.181 63.5735 123.881C63.6164 123.635 63.5911 123.285 63.6168 123.027C63.6607 122.585 63.7764 122.583 63.7857 122.162C63.7957 121.713 63.6966 120.846 63.6608 120.429C63.633 120.106 63.6855 120.037 63.6267 119.739C63.5601 119.401 63.5752 119.051 63.4386 118.683C63.3304 118.393 63.0778 118.074 62.9602 117.863C62.7483 117.484 62.4962 117.216 62.1768 116.939C61.8973 116.697 61.6342 116.402 61.2674 116.275C60.9016 116.15 60.5585 116.045 60.089 115.998C59.28 115.918 59.0639 116.066 58.4621 116.318C58.1501 116.449 58.1287 116.372 57.8892 116.513C57.5116 116.735 56.9487 117.21 56.5699 117.699C56.1944 118.184 56.2582 117.943 55.845 118.636C55.7272 118.833 55.4797 119.08 55.2952 119.453C55.1495 119.748 55.0768 120.164 54.9043 120.399C54.395 121.091 54.3522 121.196 54.0707 121.671Z" fill="#3D3131"/>
<path d="M58.9211 139.884L58.8302 140.383L58.9211 141.257L58.7483 142.075V143.426L58.5437 144.694V145.349L58.4004 146.154" stroke="#3D3131" stroke-width="3" stroke-linecap="round"/>
<path d="M66.0595 139.897L65.9253 140.94L66.0595 141.815L65.9254 142.842L66.0595 144.052L65.9253 145.396L66.0595 146.253" stroke="#3D3131" stroke-width="3" stroke-linecap="round"/>
<path d="M72.5115 139.799L72.9609 140.999L72.9597 143.233L73.4543 144.78L73.6595 146.352" stroke="#3D3131" stroke-width="3" stroke-linecap="round"/>
<path d="M90.6973 99.6843L89.776 100.178L87.3721 101.782L85.7247 103.164L84.9718 103.413L83.7029 104.261L82.734 104.686L82.1284 104.997L82.4313 104.841L81.9529 105.327L84.9718 109.733C84.9718 109.733 86.0449 109.221 86.6809 108.865C87.4575 108.43 88.0962 107.916 88.4673 107.699C89.0765 107.343 89.5288 106.86 90.115 106.513C90.6946 106.308 91.4751 105.701 92.1028 105.315C92.632 105.158 93.938 104.224 94.4809 103.864C95.1519 103.42 95.147 103.32 95.5901 102.961C96.3734 103.864 96.7132 103.979 97.7943 104.438C98.3998 104.695 98.8742 104.706 99.5461 104.686C99.9742 104.673 100.64 104.931 101.069 104.686C101.165 104.51 101.881 104.273 102.212 104.057C102.681 103.751 103.323 103.394 103.427 102.961C103.649 102.479 104.015 102.804 104.204 101.954C104.305 101.502 104.662 101.436 104.624 100.733C105.038 99.8796 105.052 99.1388 104.794 98.3801C104.604 97.8214 104.324 97.1426 103.913 96.9227C103.621 96.4134 103.29 96.1698 102.853 95.9325C102.454 95.7162 102.231 95.4906 101.57 95.4383C101.028 95.4674 100.569 95.2577 100.056 95.2656C99.6179 95.2723 99.0258 95.2615 98.7511 95.4342C98.352 95.6851 98.225 95.6831 97.7943 95.9325C98.422 94.7716 98.2701 92.6602 97.7943 92.3229C97.6073 92.1904 97.0156 91.498 96.9372 91.2104C96.5439 90.8249 95.4 90.3767 95.0914 90.3932C94.7609 90.0438 93.6826 90.2217 93.1806 90.3932C92.4941 90.1792 92.7956 90.4264 92.3451 90.5019C91.9475 90.5685 91.5112 90.9165 91.1775 90.8642C90.7765 90.8856 90.4463 91.2717 90.1151 91.567C89.7461 91.8961 89.4071 92.7453 88.967 93.1159C88.6675 93.5546 89.0494 94.1079 88.967 94.5753C88.8982 94.9651 88.7244 95.3373 88.8911 95.772C89.0579 96.2068 88.9812 96.6568 89.1014 97.0877C89.1832 97.3809 89.1359 97.7326 89.4152 97.9453C89.7174 98.6031 90.1467 99.203 90.6973 99.6843Z" fill="#FFFBFA"/>
<path d="M81.9449 105.335L82.4313 104.841L82.1284 104.997L82.734 104.686L83.7029 104.261L84.9718 103.413L85.7247 103.164L87.3721 101.782L89.776 100.178L90.6973 99.6843C90.1467 99.203 89.7174 98.6031 89.4152 97.9453C89.1359 97.7325 89.1832 97.3809 89.1014 97.0877C88.9812 96.6568 89.0579 96.2068 88.8911 95.772C88.7244 95.3373 88.8982 94.9651 88.967 94.5753C89.0494 94.1079 88.6675 93.5546 88.967 93.1159C89.4071 92.7453 89.7461 91.8961 90.1151 91.567C90.4463 91.2717 90.7765 90.8856 91.1775 90.8642C91.5112 90.9165 91.9475 90.5685 92.3451 90.5019C92.7956 90.4264 92.4941 90.1792 93.1806 90.3932C93.6826 90.2217 94.7609 90.0438 95.0914 90.3932C95.4 90.3767 96.5439 90.8249 96.9372 91.2104C97.0156 91.498 97.6073 92.1904 97.7943 92.3229C98.2701 92.6602 98.422 94.7716 97.7943 95.9325C98.225 95.6831 98.352 95.6851 98.7511 95.4342C99.0258 95.2615 99.6179 95.2723 100.056 95.2656C100.569 95.2577 101.028 95.4674 101.57 95.4383C102.231 95.4906 102.454 95.7162 102.853 95.9325C103.29 96.1698 103.621 96.4134 103.913 96.9227C104.324 97.1426 104.604 97.8214 104.794 98.3801C105.052 99.1388 105.038 99.8796 104.624 100.733C104.662 101.436 104.305 101.502 104.204 101.954C104.015 102.804 103.649 102.479 103.427 102.961C103.323 103.394 102.681 103.751 102.212 104.057C101.881 104.273 101.165 104.51 101.069 104.686C100.64 104.931 99.9742 104.673 99.5461 104.686C98.8742 104.706 98.3998 104.695 97.7943 104.438C96.7132 103.979 96.3734 103.864 95.5901 102.961C95.147 103.32 95.1519 103.42 94.4809 103.864C93.938 104.224 92.632 105.158 92.1028 105.315C91.4751 105.701 90.6946 106.308 90.115 106.513C89.5288 106.86 89.0765 107.343 88.4673 107.699C88.0962 107.916 87.4575 108.43 86.6809 108.865C86.0449 109.221 84.9718 109.733 84.9718 109.733M85.3362 109.421L85.7247 109.329L84.9718 109.733M84.9718 109.733L81.9449 105.315" stroke="#3D3131" stroke-width="3" stroke-linecap="round" stroke-linejoin="round"/>
<path d="M42.4859 99.783L43.3714 100.338L45.6607 102.102L47.2103 103.593L47.9446 103.892L49.1529 104.824L49.8002 105.237L46.7479 109.933C46.2363 109.581 46.4791 109.614 45.8688 109.215C45.1236 108.729 44.5213 108.173 44.1658 107.931C43.5822 107.534 43.1638 107.022 42.6026 106.635C42.0382 106.392 41.3007 105.733 40.7008 105.305C40.1834 105.113 38.944 104.092 38.4268 103.696C37.7875 103.207 37.7993 103.108 37.3816 102.719C36.8434 103.77 35.8845 104.563 34.7748 104.947C34.1531 105.163 33.9414 105.303 33.2724 105.237C32.8462 105.195 32.1557 105.16 31.7434 104.887C31.6603 104.705 30.8799 104.534 30.5644 104.296C30.1178 103.958 29.4069 103.413 29.3333 102.973C29.1446 102.477 28.6371 102.17 28.5059 101.309C28.4361 100.851 28.0846 100.761 28.1699 100.063C27.8153 99.1827 28.101 98.157 28.4097 97.4177C28.6371 96.8731 28.9629 96.2149 29.3875 96.0235C29.7137 95.5352 30.1614 95.4206 30.6138 95.2136C31.0262 95.0248 31.2638 94.8149 31.9266 94.8077C32.4655 94.8735 32.9379 94.6956 33.4488 94.7383C33.8858 94.7748 34.4773 94.8043 34.7396 94.9953C35.1207 95.2727 35.6581 95.3602 36.071 95.6383C35.5235 94.4374 35.9498 92.8048 36.4475 92.5006C36.6429 92.3811 37.0161 92.1065 37.1139 91.8249C37.5324 91.467 37.9984 91.1792 38.3052 91.2167C38.6587 90.8905 39.9397 90.6491 40.4289 90.8544C41.1284 90.6875 40.8108 90.9136 41.2551 91.0196C41.6473 91.1132 42.0589 91.49 42.3953 91.4604C42.7939 91.5091 43.0972 91.9168 43.4075 92.2339C43.7533 92.5873 43.7986 93.0489 44.2125 93.4487C44.4815 93.9067 44.509 94.3316 44.5595 94.8034C44.6016 95.1971 44.7497 95.5802 44.5538 96.0026C44.3579 96.425 44.4038 96.8792 44.2546 97.301C44.153 97.5878 44.1763 97.9419 43.8832 98.1353C43.537 98.771 43.0679 99.3403 42.4859 99.783Z" fill="#FFFBFA" stroke="#3D3131" stroke-width="3" stroke-linecap="round" stroke-linejoin="round"/>
<path d="M84.9567 127.147L87.7476 128.939L88.2954 129.145L90.3137 130.276L91.7926 131.355L93.5499 132.416L94.2632 132.764L94.6942 132.995C94.8666 132.545 95.2186 132.019 95.6948 131.512C95.9415 130.811 97.135 129.865 98.0148 129.865C98.4161 129.694 98.5882 129.372 99.0142 129.312C99.4153 129.256 100.066 129.442 100.465 129.474C101.177 129.531 101.873 129.723 102.511 130.038C103.331 130.038 104.804 131.217 104.804 131.979C105.087 132.425 105.446 132.925 105.57 133.477C105.679 133.963 105.57 134.491 105.57 135.038C105.57 136.601 104.804 136.922 104.688 137.75C104.612 138.293 103.311 139.561 102.506 140.199C102.508 140.205 102.51 140.21 102.511 140.215C102.788 141.026 102.951 142.521 102.746 143.09C102.501 143.768 102.564 144.303 102.247 144.823C101.896 145.396 101.368 145.999 100.95 146.398C100.277 147.04 99.1811 147.662 98.3924 147.912C97.4209 148.219 96.0771 148.266 95.7522 147.912C94.5599 147.912 93.9421 147.462 93.1574 147.047C92.3424 146.865 91.5303 146.253 91.0294 145.698C90.6589 145.287 90.4607 144.711 90.1796 144.179C89.5448 142.978 89.6473 142.199 89.6581 141.144C90.0005 139.629 90.0828 138.771 90.7283 137.862L90.0005 137.549L89.3741 136.922L88.4346 136.122L86.8861 135.113L85.6159 134.295L84.9374 133.721L83.8586 132.995L83.2149 132.416L81.9917 131.383L84.9567 127.147Z" fill="#FFFBFA" stroke="#3D3131" stroke-width="3" stroke-linecap="round" stroke-linejoin="round"/>
<path d="M45.0939 128.044L46.4561 127.147L49.3765 131.807L47.5818 132.982L46.4561 133.739L44.5393 135.186L43.5726 135.758L41.8816 136.693L40.2799 137.941L39.002 138.793L38.6162 139.138C38.7408 139.647 39.002 140.391 38.751 140.833C38.7065 141.429 38.751 142.589 38.3002 142.765C38.3002 143.817 37.6993 144.082 37.2119 144.796C36.7373 145.49 35.8464 146.372 35.4436 146.294C34.9757 146.672 33.6196 146.914 33.4199 146.748C32.5063 146.943 31.3358 146.748 30.6641 146.073C30.0939 145.741 29.4193 145.316 29.4193 144.796C28.9092 144.302 29.104 143.981 29.0347 143.593C28.9557 143.15 28.795 142.689 29.0093 142.289C29.2282 142.033 29.1251 141.68 29.2282 141.371C29.5105 140.524 30.0108 139.643 30.6641 138.638C30.2324 138.718 29.4193 138.472 29.1243 138.709C28.5097 138.897 27.6372 138.638 27.6372 138.472C26.482 138.312 25.6231 137.588 25.5384 137.151C25.0863 136.58 24.6825 135.957 24.8318 135.186C24.6477 134.635 24.9608 133.174 25.1339 132.953C25.1339 132.443 25.7297 131.724 26.3451 131.234C26.9807 130.727 27.8741 130.32 29.1243 130.055C29.4987 129.975 29.886 129.943 30.279 129.95C30.862 129.962 30.9707 129.889 31.5541 130.055C32.1069 130.211 33.1371 130.425 33.6463 130.854C34.0766 130.854 35.051 131.67 35.5943 132.143C36.2012 132.672 36.6502 133.23 36.8558 133.739L37.4215 133.407L39.1737 132L40.0232 131.495L41.8816 130.055L43.6869 128.92L45.0939 128.044Z" fill="#FFFBFA" stroke="#3D3131" stroke-width="3" stroke-linecap="round" stroke-linejoin="round"/>
<path d="M126.893 62.7516C129.263 64.5293 127.578 66.9975 127.086 69.4191C128.707 67.2833 131.135 66.493 132.785 66.4341C136.674 66.2952 138.383 69.8626 138.383 72.2525C138.383 74.3997 138.198 76.7612 134.527 78.3134C131.455 79.6125 128.006 77.4107 126.583 75.9377C126.447 76.9621 126.326 78.4315 124.82 79.8395C122.743 81.7813 120.32 81.0653 119.362 79.445C118.405 77.8247 119.429 75.4286 121.247 74.1559C119.405 74.6568 117.577 73.7427 116.851 72.5361C115.802 70.7957 116.578 68.6912 118.266 68.335C119.544 68.0656 119.986 68.3354 121.247 70.3307C121.076 68.8809 120.781 66.6525 121.37 64.664C121.96 62.6754 125.007 61.3368 126.893 62.7516Z" stroke="#3D3131" stroke-width="3" stroke-linejoin="round"/>
<path d="M15.8109 37.0992C16.203 38.6359 17.0152 39.9181 18.2641 40.7935C20.9254 42.659 23.7581 40.3573 24.0471 38.3922C24.5436 35.0159 19.6571 33.0387 17.2271 33.0387C21.9589 33.0387 24.3361 29.9754 24.0471 27.6636C23.7581 25.3517 22.3119 21.2881 17.9784 20.3812C12.7829 19.2938 7.86965 21.9535 7.46507 25.8258C7.06049 29.6982 7.61974 33.7898 11.1976 33.2599C12.8541 33.0146 13.8104 30.1183 11.8819 29.0919C10.0456 28.1145 6.53681 28.5316 5.34872 29.0919C0.995215 31.1448 0.575336 36.6428 3.06061 40.3996C5.54588 44.1564 9.40321 43.7633 11.4149 43.369C13.4919 42.9618 15.6541 39.832 15.8109 37.0992Z" stroke="#3D3131" stroke-width="3" stroke-linejoin="round"/>
</svg>
