<svg width="80" height="95" viewBox="0 0 80 95" fill="none" xmlns="http://www.w3.org/2000/svg">
<path d="M20.3058 48.762H17.2029L22.8782 89.916H44.1851H51.0882L57.362 48.762C56.9428 48.8323 55.9445 48.9307 55.3044 48.762C54.5042 48.5512 53.2468 48.762 52.6752 48.762C52.1037 48.762 50.8081 48.9729 50.3509 48.9729C49.8936 48.9729 49.665 48.762 48.7886 48.9729C47.9122 49.1837 47.2264 48.5156 46.4643 48.3632C45.7022 48.2108 44.4448 48.762 43.7971 48.762H39.9867H36.7098H32.7089H28.8985H25.3549C24.6309 48.762 23.2592 49.1634 22.8782 48.762C22.4971 48.3607 21.058 48.762 20.3058 48.762Z" fill="#219653"/>
<path d="M59.1758 39.4489C59.3709 37.6067 58.8481 36.3113 58.5256 34.8757C58.2007 33.429 57.8786 32.0776 57.2379 30.6935C56.936 30.0412 56.8072 29.4452 56.4449 28.8287C55.83 27.7824 54.9267 26.7511 54.1543 25.8223C53.1939 24.6675 52.1198 23.6105 50.9519 22.6685C50.6997 22.465 50.5109 22.1704 50.2501 21.9778C49.5246 21.4422 48.6991 21.046 47.9134 20.5998C46.7614 19.9456 45.6988 19.3669 44.4293 18.9265C43.2311 18.5107 41.9169 18.2994 40.6348 18.0949C39.4958 17.9132 38.2865 17.6665 37.0964 17.6665C34.1769 17.6665 31.4337 18.1301 28.884 19.1616C28.5384 19.3015 28.2637 19.6026 27.927 19.7593C26.2083 20.5588 24.61 21.5735 23.1667 22.7688C22.6329 23.2108 22.1689 23.693 21.6792 24.1828C21.0799 24.7822 20.2122 25.3608 19.6849 26.0257C19.1713 26.6733 18.9476 27.3902 18.5084 28.0939C17.8322 29.1772 17.2476 30.3234 16.7653 31.5218C16.5898 31.9578 16.2915 32.3676 16.1437 32.8169C16.0261 33.1741 16.0538 33.5685 15.9543 33.9336C15.4499 35.7837 15.2178 37.4014 15.2178 39.4114" stroke="#3D3131" stroke-width="2" stroke-linecap="round" stroke-linejoin="round"/>
<path d="M12.7869 39.7408C12.9923 39.6585 13.4473 39.6106 13.4473 39.6106L16.6784 39.5569L23.4033 39.6757H25.2074L34.9908 39.9373L36.9675 39.7408L47.6983 39.5569L49.0578 39.7408L60.3322 39.606L61.1481 39.7408L61.3135 40.9062L61.1481 43.9972L60.8719 44.5943L57.8545 44.4552L54.2899 44.5617L47.4316 44.5943L44.9401 44.4552L41.5163 44.8558L34.9908 44.5943L33.7151 44.6596L24.6629 44.529L22.1851 44.6596L18.3582 44.529L17.058 44.3897L13.043 44.529L12.6595 42.9172L12.7869 41.9154L12.6595 40.4124C12.6595 40.4124 12.5816 39.8232 12.7869 39.7408Z" stroke="#3D3131" stroke-width="2" stroke-linecap="round" stroke-linejoin="round"/>
<path d="M16.6172 44.529L16.9819 48.2715L17.6473 51.2426L18.1952 57.2667L18.462 59.0008L19.1022 60.8949L19.5365 65.187L20.2084 69.1884L20.6911 71.4474L21.4452 79.3177L22.0105 81.2904L22.6945 86.9831L23.247 91.1221L23.4761 93.1772L23.9327 93.8479H26.8866H28.8176L30.5544 93.6901L31.7625 93.8479L36.0969 94L40.4384 93.8479H43.3038L44.0858 94H49.1017L50.6137 93.8479L51.3208 89.9569L51.4945 88.7215L52.4209 82.1877L54.03 73.6548L54.4428 70.1475L55.1514 66.1459L56.1932 58.864L56.6355 56.1367L57.1515 50.0922L57.796 44.529" stroke="#3D3131" stroke-width="2" stroke-linecap="round" stroke-linejoin="round"/>
<path d="M26.1936 89.5384L27.0511 89.6394L33.6616 89.454L35.7812 89.5384L41.4643 89.4539L42.9524 89.5384" stroke="#3D3131" stroke-width="2" stroke-linecap="round" stroke-linejoin="round"/>
<path d="M45.5862 89.5384L46.2757 89.4705L47.2062 89.5384L48.2197 89.5384" stroke="#3D3131" stroke-width="2" stroke-linecap="round" stroke-linejoin="round"/>
<path d="M19.9692 48.8384L21.4721 48.7397L23.7305 48.8384L28.2294 48.9353L29.7851 48.8384H32.4616L35.9825 48.9353L39.601 48.8384" stroke="#3D3131" stroke-width="2" stroke-linecap="round" stroke-linejoin="round"/>
<path d="M42.4739 48.8385L43.3939 48.7692L44.1197 48.8385H44.868" stroke="#3D3131" stroke-width="2" stroke-linecap="round" stroke-linejoin="round"/>
<path d="M47.262 48.8384L48.6994 48.9114L49.3667 48.8384H50.494L51.4801 48.9114L52.5786 48.7306L53.7261 48.8384" stroke="#3D3131" stroke-width="2" stroke-linecap="round" stroke-linejoin="round"/>
<path d="M36.1279 55.8122L36.8342 52.3834L37.7699 48.8416L38.1534 46.1359L38.4634 44.947L38.9652 43.7903L39.3129 40.9109L39.8379 38.0399L40.1532 35.662L42.1851 27.141L42.414 26.5497L42.9217 24.3608L43.1024 22.4043L43.5451 19.4433L43.7562 18.1843L44.2185 15.0627L40.9302 14.4137L40.6519 15.8468L40.2086 17.3334L39.9139 19.5636L38.9701 23.7738L38.8976 24.7134L38.6561 25.6443L37.9296 28.7178L37.8812 29.8632L36.9345 33.9904L36.8649 35.013L36.4131 37.3046L35.738 40.3503L35.5476 42.7138L35.0122 43.8615L34.8909 45.1592L34.3633 47.2423L33.5345 51.4507L32.6768 55.3463L32.3707 56.4793" stroke="#3D3131" stroke-width="2" stroke-linecap="round" stroke-linejoin="round"/>
<path d="M60.0023 1.43858L60.7287 2.57562L61.3588 3.69996L61.1979 4.43748L59.8419 5.17863L57.364 6.30101L54.9606 7.82001L52.1271 9.21485L50.2157 10.5001L48.6319 11.266L47.2177 12.0772L46.6887 12.1127L45.3501 9.66925L45.308 9.04096L46.6426 8.14827L47.8122 7.61083L51.8705 5.38801L53.3781 4.48369L55.8223 3.28707L58.1429 1.94575L59.3461 1.34965L60.0023 1.43858Z" stroke="#3D3131" stroke-width="2" stroke-linecap="round" stroke-linejoin="round"/>
<path d="M45.4406 13.2298L44.4223 14.8624L41.0796 14.1114L42.2215 11.4566L45.4406 13.2298Z" stroke="#3D3131" stroke-width="2" stroke-linecap="round" stroke-linejoin="round"/>
<path d="M46.5159 12.1754L45.5891 13.2744L42.2543 11.5194L44.8343 9.34136L46.5159 12.1754Z" stroke="#3D3131" stroke-width="2" stroke-linecap="round" stroke-linejoin="round"/>
<path d="M32.6813 56.4906C32.0039 56.7512 30.9044 57.4732 30.2955 57.842C29.1621 58.5283 28.811 59.0028 27.9809 60.0011C27.4576 60.6305 26.9249 61.6802 26.4637 62.7316C26.1145 63.5276 25.8922 64.5626 25.7043 65.1586C25.3792 66.1895 25.5137 66.1196 25.5137 67.2509C25.4582 67.8685 25.366 68.8124 25.6054 69.7612C25.7663 70.3992 26.1708 70.9951 26.4854 71.6616C26.7146 72.1474 26.5461 72.0154 26.8645 72.4717C27.2905 73.0823 28.2398 74.2621 28.8386 74.741L29.2216 75.0778L29.5296 75.4751C29.5296 75.7857 29.737 76.0121 29.7743 76.4147C29.8422 77.1466 29.6495 77.3961 29.5296 78.1143C29.4096 78.8325 29.3547 79.4278 29.1012 80.1162C28.8459 80.8094 28.7694 81.1082 28.7137 81.6676C28.691 81.8965 28.9439 82.2784 28.9893 82.4738L29.6495 82.7847L33.485 83.2117L34.5619 83.3355H37.4868L40.5126 83.2117H41.6473H44.3957L45.0677 82.9418L45.5889 82.2959V81.2015L45.4513 79.9036L45.0677 78.9696L44.9128 78.1143L44.6187 77.1636V76.4147L44.9128 75.3374C45.5275 74.8394 46.5839 74.0412 47.4401 72.9502C48.1206 72.0832 48.6243 71.0056 49.0406 69.9312C49.3786 69.0591 49.4292 68.1904 49.4292 67.2509C49.4292 66.8264 49.5612 66.308 49.4292 65.6577C49.2746 64.8963 48.845 63.9991 48.7268 63.5365C48.468 62.5245 48.4328 62.6051 47.9088 61.7195C47.5598 61.1298 47.2534 60.5198 46.8028 60.0011C46.3572 59.4882 45.7684 59.0658 45.2359 58.6341C44.7169 58.2134 44.1084 57.9259 43.5185 57.5932C43.0786 57.3452 42.6717 57.0314 42.1979 56.8375C41.3498 56.4906 40.5357 56.1501 39.6002 55.9965C38.9331 55.887 38.1628 55.9138 37.463 55.9138C36.6786 55.9138 35.778 55.947 35.0001 56.0726C34.204 56.2011 33.382 56.221 32.6813 56.4906Z" fill="#FFFBFA" stroke="#3D3131" stroke-width="2" stroke-linejoin="round"/>
<path d="M44.073 68.6496C44.1405 68.8146 44.2169 69.1116 44.2565 69.2818C44.2958 69.4511 44.3563 69.6076 44.3691 69.7784C44.4254 70.1638 44.3579 70.1826 44.3427 70.367C44.3287 70.5379 44.3355 70.6672 44.2966 70.8261C44.2614 70.9701 44.2429 71.1932 44.1564 71.3655C44.0634 71.5508 43.9008 71.6847 43.8195 71.8115C43.7139 71.9761 43.5831 72.0174 43.4417 72.1516C43.3087 72.2777 43.2301 72.4165 43.0668 72.5116C42.9025 72.6072 42.7828 72.6202 42.5892 72.6804C42.3968 72.7671 42.2092 72.7359 42.0496 72.7591C41.8087 72.7943 41.6266 72.8697 41.4069 72.8529C41.2906 72.844 41.2344 72.7706 41.0715 72.7161C40.9473 72.6746 40.7114 72.6527 40.6312 72.6277C40.4686 72.5772 40.3136 72.491 40.167 72.4105C39.9936 72.3153 40.0572 72.2911 39.9075 72.1572C39.8043 72.065 39.7069 71.964 39.6155 71.8548C39.5352 71.7589 39.4231 71.6724 39.3522 71.5642C39.2998 71.4844 39.2864 71.3856 39.2393 71.2995C39.1745 71.1809 39.0876 70.9076 39.0329 70.7778C38.9849 70.6637 38.968 70.6943 38.9281 70.5721C38.8772 70.4163 38.8019 70.3109 38.7646 70.143C38.734 70.0054 38.7393 69.8072 38.7181 69.6621C38.6818 69.4136 38.6165 69.4157 38.6003 69.1782C38.5831 68.9247 38.6166 68.4324 38.626 68.1963C38.6333 68.0131 38.602 67.9756 38.6274 67.8056C38.6563 67.6131 38.6387 67.4157 38.7063 67.2049C38.7599 67.0379 38.8943 66.8514 38.9552 66.7295C39.0651 66.5096 39.2005 66.352 39.3737 66.1874C39.5252 66.0433 39.6661 65.8699 39.87 65.7892C40.0733 65.7087 40.2643 65.6406 40.5282 65.6022C40.9828 65.5358 41.1087 65.6139 41.455 65.7409C41.6346 65.8067 41.6447 65.7626 41.7835 65.8358C42.0025 65.9513 42.3326 66.205 42.5591 66.4714C42.7837 66.7355 42.7414 66.6009 42.9927 66.9816C43.0643 67.0901 43.2104 67.2231 43.3242 67.4289C43.4141 67.5915 43.4659 67.8246 43.5694 67.9526C43.8749 68.3307 43.9018 68.3887 44.073 68.6496Z" fill="#3D3131"/>
<path d="M30.6922 68.7707C30.6322 68.9386 30.5695 69.2388 30.5378 69.4105C30.5063 69.5815 30.453 69.7406 30.448 69.9118C30.4094 70.2994 30.4777 70.3151 30.5013 70.4986C30.5232 70.6686 30.5222 70.7981 30.5684 70.9551C30.6102 71.0974 30.6389 71.3193 30.7331 71.4875C30.8345 71.6684 31.003 71.7947 31.0901 71.9177C31.203 72.0773 31.3356 72.1126 31.483 72.2401C31.6217 72.36 31.7065 72.495 31.874 72.5825C32.0425 72.6706 32.1627 72.678 32.3588 72.7294C32.555 72.8071 32.741 72.7673 32.9014 72.7833C33.1437 72.8074 33.329 72.8744 33.5478 72.8476C33.6636 72.8334 33.7163 72.7575 33.8766 72.6956C33.9988 72.6484 34.2334 72.6157 34.3124 72.5871C34.4725 72.5292 34.6234 72.436 34.7662 72.3489C34.935 72.2458 34.8703 72.2246 35.0138 72.084C35.1126 71.9872 35.2053 71.8818 35.2916 71.7686C35.3675 71.669 35.4755 71.5775 35.5414 71.4662C35.59 71.3841 35.5989 71.2848 35.642 71.1966C35.7014 71.0752 35.7757 70.7982 35.8243 70.666C35.867 70.5498 35.8854 70.5796 35.9196 70.4558C35.9633 70.2978 36.0338 70.189 36.0633 70.0196C36.0876 69.8807 36.0733 69.6829 36.0878 69.537C36.1126 69.2871 36.178 69.2863 36.1833 69.0483C36.1889 68.7942 36.1329 68.304 36.1127 68.0686C36.097 67.8859 36.1266 67.847 36.0934 67.6784C36.0557 67.4873 36.0643 67.2894 35.9871 67.0819C35.9259 66.9175 35.7831 66.7374 35.7167 66.6184C35.5969 66.4038 35.4544 66.2525 35.2739 66.096C35.1159 65.959 34.9672 65.7922 34.7599 65.7209C34.5531 65.6498 34.3592 65.5906 34.0938 65.5642C33.6366 65.5187 33.5144 65.6025 33.1743 65.7452C32.9979 65.8191 32.9858 65.7756 32.8505 65.8551C32.637 65.9805 32.3189 66.249 32.1048 66.5255C31.8925 66.7996 31.9286 66.6632 31.695 67.0549C31.6284 67.1666 31.4886 67.3062 31.3843 67.517C31.3019 67.6835 31.2608 67.9187 31.1633 68.0514C30.8755 68.443 30.8513 68.5022 30.6922 68.7707Z" fill="#3D3131"/>
<path d="M33.4337 79.0648L33.3823 79.3471L33.4337 79.8406L33.336 80.3033V81.0667L33.2204 81.7838V82.154L33.1394 82.6085" stroke="#3D3131" stroke-width="2" stroke-linecap="round"/>
<path d="M37.4684 79.0723L37.3926 79.6615L37.4684 80.1561L37.3926 80.7371L37.4684 81.4204L37.3926 82.1805L37.4684 82.665" stroke="#3D3131" stroke-width="2" stroke-linecap="round"/>
<path d="M41.1152 79.0166L41.3693 79.6951L41.3686 80.9578L41.6481 81.832L41.7641 82.7208" stroke="#3D3131" stroke-width="2" stroke-linecap="round"/>
<path d="M51.3941 56.3433L50.8735 56.6224L49.5147 57.529L48.5836 58.31L48.158 58.4506L47.4408 58.9299L46.8932 59.1702L46.5509 59.3462L46.7221 59.2582L46.4516 59.5324L48.158 62.023C48.158 62.023 48.7646 61.7336 49.124 61.5323C49.563 61.2864 49.924 60.9962 50.1337 60.8735C50.478 60.672 50.7337 60.3993 51.065 60.2028C51.3926 60.0871 51.8338 59.7441 52.1886 59.5259C52.4877 59.4374 53.2258 58.9091 53.5327 58.7059C53.912 58.4547 53.9092 58.3983 54.1597 58.1952C54.6024 58.7059 54.7944 58.7705 55.4055 59.0302C55.7477 59.1756 56.0159 59.1818 56.3957 59.1702C56.6376 59.1629 57.0137 59.3087 57.2567 59.1702C57.3106 59.0707 57.7154 58.9372 57.9025 58.8149C58.1673 58.6418 58.5307 58.4404 58.5891 58.1952C58.7145 57.9228 58.9214 58.1068 59.0285 57.6261C59.0854 57.3706 59.287 57.3335 59.2658 56.9363C59.4996 56.4537 59.5074 56.035 59.3618 55.6062C59.2545 55.2903 59.096 54.9067 58.864 54.7824C58.6988 54.4945 58.5117 54.3569 58.2645 54.2227C58.0392 54.1004 57.9133 53.9729 57.5398 53.9434C57.2333 53.9598 56.9738 53.8413 56.6841 53.8458C56.4363 53.8496 56.1016 53.8435 55.9463 53.9411C55.7207 54.0829 55.649 54.0818 55.4055 54.2227C55.7603 53.5666 55.6744 52.3731 55.4055 52.1825C55.2998 52.1076 54.9654 51.7163 54.921 51.5537C54.6988 51.3358 54.0522 51.0825 53.8778 51.0918C53.691 50.8943 53.0815 50.9949 52.7978 51.0918C52.4097 50.9708 52.5801 51.1105 52.3255 51.1532C52.1008 51.1909 51.8542 51.3876 51.6656 51.358C51.4389 51.3701 51.2523 51.5884 51.0651 51.7553C50.8565 51.9413 50.6649 52.4212 50.4162 52.6307C50.2469 52.8787 50.4628 53.1914 50.4162 53.4556C50.3773 53.6759 50.279 53.8863 50.3733 54.132C50.4675 54.3777 50.4242 54.6321 50.4921 54.8757C50.5383 55.0414 50.5116 55.2401 50.6695 55.3604C50.8403 55.7322 51.0829 56.0713 51.3941 56.3433Z" fill="#FFFBFA"/>
<path d="M46.4472 59.537L46.7221 59.2582L46.5509 59.3462L46.8932 59.1702L47.4408 58.9299L48.158 58.4506L48.5836 58.31L49.5147 57.529L50.8735 56.6224L51.3941 56.3433C51.0829 56.0713 50.8403 55.7322 50.6695 55.3604C50.5116 55.2401 50.5383 55.0414 50.4921 54.8757C50.4242 54.6321 50.4675 54.3777 50.3733 54.132C50.279 53.8863 50.3773 53.6759 50.4162 53.4556C50.4628 53.1914 50.2469 52.8787 50.4162 52.6307C50.6649 52.4212 50.8565 51.9413 51.0651 51.7553C51.2523 51.5884 51.4389 51.3701 51.6656 51.358C51.8542 51.3876 52.1008 51.1909 52.3255 51.1532C52.5801 51.1105 52.4097 50.9708 52.7978 51.0918C53.0815 50.9949 53.691 50.8943 53.8778 51.0918C54.0522 51.0825 54.6988 51.3358 54.921 51.5537C54.9654 51.7163 55.2998 52.1076 55.4055 52.1825C55.6744 52.3731 55.7603 53.5666 55.4055 54.2227C55.649 54.0818 55.7207 54.0829 55.9463 53.9411C56.1016 53.8435 56.4363 53.8496 56.6841 53.8458C56.9738 53.8413 57.2333 53.9598 57.5398 53.9434C57.9133 53.9729 58.0392 54.1004 58.2645 54.2227C58.5117 54.3569 58.6988 54.4945 58.864 54.7824C59.096 54.9067 59.2545 55.2903 59.3618 55.6062C59.5074 56.035 59.4996 56.4537 59.2658 56.9363C59.287 57.3335 59.0854 57.3706 59.0285 57.6261C58.9214 58.1068 58.7145 57.9228 58.5891 58.1952C58.5307 58.4404 58.1673 58.6418 57.9025 58.8149C57.7154 58.9372 57.3106 59.0707 57.2567 59.1702C57.0137 59.3087 56.6376 59.1629 56.3957 59.1702C56.0159 59.1818 55.7477 59.1756 55.4055 59.0302C54.7944 58.7705 54.6024 58.7059 54.1597 58.1952C53.9092 58.3983 53.912 58.4547 53.5327 58.7059C53.2258 58.9091 52.4877 59.4374 52.1886 59.5259C51.8338 59.7441 51.3926 60.0871 51.065 60.2028C50.7337 60.3993 50.478 60.672 50.1337 60.8735C49.924 60.9962 49.563 61.2864 49.124 61.5323C48.7646 61.7336 48.158 62.023 48.158 62.023M48.364 61.8464L48.5836 61.7946L48.158 62.023M48.158 62.023L46.4472 59.5259" stroke="#3D3131" stroke-width="2" stroke-linecap="round" stroke-linejoin="round"/>
<path d="M24.1442 56.3991L24.6448 56.7129L25.9387 57.7098L26.8146 58.5523L27.2296 58.7215L27.9126 59.2485L28.2784 59.4817L26.5532 62.1359C26.264 61.9371 26.4013 61.9558 26.0563 61.7304C25.6351 61.4553 25.2947 61.1412 25.0938 61.0045C24.7639 60.7801 24.5274 60.4906 24.2102 60.2721C23.8912 60.1344 23.4744 59.7622 23.1353 59.5203C22.8429 59.4117 22.1424 58.8345 21.85 58.6108C21.4887 58.3344 21.4953 58.2783 21.2592 58.0587C20.955 58.6529 20.4131 59.1006 19.7858 59.3181C19.4344 59.4399 19.3147 59.519 18.9366 59.4817C18.6958 59.4579 18.3055 59.4385 18.0724 59.2838C18.0254 59.1809 17.5844 59.0845 17.406 58.9498C17.1536 58.7591 16.7518 58.4507 16.7102 58.2021C16.6036 57.9218 16.3167 57.7484 16.2425 57.2616C16.2031 57.0028 16.0044 56.952 16.0526 56.5571C15.8522 56.0598 16.0137 55.4801 16.1882 55.0622C16.3167 54.7544 16.5009 54.3824 16.7408 54.2741C16.9252 53.9982 17.1782 53.9334 17.4339 53.8164C17.6671 53.7097 17.8014 53.591 18.176 53.587C18.4806 53.6242 18.7476 53.5236 19.0363 53.5477C19.2833 53.5684 19.6177 53.585 19.7659 53.693C19.9813 53.8498 20.2851 53.8992 20.5184 54.0564C20.209 53.3777 20.45 52.4549 20.7312 52.283C20.8417 52.2154 21.0526 52.0602 21.1079 51.901C21.3445 51.6987 21.6079 51.5361 21.7813 51.5573C21.981 51.3729 22.7051 51.2365 22.9816 51.3525C23.377 51.2582 23.1975 51.386 23.4486 51.4459C23.6703 51.4987 23.9029 51.7117 24.0931 51.695C24.3184 51.7225 24.4898 51.953 24.6652 52.1322C24.8606 52.3319 24.8863 52.5929 25.1202 52.8188C25.2722 53.0777 25.2877 53.3178 25.3163 53.5846C25.3401 53.8071 25.4238 54.0236 25.3131 54.2623C25.2023 54.5011 25.2283 54.7578 25.1439 54.9962C25.0866 55.1584 25.0997 55.3585 24.934 55.4678C24.7383 55.8271 24.4732 56.1489 24.1442 56.3991Z" fill="#FFFBFA" stroke="#3D3131" stroke-width="2" stroke-linecap="round" stroke-linejoin="round"/>
<path d="M48.1495 71.8659L49.7269 72.8784L50.0366 72.995L51.1773 73.6343L52.0133 74.244L53.0065 74.8439L53.4097 75.0406L53.6533 75.171C53.7507 74.9169 53.9497 74.6193 54.2189 74.3327C54.3583 73.9365 55.0329 73.402 55.5302 73.402C55.757 73.3054 55.8543 73.1236 56.095 73.0896C56.3218 73.0577 56.6895 73.163 56.9151 73.1809C57.3173 73.2129 57.7109 73.3219 58.0717 73.4995C58.5351 73.4995 59.3676 74.1661 59.3676 74.5967C59.5276 74.8491 59.7305 75.1315 59.8006 75.4436C59.8622 75.7182 59.8006 76.0165 59.8006 76.3258C59.8006 77.209 59.3676 77.3909 59.3022 77.8586C59.2592 78.1657 58.5239 78.8825 58.0687 79.2431C58.0697 79.2461 58.0707 79.249 58.0717 79.252C58.2279 79.7104 58.3203 80.5555 58.2043 80.8768C58.066 81.2602 58.1017 81.5624 57.9222 81.8563C57.7241 82.1805 57.4256 82.5213 57.189 82.7468C56.8086 83.1093 56.1894 83.4612 55.7436 83.6024C55.1945 83.7762 54.4349 83.8023 54.2513 83.6024C53.5774 83.6024 53.2282 83.3481 52.7847 83.1135C52.324 83.0107 51.865 82.6649 51.5819 82.351C51.3725 82.1188 51.2604 81.7933 51.1016 81.4928C50.7428 80.8139 50.8007 80.3736 50.8068 79.7773C51.0003 78.9208 51.0469 78.4355 51.4117 77.922L51.0003 77.745L50.6463 77.3909L50.1153 76.9385L49.24 76.3682L48.5221 75.906L48.1386 75.5814L47.5289 75.171L47.165 74.8439L46.4736 74.26L48.1495 71.8659Z" fill="#FFFBFA" stroke="#3D3131" stroke-width="2" stroke-linecap="round" stroke-linejoin="round"/>
<path d="M25.6183 72.3728L26.3882 71.8659L28.0389 74.4994L27.0245 75.1635L26.3882 75.5914L25.3048 76.4094L24.7584 76.7326L23.8026 77.2615L22.8973 77.9666L22.175 78.4481L21.957 78.643C22.0274 78.9309 22.175 79.3514 22.0332 79.6012C22.008 79.9383 22.0332 80.5939 21.7784 80.6935C21.7784 81.2877 21.4387 81.4377 21.1632 81.841C20.895 82.2337 20.3914 82.7319 20.1638 82.6878C19.8993 82.9014 19.1328 83.0385 19.0199 82.9443C18.5035 83.0546 17.8419 82.9443 17.4623 82.5628C17.14 82.3754 16.7587 82.1349 16.7587 81.841C16.4704 81.5621 16.5805 81.3808 16.5413 81.161C16.4967 80.9109 16.4059 80.6504 16.527 80.4242C16.6507 80.2792 16.5924 80.0799 16.6507 79.9052C16.8102 79.4266 17.0931 78.9287 17.4623 78.3606C17.2183 78.406 16.7587 78.2667 16.592 78.4007C16.2446 78.5072 15.7514 78.3606 15.7514 78.2667C15.0985 78.1766 14.613 77.7671 14.5652 77.5202C14.3096 77.1974 14.0814 76.8454 14.1658 76.4094C14.0617 76.0981 14.2387 75.2722 14.3365 75.1476C14.3365 74.8592 14.6733 74.4529 15.0211 74.1755C15.3804 73.8889 15.8853 73.6594 16.592 73.5092C16.8036 73.4642 17.0225 73.4459 17.2446 73.4502C17.5742 73.4566 17.6356 73.4158 17.9653 73.5092C18.2778 73.5977 18.8601 73.7186 19.1479 73.9609C19.3911 73.9609 19.9418 74.4221 20.249 74.6896C20.592 74.9883 20.8458 75.304 20.9619 75.5914L21.2817 75.4039L22.272 74.6086L22.7522 74.3235L23.8026 73.5092L24.823 72.868L25.6183 72.3728Z" fill="#FFFBFA" stroke="#3D3131" stroke-width="2" stroke-linecap="round" stroke-linejoin="round"/>
<path d="M71.8528 35.4683C73.1924 36.4731 72.2395 37.8681 71.9619 39.2369C72.8776 38.0297 74.2504 37.583 75.1829 37.5497C77.3812 37.4712 78.3467 39.4876 78.3467 40.8384C78.3467 42.052 78.2425 43.3868 76.1675 44.2641C74.431 44.9984 72.482 43.7539 71.6772 42.9213C71.6006 43.5003 71.5321 44.3308 70.6809 45.1267C69.5072 46.2242 68.1373 45.8195 67.5962 44.9037C67.055 43.9879 67.6335 42.6336 68.6612 41.9142C67.6205 42.1973 66.5872 41.6807 66.1764 40.9987C65.5839 40.015 66.0222 38.8254 66.9766 38.6242C67.6987 38.4718 67.9484 38.6244 68.6612 39.7521C68.565 38.9327 68.3981 37.6732 68.7311 36.5492C69.0642 35.4252 70.7866 34.6686 71.8528 35.4683Z" fill="#FFFBFA" stroke="#3D3131" stroke-width="2" stroke-linejoin="round"/>
<path d="M10.4536 23.0572C9.74768 22.5624 9.28857 21.8377 9.06696 20.9691C8.97833 22.5138 7.75622 24.2828 6.58228 24.5129C5.44523 24.7358 3.265 24.9579 1.86028 22.8345C0.455561 20.7111 0.692884 17.6036 3.15356 16.4432C3.39737 16.3283 3.81407 16.224 4.29566 16.1642C4.27114 15.6602 4.2946 15.1251 4.34976 14.5972C4.57843 12.4085 7.35551 10.9052 10.2921 11.5198C12.7414 12.0324 13.5589 14.3292 13.7222 15.6359C13.8855 16.9426 12.5419 18.674 9.8674 18.674C11.2409 18.674 14.0028 19.7916 13.7222 21.6999C13.5589 22.8106 11.9578 24.1116 10.4536 23.0572Z" fill="#FFFBFA" stroke="#3D3131" stroke-width="2" stroke-linejoin="round"/>
</svg>
