<svg width="52" height="95" viewBox="0 0 52 95" fill="none" xmlns="http://www.w3.org/2000/svg">
<path d="M30.3047 14.5581L33.5441 15.2612L32.5589 20.5034L32.1365 22.6203L31.1978 27.5932L30.6913 30.8662L29.8138 34.5631L29.4833 35.5722L26.0107 49.9693L25.2977 53.9583L24.2902 58.7909L23.4616 63.6173L22.7601 65.5976L22.2486 67.6094L21.4123 72.1511L19.8761 78.1458L18.4773 84.6774L17.5789 84.7206L15.2378 83.9743L15.1916 83.0106L16.6719 76.9723L18.2092 69.8815L19.0896 66.3584L19.4269 64.1874L20.161 62.2183L20.7445 58.2675L21.9337 53.1272L22.7713 49.2662L23.0107 47.5582L24.6546 40.5892L24.8927 38.6796L26.1388 33.4872L26.538 31.9122L26.7668 30.3419L28.4213 23.2351L29.0889 19.4942L29.7852 16.9722L30.3047 14.5581Z" stroke="#3D3131" stroke-width="2" stroke-linecap="round" stroke-linejoin="round"/>
<path opacity="0.8" d="M9.77211 47.3382C8.84254 47.3382 9.75427 47.0038 7.49921 47.079L6.52368 47.1805L10.2007 71.4799L12.8866 90.1094H13.1013L14.0286 90.281H15.1548L15.8337 90.1094L16.8485 90.281H17.7073C18.0586 90.2615 18.851 90.1999 19.2101 90.1094C19.4637 90.0455 19.9575 90.2617 20.7569 90.281C21.3724 90.2959 22.3183 90.1094 22.556 90.1094C23.1025 90.1094 23.2288 90.018 23.7751 90.1094C24.3547 90.2063 24.6465 90.2338 25.2474 90.0327C26.0309 89.7704 26.2237 90.1094 26.7461 90.1094H29.6517C30.0109 90.1094 30.747 89.9888 31.2515 90.1094C31.5291 90.1757 33.2629 90.2082 33.5042 90.1094C33.7455 90.0106 34.5489 90.1094 34.8427 90.1094C35.1366 90.1094 35.343 90.2511 35.7348 89.9888C36.3491 90.1094 37.9943 90.1094 38.6439 90.1094C39.1636 90.1094 39.7118 89.9345 39.921 89.8471L42.0633 76.6875L46.2069 47.1805C46.1147 47.3341 45.7379 47.2732 45.3201 47.2978C44.7978 47.3285 44.4408 47.4048 43.7342 47.1805C43.348 47.058 40.4443 47.0434 39.2401 47.079C38.2409 47.1085 38.9514 47.1805 38.3367 47.1805C37.8428 47.1805 36.4602 47.2097 35.2127 47.1805C34.3745 47.1609 33.7071 47.079 32.9996 47.079C31.8695 47.079 31.5109 47.1805 31.1323 47.1805H22.766C22.5562 47.1805 21.2999 47.3439 20.0999 47.3382C18.9277 47.3326 17.8221 47.1577 16.7304 47.1805C15.4401 47.2076 15.4784 47.338 14.3379 47.3382C12.8437 47.3384 12.6515 47.1674 11.6861 47.1805C11.1279 47.1805 10.2245 47.3382 9.77211 47.3382Z" fill="#3E241B"/>
<path opacity="0.38" d="M19.8273 69.9057L20.6951 69.9057L22.6151 70.1252L23.3931 70.5721L24.6506 70.7707L25.7065 71.1468L25.9557 71.8682L25.4688 73.2453L24.7336 75.8521L24.1875 77.2248L23.3931 77.3407L22.7855 77.1117L20.8611 76.8442L18.8737 76.0695L18.2339 75.8521L18.0809 75.1065L18.445 73.6999L18.9911 71.6147L19.6032 70.5721L19.8273 69.9057Z" stroke="#FFFBFA" stroke-width="2" stroke-linecap="round" stroke-linejoin="round"/>
<path opacity="0.38" d="M33.818 63.0493L35.231 63.0493L36.4256 63.3624L39.4946 64.0417L40.1734 64.6741L39.9397 66.1498L39.237 67.4615L38.704 69.892L38.1711 70.589L37.3631 70.589L35.231 69.892L33.545 69.5462L32.2247 68.9957L32.3501 67.7192L33.0292 65.5174L33.4353 64.0417L33.818 63.0493Z" stroke="#FFFBFA" stroke-width="2" stroke-linecap="round" stroke-linejoin="round"/>
<path opacity="0.7" d="M25.3084 54.9856L26.4125 54.2508L27.5088 53.8741L30.2602 52.8088L31.1196 52.9499L31.7044 54.2246L31.8375 55.6151L32.6851 57.7914L32.6312 58.6133L31.9998 59.0335L29.9712 59.5977L28.474 60.2044L27.156 60.4608L26.59 59.3981L25.9756 57.3244L25.5254 55.9601L25.3084 54.9856Z" stroke="#FFFBFA" stroke-width="2" stroke-linecap="round" stroke-linejoin="round"/>
<path opacity="0.5" d="M14.2441 54.3209L14.736 54.0621L16.6364 54.8224L18.6351 55.3217L19.236 55.9091L19.0508 56.8248L18.0401 59.201L17.7648 60.4589L17.442 61.0046L16.6643 60.8597L14.0675 59.994L12.6158 59.5969L12.4443 58.7546L13.0177 57.2947L13.2794 56.074L13.7909 54.7845L14.2441 54.3209Z" stroke="#FFFBFA" stroke-width="2" stroke-linecap="round" stroke-linejoin="round"/>
<path opacity="0.7" d="M29.2438 78.5624L29.4723 78.127L30.5149 77.9185L33.3722 77.3137L34.2689 76.9691L35.1901 76.9691L35.7282 77.9185L36.1452 79.3782L36.3955 80.8588L36.7835 82.0266L36.7835 82.9155L36.1452 83.5071L34.5604 83.9242L32.2457 84.237L30.8371 84.5088L30.223 83.9242L29.9879 82.3501L29.7226 80.8588L29.244 79.8161L29.2438 78.5624Z" stroke="#FFFBFA" stroke-width="2" stroke-linecap="round" stroke-linejoin="round"/>
<path d="M48.0127 39.3099C48.2056 37.4879 47.6886 36.2068 47.3697 34.7871C47.0483 33.3563 46.7297 32.0198 46.0961 30.6509C45.7975 30.0058 45.6702 29.4163 45.3119 28.8067C44.7037 27.7719 43.8103 26.7519 43.0465 25.8333C42.0967 24.6913 41.0344 23.6459 39.8794 22.7143C39.6299 22.5131 39.4432 22.2217 39.1852 22.0312C38.4678 21.5015 37.6513 21.1096 36.8743 20.6683C35.735 20.0214 34.6841 19.4491 33.4286 19.0135C32.2436 18.6023 30.9439 18.3933 29.6759 18.191C28.5494 18.0113 27.3535 17.7674 26.1764 17.7674C23.2891 17.7674 20.5761 18.2259 18.0546 19.2461C17.7127 19.3844 17.441 19.6822 17.108 19.8371C15.4083 20.6278 13.8276 21.6313 12.4002 22.8134C11.8723 23.2507 11.4134 23.7275 10.9291 24.2119C10.3364 24.8047 9.47821 25.3769 8.9567 26.0345C8.4488 26.675 8.22761 27.384 7.79318 28.08C7.12448 29.1513 6.54629 30.2848 6.0693 31.47C5.89576 31.9012 5.60074 32.3065 5.45451 32.7509C5.33823 33.1042 5.36563 33.4942 5.26721 33.8553C4.76839 35.685 4.53886 37.285 4.53886 39.2728" stroke="#3D3131" stroke-width="2" stroke-linecap="round" stroke-linejoin="round"/>
<path d="M2.13475 39.5985C2.33781 39.5171 2.78783 39.4698 2.78783 39.4698L5.98338 39.4167L12.6342 39.5341H14.4184L24.094 39.7929L26.049 39.5985L36.6616 39.4167L38.0061 39.5985L49.1563 39.4652L49.9633 39.5985L50.1268 40.7511L49.9633 43.8081L49.6901 44.3986L46.7059 44.261L43.1806 44.3663L36.3978 44.3986L33.9337 44.261L30.5476 44.6572L24.094 44.3986L22.8324 44.4631L13.8798 44.334L11.4294 44.4631L7.64459 44.334L6.35872 44.1962L2.388 44.334L2.00872 42.7399L2.13475 41.7492L2.00872 40.2627C2.00872 40.2627 1.93169 39.68 2.13475 39.5985Z" stroke="#3D3131" stroke-width="2" stroke-linecap="round" stroke-linejoin="round"/>
<path d="M5.9231 44.334L6.28378 48.0352L6.94188 50.9737L7.48371 56.9314L7.74755 58.6464L8.38078 60.5197L8.8103 64.7644L9.47472 68.7218L9.95217 70.9559L10.6979 78.7395L11.257 80.6905L11.9335 86.3205L12.4799 90.4139L12.7064 92.4464L13.158 93.1096H16.0794H17.9892L19.7068 92.9537L20.9016 93.1096L25.1882 93.2601L29.4819 93.1096H32.3158L33.0892 93.2601H38.0498L39.5451 93.1096L40.2445 89.2615L40.4162 88.0397L41.3325 81.5779L42.9238 73.139L43.3321 69.6703L44.0329 65.7128L45.0632 58.5111L45.5006 55.8138L46.0109 49.8359L46.6484 44.334" stroke="#3D3131" stroke-width="2" stroke-linecap="round" stroke-linejoin="round"/>
<path d="M15.394 88.8477L16.2421 88.9476L22.7797 88.7642L24.876 88.8477L30.4966 88.7642L31.9683 88.8477" stroke="#3D3131" stroke-width="2" stroke-linecap="round" stroke-linejoin="round"/>
<path d="M34.5728 88.8477L35.2547 88.7805L36.175 88.8477L37.1773 88.8477" stroke="#3D3131" stroke-width="2" stroke-linecap="round" stroke-linejoin="round"/>
<path d="M9.23779 48.596L10.7241 48.4983L12.9576 48.596L17.407 48.6917L18.9456 48.596H21.5926L25.0747 48.6917L28.6533 48.596" stroke="#3D3131" stroke-width="2" stroke-linecap="round" stroke-linejoin="round"/>
<path d="M31.4946 48.596L32.4046 48.5275L33.1223 48.596H33.8624" stroke="#3D3131" stroke-width="2" stroke-linecap="round" stroke-linejoin="round"/>
<path d="M36.2302 48.596L37.6518 48.6681L38.3118 48.596H39.4267L40.4019 48.6681L41.4883 48.4894L42.6231 48.596" stroke="#3D3131" stroke-width="2" stroke-linecap="round" stroke-linejoin="round"/>
<path d="M49.4054 2.08433L50.1024 3.22222L50.7045 4.34575L50.5316 5.07201L49.177 5.77954L46.7058 6.84307L44.3009 8.30019L41.4731 9.62649L39.559 10.8616L37.9787 11.5895L36.5652 12.3651L36.0414 12.3903L34.7634 9.94923L34.7335 9.32719L36.0699 8.4694L37.2364 7.95983L41.2909 5.83769L42.7985 4.97164L45.2377 3.83407L47.5573 2.5511L48.7582 1.98415L49.4054 2.08433Z" stroke="#3D3131" stroke-width="2" stroke-linecap="round" stroke-linejoin="round"/>
<path d="M34.7865 13.4716L33.7491 15.0669L30.4578 14.2619L31.6366 11.6582L34.7865 13.4716Z" stroke="#3D3131" stroke-width="2" stroke-linecap="round" stroke-linejoin="round"/>
<path d="M35.8693 12.4491L34.9323 13.5185L31.6676 11.7208L34.2594 9.61538L35.8693 12.4491Z" stroke="#3D3131" stroke-width="2" stroke-linecap="round" stroke-linejoin="round"/>
</svg>
