<svg width="335" height="321" viewBox="0 0 335 321" fill="none" xmlns="http://www.w3.org/2000/svg">
<path d="M283.253 245.986L278.916 246.767L275.689 240.215L273.177 233.003L271.418 223.228L266.151 217.575L258.199 231.146L235.98 265.798L243.508 269.679L258.32 271.035L268.683 269.171L272.322 273.372L279.362 269.905L285.057 260.23L286.377 250.28L283.253 245.986Z" fill="#FFFBFA"/>
<path d="M277.807 246.469C282.074 244.211 285.595 246.048 286.345 250.215C286.768 252.569 286.504 257.27 284.007 262.462C281.962 266.714 278.597 270.397 276.031 272.196C273.582 273.913 269.262 273.734 268.79 268.93C264.77 270.729 257.03 271.424 251.054 271.217C245.079 271.01 239.296 267.485 236.825 266.459C227.738 262.687 231.966 255.893 235.945 255.515C239.924 255.136 244.811 256.951 245.068 257.007M261.303 234.565C257.197 230.841 252.036 225.781 248.985 223.394C246.619 221.544 241.639 217.177 239.189 218.894C236.739 220.612 233.366 224.481 239.738 232.077C245.2 238.59 249.23 241.58 250.229 243.077C251.228 244.575 252.669 245.394 250.034 244.617C246.875 243.685 238.793 239.154 237.76 238.599C235.391 237.326 230.02 235.956 227.49 240.664C224.959 245.372 230.36 248.996 235.244 251.621C238.798 253.53 244.36 256.627 245.068 257.007M245.068 257.007C245.775 257.387 245.324 257.063 245.068 257.007Z" stroke="#3D3131" stroke-width="3" stroke-linecap="round" stroke-linejoin="round"/>
<path d="M217.748 177.289C215.155 177.896 214.028 181.651 213.075 183.993C212.122 186.335 210.75 188.065 209.897 189.741C209.044 191.416 205.144 197.843 205.144 197.843L197.995 208.46L193.814 213.987C193.814 213.987 190.695 220.42 189.534 221.845C188.372 223.269 186.034 225.933 184.911 227.484C183.789 229.035 181.787 231.494 182.702 233.488C183.617 235.482 186.932 237.006 188.187 237.896C189.442 238.786 192.037 241.199 194.598 242.108C197.159 243.017 199.329 245.214 201.228 246.472C203.126 247.73 205.216 249.011 207.933 250.726C210.651 252.441 212.785 254.261 212.785 254.261C212.785 254.261 214.771 255.111 215.954 256.466C217.137 257.821 219.231 259.149 221.726 262.371C224.222 265.594 224.233 269.206 225.409 269.53C226.585 269.855 230.408 267.593 232.364 266.044C234.32 264.495 235.625 262.9 237.533 260.403C239.44 257.906 240.798 256.153 242.24 254.326C243.681 252.498 244.646 251.195 246.835 248.723C249.024 246.251 249.901 243.819 251.295 241.576C251.94 240.539 254.258 237.422 256.176 234.35C258.404 230.782 259.221 229.042 260.217 227.283C261.213 225.524 263.619 221.74 264.678 220.136C265.737 218.532 267.142 216.643 266.883 215.403C266.624 214.162 262.992 210.764 261.276 209.111C259.56 207.457 257.352 205.204 255.584 204.09C253.815 202.976 251.326 200.092 249.838 199.131C248.35 198.169 245.434 195.406 243.386 193.951C241.338 192.497 238.201 190.843 236.971 189.891C235.741 188.939 232.371 186.088 230.737 185.078C229.104 184.069 225.608 181.737 224.104 180.652C222.6 179.567 220.342 176.681 217.748 177.289Z" fill="#FFFBFA" stroke="#3D3131" stroke-width="3" stroke-linecap="round"/>
<path d="M226.447 206.24L226.316 206.783L226.099 208.313L226.063 209.462L225.893 209.851L225.779 210.659L225.604 211.197L225.512 211.549L225.558 211.373L225.581 211.736L228.413 212.103C228.413 212.103 228.591 211.493 228.676 211.112C228.779 210.648 228.802 210.21 228.848 209.985C228.923 209.615 228.891 209.263 228.962 208.905C229.087 208.601 229.123 208.074 229.193 207.686C229.319 207.419 229.411 206.566 229.462 206.221C229.523 205.795 229.482 205.762 229.497 205.457C230.136 205.467 230.303 205.372 230.871 205.105C231.189 204.955 231.363 204.77 231.594 204.495C231.741 204.32 232.081 204.146 232.137 203.888C232.1 203.787 232.261 203.417 232.293 203.208C232.338 202.912 232.425 202.529 232.289 202.333C232.176 202.073 232.436 202.043 232.164 201.665C232.02 201.464 232.121 201.298 231.828 201.063C231.635 200.593 231.344 200.324 230.95 200.156C230.66 200.033 230.289 199.903 230.055 199.988C229.748 199.923 229.533 199.968 229.283 200.058C229.054 200.14 228.885 200.148 228.629 200.393C228.447 200.62 228.2 200.728 228.02 200.935C227.867 201.112 227.652 201.344 227.623 201.516C227.58 201.764 227.534 201.814 227.48 202.074C227.241 201.411 226.345 200.719 226.041 200.788C225.922 200.816 225.435 200.805 225.293 200.734C224.999 200.753 224.413 201.049 224.309 201.178C224.052 201.185 223.739 201.679 223.628 201.94C223.298 202.137 223.504 202.105 223.374 202.312C223.259 202.494 223.242 202.792 223.102 202.906C222.968 203.074 223.004 203.343 223.004 203.58C223.004 203.844 223.221 204.282 223.212 204.59C223.281 204.865 223.637 204.91 223.794 205.11C223.925 205.276 224.011 205.478 224.244 205.566C224.477 205.655 224.629 205.846 224.844 205.951C224.99 206.023 225.113 206.167 225.297 206.132C225.667 206.246 226.059 206.288 226.447 206.24Z" fill="#FFFBFA"/>
<path d="M258.573 226.536L261.345 234.688L276.507 241.867L274.877 237.376L273.184 227.966L269.375 219.421L264.075 216.557L260.205 217.882L258.514 221.375L258.573 226.536Z" fill="#FFFBFA"/>
<path d="M277.807 246.469C276.891 241.378 274.282 237.908 273.49 233.507C272.48 227.893 271.587 223.123 268.618 219.398C264.57 214.319 260.161 216.396 258.741 220.328C257.581 223.537 258.986 229.897 261.303 234.565" stroke="#3D3131" stroke-width="3" stroke-linecap="round" stroke-linejoin="round"/>
<path d="M297.017 97.6085L295.277 101.657L288.032 100.738L280.63 98.8577L271.505 94.9365L263.885 96.2137L270.824 110.331L287.486 147.971L294.874 143.83L304.171 132.219L308.328 122.545L313.84 121.825L314.828 114.04L309.895 103.955L302.322 97.3685L297.017 97.6085Z" fill="#FFFBFA"/>
<path d="M294.417 102.419C294.886 97.6137 298.36 95.6888 302.25 97.3604C304.447 98.3046 308.223 101.116 311.179 106.062C313.599 110.112 314.817 114.95 314.903 118.082C314.985 121.073 312.454 124.578 308.186 122.323C307.47 126.67 303.784 133.51 300.317 138.382C296.85 143.253 290.72 146.135 288.503 147.631C280.346 153.133 277.009 145.86 278.886 142.331C280.764 138.803 284.972 135.726 285.161 135.543M275.387 109.626C270.017 110.999 262.95 112.515 259.276 113.745C256.428 114.698 250.039 116.446 250.122 119.437C250.204 122.427 251.573 127.374 261.423 126.246C269.868 125.279 274.584 123.565 276.384 123.558C278.184 123.55 279.662 122.799 277.561 124.569C275.042 126.69 266.807 130.936 265.774 131.492C263.406 132.767 259.302 136.493 261.835 141.199C264.369 145.906 270.369 143.397 275.251 140.769C278.804 138.857 284.454 135.923 285.161 135.543M285.161 135.543C285.868 135.162 285.349 135.36 285.161 135.543Z" stroke="#3D3131" stroke-width="3" stroke-linecap="round" stroke-linejoin="round"/>
<path d="M203.59 114.389C202.667 116.888 205.178 119.897 206.607 121.984C208.035 124.07 208.723 126.168 209.651 127.804C210.578 129.439 213.79 136.236 213.79 136.236L218.707 148.053L221.014 154.589C221.014 154.589 224.661 160.737 225.21 162.492C225.758 164.246 226.691 167.665 227.366 169.457C228.041 171.249 228.99 174.275 231.158 174.61C233.326 174.946 236.425 173.021 237.859 172.464C239.293 171.907 242.737 171.073 244.907 169.437C247.078 167.802 250.107 167.202 252.203 166.312C254.3 165.421 256.521 164.384 259.449 163.062C262.378 161.74 265.073 160.963 265.073 160.963C265.073 160.963 266.877 159.775 268.66 159.534C270.443 159.294 272.704 158.28 276.769 157.974C280.833 157.669 283.853 159.65 284.772 158.848C285.691 158.046 285.912 153.609 285.698 151.123C285.483 148.637 284.872 146.67 283.841 143.702C282.809 140.734 282.095 138.634 281.365 136.424C280.635 134.214 280.079 132.691 279.223 129.502C278.367 126.312 276.822 124.239 275.72 121.84C275.21 120.73 273.887 117.078 272.382 113.785C270.633 109.959 269.631 108.318 268.713 106.517C267.794 104.716 265.964 100.623 265.209 98.8553C264.455 97.0872 263.654 94.8733 262.476 94.406C261.298 93.9388 256.461 95.0959 254.135 95.6155C251.81 96.135 248.712 96.7354 246.808 97.597C244.904 98.4585 241.126 98.945 239.503 99.6564C237.881 100.368 233.967 101.278 231.625 102.185C229.283 103.091 226.174 104.797 224.702 105.298C223.229 105.8 218.992 107.04 217.249 107.846C215.507 108.652 211.634 110.283 209.9 110.94C208.165 111.596 204.513 111.89 203.59 114.389Z" fill="#FFFBFA" stroke="#3D3131" stroke-width="3" stroke-linecap="round"/>
<path d="M267.183 107.477L275.513 109.658L289.861 100.966L285.215 99.8499L276.431 96.0755L267.202 94.5428L261.891 97.3856L260.863 101.344L262.846 104.681L267.183 107.477Z" fill="#FFFBFA"/>
<path d="M294.417 102.419C289.665 100.376 285.332 100.64 281.223 98.8747C275.982 96.6224 271.51 94.7376 266.766 95.1611C260.296 95.7387 259.599 100.562 262.096 103.914C264.134 106.651 270.215 108.986 275.387 109.626" stroke="#3D3131" stroke-width="3" stroke-linecap="round" stroke-linejoin="round"/>
<path d="M95.4449 285.839L99.251 283.619L97.4568 276.54L94.6896 269.422L89.6864 260.842L90.0263 253.123L104.883 258.292L144.272 270.247L141.062 278.084L130.669 288.726L121.573 294.03L121.53 299.588L113.923 301.516L103.313 297.849L95.8526 291.134L95.4449 285.839Z" fill="#FFFBFA"/>
<path d="M99.7534 282.839C95.0412 283.889 92.8851 287.663 95.0179 291.321C96.2225 293.387 101.126 295.512 106.395 297.843C110.71 299.752 114.825 301.395 117.945 301.099C120.923 300.817 124.094 297.877 121.336 293.915C125.563 292.676 128.028 292.762 132.967 288.247C137.907 283.731 139.849 277.882 142.051 272.72C145.911 263.67 140.901 260.105 137.627 262.398C134.354 264.691 131.812 269.243 131.654 269.452M104.739 262.907C105.448 257.409 106.093 250.211 106.866 246.415C107.465 243.472 108.422 236.917 111.401 236.635C114.379 236.353 119.456 237.109 119.536 247.024C119.604 255.523 118.477 260.413 118.689 262.2C118.9 263.988 118.335 265.547 119.836 263.245C121.635 260.487 124.846 251.796 125.272 250.703C126.249 248.197 129.448 243.67 134.428 245.612C139.408 247.553 137.648 253.814 135.634 258.98C134.169 262.739 131.945 268.704 131.654 269.452M131.654 269.452C131.362 270.2 131.495 269.662 131.654 269.452Z" stroke="#3D3131" stroke-width="3" stroke-linecap="round" stroke-linejoin="round"/>
<path d="M172.594 213.935C171.307 211.603 167.387 211.536 164.875 211.253C162.362 210.97 160.324 210.119 158.48 209.752C156.636 209.385 149.393 207.372 149.393 207.372L137.237 203.369L130.783 200.841C130.783 200.841 123.745 199.583 122.059 198.851C120.373 198.119 117.176 196.59 115.379 195.93C113.581 195.269 110.672 194.009 109 195.43C107.329 196.851 106.76 200.455 106.244 201.904C105.728 203.353 104.108 206.505 103.927 209.217C103.746 211.928 102.22 214.612 101.523 216.781C100.826 218.95 100.159 221.308 99.2449 224.389C98.3308 227.47 97.1577 230.017 97.1577 230.017C97.1577 230.017 96.8776 232.158 95.8939 233.665C94.9102 235.171 94.1993 237.546 91.7736 240.821C89.3479 244.097 85.874 245.087 85.8802 246.306C85.8864 247.526 89.0997 250.593 91.121 252.056C93.1424 253.52 95.0309 254.344 97.9514 255.503C100.872 256.663 102.927 257.494 105.077 258.387C107.227 259.279 108.742 259.854 111.715 261.291C114.688 262.728 117.267 262.914 119.804 263.649C120.977 263.988 124.606 265.375 128.082 266.388C132.12 267.566 134.016 267.881 135.98 268.363C137.943 268.845 142.237 270.135 144.068 270.72C145.899 271.305 148.098 272.146 149.222 271.56C150.345 270.974 152.632 266.557 153.759 264.458C154.886 262.358 156.456 259.622 157.049 257.618C157.642 255.614 159.744 252.436 160.266 250.743C160.788 249.05 162.658 245.494 163.503 243.129C164.348 240.764 165.09 237.296 165.673 235.854C166.256 234.412 168.087 230.395 168.616 228.549C169.145 226.704 170.442 222.707 171.079 220.965C171.716 219.223 173.882 216.267 172.594 213.935Z" fill="#FFFBFA" stroke="#3D3131" stroke-width="3" stroke-linecap="round"/>
<path d="M101.608 255.026L104.787 263.028L97.9062 278.327L96.2327 273.852L91.4168 265.593L88.7717 256.619L90.9466 251.001L94.7506 249.499L98.3042 251.061L101.608 255.026Z" fill="#FFFBFA"/>
<path d="M99.9025 282.673C97.2967 278.205 97.0309 273.872 94.7784 270.009C91.9047 265.081 89.4894 260.872 89.3321 256.112C89.1176 249.619 93.8203 248.34 97.4518 250.41C100.416 252.1 103.474 257.851 104.739 262.907" stroke="#3D3131" stroke-width="3" stroke-linecap="round" stroke-linejoin="round"/>
<path d="M31.1935 143.49L34.8039 146.015L40.4796 141.419L45.7818 135.923L51.4746 127.784L58.6253 124.857L60.1603 140.512L65.8153 181.285L57.3545 181.656L43.3369 176.681L34.7086 170.645L29.6439 172.935L24.7047 166.838L23.5873 155.667L26.5572 146.079L31.1935 143.49Z" fill="#FFFBFA"/>
<path d="M35.7232 146.144C32.7948 142.306 28.4639 141.93 26.0371 145.4C24.6664 147.359 24.7923 152.702 24.8843 158.463C24.9596 163.18 25.1929 167.606 26.7689 170.314C28.2736 172.899 32.2715 174.546 34.7127 170.382C37.6093 173.7 38.565 175.974 44.7348 178.566C50.9047 181.158 57.0299 180.47 62.6388 180.305C72.4734 180.016 73.6106 173.974 70.1565 171.963C66.7023 169.952 61.5044 169.552 61.2479 169.496M55.9094 142.316C61.1977 140.655 68.004 138.224 71.7744 137.334C74.6975 136.645 81.0495 134.767 82.5543 137.352C84.059 139.938 85.5005 144.865 76.5322 149.093C68.8436 152.718 63.9323 153.744 62.3978 154.685C60.8633 155.626 59.2114 155.766 61.9298 156.164C65.1883 156.642 74.4248 155.914 75.5957 155.843C78.2805 155.68 83.7312 156.687 84.0559 162.022C84.3807 167.357 77.9585 168.384 72.4242 168.721C68.3971 168.966 62.0492 169.447 61.2479 169.496M61.2479 169.496C60.4466 169.544 60.9913 169.439 61.2479 169.496Z" stroke="#3D3131" stroke-width="3" stroke-linecap="round" stroke-linejoin="round"/>
<path d="M128.813 183.396C130.391 181.25 128.809 177.664 128.012 175.264C127.216 172.864 127.135 170.657 126.695 168.829C126.256 167.001 125.047 159.581 125.047 159.581L123.587 146.866L123.176 139.947C123.176 139.947 121.369 133.03 121.327 131.193C121.285 129.355 121.332 125.811 121.179 123.903C121.025 121.994 120.95 118.824 118.959 117.902C116.968 116.98 113.458 117.975 111.926 118.113C110.394 118.252 106.853 118.102 104.315 119.075C101.778 120.047 98.7009 119.786 96.44 120.062C94.1791 120.339 91.758 120.722 88.5778 121.183C85.3976 121.644 82.5933 121.647 82.5933 121.647C82.5933 121.647 80.5314 122.29 78.7515 122.029C76.9716 121.767 74.5177 122.117 70.5271 121.287C66.5366 120.458 64.1816 117.719 63.0768 118.236C61.9719 118.752 60.5339 122.956 60.0528 125.404C59.5717 127.853 59.6152 129.912 59.7865 133.05C59.9579 136.188 60.0644 138.402 60.1551 140.728C60.2458 143.054 60.3589 144.671 60.3003 147.973C60.2418 151.274 61.1538 153.694 61.5503 156.304C61.7337 157.512 61.9958 161.388 62.5325 164.968C63.1561 169.128 63.6652 170.982 64.0503 172.967C64.4354 174.952 65.0635 179.391 65.3003 181.298C65.5371 183.206 65.6953 185.555 66.698 186.33C67.7008 187.104 72.6695 187.329 75.0482 187.472C77.4269 187.615 80.5694 187.894 82.6374 187.592C84.7054 187.291 88.4708 187.867 90.227 187.632C91.9831 187.396 95.9954 187.603 98.4969 187.379C100.998 187.155 104.458 186.375 106.011 186.3C107.565 186.225 111.98 186.203 113.877 185.91C115.775 185.617 119.947 185.119 121.796 184.968C123.644 184.816 127.236 185.543 128.813 183.396Z" fill="#FFFBFA" stroke="#3D3131" stroke-width="3" stroke-linecap="round"/>
<path d="M61.7522 136.17L55.8199 142.41L39.0452 142.576L42.4067 139.181L47.8864 131.347L54.9254 125.184L60.9377 124.803L63.8962 127.627L63.9677 131.508L61.7522 136.17Z" fill="#FFFBFA"/>
<path d="M35.9362 146.21C38.9012 141.971 42.7236 139.914 45.2865 136.25C48.5563 131.575 51.3656 127.618 55.6213 125.48C61.4261 122.564 64.5583 126.297 64.2009 130.462C63.9091 133.862 59.9691 139.048 55.9095 142.316" stroke="#3D3131" stroke-width="3" stroke-linecap="round" stroke-linejoin="round"/>
<path d="M144.618 24.4541L143.473 28.7085L149.727 32.4807L156.699 35.5955L166.289 38.1779L171.476 43.9053L157.278 50.6775L120.865 69.874L117.637 62.0444L117.543 47.1705L120.281 37.0031L116.404 33.0203L120.456 26.3004L130.579 21.4472L140.605 20.9761L144.618 24.4541Z" fill="#FFFBFA"/>
<path d="M143.665 29.6168C146.277 25.5567 145.156 21.3567 141.067 20.2559C138.758 19.6341 133.777 21.571 128.392 23.6186C123.981 25.2953 119.9 27.0209 117.89 29.4246C115.971 31.7197 115.783 36.0394 120.53 36.9172C118.396 40.7704 116.583 42.4431 116.246 49.1268C115.909 55.8104 118.641 61.3357 120.705 66.5536C124.325 75.7026 130.394 74.7149 131.109 70.7825C131.824 66.8501 130.43 61.8265 130.396 61.5661M154.135 47.2945C157.497 51.7018 162.1 57.2738 164.22 60.5163C165.863 63.0301 169.791 68.3635 167.872 70.6586C165.953 72.9537 161.812 75.986 154.783 68.9925C148.758 62.997 146.121 58.7283 144.713 57.6058C143.306 56.4834 142.612 54.9778 143.163 57.6694C143.824 60.8958 147.651 69.3331 148.117 70.4098C149.185 72.8786 150.093 78.3466 145.187 80.4679C140.282 82.5893 137.13 76.9003 134.929 71.8112C133.328 68.108 130.714 62.303 130.396 61.5661M130.396 61.5661C130.077 60.8293 130.361 61.3058 130.396 61.5661Z" stroke="#3D3131" stroke-width="3" stroke-linecap="round" stroke-linejoin="round"/>
<path d="M140.324 129.828C142.88 130.581 145.713 127.872 147.699 126.307C149.684 124.741 151.731 123.913 153.301 122.878C154.87 121.842 161.436 118.18 161.436 118.18L172.894 112.479L179.26 109.737C179.26 109.737 185.149 105.684 186.862 105.019C188.576 104.354 191.924 103.192 193.667 102.398C195.409 101.604 198.364 100.454 198.553 98.2684C198.742 96.0828 196.612 93.12 195.96 91.7267C195.309 90.3334 194.244 86.9537 192.466 84.8984C190.688 82.843 189.886 79.8612 188.856 77.8295C187.827 75.7977 186.643 73.6515 185.126 70.8182C183.61 67.985 182.653 65.349 182.653 65.349C182.653 65.349 181.346 63.6293 180.986 61.8666C180.627 60.1038 179.462 57.9156 178.884 53.881C178.305 49.8464 180.079 46.6997 179.217 45.8368C178.355 44.9739 173.914 45.0524 171.448 45.4335C168.982 45.8147 167.059 46.5567 164.168 47.7859C161.276 49.015 159.23 49.869 157.073 50.7461C154.917 51.6232 153.435 52.2799 150.311 53.3487C147.186 54.4175 145.222 56.0987 142.902 57.36C141.829 57.9435 138.274 59.5093 135.09 61.2329C131.391 63.2353 129.821 64.345 128.086 65.3827C126.351 66.4204 122.391 68.522 120.677 69.3941C118.964 70.2661 116.809 71.2145 116.422 72.421C116.035 73.6275 117.516 78.3759 118.191 80.6614C118.865 82.9468 119.673 85.9965 120.661 87.8382C121.649 89.68 122.388 93.4168 123.207 94.988C124.026 96.5591 125.198 100.402 126.26 102.678C127.322 104.954 129.233 107.941 129.833 109.376C130.432 110.812 131.955 114.956 132.877 116.64C133.798 118.324 135.687 122.078 136.458 123.765C137.23 125.451 137.769 129.075 140.324 129.828Z" fill="#FFFBFA" stroke="#3D3131" stroke-width="3" stroke-linecap="round"/>
<path d="M161.903 50.6961L154.016 47.2423L148.15 31.5257L152.487 33.5308L161.718 36.0166L169.909 40.5373L172.313 46.0612L170.665 49.8043L167.04 51.1926L161.903 50.6961Z" fill="#FFFBFA"/>
<path d="M143.675 29.8394C148.67 31.1845 151.905 34.0782 156.223 35.2409C161.732 36.7241 166.409 38.0186 169.868 41.2924C174.586 45.7579 172.141 49.974 168.103 51.0556C164.808 51.9384 158.589 49.9994 154.135 47.2944" stroke="#3D3131" stroke-width="3" stroke-linecap="round" stroke-linejoin="round"/>
</svg>
