<svg width="335" height="321" viewBox="0 0 335 321" fill="none" xmlns="http://www.w3.org/2000/svg">
<path d="M283.253 245.986L278.916 246.767L275.689 240.215L273.177 233.003L271.418 223.228L266.151 217.575L258.199 231.146L235.98 265.798L243.508 269.679L258.32 271.035L268.683 269.171L272.322 273.372L279.362 269.905L285.057 260.23L286.377 250.28L283.253 245.986Z" fill="#FFFBFA"/>
<path d="M277.807 246.469C282.074 244.211 285.595 246.048 286.345 250.215C286.768 252.569 286.504 257.27 284.007 262.462C281.962 266.714 278.597 270.397 276.031 272.196C273.582 273.913 269.262 273.734 268.79 268.93C264.77 270.729 257.03 271.424 251.054 271.217C245.079 271.01 239.296 267.485 236.825 266.459C227.738 262.687 231.966 255.893 235.945 255.515C239.924 255.136 244.811 256.951 245.068 257.007M261.303 234.565C257.197 230.841 252.036 225.781 248.985 223.394C246.619 221.544 241.639 217.177 239.189 218.894C236.739 220.612 233.366 224.481 239.738 232.077C245.2 238.59 249.23 241.58 250.229 243.077C251.228 244.575 252.669 245.394 250.034 244.617C246.875 243.685 238.793 239.154 237.76 238.599C235.391 237.326 230.02 235.956 227.49 240.664C224.959 245.372 230.36 248.996 235.244 251.621C238.798 253.53 244.36 256.627 245.068 257.007M245.068 257.007C245.775 257.387 245.324 257.063 245.068 257.007Z" stroke="#3D3131" stroke-width="3" stroke-linecap="round" stroke-linejoin="round"/>
<path d="M217.748 177.289C215.155 177.896 214.028 181.651 213.075 183.993C212.122 186.335 210.75 188.065 209.897 189.741C209.044 191.416 205.144 197.843 205.144 197.843L197.995 208.46L193.814 213.987C193.814 213.987 190.695 220.42 189.534 221.845C188.372 223.269 186.034 225.933 184.911 227.484C183.789 229.035 181.787 231.494 182.702 233.488C183.617 235.482 186.932 237.006 188.187 237.896C189.442 238.786 192.037 241.199 194.598 242.108C197.159 243.017 199.329 245.214 201.228 246.472C203.126 247.73 205.216 249.011 207.933 250.726C210.651 252.441 212.785 254.261 212.785 254.261C212.785 254.261 214.771 255.111 215.954 256.466C217.137 257.821 219.231 259.149 221.726 262.371C224.222 265.594 224.233 269.206 225.409 269.53C226.585 269.855 230.408 267.593 232.364 266.044C234.32 264.495 235.625 262.9 237.533 260.403C239.44 257.906 240.798 256.153 242.24 254.326C243.681 252.498 244.646 251.195 246.835 248.723C249.024 246.251 249.901 243.819 251.295 241.576C251.94 240.539 254.258 237.422 256.176 234.35C258.404 230.782 259.221 229.042 260.217 227.283C261.213 225.524 263.619 221.74 264.678 220.136C265.737 218.532 267.142 216.643 266.883 215.403C266.624 214.162 262.992 210.764 261.276 209.111C259.56 207.457 257.352 205.204 255.584 204.09C253.815 202.976 251.326 200.092 249.838 199.131C248.35 198.169 245.434 195.406 243.386 193.951C241.338 192.497 238.201 190.843 236.971 189.891C235.741 188.939 232.371 186.088 230.737 185.078C229.104 184.069 225.608 181.737 224.104 180.652C222.6 179.567 220.342 176.681 217.748 177.289Z" fill="#FFFBFA" stroke="#3D3131" stroke-width="3" stroke-linecap="round"/>
<path d="M214.755 219.531C214.512 220.173 214.328 221.403 214.204 222.065C213.974 223.297 214.087 223.844 214.268 225.058C214.382 225.824 214.786 226.862 215.237 227.85C215.578 228.598 216.168 229.407 216.47 229.915C216.992 230.794 217.027 230.655 217.825 231.369C218.226 231.797 218.834 232.457 219.654 232.886C220.205 233.175 220.88 233.265 221.549 233.464C222.036 233.608 221.836 233.644 222.359 233.707C223.058 233.791 224.489 233.866 225.204 233.745L225.683 233.687L226.157 233.721C226.376 233.917 226.667 233.913 226.974 234.14C227.533 234.554 227.587 234.847 228.018 235.384C228.449 235.922 228.834 236.336 229.16 236.949C229.488 237.566 229.651 237.808 230.01 238.2C230.157 238.36 230.586 238.422 230.752 238.514L231.388 238.244L234.107 235.808L234.873 235.127L236.717 233.064L238.537 230.852L239.252 230.052L240.985 228.113L241.218 227.469L241.091 226.695L240.319 226.005L239.317 225.283L238.417 224.965L237.716 224.535L236.86 224.143L236.332 223.671L235.757 222.785C235.794 222.037 235.896 220.789 235.667 219.498C235.484 218.471 235.042 217.437 234.547 216.466C234.145 215.678 233.564 215.094 232.901 214.502C232.602 214.234 232.319 213.815 231.778 213.498C231.143 213.127 230.24 212.864 229.839 212.656C228.962 212.2 228.997 212.276 228.042 212.087C227.406 211.962 226.782 211.793 226.133 211.784C225.49 211.775 224.821 211.924 224.181 212.028C223.557 212.128 222.971 212.376 222.364 212.583C221.912 212.737 221.434 212.826 220.999 213.038C220.219 213.417 219.466 213.776 218.768 214.339C218.27 214.741 217.804 215.301 217.362 215.795C216.868 216.348 216.324 217.004 215.922 217.632C215.511 218.274 215.007 218.866 214.755 219.531Z" fill="#FFFBFA" stroke="#3D3131" stroke-width="2" stroke-linejoin="round"/>
<path d="M230.511 219.161C230.67 219.218 230.928 219.351 231.073 219.43C231.217 219.509 231.365 219.565 231.494 219.664C231.801 219.867 231.772 219.927 231.892 220.054C232.004 220.171 232.1 220.248 232.187 220.375C232.266 220.491 232.412 220.645 232.479 220.814C232.551 220.997 232.543 221.196 232.581 221.333C232.631 221.511 232.578 221.63 232.583 221.814C232.588 221.987 232.636 222.13 232.601 222.305C232.564 222.481 232.498 222.574 232.419 222.749C232.358 222.939 232.218 223.052 232.134 223.179C232.007 223.371 231.945 223.547 231.795 223.691C231.715 223.768 231.628 223.761 231.487 223.841C231.379 223.903 231.215 224.055 231.147 224.096C231.009 224.179 230.85 224.234 230.701 224.287C230.525 224.349 230.548 224.289 230.359 224.31C230.229 224.325 230.096 224.33 229.962 224.325C229.843 224.322 229.712 224.346 229.591 224.328C229.502 224.314 229.423 224.262 229.333 224.241C229.208 224.212 228.961 224.101 228.835 224.057C228.724 224.019 228.735 224.05 228.624 224.002C228.482 223.939 228.36 223.926 228.218 223.846C228.102 223.781 227.965 223.653 227.85 223.576C227.651 223.445 227.612 223.492 227.434 223.354C227.244 223.206 226.918 222.872 226.758 222.717C226.633 222.596 226.587 222.595 226.483 222.47C226.366 222.328 226.215 222.216 226.109 222.035C226.025 221.892 225.978 221.68 225.931 221.56C225.845 221.344 225.819 221.149 225.812 220.923C225.806 220.726 225.773 220.517 225.844 220.322C225.916 220.128 225.988 219.95 226.127 219.74C226.367 219.378 226.502 219.338 226.809 219.174C226.969 219.089 226.944 219.054 227.084 219.002C227.303 218.92 227.69 218.848 228.021 218.856C228.348 218.864 228.227 218.809 228.654 218.872C228.775 218.889 228.961 218.87 229.178 218.92C229.35 218.959 229.547 219.069 229.702 219.077C230.161 219.1 230.219 219.117 230.511 219.161Z" fill="#3D3131"/>
<path d="M222.162 228.674C222.242 228.822 222.415 229.056 222.516 229.187C222.616 229.317 222.695 229.454 222.813 229.566C223.062 229.837 223.116 229.799 223.26 229.898C223.394 229.99 223.484 230.072 223.624 230.139C223.751 230.199 223.926 230.319 224.104 230.358C224.295 230.401 224.49 230.361 224.632 230.378C224.816 230.398 224.924 230.327 225.107 230.304C225.279 230.281 225.428 230.307 225.595 230.244C225.763 230.18 225.844 230.1 226.004 229.994C226.183 229.905 226.272 229.749 226.384 229.646C226.554 229.49 226.718 229.402 226.837 229.23C226.9 229.14 226.88 229.055 226.937 228.903C226.981 228.787 227.106 228.601 227.135 228.527C227.195 228.378 227.225 228.212 227.253 228.057C227.287 227.873 227.231 227.905 227.223 227.715C227.217 227.584 227.201 227.453 227.175 227.32C227.153 227.204 227.157 227.07 227.12 226.954C227.092 226.868 227.028 226.799 226.993 226.713C226.945 226.594 226.796 226.367 226.734 226.25C226.679 226.146 226.711 226.152 226.645 226.05C226.562 225.92 226.529 225.801 226.428 225.674C226.346 225.569 226.197 225.454 226.103 225.352C225.943 225.177 225.983 225.13 225.819 224.977C225.643 224.813 225.262 224.543 225.084 224.409C224.945 224.305 224.936 224.259 224.796 224.177C224.638 224.083 224.503 223.952 224.308 223.876C224.154 223.815 223.937 223.802 223.811 223.774C223.584 223.723 223.388 223.728 223.164 223.757C222.967 223.782 222.756 223.782 222.575 223.883C222.395 223.984 222.231 224.084 222.045 224.254C221.724 224.548 221.706 224.687 221.593 225.017C221.534 225.188 221.495 225.169 221.466 225.314C221.42 225.544 221.409 225.937 221.469 226.263C221.528 226.585 221.455 226.474 221.584 226.886C221.621 227.003 221.631 227.189 221.714 227.396C221.779 227.559 221.919 227.736 221.951 227.889C222.046 228.339 222.073 228.393 222.162 228.674Z" fill="#3D3131"/>
<path d="M231.15 233.23L231.317 233.444L231.697 233.719L231.962 234.08L232.5 234.561L232.933 235.094L233.194 235.328L233.464 235.671" stroke="#3D3131" stroke-width="2" stroke-linecap="round"/>
<path d="M233.699 230.389L234.066 230.814L234.463 231.073L234.825 231.492L235.355 231.87L235.843 232.402L236.232 232.654" stroke="#3D3131" stroke-width="2" stroke-linecap="round"/>
<path d="M235.958 227.782L236.597 228.031L237.487 228.827L238.279 229.181L238.979 229.66" stroke="#3D3131" stroke-width="2" stroke-linecap="round"/>
<path d="M226.447 206.24L226.316 206.783L226.099 208.313L226.063 209.462L225.893 209.851L225.779 210.659L225.604 211.197L225.512 211.549L225.558 211.373L225.581 211.736L228.413 212.103C228.413 212.103 228.591 211.493 228.676 211.112C228.779 210.648 228.802 210.21 228.848 209.985C228.923 209.615 228.891 209.263 228.962 208.905C229.087 208.601 229.123 208.074 229.193 207.686C229.319 207.419 229.411 206.566 229.462 206.221C229.523 205.795 229.482 205.762 229.497 205.457C230.136 205.467 230.303 205.372 230.871 205.105C231.189 204.955 231.363 204.77 231.594 204.495C231.741 204.32 232.081 204.146 232.137 203.888C232.1 203.787 232.261 203.417 232.293 203.208C232.338 202.912 232.425 202.529 232.289 202.333C232.176 202.073 232.436 202.043 232.164 201.665C232.02 201.464 232.121 201.298 231.828 201.063C231.635 200.593 231.344 200.324 230.95 200.156C230.66 200.033 230.289 199.903 230.055 199.988C229.748 199.923 229.533 199.968 229.283 200.058C229.054 200.14 228.885 200.148 228.629 200.393C228.447 200.62 228.2 200.728 228.02 200.935C227.867 201.112 227.652 201.344 227.623 201.516C227.58 201.764 227.534 201.814 227.48 202.074C227.241 201.411 226.345 200.719 226.041 200.788C225.922 200.816 225.435 200.805 225.293 200.734C224.999 200.753 224.413 201.049 224.309 201.178C224.052 201.185 223.739 201.679 223.628 201.94C223.298 202.137 223.504 202.105 223.374 202.312C223.259 202.494 223.242 202.792 223.102 202.906C222.968 203.074 223.004 203.343 223.004 203.58C223.004 203.844 223.221 204.282 223.212 204.59C223.281 204.865 223.637 204.91 223.794 205.11C223.925 205.276 224.011 205.478 224.244 205.566C224.477 205.655 224.629 205.846 224.844 205.951C224.99 206.023 225.113 206.167 225.297 206.132C225.667 206.246 226.059 206.288 226.447 206.24Z" fill="#FFFBFA"/>
<path d="M225.581 211.742L225.558 211.373L225.512 211.549L225.604 211.197L225.779 210.659L225.893 209.851L226.063 209.462L226.099 208.313L226.316 206.783L226.447 206.24C226.059 206.288 225.667 206.246 225.297 206.132C225.113 206.167 224.99 206.023 224.844 205.951C224.629 205.846 224.477 205.655 224.244 205.566C224.011 205.478 223.925 205.276 223.794 205.11C223.637 204.91 223.281 204.865 223.212 204.59C223.221 204.282 223.004 203.844 223.004 203.58C223.004 203.343 222.968 203.074 223.102 202.906C223.242 202.792 223.259 202.494 223.374 202.312C223.504 202.105 223.298 202.137 223.628 201.94C223.739 201.679 224.052 201.185 224.309 201.178C224.413 201.049 224.999 200.753 225.293 200.734C225.435 200.805 225.922 200.816 226.041 200.788C226.345 200.719 227.241 201.411 227.48 202.074C227.534 201.814 227.58 201.764 227.623 201.516C227.652 201.344 227.867 201.112 228.02 200.935C228.2 200.728 228.447 200.62 228.629 200.393C228.885 200.148 229.054 200.14 229.283 200.058C229.533 199.968 229.748 199.923 230.055 199.988C230.289 199.903 230.66 200.033 230.95 200.156C231.344 200.324 231.635 200.593 231.828 201.063C232.121 201.298 232.02 201.464 232.164 201.665C232.436 202.043 232.176 202.073 232.289 202.333C232.425 202.529 232.338 202.912 232.293 203.208C232.261 203.417 232.1 203.787 232.137 203.888C232.081 204.146 231.741 204.32 231.594 204.495C231.363 204.77 231.189 204.955 230.871 205.105C230.303 205.372 230.136 205.467 229.497 205.457C229.482 205.762 229.523 205.795 229.462 206.221C229.411 206.566 229.319 207.419 229.193 207.686C229.123 208.074 229.087 208.601 228.962 208.905C228.891 209.263 228.923 209.615 228.848 209.985C228.802 210.21 228.779 210.648 228.676 211.112C228.591 211.493 228.413 212.103 228.413 212.103M228.418 211.846L228.52 211.659L228.413 212.103M228.413 212.103L225.573 211.735" stroke="#3D3131" stroke-width="2" stroke-linecap="round" stroke-linejoin="round"/>
<path d="M209.309 225.494L209.846 225.338L211.364 225.054L212.511 224.968L212.892 224.782L213.694 224.632L214.089 224.521L214.873 227.411C214.551 227.49 214.65 227.405 214.274 227.506C213.815 227.629 213.378 227.671 213.155 227.727C212.789 227.818 212.436 227.803 212.082 227.888C211.784 228.027 211.258 228.086 210.874 228.173C210.613 228.31 209.764 228.441 209.422 228.506C209 228.586 208.964 228.546 208.661 228.574C208.888 229.164 208.862 229.828 208.62 230.407C208.484 230.732 208.465 230.866 208.2 231.109C208.031 231.264 207.772 231.527 207.516 231.594C207.414 231.562 207.068 231.813 206.86 231.854C206.566 231.911 206.096 232 205.894 231.873C205.629 231.772 205.326 231.865 204.936 231.61C204.729 231.475 204.568 231.583 204.319 231.3C203.842 231.128 203.535 230.648 203.351 230.262C203.215 229.977 203.068 229.613 203.143 229.375C203.065 229.071 203.179 228.852 203.257 228.598C203.329 228.366 203.33 228.197 203.563 227.93C203.782 227.739 203.879 227.487 204.078 227.298C204.248 227.137 204.471 226.912 204.64 226.876C204.887 226.822 205.113 226.639 205.371 226.574C204.697 226.364 204.198 225.613 204.254 225.306C204.276 225.185 204.3 224.939 204.222 224.799C204.229 224.505 204.28 224.217 204.405 224.108C204.4 223.851 204.761 223.254 205.017 223.132C205.199 222.794 205.176 223.001 205.377 222.862C205.554 222.739 205.851 222.709 205.959 222.564C206.12 222.423 206.391 222.447 206.628 222.436C206.892 222.424 207.092 222.571 207.399 222.548C207.677 222.604 207.857 222.745 208.063 222.893C208.235 223.016 208.44 223.094 208.539 223.322C208.637 223.551 208.835 223.694 208.95 223.904C209.028 224.047 209.177 224.164 209.15 224.349C209.28 224.714 209.34 225.104 209.309 225.494Z" fill="#FFFBFA" stroke="#3D3131" stroke-width="2" stroke-linecap="round" stroke-linejoin="round"/>
<path d="M235.349 218.314L237.058 217.839L237.335 217.695L238.505 217.293L239.462 217.088L240.511 216.766L240.904 216.605L241.15 216.516C241.032 216.287 240.947 215.959 240.915 215.588C240.723 215.24 240.772 214.427 241.085 214.077C241.16 213.856 241.093 213.673 241.221 213.482C241.341 213.301 241.647 213.109 241.802 212.961C242.078 212.697 242.403 212.488 242.756 212.346C243.048 212.019 244.043 211.852 244.347 212.124C244.626 212.17 244.953 212.205 245.217 212.352C245.45 212.482 245.621 212.713 245.839 212.908C246.462 213.465 246.317 213.885 246.606 214.226C246.796 214.45 246.838 215.42 246.805 215.969C246.808 215.97 246.81 215.971 246.813 215.972C247.235 216.151 247.889 216.619 248.043 216.903C248.226 217.242 248.461 217.407 248.556 217.719C248.659 218.063 248.712 218.489 248.721 218.798C248.737 219.294 248.595 219.953 248.414 220.356C248.19 220.853 247.73 221.405 247.473 221.409C247.048 221.884 246.649 221.97 246.204 222.135C245.841 222.395 245.307 222.501 244.908 222.503C244.612 222.504 244.312 222.378 244 222.3C243.295 222.125 243.021 221.807 242.604 221.427C242.122 220.75 241.809 220.412 241.677 219.831L241.293 220.009L240.82 220.036L240.166 220.125L239.212 220.383L238.433 220.598L237.963 220.664L237.289 220.835L236.829 220.885L235.981 221.005L235.349 218.314Z" fill="#FFFBFA" stroke="#3D3131" stroke-width="2" stroke-linecap="round" stroke-linejoin="round"/>
<path d="M221.504 234.523L221.632 233.661L224.529 234.157L224.358 235.291L224.259 236.009L224.153 237.289L224.036 237.878L223.807 238.886L223.734 239.969L223.618 240.782L223.618 241.058C223.865 241.19 224.255 241.351 224.342 241.609C224.564 241.839 225.042 242.234 224.951 242.477C225.371 242.851 225.262 243.185 225.373 243.634C225.481 244.071 225.515 244.74 225.34 244.873C225.324 245.194 224.938 245.821 224.8 245.841C224.552 246.275 224.057 246.672 223.549 246.699C223.214 246.808 222.804 246.926 222.596 246.74C222.218 246.768 222.16 246.576 221.98 246.465C221.775 246.339 221.534 246.239 221.451 246.011C221.427 245.832 221.25 245.747 221.163 245.596C220.926 245.182 220.753 244.669 220.585 244.05C220.464 244.251 220.076 244.487 220.065 244.689C219.921 245.001 219.507 245.257 219.441 245.197C218.966 245.601 218.371 245.685 218.166 245.564C217.778 245.54 217.385 245.479 217.131 245.145C216.846 245.022 216.375 244.377 216.349 244.229C216.146 244.047 216.071 243.554 216.095 243.134C216.119 242.7 216.276 242.199 216.615 241.606C216.717 241.428 216.842 241.262 216.985 241.108C217.197 240.88 217.207 240.811 217.481 240.637C217.74 240.473 218.193 240.138 218.545 240.088C218.698 239.916 219.371 239.819 219.753 239.771C220.18 239.717 220.563 239.737 220.838 239.836L220.908 239.493L220.971 238.293L221.073 237.774L221.161 236.52L221.352 235.396L221.504 234.523Z" fill="#FFFBFA" stroke="#3D3131" stroke-width="2" stroke-linecap="round" stroke-linejoin="round"/>
<path d="M258.573 226.536L261.345 234.688L276.507 241.867L274.877 237.376L273.184 227.966L269.375 219.421L264.075 216.557L260.205 217.882L258.514 221.375L258.573 226.536Z" fill="#FFFBFA"/>
<path d="M277.807 246.469C276.891 241.378 274.282 237.908 273.49 233.507C272.48 227.893 271.587 223.123 268.618 219.398C264.57 214.319 260.161 216.396 258.741 220.328C257.581 223.537 258.986 229.897 261.303 234.565" stroke="#3D3131" stroke-width="3" stroke-linecap="round" stroke-linejoin="round"/>
<path d="M297.017 97.6085L295.277 101.657L288.032 100.738L280.63 98.8577L271.505 94.9365L263.885 96.2137L270.824 110.331L287.486 147.971L294.874 143.83L304.171 132.219L308.328 122.545L313.84 121.825L314.828 114.04L309.895 103.955L302.322 97.3685L297.017 97.6085Z" fill="#FFFBFA"/>
<path d="M294.417 102.419C294.886 97.6137 298.36 95.6888 302.25 97.3604C304.447 98.3046 308.223 101.116 311.179 106.062C313.599 110.112 314.817 114.95 314.903 118.082C314.985 121.073 312.454 124.578 308.186 122.323C307.47 126.67 303.784 133.51 300.317 138.382C296.85 143.253 290.72 146.135 288.503 147.631C280.346 153.133 277.009 145.86 278.886 142.331C280.764 138.803 284.972 135.726 285.161 135.543M275.387 109.626C270.017 110.999 262.95 112.515 259.276 113.745C256.428 114.698 250.039 116.446 250.122 119.437C250.204 122.427 251.573 127.374 261.423 126.246C269.868 125.279 274.584 123.565 276.384 123.558C278.184 123.55 279.662 122.799 277.561 124.569C275.042 126.69 266.807 130.936 265.774 131.492C263.406 132.767 259.302 136.493 261.835 141.199C264.369 145.906 270.369 143.397 275.251 140.769C278.804 138.857 284.454 135.923 285.161 135.543M285.161 135.543C285.868 135.162 285.349 135.36 285.161 135.543Z" stroke="#3D3131" stroke-width="3" stroke-linecap="round" stroke-linejoin="round"/>
<path d="M203.59 114.389C202.667 116.888 205.178 119.897 206.607 121.984C208.035 124.07 208.723 126.168 209.651 127.804C210.578 129.439 213.79 136.236 213.79 136.236L218.707 148.053L221.014 154.589C221.014 154.589 224.661 160.737 225.21 162.492C225.758 164.246 226.691 167.665 227.366 169.457C228.041 171.249 228.99 174.275 231.158 174.61C233.326 174.946 236.425 173.021 237.859 172.464C239.293 171.907 242.737 171.073 244.907 169.437C247.078 167.802 250.107 167.202 252.203 166.312C254.3 165.421 256.521 164.384 259.449 163.062C262.378 161.74 265.073 160.963 265.073 160.963C265.073 160.963 266.877 159.775 268.66 159.534C270.443 159.294 272.704 158.28 276.769 157.974C280.833 157.669 283.853 159.65 284.772 158.848C285.691 158.046 285.912 153.609 285.698 151.123C285.483 148.637 284.872 146.67 283.841 143.702C282.809 140.734 282.095 138.634 281.365 136.424C280.635 134.214 280.079 132.691 279.223 129.502C278.367 126.312 276.822 124.239 275.72 121.84C275.21 120.73 273.887 117.078 272.382 113.785C270.633 109.959 269.631 108.318 268.713 106.517C267.794 104.716 265.964 100.623 265.209 98.8553C264.455 97.0872 263.654 94.8733 262.476 94.406C261.298 93.9388 256.461 95.0959 254.135 95.6155C251.81 96.135 248.712 96.7354 246.808 97.597C244.904 98.4585 241.126 98.945 239.503 99.6564C237.881 100.368 233.967 101.278 231.625 102.185C229.283 103.091 226.174 104.797 224.702 105.298C223.229 105.8 218.992 107.04 217.249 107.846C215.507 108.652 211.634 110.283 209.9 110.94C208.165 111.596 204.513 111.89 203.59 114.389Z" fill="#FFFBFA" stroke="#3D3131" stroke-width="3" stroke-linecap="round"/>
<path d="M267.183 107.477L275.513 109.658L289.861 100.966L285.215 99.8499L276.431 96.0755L267.202 94.5428L261.891 97.3856L260.863 101.344L262.846 104.681L267.183 107.477Z" fill="#FFFBFA"/>
<path d="M294.417 102.419C289.665 100.376 285.332 100.64 281.223 98.8747C275.982 96.6224 271.51 94.7376 266.766 95.1611C260.296 95.7387 259.599 100.562 262.096 103.914C264.134 106.651 270.215 108.986 275.387 109.626" stroke="#3D3131" stroke-width="3" stroke-linecap="round" stroke-linejoin="round"/>
<path d="M95.4449 285.839L99.251 283.619L97.4568 276.54L94.6896 269.422L89.6864 260.842L90.0263 253.123L104.883 258.292L144.272 270.247L141.062 278.084L130.669 288.726L121.573 294.03L121.53 299.588L113.923 301.516L103.313 297.849L95.8526 291.134L95.4449 285.839Z" fill="#FFFBFA"/>
<path d="M99.7534 282.839C95.0412 283.889 92.8851 287.663 95.0179 291.321C96.2225 293.387 101.126 295.512 106.395 297.843C110.71 299.752 114.825 301.395 117.945 301.099C120.923 300.817 124.094 297.877 121.336 293.915C125.563 292.676 128.028 292.762 132.967 288.247C137.907 283.731 139.849 277.882 142.051 272.72C145.911 263.67 140.901 260.105 137.627 262.398C134.354 264.691 131.812 269.243 131.654 269.452M104.739 262.907C105.448 257.409 106.093 250.211 106.866 246.415C107.465 243.472 108.422 236.917 111.401 236.635C114.379 236.353 119.456 237.109 119.536 247.024C119.604 255.523 118.477 260.413 118.689 262.2C118.9 263.988 118.335 265.547 119.836 263.245C121.635 260.487 124.846 251.796 125.272 250.703C126.249 248.197 129.448 243.67 134.428 245.612C139.408 247.553 137.648 253.814 135.634 258.98C134.169 262.739 131.945 268.704 131.654 269.452M131.654 269.452C131.362 270.2 131.495 269.662 131.654 269.452Z" stroke="#3D3131" stroke-width="3" stroke-linecap="round" stroke-linejoin="round"/>
<path d="M172.594 213.935C171.307 211.603 167.387 211.536 164.875 211.253C162.362 210.97 160.324 210.119 158.48 209.752C156.636 209.385 149.393 207.372 149.393 207.372L137.237 203.369L130.783 200.841C130.783 200.841 123.745 199.583 122.059 198.851C120.373 198.119 117.176 196.59 115.379 195.93C113.581 195.269 110.672 194.009 109 195.43C107.329 196.851 106.76 200.455 106.244 201.904C105.728 203.353 104.108 206.505 103.927 209.217C103.746 211.928 102.22 214.612 101.523 216.781C100.826 218.95 100.159 221.308 99.2449 224.389C98.3308 227.47 97.1577 230.017 97.1577 230.017C97.1577 230.017 96.8776 232.158 95.8939 233.665C94.9102 235.171 94.1993 237.546 91.7736 240.821C89.3479 244.097 85.874 245.087 85.8802 246.306C85.8864 247.526 89.0997 250.593 91.121 252.056C93.1424 253.52 95.0309 254.344 97.9514 255.503C100.872 256.663 102.927 257.494 105.077 258.387C107.227 259.279 108.742 259.854 111.715 261.291C114.688 262.728 117.267 262.914 119.804 263.649C120.977 263.988 124.606 265.375 128.082 266.388C132.12 267.566 134.016 267.881 135.98 268.363C137.943 268.845 142.237 270.135 144.068 270.72C145.899 271.305 148.098 272.146 149.222 271.56C150.345 270.974 152.632 266.557 153.759 264.458C154.886 262.358 156.456 259.622 157.049 257.618C157.642 255.614 159.744 252.436 160.266 250.743C160.788 249.05 162.658 245.494 163.503 243.129C164.348 240.764 165.09 237.296 165.673 235.854C166.256 234.412 168.087 230.395 168.616 228.549C169.145 226.704 170.442 222.707 171.079 220.965C171.716 219.223 173.882 216.267 172.594 213.935Z" fill="#FFFBFA" stroke="#3D3131" stroke-width="3" stroke-linecap="round"/>
<path d="M101.608 255.026L104.787 263.028L97.9062 278.327L96.2327 273.852L91.4168 265.593L88.7717 256.619L90.9466 251.001L94.7506 249.499L98.3042 251.061L101.608 255.026Z" fill="#FFFBFA"/>
<path d="M99.9025 282.673C97.2967 278.205 97.0309 273.872 94.7784 270.009C91.9047 265.081 89.4894 260.872 89.3321 256.112C89.1176 249.619 93.8203 248.34 97.4518 250.41C100.416 252.1 103.474 257.851 104.739 262.907" stroke="#3D3131" stroke-width="3" stroke-linecap="round" stroke-linejoin="round"/>
<path d="M31.1935 143.49L34.8039 146.015L40.4796 141.419L45.7818 135.923L51.4746 127.784L58.6253 124.857L60.1603 140.512L65.8153 181.285L57.3545 181.656L43.3369 176.681L34.7086 170.645L29.6439 172.935L24.7047 166.838L23.5873 155.667L26.5572 146.079L31.1935 143.49Z" fill="#FFFBFA"/>
<path d="M35.7232 146.144C32.7948 142.306 28.4639 141.93 26.0371 145.4C24.6664 147.359 24.7923 152.702 24.8843 158.463C24.9596 163.18 25.1929 167.606 26.7689 170.314C28.2736 172.899 32.2715 174.546 34.7127 170.382C37.6093 173.7 38.565 175.974 44.7348 178.566C50.9047 181.158 57.0299 180.47 62.6388 180.305C72.4734 180.016 73.6106 173.974 70.1565 171.963C66.7023 169.952 61.5044 169.552 61.2479 169.496M55.9094 142.316C61.1977 140.655 68.004 138.224 71.7744 137.334C74.6975 136.645 81.0495 134.767 82.5543 137.352C84.059 139.938 85.5005 144.865 76.5322 149.093C68.8436 152.718 63.9323 153.744 62.3978 154.685C60.8633 155.626 59.2114 155.766 61.9298 156.164C65.1883 156.642 74.4248 155.914 75.5957 155.843C78.2805 155.68 83.7312 156.687 84.0559 162.022C84.3807 167.357 77.9585 168.384 72.4242 168.721C68.3971 168.966 62.0492 169.447 61.2479 169.496M61.2479 169.496C60.4466 169.544 60.9913 169.439 61.2479 169.496Z" stroke="#3D3131" stroke-width="3" stroke-linecap="round" stroke-linejoin="round"/>
<path d="M128.813 183.396C130.391 181.25 128.809 177.664 128.012 175.264C127.216 172.864 127.135 170.657 126.695 168.829C126.256 167.001 125.047 159.581 125.047 159.581L123.587 146.866L123.176 139.947C123.176 139.947 121.369 133.03 121.327 131.193C121.285 129.355 121.332 125.811 121.179 123.903C121.025 121.994 120.95 118.824 118.959 117.902C116.968 116.98 113.458 117.975 111.926 118.113C110.394 118.252 106.853 118.102 104.315 119.075C101.778 120.047 98.7009 119.786 96.44 120.062C94.1791 120.339 91.758 120.722 88.5778 121.183C85.3976 121.644 82.5933 121.647 82.5933 121.647C82.5933 121.647 80.5314 122.29 78.7515 122.029C76.9716 121.767 74.5177 122.117 70.5271 121.287C66.5366 120.458 64.1816 117.719 63.0768 118.236C61.9719 118.752 60.5339 122.956 60.0528 125.404C59.5717 127.853 59.6152 129.912 59.7865 133.05C59.9579 136.188 60.0644 138.402 60.1551 140.728C60.2458 143.054 60.3589 144.671 60.3003 147.973C60.2418 151.274 61.1538 153.694 61.5503 156.304C61.7337 157.512 61.9958 161.388 62.5325 164.968C63.1561 169.128 63.6652 170.982 64.0503 172.967C64.4354 174.952 65.0635 179.391 65.3003 181.298C65.5371 183.206 65.6953 185.555 66.698 186.33C67.7008 187.104 72.6695 187.329 75.0482 187.472C77.4269 187.615 80.5694 187.894 82.6374 187.592C84.7054 187.291 88.4708 187.867 90.227 187.632C91.9831 187.396 95.9954 187.603 98.4969 187.379C100.998 187.155 104.458 186.375 106.011 186.3C107.565 186.225 111.98 186.203 113.877 185.91C115.775 185.617 119.947 185.119 121.796 184.968C123.644 184.816 127.236 185.543 128.813 183.396Z" fill="#FFFBFA" stroke="#3D3131" stroke-width="3" stroke-linecap="round"/>
<path d="M103.653 149.334C103.421 148.687 102.761 147.632 102.426 147.049C101.801 145.962 101.359 145.62 100.433 144.814C99.8488 144.306 98.8674 143.78 97.8828 143.321C97.1375 142.974 96.1635 142.742 95.6039 142.551C94.6358 142.222 94.6991 142.351 93.6293 142.327C93.0464 142.261 92.1557 142.154 91.2533 142.36C90.6466 142.499 90.0745 142.869 89.4374 143.152C88.9732 143.358 89.1016 143.202 88.6633 143.493C88.0768 143.883 86.941 144.756 86.4754 145.312L86.1487 145.667L85.7664 145.95C85.4727 145.943 85.2542 146.134 84.8727 146.161C84.1791 146.21 83.9472 146.022 83.2706 145.894C82.594 145.765 82.0322 145.7 81.3865 145.446C80.7364 145.19 80.4555 145.111 79.9277 145.047C79.7117 145.02 79.3451 145.251 79.1594 145.29L78.8513 145.908L78.3661 149.526L78.2261 150.542L78.164 153.308L78.2168 156.172L78.1927 157.245L78.1343 159.844L78.3752 160.485L78.975 160.992L80.0099 161.015L81.2402 160.912L82.1316 160.57L82.9438 160.441L83.8492 160.183L84.5573 160.199L85.5699 160.5C86.0277 161.092 86.7602 162.108 87.7737 162.941C88.5792 163.603 89.5875 164.102 90.5947 164.519C91.4123 164.857 92.2327 164.923 93.1212 164.943C93.5226 164.952 94.0101 165.088 94.6278 164.977C95.3512 164.847 96.2088 164.46 96.6488 164.358C97.6113 164.135 97.5357 164.1 98.3844 163.623C98.9495 163.305 99.5329 163.029 100.033 162.613C100.528 162.203 100.939 161.655 101.359 161.161C101.768 160.679 102.053 160.109 102.38 159.559C102.624 159.148 102.929 158.77 103.123 158.326C103.469 157.531 103.808 156.769 103.973 155.887C104.091 155.259 104.082 154.53 104.097 153.868C104.113 153.126 104.101 152.274 103.999 151.535C103.894 150.78 103.893 150.002 103.653 149.334Z" fill="#FFFBFA" stroke="#3D3131" stroke-width="1.89184" stroke-linejoin="round"/>
<path d="M91.9123 159.848C91.7549 159.909 91.4723 159.975 91.3106 160.008C91.1497 160.042 91.0004 160.096 90.8385 160.104C90.4728 160.149 90.4565 160.085 90.2825 160.067C90.1212 160.05 89.9988 160.054 89.8493 160.013C89.7138 159.977 89.5033 159.955 89.3422 159.869C89.1689 159.778 89.0457 159.621 88.9275 159.541C88.7741 159.438 88.7378 159.313 88.614 159.177C88.4975 159.048 88.368 158.971 88.2815 158.815C88.1946 158.657 88.1848 158.544 88.132 158.359C88.0541 158.176 88.0876 157.999 88.069 157.847C88.0409 157.619 87.9735 157.445 87.994 157.238C88.0049 157.128 88.0754 157.076 88.1304 156.923C88.1724 156.807 88.1981 156.584 88.2234 156.509C88.2746 156.356 88.3594 156.211 88.4387 156.075C88.5324 155.913 88.5539 155.973 88.6837 155.834C88.7731 155.739 88.8707 155.649 88.9759 155.565C89.0683 155.491 89.1525 155.387 89.2563 155.322C89.3329 155.274 89.4266 155.264 89.509 155.221C89.6226 155.162 89.8829 155.086 90.0068 155.037C90.1157 154.994 90.0871 154.977 90.2035 154.942C90.3519 154.897 90.4532 154.828 90.6128 154.796C90.7436 154.77 90.931 154.78 91.0686 154.763C91.3044 154.734 91.3038 154.672 91.5287 154.662C91.7688 154.651 92.2336 154.693 92.4567 154.707C92.6298 154.718 92.6659 154.689 92.8262 154.716C93.0076 154.748 93.1946 154.735 93.3925 154.804C93.5493 154.858 93.7228 154.989 93.8368 155.049C94.0424 155.158 94.1886 155.289 94.3406 155.457C94.4736 155.603 94.6346 155.74 94.7066 155.934C94.7785 156.128 94.8387 156.31 94.8695 156.561C94.9226 156.992 94.8461 157.109 94.7187 157.434C94.6526 157.603 94.6941 157.613 94.6219 157.743C94.508 157.948 94.2611 158.254 94.0044 158.463C93.7499 158.67 93.878 158.633 93.5127 158.862C93.4086 158.927 93.2797 159.063 93.0826 159.166C92.927 159.248 92.7054 159.292 92.5821 159.387C92.2181 159.668 92.1626 159.692 91.9123 159.848Z" fill="#3D3131"/>
<path d="M92.0821 147.192C91.9246 147.131 91.642 147.066 91.4803 147.032C91.3193 146.999 91.17 146.945 91.0081 146.937C90.6424 146.892 90.6261 146.956 90.4521 146.974C90.2908 146.992 90.1684 146.988 90.0189 147.028C89.8835 147.065 89.673 147.087 89.512 147.173C89.3388 147.265 89.2157 147.421 89.0976 147.501C88.9443 147.605 88.9081 147.729 88.7844 147.866C88.668 147.994 88.5385 148.072 88.4522 148.228C88.3654 148.386 88.3558 148.499 88.3031 148.684C88.2254 148.868 88.259 149.044 88.2405 149.196C88.2126 149.424 88.1453 149.598 88.166 149.806C88.177 149.915 88.2476 149.967 88.3027 150.12C88.3448 150.236 88.3707 150.459 88.3961 150.534C88.4474 150.687 88.5324 150.832 88.6117 150.968C88.7056 151.13 88.727 151.07 88.8569 151.208C88.9464 151.304 89.0441 151.394 89.1494 151.478C89.2419 151.551 89.3261 151.656 89.43 151.72C89.5066 151.768 89.6003 151.778 89.6828 151.821C89.7964 151.88 90.0567 151.956 90.1807 152.005C90.2897 152.048 90.2611 152.064 90.3775 152.099C90.526 152.144 90.6273 152.213 90.7869 152.245C90.9178 152.27 91.1051 152.261 91.2427 152.278C91.4786 152.307 91.478 152.369 91.7029 152.379C91.9431 152.389 92.4079 152.347 92.6309 152.333C92.804 152.322 92.8401 152.351 93.0004 152.323C93.1818 152.291 93.3688 152.303 93.5667 152.235C93.7234 152.181 93.8968 152.049 94.0107 151.989C94.2163 151.88 94.3623 151.749 94.5142 151.581C94.6471 151.435 94.8079 151.298 94.8798 151.103C94.9514 150.909 95.0116 150.727 95.0422 150.477C95.0949 150.045 95.0182 149.928 94.8906 149.603C94.8244 149.435 94.8658 149.424 94.7935 149.295C94.6794 149.09 94.4323 148.784 94.1754 148.575C93.9207 148.369 94.0489 148.406 93.6834 148.177C93.5792 148.111 93.4502 147.976 93.253 147.873C93.0973 147.791 92.8757 147.748 92.7523 147.653C92.3881 147.372 92.3326 147.348 92.0821 147.192Z" fill="#3D3131"/>
<path d="M82.2888 149.566L82.0228 149.511L81.555 149.549L81.1196 149.447L80.3977 149.431L79.7219 149.306L79.3719 149.298L78.9438 149.212" stroke="#3D3131" stroke-width="1.89184" stroke-linecap="round"/>
<path d="M82.196 153.381L81.6405 153.297L81.1711 153.358L80.6233 153.274L79.9754 153.331L79.2582 153.243L78.7985 153.305" stroke="#3D3131" stroke-width="1.89184" stroke-linecap="round"/>
<path d="M82.1711 156.831L81.5241 157.057L80.33 157.029L79.4974 157.275L78.6544 157.366" stroke="#3D3131" stroke-width="1.89184" stroke-linecap="round"/>
<path d="M103.395 167.033L103.142 166.535L102.313 165.231L101.595 164.333L101.471 163.928L101.033 163.24L100.817 162.717L100.658 162.389L100.737 162.553L100.484 162.291L98.0923 163.852C98.0923 163.852 98.353 164.432 98.5358 164.776C98.759 165.196 99.0258 165.544 99.1374 165.745C99.3205 166.075 99.573 166.322 99.7518 166.64C99.8542 166.952 100.169 167.377 100.368 167.717C100.445 168.002 100.929 168.711 101.115 169.005C101.344 169.369 101.398 169.368 101.585 169.609C101.092 170.017 101.027 170.197 100.769 170.77C100.624 171.09 100.612 171.344 100.615 171.703C100.617 171.932 100.471 172.284 100.597 172.517C100.69 172.57 100.807 172.956 100.919 173.135C101.077 173.39 101.26 173.737 101.491 173.798C101.745 173.922 101.567 174.114 102.019 174.226C102.26 174.285 102.291 174.476 102.667 174.465C103.118 174.696 103.514 174.712 103.923 174.584C104.223 174.489 104.59 174.347 104.712 174.13C104.988 173.98 105.122 173.806 105.254 173.575C105.375 173.365 105.498 173.249 105.534 172.896C105.525 172.606 105.642 172.363 105.644 172.089C105.646 171.854 105.659 171.538 105.57 171.389C105.44 171.173 105.443 171.105 105.315 170.872C105.928 171.221 107.058 171.165 107.244 170.915C107.317 170.817 107.695 170.509 107.849 170.47C108.06 170.265 108.313 169.659 108.308 169.493C108.499 169.321 108.417 168.742 108.331 168.472C108.454 168.108 108.318 168.266 108.283 168.024C108.252 167.811 108.071 167.573 108.103 167.396C108.097 167.181 107.894 167 107.74 166.819C107.569 166.618 107.119 166.427 106.926 166.187C106.695 166.022 106.395 166.219 106.146 166.17C105.939 166.128 105.742 166.031 105.508 166.115C105.273 166.199 105.034 166.152 104.802 166.211C104.644 166.251 104.457 166.222 104.34 166.369C103.984 166.522 103.659 166.745 103.395 167.033Z" fill="#FFFBFA"/>
<path d="M100.48 162.287L100.737 162.553L100.658 162.389L100.817 162.717L101.033 163.24L101.471 163.928L101.595 164.333L102.313 165.231L103.142 166.535L103.395 167.033C103.659 166.745 103.984 166.522 104.34 166.369C104.457 166.222 104.644 166.251 104.802 166.211C105.034 166.152 105.273 166.199 105.508 166.115C105.742 166.031 105.939 166.128 106.146 166.17C106.395 166.219 106.695 166.022 106.926 166.187C107.119 166.427 107.569 166.618 107.74 166.819C107.894 167 108.097 167.181 108.103 167.396C108.071 167.573 108.252 167.811 108.283 168.024C108.318 168.266 108.454 168.108 108.331 168.472C108.417 168.742 108.499 169.321 108.308 169.493C108.313 169.659 108.06 170.265 107.849 170.47C107.695 170.509 107.317 170.817 107.244 170.915C107.058 171.165 105.928 171.221 105.315 170.872C105.443 171.105 105.44 171.173 105.57 171.389C105.659 171.538 105.646 171.854 105.644 172.089C105.642 172.363 105.525 172.606 105.534 172.896C105.498 173.249 105.375 173.365 105.254 173.575C105.122 173.806 104.988 173.98 104.712 174.13C104.59 174.347 104.223 174.489 103.923 174.584C103.514 174.712 103.118 174.696 102.667 174.465C102.291 174.476 102.26 174.285 102.019 174.226C101.567 174.114 101.745 173.922 101.491 173.798C101.26 173.737 101.077 173.39 100.919 173.135C100.807 172.956 100.69 172.57 100.597 172.517C100.471 172.284 100.617 171.932 100.615 171.703C100.612 171.344 100.624 171.09 100.769 170.77C101.027 170.197 101.092 170.017 101.585 169.609C101.398 169.368 101.344 169.369 101.115 169.005C100.929 168.711 100.445 168.002 100.368 167.717C100.169 167.377 99.8542 166.952 99.7518 166.64C99.573 166.322 99.3205 166.075 99.1374 165.745C99.0258 165.544 98.759 165.196 98.5358 164.776C98.353 164.432 98.0923 163.852 98.0923 163.852M98.2549 164.051L98.2992 164.259L98.0923 163.852M98.0923 163.852L100.49 162.287" stroke="#3D3131" stroke-width="1.89184" stroke-linecap="round" stroke-linejoin="round"/>
<path d="M103.921 141.262L103.613 141.729L102.643 142.931L101.828 143.742L101.659 144.131L101.146 144.765L100.918 145.106L98.4444 143.419C98.6385 143.149 98.6179 143.279 98.8384 142.957C99.1075 142.565 99.4118 142.249 99.5453 142.062C99.7645 141.755 100.043 141.538 100.257 141.242C100.394 140.944 100.755 140.557 100.99 140.242C101.099 139.968 101.66 139.317 101.878 139.046C102.147 138.71 102.2 138.717 102.413 138.499C101.857 138.198 101.445 137.676 101.253 137.079C101.145 136.744 101.073 136.629 101.116 136.272C101.144 136.045 101.17 135.676 101.322 135.459C101.42 135.417 101.521 135.002 101.652 134.836C101.837 134.601 102.138 134.228 102.374 134.194C102.641 134.099 102.811 133.831 103.273 133.771C103.519 133.74 103.571 133.553 103.943 133.607C104.418 133.428 104.963 133.593 105.354 133.767C105.642 133.895 105.99 134.077 106.088 134.306C106.345 134.486 106.4 134.727 106.506 134.971C106.602 135.194 106.711 135.324 106.707 135.678C106.665 135.965 106.755 136.22 106.726 136.492C106.701 136.725 106.678 137.041 106.573 137.179C106.42 137.38 106.367 137.666 106.213 137.883C106.862 137.605 107.729 137.852 107.886 138.122C107.947 138.228 108.09 138.431 108.239 138.486C108.425 138.714 108.573 138.967 108.55 139.13C108.72 139.323 108.833 140.011 108.718 140.27C108.799 140.646 108.682 140.473 108.62 140.71C108.565 140.918 108.359 141.134 108.37 141.314C108.34 141.526 108.118 141.683 107.945 141.846C107.752 142.026 107.504 142.045 107.286 142.261C107.038 142.399 106.81 142.409 106.557 142.43C106.347 142.448 106.14 142.523 105.917 142.413C105.693 142.303 105.45 142.322 105.226 142.237C105.074 142.18 104.885 142.188 104.785 142.029C104.449 141.836 104.15 141.579 103.921 141.262Z" fill="#FFFBFA" stroke="#3D3131" stroke-width="1.89184" stroke-linecap="round" stroke-linejoin="round"/>
<path d="M88.7841 163.635L87.7931 165.105L87.6762 165.395L87.0475 166.461L86.4531 167.238L85.8647 168.165L85.6702 168.542L85.5416 168.769C85.7798 168.867 86.0571 169.062 86.3223 169.322C86.6941 169.462 87.1853 170.112 87.1747 170.582C87.2612 170.799 87.4311 170.894 87.458 171.123C87.4834 171.338 87.3761 171.683 87.3543 171.896C87.3155 172.276 87.204 172.646 87.0284 172.983C87.0186 173.422 86.3705 174.195 85.9633 174.186C85.7213 174.332 85.4498 174.517 85.1532 174.577C84.8923 174.63 84.6114 174.565 84.319 174.558C83.4837 174.54 83.3209 174.126 82.88 174.054C82.5904 174.007 81.9282 173.297 81.5969 172.859C81.5941 172.859 81.5913 172.86 81.5885 172.861C81.1516 172.999 80.3504 173.069 80.049 172.952C79.6894 172.813 79.4029 172.841 79.1288 172.665C78.8263 172.47 78.5104 172.181 78.3022 171.952C77.9675 171.585 77.6478 170.992 77.5238 170.567C77.3711 170.044 77.3626 169.325 77.5555 169.156C77.5699 168.519 77.8177 168.194 78.049 167.779C78.156 167.346 78.4928 166.919 78.7956 166.658C79.0197 166.465 79.3298 166.366 79.6175 166.222C80.2671 165.897 80.6823 165.961 81.246 165.98C82.0519 166.181 82.5098 166.235 82.9876 166.591L83.1638 166.206L83.5062 165.879L83.9452 165.386L84.5032 164.571L84.9556 163.901L85.2706 163.546L85.6717 162.978L85.9888 162.641L86.5556 161.999L88.7841 163.635Z" fill="#FFFBFA" stroke="#3D3131" stroke-width="1.89184" stroke-linecap="round" stroke-linejoin="round"/>
<path d="M88.7834 142.317L89.2464 143.056L86.7208 144.561L86.1144 143.587L85.7232 142.977L84.9727 141.935L84.6787 141.411L84.1988 140.496L83.5512 139.625L83.1112 138.932L82.9315 138.721C82.6578 138.782 82.257 138.912 82.0238 138.773C81.7055 138.742 81.085 138.752 80.9962 138.509C80.4343 138.496 80.2997 138.172 79.9241 137.903C79.5585 137.641 79.098 137.154 79.1446 136.94C78.9482 136.685 78.8348 135.957 78.9263 135.852C78.8329 135.362 78.9513 134.738 79.3202 134.387C79.5042 134.087 79.7398 133.731 80.0177 133.737C80.2876 133.471 80.4567 133.579 80.6654 133.546C80.9028 133.509 81.1511 133.429 81.3625 133.548C81.4969 133.668 81.6866 133.618 81.8506 133.676C82.2999 133.837 82.7647 134.116 83.2941 134.477C83.2564 134.245 83.3979 133.813 83.2746 133.653C83.1814 133.322 83.3304 132.859 83.4193 132.861C83.5183 132.245 83.9159 131.795 84.1504 131.755C84.4611 131.52 84.7988 131.312 85.2093 131.401C85.5059 131.309 86.2833 131.494 86.399 131.589C86.6717 131.595 87.0488 131.922 87.3038 132.257C87.5671 132.603 87.7734 133.085 87.9005 133.757C87.9385 133.958 87.9512 134.165 87.9424 134.375C87.9293 134.687 87.9666 134.746 87.8713 135.056C87.7809 135.349 87.6543 135.897 87.419 136.164C87.4139 136.394 86.966 136.905 86.7065 137.19C86.4168 137.508 86.1128 137.741 85.8385 137.845L86.009 138.151L86.7401 139.105L86.9995 139.565L87.7473 140.576L88.332 141.554L88.7834 142.317Z" fill="#FFFBFA" stroke="#3D3131" stroke-width="1.89184" stroke-linecap="round" stroke-linejoin="round"/>
<path d="M61.7522 136.17L55.8199 142.41L39.0452 142.576L42.4067 139.181L47.8864 131.347L54.9254 125.184L60.9377 124.803L63.8962 127.627L63.9677 131.508L61.7522 136.17Z" fill="#FFFBFA"/>
<path d="M35.9362 146.21C38.9012 141.971 42.7236 139.914 45.2865 136.25C48.5563 131.575 51.3656 127.618 55.6213 125.48C61.4261 122.564 64.5583 126.297 64.2009 130.462C63.9091 133.862 59.9691 139.048 55.9095 142.316" stroke="#3D3131" stroke-width="3" stroke-linecap="round" stroke-linejoin="round"/>
<path d="M144.618 24.4541L143.473 28.7085L149.727 32.4807L156.699 35.5955L166.289 38.1779L171.476 43.9053L157.278 50.6775L120.865 69.874L117.637 62.0444L117.543 47.1705L120.281 37.0031L116.404 33.0203L120.456 26.3004L130.579 21.4472L140.605 20.9761L144.618 24.4541Z" fill="#FFFBFA"/>
<path d="M143.665 29.6168C146.277 25.5567 145.156 21.3567 141.067 20.2559C138.758 19.6341 133.777 21.571 128.392 23.6186C123.981 25.2953 119.9 27.0209 117.89 29.4246C115.971 31.7197 115.783 36.0394 120.53 36.9172C118.396 40.7704 116.583 42.4431 116.246 49.1268C115.909 55.8104 118.641 61.3357 120.705 66.5536C124.325 75.7026 130.394 74.7149 131.109 70.7825C131.824 66.8501 130.43 61.8265 130.396 61.5661M154.135 47.2945C157.497 51.7018 162.1 57.2738 164.22 60.5163C165.863 63.0301 169.791 68.3635 167.872 70.6586C165.953 72.9537 161.812 75.986 154.783 68.9925C148.758 62.997 146.121 58.7283 144.713 57.6058C143.306 56.4834 142.612 54.9778 143.163 57.6694C143.824 60.8958 147.651 69.3331 148.117 70.4098C149.185 72.8786 150.093 78.3466 145.187 80.4679C140.282 82.5893 137.13 76.9003 134.929 71.8112C133.328 68.108 130.714 62.303 130.396 61.5661M130.396 61.5661C130.077 60.8293 130.361 61.3058 130.396 61.5661Z" stroke="#3D3131" stroke-width="3" stroke-linecap="round" stroke-linejoin="round"/>
<path d="M140.324 129.828C142.88 130.581 145.713 127.872 147.699 126.307C149.684 124.741 151.731 123.913 153.301 122.878C154.87 121.842 161.436 118.18 161.436 118.18L172.894 112.479L179.26 109.737C179.26 109.737 185.149 105.684 186.862 105.019C188.576 104.354 191.924 103.192 193.667 102.398C195.409 101.604 198.364 100.454 198.553 98.2684C198.742 96.0828 196.612 93.12 195.96 91.7267C195.309 90.3334 194.244 86.9537 192.466 84.8984C190.688 82.843 189.886 79.8612 188.856 77.8295C187.827 75.7977 186.643 73.6515 185.126 70.8182C183.61 67.985 182.653 65.349 182.653 65.349C182.653 65.349 181.346 63.6293 180.986 61.8666C180.627 60.1038 179.462 57.9156 178.884 53.881C178.305 49.8464 180.079 46.6997 179.217 45.8368C178.355 44.9739 173.914 45.0524 171.448 45.4335C168.982 45.8147 167.059 46.5567 164.168 47.7859C161.276 49.015 159.23 49.869 157.073 50.7461C154.917 51.6232 153.435 52.2799 150.311 53.3487C147.186 54.4175 145.222 56.0987 142.902 57.36C141.829 57.9435 138.274 59.5093 135.09 61.2329C131.391 63.2353 129.821 64.345 128.086 65.3827C126.351 66.4204 122.391 68.522 120.677 69.3941C118.964 70.2661 116.809 71.2145 116.422 72.421C116.035 73.6275 117.516 78.3759 118.191 80.6614C118.865 82.9468 119.673 85.9965 120.661 87.8382C121.649 89.68 122.388 93.4168 123.207 94.988C124.026 96.5591 125.198 100.402 126.26 102.678C127.322 104.954 129.233 107.941 129.833 109.376C130.432 110.812 131.955 114.956 132.877 116.64C133.798 118.324 135.687 122.078 136.458 123.765C137.23 125.451 137.769 129.075 140.324 129.828Z" fill="#FFFBFA" stroke="#3D3131" stroke-width="3" stroke-linecap="round"/>
<path d="M161.903 50.6961L154.016 47.2423L148.15 31.5257L152.487 33.5308L161.718 36.0166L169.909 40.5373L172.313 46.0612L170.665 49.8043L167.04 51.1926L161.903 50.6961Z" fill="#FFFBFA"/>
<path d="M143.675 29.8394C148.67 31.1845 151.905 34.0782 156.223 35.2409C161.732 36.7241 166.409 38.0186 169.868 41.2924C174.586 45.7579 172.141 49.974 168.103 51.0556C164.808 51.9384 158.589 49.9994 154.135 47.2944" stroke="#3D3131" stroke-width="3" stroke-linecap="round" stroke-linejoin="round"/>
</svg>
