<svg width="104" height="170" viewBox="0 0 104 170" fill="none" xmlns="http://www.w3.org/2000/svg">
<path d="M2.26523 1.89915L3.70482 1.39164L6.50895 1.89915L7.65125 1.37445L9.77726 1.75093L12.23 1.39164L13.2192 1.89915H15.8213L17.5448 1.37443L18.3174 1.39164L19.5966 1.89915H23.534L24.549 1.61323H25.5319L27.7434 1.50243L28.699 1.61323L30.856 1.89915H33.2041L34.8423 1.61323L37.245 1.89915L40.039 1.50243H44.1545L45.7772 1.61323H49.2276L52.1708 1.39164L54.5703 1.50243L57.2473 1.14134L59.3971 1.39165L62.1959 1.39164H64.6472L66.0809 1.61323L68.564 1.39165L71.2521 1.39164L72.4054 1.39165L74.938 1.61323L77.1236 1.39164L78.6639 1.61323L80.9759 1.39165L83.1256 1.39164L84.0788 1.61323H85.7622L86.7482 1.39165L88.277 1.39164H89.6L91.8058 1.14134L94.252 1.61323H95.6592L97.3222 1.39165L99.472 1.61323L101.013 1.39164L102.076 1.99933L101.593 6.1771L102.189 10.2183L101.931 12.4744L102.076 13.3772L101.931 16.9109L102.076 21.6933L102.189 23.5149L101.714 26.2326L102.076 32.5785L101.931 34.7081V36.6629L101.743 40.5726L102.076 43.4636V47.4171V51.3584L101.682 53.5255L101.374 59.4791V62.3469V64.7497V67.3871V69.8878L101.811 72.3902L101.374 74.1369V78.0087V80.4296V83.1515V86.0001L101.693 89.5418L101.374 93.8346L101.693 95.7551L101.88 98.6579V101.864V105.674V110.686L101.693 114.258L101.789 116.961L102.076 122.41L101.693 125.22L101.885 128.815L101.693 132.052L101.789 135.879L102.076 137.649L101.693 140.224L102.076 142.989L101.885 146.538L101.398 149.473L101.885 155.754L101.398 158.559V160.43L101.885 162.659L102.076 164.851L102.249 167.001L101.885 167.737L101.295 168.147H99.8495H98.0065L97.4519 165.516L95.9266 165.203L95.1305 167.737L92.9653 167.919L90.9307 167.413V163.649L89.5788 162L87.5247 164.851L86.162 163.649L84.9085 163.051L83.8341 165.938L82.6864 168.107L79.7522 168.358L78.7138 168.107H75.977L75.0969 166.816L72.8125 167.001L70.4357 163.649L69.0929 166.327L67.6772 167.413L65.4842 167.168L64.4429 167.737L62.5829 168.22L61.232 165.938L60.1991 166.327L58.2714 168.326L55.3511 168.358L54.434 168.22L53.7988 166.816L52.8431 166.327L51.7316 164.047L50.6454 163.051L49.6055 163.649L48.3086 165.516L47.2253 167.168L45.302 168.859L42.9823 168.358H41.3699L39.9715 166.633L38.613 165.516L36.9348 165.938L34.9738 167.856L33.8915 168.358L32.5652 167.413L29.7379 164.523L28.9885 164.869L27.6889 166.931L26.5892 168.358L25.9916 168.859L24.7067 167.085L21.5319 168.859L20.4933 166.633L19.8956 164.723L18.56 162.492L17.5152 163.729L16.0089 164.723L13.1908 167.856L12.4311 167.413L11.5838 165.708L11.3379 164.523L8.91918 165.708L6.39118 166.171L3.93713 167.778H2.85767L1.95969 167.085V162.492L2.26529 155.707L1.95969 152.811L2.21141 149.357C2.21141 149.357 1.95969 146.439 1.95969 144.701C1.95969 142.963 2.1845 140.107 2.1845 140.107L2.26529 138.089L2.15759 130.857L1.95969 128.741L2.14527 126.621C2.14527 126.621 2.32522 123.535 2.26529 120.376C2.20742 117.326 1.90741 114.208 2.0253 113.728C2.26529 112.75 2.26529 109.811 2.26529 109.811C2.26529 109.811 1.73078 109.035 1.80473 107.979C1.87869 106.923 2.26529 104.029 2.26529 104.029L2.0253 99.1016V93.7898V88.913V85.3853L2.26519 80.8764C2.26519 80.8764 1.80793 76.5274 1.78532 75.6647C1.76272 74.8021 2.26529 71.1806 2.0253 70.335C1.78531 69.4894 2.02117 65.2278 2.02117 65.2278C2.02117 65.2278 2.26508 64.7309 2.26519 63.7084C2.26529 62.686 1.78535 57.3278 1.78535 57.3278C1.78535 57.3278 1.88846 54.988 2.02117 52.8844C2.12477 51.2421 2.26516 50.8697 2.26519 49.3796C2.26522 47.8895 1.97592 46.7735 1.78532 45.6349C1.59473 44.4964 2.26519 35.4591 2.26519 35.4591L1.97592 30.2987L2.26519 24.1606V20.0219L1.78532 16.343L2.0253 10.5269L1.78537 2.91418L2.26523 1.89915Z" fill="#FFFBFA" stroke="#3D3131" stroke-width="2" stroke-linejoin="round"/>
</svg>
