<svg width="104" height="170" viewBox="0 0 104 170" fill="none" xmlns="http://www.w3.org/2000/svg">
<path d="M2.26523 1.89915L3.70482 1.39164L6.50895 1.89915L7.65125 1.37445L9.77726 1.75093L12.23 1.39164L13.2192 1.89915H15.8213L17.5448 1.37443L18.3174 1.39164L19.5966 1.89915H23.534L24.549 1.61323H25.5319L27.7434 1.50243L28.699 1.61323L30.856 1.89915H33.2041L34.8423 1.61323L37.245 1.89915L40.039 1.50243H44.1545L45.7772 1.61323H49.2276L52.1708 1.39164L54.5703 1.50243L57.2473 1.14134L59.3971 1.39165L62.1959 1.39164H64.6472L66.0809 1.61323L68.564 1.39165L71.2521 1.39164L72.4054 1.39165L74.938 1.61323L77.1236 1.39164L78.6639 1.61323L80.9759 1.39165L83.1256 1.39164L84.0788 1.61323H85.7622L86.7482 1.39165L88.277 1.39164H89.6L91.8058 1.14134L94.252 1.61323H95.6592L97.3222 1.39165L99.472 1.61323L101.013 1.39164L102.076 1.99933L101.593 6.1771L102.189 10.2183L101.931 12.4744L102.076 13.3772L101.931 16.9109L102.076 21.6933L102.189 23.5149L101.714 26.2326L102.076 32.5785L101.931 34.7081V36.6629L101.743 40.5726L102.076 43.4636V47.4171V51.3584L101.682 53.5255L101.374 59.4791V62.3469V64.7497V67.3871V69.8878L101.811 72.3902L101.374 74.1369V78.0087V80.4296V83.1515V86.0001L101.693 89.5418L101.374 93.8346L101.693 95.7551L101.88 98.6579V101.864V105.674V110.686L101.693 114.258L101.789 116.961L102.076 122.41L101.693 125.22L101.885 128.815L101.693 132.052L101.789 135.879L102.076 137.649L101.693 140.224L102.076 142.989L101.885 146.538L101.398 149.473L101.885 155.754L101.398 158.559V160.43L101.885 162.659L102.076 164.851L102.249 167.001L101.885 167.737L101.295 168.147H99.8495H98.0065L97.4519 165.516L95.9266 165.203L95.1305 167.737L92.9653 167.919L90.9307 167.413V163.649L89.5788 162L87.5247 164.851L86.162 163.649L84.9085 163.051L83.8341 165.938L82.6864 168.107L79.7522 168.358L78.7138 168.107H75.977L75.0969 166.816L72.8125 167.001L70.4357 163.649L69.0929 166.327L67.6772 167.413L65.4842 167.168L64.4429 167.737L62.5829 168.22L61.232 165.938L60.1991 166.327L58.2714 168.326L55.3511 168.358L54.434 168.22L53.7988 166.816L52.8431 166.327L51.7316 164.047L50.6454 163.051L49.6055 163.649L48.3086 165.516L47.2253 167.168L45.302 168.859L42.9823 168.358H41.3699L39.9715 166.633L38.613 165.516L36.9348 165.938L34.9738 167.856L33.8915 168.358L32.5652 167.413L29.7379 164.523L28.9885 164.869L27.6889 166.931L26.5892 168.358L25.9916 168.859L24.7067 167.085L21.5319 168.859L20.4933 166.633L19.8956 164.723L18.56 162.492L17.5152 163.729L16.0089 164.723L13.1908 167.856L12.4311 167.413L11.5838 165.708L11.3379 164.523L8.91918 165.708L6.39118 166.171L3.93713 167.778H2.85767L1.95969 167.085V162.492L2.26529 155.707L1.95969 152.811L2.21141 149.357C2.21141 149.357 1.95969 146.439 1.95969 144.701C1.95969 142.963 2.1845 140.107 2.1845 140.107L2.26529 138.089L2.15759 130.857L1.95969 128.741L2.14527 126.621C2.14527 126.621 2.32522 123.535 2.26529 120.376C2.20742 117.326 1.90741 114.208 2.0253 113.728C2.26529 112.75 2.26529 109.811 2.26529 109.811C2.26529 109.811 1.73078 109.035 1.80473 107.979C1.87869 106.923 2.26529 104.029 2.26529 104.029L2.0253 99.1016V93.7898V88.913V85.3853L2.26519 80.8764C2.26519 80.8764 1.80793 76.5274 1.78532 75.6647C1.76272 74.8021 2.26529 71.1806 2.0253 70.335C1.78531 69.4894 2.02117 65.2278 2.02117 65.2278C2.02117 65.2278 2.26508 64.7309 2.26519 63.7084C2.26529 62.686 1.78535 57.3278 1.78535 57.3278C1.78535 57.3278 1.88846 54.988 2.02117 52.8844C2.12477 51.2421 2.26516 50.8697 2.26519 49.3796C2.26522 47.8895 1.97592 46.7735 1.78532 45.6349C1.59473 44.4964 2.26519 35.4591 2.26519 35.4591L1.97592 30.2987L2.26519 24.1606V20.0219L1.78532 16.343L2.0253 10.5269L1.78537 2.91418L2.26523 1.89915Z" fill="#FFFBFA" stroke="#3D3131" stroke-width="2" stroke-linejoin="round"/>
<path d="M49.0086 10.7553C48.8863 10.8933 48.6324 11.0447 48.5258 11.1969C48.4235 11.3429 48.2284 11.5305 48.1326 11.7109C48.0295 11.9049 48.027 12.0928 47.9536 12.2773C47.8494 12.5392 47.917 12.7943 47.8607 13.0624C47.7999 13.3517 47.7229 13.5064 47.7153 13.7977C47.7066 14.1285 47.8046 14.5101 47.8607 14.836C47.8855 14.9804 47.8726 15.1485 47.9096 15.2908C47.9537 15.4605 48.0504 15.6039 48.1113 15.7695C48.1683 15.9246 48.1684 16.0639 48.2646 16.2299C48.3195 16.3247 48.472 16.4517 48.5173 16.536C48.6071 16.7035 48.6212 16.8151 48.7283 16.9747C48.818 17.1083 48.9188 17.1819 49.0202 17.3091C49.0832 17.3882 49.1434 17.523 49.2108 17.5993C49.2656 17.6614 49.3386 17.698 49.3963 17.7581C49.5314 17.899 49.6575 18.059 49.8078 18.1883C49.8767 18.2476 49.9615 18.2542 50.0334 18.3108C50.0691 18.3389 50.0908 18.4181 50.1272 18.4455C50.2013 18.5012 50.2441 18.565 50.3213 18.6178C50.3863 18.6624 50.4852 18.6965 50.5523 18.7389C50.6174 18.7801 50.684 18.7515 50.7511 18.7906C50.8276 18.8351 50.905 18.947 50.984 18.9887C51.1883 19.0966 51.4009 19.1949 51.6212 19.2825C51.9051 19.3955 52.13 19.5191 52.4173 19.5895C52.7809 19.6787 53.1008 19.6122 53.4621 19.6361C53.9837 19.6708 54.2673 19.7292 54.762 19.6361C55.0184 19.5879 55.607 19.5231 55.8508 19.4425C56.1516 19.343 56.2788 19.2522 56.5235 19.1279C56.6671 19.0549 56.9297 18.9595 57.0823 18.8728C57.3004 18.7488 57.62 18.6209 57.8112 18.4455C57.971 18.2988 58.0611 18.0089 58.2242 17.8523C58.4555 17.6304 58.7404 17.3987 58.8924 17.1234C58.9898 16.9469 58.9601 16.7111 59.0363 16.5196C59.2451 15.9949 59.1338 15.6951 59.0784 15.1757C59.0499 14.909 59.1514 14.42 59.0784 14.1555C58.9513 13.6951 58.7696 13.2385 58.5781 12.7872L50.5523 10.0489C49.6273 10.0489 49.2751 10.4545 49.0086 10.7553Z" fill="#948275" stroke="#3D3131" stroke-width="2"/>
<path d="M58.5911 12.1131C58.5911 12.3418 58.5439 12.6447 58.5076 12.8632C58.4647 13.1222 58.4256 13.2943 58.3362 13.5342C58.2613 13.7355 58.0598 13.9145 57.9554 14.0992C57.8295 14.322 57.7943 14.5466 57.6301 14.7407C57.4839 14.9137 57.3235 15.1593 57.1507 15.3058C56.8833 15.5326 56.5862 15.6405 56.266 15.7928C56.0602 15.8907 55.8512 15.8774 55.6281 15.94C55.3875 16.0076 55.1316 16.1481 54.8753 16.1704C54.7577 16.1806 54.6387 16.1858 54.5184 16.1858C54.2266 16.1858 53.8957 16.0827 53.6295 16.0346C53.2787 15.9711 52.9246 15.9444 52.617 15.7928C52.3553 15.6638 52.1864 15.502 51.955 15.3058C51.8343 15.2035 51.6211 15.053 51.513 14.9375C51.2681 14.6755 51.2994 14.5204 51.13 14.2008C51.1031 14.1501 50.8725 13.8823 50.8477 13.8303C50.7965 13.723 50.7424 13.6465 50.7006 13.5342C50.6814 13.4827 50.6204 13.4215 50.578 13.3186C50.5364 13.2177 50.5135 13.0754 50.4881 12.9866C50.4417 12.8247 50.4088 12.7076 50.3887 12.6096C50.3347 12.3449 50.4458 12.3938 50.4458 12.1131C50.4458 11.9616 50.3726 11.8112 50.3887 11.664C50.4211 11.3673 50.567 11.0811 50.6597 10.8071C50.7502 10.5395 50.9234 10.3934 51.0647 10.154C51.1581 9.99588 51.2258 9.65464 51.3346 9.49445C51.4385 9.34141 51.7496 9.09182 51.8742 8.9698C52.1844 8.66595 52.2143 8.56297 52.6087 8.37019C52.8963 8.22962 53.4122 8.24522 53.733 8.17532C54.0137 8.11415 54.2194 8.04032 54.5184 8.04032C55.0409 8.04032 55.1627 7.99608 55.6217 8.17532C55.8389 8.26012 56.2179 8.33657 56.5061 8.49012C56.8146 8.65444 56.967 8.88231 57.1507 9.04475C57.3692 9.23796 57.6311 9.47034 57.804 9.70594C57.9249 9.87078 58.044 9.9716 58.1395 10.154C58.2787 10.42 58.3784 10.7546 58.4399 11.0684C58.4793 11.2699 58.4096 11.4027 58.4399 11.6009C58.4624 11.7482 58.5911 11.9599 58.5911 12.1131Z" fill="#948275" stroke="#3D3131" stroke-width="2"/>
</svg>
