<svg width="296" height="386" viewBox="0 0 296 386" fill="none" xmlns="http://www.w3.org/2000/svg">
<path d="M4.99988 29.7059C5.15979 31.6782 6.31612 32.0512 6.31612 33.6557C6.31612 36.009 8.41067 36.8192 9.09792 38.2223C9.98321 40.0298 11.6504 40.9273 13.0023 41.8592C15.0313 43.2579 15.8123 43.9143 18.9345 44.2276C19.875 44.322 21.3719 45.5063 22.4146 45.5651C24.4831 45.6816 24.4083 45.4179 26.887 45.5651C27.2308 45.5855 28.3238 45.9439 28.4049 46.4487C28.486 46.9535 28.4615 47.1171 27.6429 48.0549C26.9878 48.8055 26.3433 49.0436 25.3035 49.9027C24.3243 50.7116 23.1824 51.5187 21.969 52.4254C20.9879 53.1585 20.0075 54.4111 18.9345 55.2091C18.4995 55.5326 17.5382 56.2103 17.0945 56.5445C16.1851 57.2294 15.2613 57.9369 14.3385 58.6673C13.8739 59.035 14.075 59.6555 14.075 60.446C14.3163 60.5265 15.2917 60.6549 15.7592 60.6595C16.6319 60.6681 17.1296 60.4855 17.5995 60.446C19.211 60.3108 20.3846 59.8565 22.8908 59.1717C23.3929 59.0346 25.5763 58.6575 26.0981 58.5026C27.2469 58.1613 28.4537 57.6014 29.6556 57.185C31.5835 56.517 31.8553 56.1697 33.7253 55.3592C34.113 55.1911 34.8434 54.6565 35.2224 54.4839C36.9012 53.7196 39.0655 52.7044 40.4599 51.8816C41.7294 51.1325 41.9149 50.9429 42.8018 50.1838C43.5769 49.8639 44.2516 49.3143 44.7635 49.1275C45.7333 49.1275 45.963 49.3173 46.3546 49.3765C47.2073 49.5053 48.0685 49.6318 48.9379 49.7561C49.957 49.9018 51.8754 50.4063 52.9169 50.5457C55.172 50.8474 58.2794 49.8032 60.6345 50.0744C62.4854 50.2874 63.3767 50.4808 65.2858 50.6742C66.5849 50.8058 67.8971 50.9328 69.2218 51.055C70.8242 51.2028 73.309 52.0615 75.4101 52.1425C77.1885 52.211 78.4768 52.0395 79.888 52.1425C81.5438 52.2632 81.6085 52.0362 83.2963 52.1425C86.5537 52.3475 88.1889 52.8197 91.5563 52.9686C94.1752 53.0844 97.4237 52.8882 100.102 52.9686C102.212 53.032 105.421 53.0842 107.565 53.1249C109.854 53.1684 110.958 52.9516 113.282 52.9686C113.843 52.9727 115.901 53.1687 116.824 53.1041C118.303 53.0005 119.959 52.8624 120.865 52.8624C122.826 52.8624 122.785 53.2275 124.705 53.2187C127.935 53.2037 131.775 52.9029 134.884 52.8624C139.595 52.8011 140.054 53.2187 147.911 52.8624C150.589 52.789 152.062 52.4136 154.625 52.3178C156.515 52.2471 162.797 52.489 165.681 52.3178C167.799 52.192 167.722 51.9399 169.227 51.8702C172.757 51.7067 173.23 51.8297 174.197 51.6527C175.998 51.529 178.942 51.751 180.761 51.6527C182.823 51.5412 183.749 51.1079 185.588 50.9307C186.57 50.8361 187.106 50.5651 188.056 50.4648C190.238 50.2344 192.334 49.9889 194.341 49.7282C198.508 49.1868 198.94 49.4714 201.569 48.9866C202.651 48.7871 204.055 48.5863 205.081 48.3685C207.028 47.9554 208.359 47.1022 210.104 46.6193C210.907 46.397 212.5 46.4697 213.298 46.1794C214.602 45.7052 215.066 44.869 216.005 44.699C217.517 44.4249 218.206 43.8114 219.221 43.3331C219.851 43.0359 220.97 42.5557 221.431 41.7032C221.886 40.8628 222.227 39.9563 222.764 39.6392C223.909 38.9628 224.316 36.6709 224.721 35.3331C225.392 33.1124 225.384 31.5165 225.384 29.732C225.384 28.7705 224.117 26.2408 224.117 24.1489C224.298 22.6208 222.424 20.2826 221.431 19.2607C220.726 18.5348 219.682 18.3766 219.058 17.6785C218.019 16.5165 217.385 15.5936 216.973 15.3032C216.168 14.7344 215.718 13.9754 214.671 13.5739C213.078 12.963 211.104 11.5676 209.384 11.3071C207.856 11.0756 208.151 10.9543 206.724 10.8476C205.887 10.7851 203.857 9.63931 202.899 9.53068C200.663 9.27731 199.568 8.94424 197.916 8.74452C196.75 8.60349 195.741 8.39745 194.689 8.10402C193.727 7.94837 191.334 7.89089 190.348 7.74117C187.892 7.36812 185.977 7.37651 183.384 7.04164C180.814 6.70968 178.178 6.39697 175.483 6.1045C173.806 5.92253 170.949 5.33363 169.227 5.16756C165.494 4.80752 162.813 4.90017 158.884 4.61841C157.187 4.49673 156.053 4.09374 154.073 3.98731C152.145 3.88365 149.376 4.07614 147.314 3.98731C145.847 3.92412 145.776 3.64924 144.299 3.59371C142.174 3.51382 138.65 3.65742 136.624 3.59371C134.871 3.53858 133.182 3.48957 131.602 3.44681C126.366 3.30509 122.246 2.6615 118.884 3.23197C117.136 3.23197 113.946 3.22304 112.222 3.23198C108.62 3.25066 106.524 3.30207 103.032 3.35836C101.163 3.38849 98.6867 3.40632 96.851 3.44681C93.2841 3.52549 89.4257 3.641 85.9914 3.75719C84.0958 3.82132 81.2451 3.68213 79.392 3.75719C74.9827 3.9358 72.6512 4.35374 68.4974 4.59083C67.648 4.63931 66.1239 4.54003 65.2858 4.59083C61.8274 4.80046 59.1456 5.17864 55.8858 5.42606C53.3612 5.61767 51.2405 6.03293 48.4992 6.03293C44.7635 6.03293 41.5455 6.68448 38.2888 7.04165C36.9984 7.18317 35.5498 7.58053 34.3104 7.7471C31.2114 8.16359 29.65 8.69774 26.887 9.29137C24.6443 9.77321 22.5117 10.7246 20.5049 11.3407C19.4707 12.2999 17.412 12.8532 15.9906 13.6388C13.9125 14.7874 11.3362 15.8287 10.0509 17.2658C9.37442 18.0222 8.795 18.8048 8.29927 19.5991C6.93663 21.7824 6.9702 20.916 5.93556 23.1055C5.56963 23.8799 4.99988 28.5229 4.99988 29.7059Z" stroke="#3D3131" stroke-width="2" stroke-linejoin="round"/>
<path d="M102.472 74.6915C102.472 74.6915 104.796 74.6915 108.742 74.8787C110.471 74.9607 113.562 75.4465 115.239 75.6284C117.934 75.9209 120.569 76.2336 123.14 76.5656C125.733 76.9005 127.647 76.8921 130.103 77.2651C131.089 77.4148 133.482 77.4723 134.445 77.628C135.496 77.9214 136.505 78.1274 137.672 78.2685C139.324 78.4682 140.419 78.8013 142.654 79.0546C143.613 79.1633 145.643 80.309 146.479 80.3715C147.907 80.4782 147.612 80.5996 149.14 80.8311C150.859 81.0916 152.834 82.4869 154.427 83.0979C155.473 83.4994 155.923 84.2583 156.729 84.8272C157.14 85.1175 157.774 86.0404 158.813 87.2025C159.437 87.9006 160.482 88.0588 161.187 88.7847C162.179 89.8065 164.054 92.1447 163.873 93.6729C163.873 95.7648 165.14 98.2944 165.14 99.2559L165.14 99.3188C165.14 101.078 165.14 102.662 164.476 104.857C164.072 106.195 163.664 108.487 162.519 109.163C161.982 109.48 161.641 110.387 161.187 111.227C160.725 112.08 159.607 112.56 158.976 112.857C157.962 113.335 157.273 113.949 155.76 114.223C154.822 114.393 154.358 115.229 153.053 115.703C152.255 115.994 150.663 115.921 149.859 116.143C148.114 116.626 146.783 117.479 144.836 117.892C143.811 118.11 142.406 118.311 141.324 118.51C138.695 118.995 138.264 118.711 134.097 119.252C132.09 119.513 129.994 119.758 127.812 119.989C126.862 120.089 126.325 120.36 125.343 120.455C123.505 120.632 122.579 121.065 120.516 121.177C118.698 121.275 114.275 121.485 112.474 121.609C111.507 121.786 111.034 121.663 107.504 121.826C105.999 121.896 103.254 121.7 101.136 121.826C98.2522 121.997 98.5059 121.755 96.6157 121.826L91.4323 121.394C89.5233 121.201 88.636 121.047 86.7851 120.834C84.43 120.562 82.2513 121.135 79.9963 120.834C78.9548 120.694 77.0364 120.19 76.0173 120.044C75.1479 119.92 74.2867 119.793 73.434 119.664C73.0424 119.605 72.8127 119.415 71.8429 119.415C71.331 119.602 70.6563 120.152 69.8812 120.472C68.9943 121.231 68.8088 121.42 67.5393 122.17C66.1449 122.992 63.9806 124.007 62.3018 124.772C61.9228 124.944 61.1924 125.479 60.8046 125.647C58.9346 126.458 58.6628 126.805 56.735 127.473C55.533 127.889 54.3263 128.449 53.1774 128.79C52.6557 128.945 50.4722 129.322 49.9702 129.46C47.464 130.144 46.2903 130.599 44.6789 130.734C44.209 130.773 43.7113 130.956 42.8386 130.947C42.3711 130.943 41.3957 130.814 41.1544 130.734C41.1544 129.943 40.9532 129.323 41.4179 128.955C42.3406 128.225 43.2645 127.517 44.1738 126.832C44.6176 126.498 45.5789 125.82 46.0139 125.497C47.0869 124.699 48.0672 123.446 49.0484 122.713C50.2618 121.807 51.4037 120.999 52.3829 120.191C53.4227 119.332 54.0672 119.093 54.7223 118.343C55.5409 117.405 55.5653 117.241 55.4842 116.737C55.4031 116.232 54.3102 115.873 53.9664 115.853C51.4876 115.706 51.5625 115.97 49.494 115.853C48.4513 115.794 46.9544 114.61 46.0139 114.515C42.8916 114.202 42.1107 113.546 40.0816 112.147C38.7298 111.215 37.0626 110.318 36.1773 108.51C35.49 107.107 33.3955 106.297 33.3955 103.944C33.3955 102.339 32.2392 101.966 32.0793 99.9938C32.0793 98.8107 32.649 94.1678 33.0149 93.3934C34.0496 91.2039 34.016 92.0703 35.3786 89.8869C35.8744 89.0926 36.4538 88.3101 37.1303 87.5537C38.4156 86.1166 40.9919 85.0753 43.07 83.9267C44.4914 83.1411 46.55 82.5878 47.5842 81.6286C49.5911 81.0125 51.7237 80.0611 53.9664 79.5793C56.7294 78.9856 58.2908 78.4515 61.3898 78.035C62.6292 77.8684 64.0778 77.4711 65.3682 77.3295C68.6248 76.9724 71.8429 76.3208 75.5786 76.3208C78.3199 76.3208 80.4406 75.9056 82.9652 75.714C86.225 75.4665 88.9068 75.0884 92.3651 74.8787L96.6157 74.6915C98.5956 74.7979 102.472 74.6915 102.472 74.6915Z" stroke="#3D3131" stroke-width="2" stroke-linejoin="round"/>
<path d="M119.224 148.028C120.063 147.403 122.373 146.868 125.783 146.421C128.451 146.07 130.325 146.081 134.163 145.837C137.469 145.627 142.61 145.149 146.538 145.017C149.87 144.905 152.923 144.803 156.337 144.739C157.366 144.72 158.767 144.489 159.88 144.477C161.895 144.456 163.777 144.663 166.023 144.664C168.49 144.666 170.898 144.464 173.185 144.477C175.521 144.491 177.951 144.73 180.281 144.764C182.517 144.797 184.277 145.011 186.478 145.063C188.572 145.112 191.107 144.997 193.144 145.063C195.487 145.138 198.339 145.22 200.772 145.305C203.365 145.396 205.544 145.492 208.191 145.597C209.679 145.656 211.917 145.705 213.41 145.769C218.54 145.988 222.923 146.248 227.865 146.536C230.477 146.689 233.306 146.663 235.787 146.838C239.736 147.117 243.215 147.615 246.652 147.96C249.819 148.278 253.202 148.523 255.755 148.907C259.282 149.436 261.21 150.053 263.172 150.725C264.847 151.299 266.319 152.01 266.547 152.702C267.087 154.344 267.507 157.067 267.415 159.818C267.367 161.253 266.952 162.621 266.826 164.007C266.528 167.306 265.534 168.937 265.269 169.32C265.227 169.381 265.183 169.44 265.132 169.494C264.879 169.763 263.934 170.567 261.888 170.265C259.51 169.915 256.194 169.207 252.047 168.661C250.311 168.432 248.63 168.566 246.652 168.321C243.701 167.956 240.026 167.465 236.643 167.092C234.433 166.848 232.62 166.718 230.271 166.483C227.116 166.167 223.64 165.695 220.312 165.416C218.158 165.235 215.607 165.152 213.41 164.995C211.485 164.857 210.131 164.811 208.191 164.696C205.363 164.528 202.528 164.387 199.71 164.278C196.998 164.174 194.302 164.1 191.644 164.063C190.483 164.046 188.745 164.149 187.574 164.14C185.928 164.128 184.845 164.006 183.187 164.007C181.607 164.007 179.511 164.129 177.929 164.14C176.782 164.149 176.147 164.044 175.003 164.057C173.162 164.079 171.328 164.107 169.506 164.14C166.527 164.195 164.806 164.414 161.923 164.494C160.263 164.54 157.398 164.441 155.784 164.494C153.792 164.559 151.47 164.722 149.57 164.795C147.093 164.889 145.072 164.894 142.792 164.995C140.549 165.094 138.498 164.895 136.49 164.995C133.894 165.124 131.429 165.55 129.312 165.668C126.891 165.803 124.814 165.926 123.153 166.029C122.636 166.061 122.178 166.081 121.775 166.093C120.218 166.14 118.961 165.067 118.629 163.545C118.397 162.48 118.133 161.151 117.911 159.715C117.78 158.868 117.999 157.905 117.911 157.017C117.536 153.214 117.36 149.415 119.224 148.028Z" stroke="#3D3131" stroke-width="3"/>
<path d="M190.891 249.518L191.796 238.232L193.475 226.498L193.561 217.657L194.11 213.72L195.367 209.815L195.241 200.429L195.759 191.004L195.756 183.243L198.718 154.678L199.401 150.063L199.401 145.563L200.043 139.525L200.221 129.842L200.379 125.716L200.551 115.509L188.366 114.647L188.049 119.357L187.162 124.301L187.168 131.58L185.78 145.466L185.969 148.513L185.544 151.596L184.396 161.747L184.771 165.447L183.333 179.067L183.572 182.38L183.04 189.915L182.064 199.957L182.511 207.626L181.128 211.515L181.313 215.732L180.407 222.624L179.434 236.462L178.207 249.304L177.645 253.06" stroke="#3D3131" stroke-width="3" stroke-linecap="round" stroke-linejoin="round"/>
<path opacity="0.8" d="M256.37 225.973C254.742 215.844 254.831 191.784 255.079 181.019C252.48 180.85 248.413 179.545 243.505 179.145C239.733 178.838 235.607 179.496 232.372 179.145C230.453 178.937 226.611 178.085 222.887 177.859C219.808 177.673 217.042 178.125 213.441 177.859C210.076 177.611 206.323 176.872 202.994 176.759C199.797 176.651 197.905 177.555 194.921 177.452C188.86 177.245 186.201 177.418 181.288 177.452C179.937 177.462 176.47 177.097 173.323 177.452C170.095 177.817 166.58 178.235 164.128 178.443C160.438 178.756 161.363 178.209 157.677 178.443C152.592 178.766 149.16 178.401 144.461 178.828C142.115 179.04 141.149 179.589 139.03 179.789C136.511 180.026 135.159 179.848 133.07 180.077C130.873 180.318 131.149 180.82 129.492 181.017C129.492 184.73 135.116 238.125 141.161 261.153C147.206 284.182 178.869 314.838 183.907 319.155C187.937 322.61 194.317 328.367 197.004 330.813C207.99 329.326 231.661 326.093 238.454 325.056C246.946 323.761 264.578 311.343 268.171 308.776C271.764 306.209 273.988 302.637 273.817 299.728C273.68 297.401 273.902 294.89 273.101 293.121C268.202 274.959 257.998 236.102 256.37 225.973Z" fill="#3E241B"/>
<path d="M148.521 254.612C151.345 254.763 152.317 256.892 152.45 257.937C151.8 261.221 151.079 265.757 150.468 270.226C150.188 272.269 150.224 274.105 150.008 275.994C149.755 278.202 149.263 280.412 149.148 282.035C149.057 283.311 148.972 284.857 148.897 286.548C148.824 288.185 148.683 290.32 148.635 292.118C148.573 294.383 148.611 296.326 148.604 298.445C148.602 299.222 148.779 300.331 148.785 301.047C148.801 302.808 148.671 303.994 148.751 305.153C147.215 305.035 145.885 304.974 144.817 305.048C143.981 305.106 142.202 305.704 141.381 306.045C141.221 304.768 141.077 303.159 140.983 301.815C140.825 299.54 140.522 297.376 140.511 295.03C140.502 293.076 140.787 291.231 140.845 289.327C140.895 287.674 140.776 285.678 140.855 284.125C140.962 281.999 141.286 280.793 141.4 278.985C141.497 277.451 141.631 275.321 141.804 273.559C141.972 271.854 142.234 270.222 142.434 268.529C142.6 267.122 142.702 265.635 142.866 264.377C143.304 261.012 143.693 258.402 143.82 257.759C144.112 256.288 144.99 254.423 148.521 254.612Z" fill="#FFFBFA" stroke="#3D3131" stroke-width="3" stroke-linecap="round" stroke-linejoin="round"/>
<path d="M127.877 166.204C127.941 168.4 128.495 171.838 128.639 174.567C128.832 178.225 128.655 181.694 128.974 185.951C129.18 188.71 129.644 191.668 129.896 194.537C130.176 197.722 130.361 200.846 130.689 204.022C130.922 206.285 131.4 209.149 131.655 211.341C132.055 214.785 132.319 218.215 132.762 221.306C133.534 226.688 134.29 230.641 135.146 234.063C141.842 260.847 155.023 284.826 167.019 300.86C167.495 301.497 168.241 302.173 168.713 302.784C169.778 304.163 170.56 305.424 171.595 306.668C173.082 308.455 174.88 310.128 176.279 311.619C176.985 312.372 177.331 313.057 178.008 313.73C179.875 315.585 181.674 316.77 183.262 317.981C184.778 319.298 185.616 320.042 186.646 320.563C189.431 320.83 191.688 321.034 194.96 320.963C198.234 320.891 201.846 320.274 205.499 319.825C207.104 319.628 209.418 319.663 211.081 319.387C213.116 319.049 215.19 318.651 217.296 318.191C219.271 317.759 221.274 317.271 223.297 316.726C229.383 315.084 235.656 312.917 241.923 310.156C243.7 309.373 245.281 308.969 247.053 308.089C248.737 307.253 250.612 305.944 252.284 305.017C255.012 303.504 258.275 301.949 260.944 300.186C262.742 298.998 263.965 297.671 265.724 296.365C266.851 295.778 268.358 294.536 269.859 293.233C270.685 292.516 271.445 291.25 271.445 290.232C271.445 289.214 271.161 287.627 270.635 285.96C269.978 283.876 269.269 280.908 268.668 278.989C268.113 277.219 267.662 276.488 267.152 274.849C258.849 248.143 256.416 238.263 255.146 225.563C254.708 221.184 254.526 215.326 254.507 209.039C254.502 207.7 254.51 205.399 254.507 203.533C254.503 201.856 254.488 200.611 254.507 199.374C254.542 197.043 254.644 196.608 254.707 194.325C254.758 192.514 254.892 189.233 254.955 187.508C255.061 184.629 255.105 183.404 255.23 180.945C255.308 179.429 255.844 176.231 255.922 174.944C256.084 172.311 255.786 171.999 255.922 170.672" stroke="#3D3131" stroke-width="3" stroke-linecap="round" stroke-linejoin="round"/>
<path d="M133.12 229.025C132.241 229.042 131.46 229.793 131.324 230.228C131.187 230.663 131.249 231.525 131.641 233.131C131.89 234.147 131.96 235.217 132.207 236.371C132.469 237.594 132.91 238.909 133.269 240.279C133.497 241.148 133.927 242.116 134.173 243.019C134.348 243.662 134.442 244.669 134.656 245.377C135.136 246.96 135.789 248.322 136.241 249.808C136.63 251.085 137.158 253.522 137.574 254.779C138.093 256.345 138.907 257.246 139.466 258.724C139.892 259.852 139.698 260.019 140.146 261.063C141.024 263.114 142.179 265.091 143.252 267.39C143.516 267.956 143.762 269.021 144.036 269.596C144.806 271.212 145.676 272.331 146.512 273.984C147.446 275.832 148.21 277.958 149.204 279.782C150.336 281.86 151.679 284.815 152.675 285.846C153.671 286.877 154.298 288.479 155.113 289.713C156.666 291.465 158.414 294.454 159.736 296.08C160.589 297.129 161.455 297.473 161.834 297.623C162.213 297.773 163.195 298.052 164.017 298.031C165.952 297.982 168.015 298.186 170.245 298.031C172.315 297.887 174.533 297.391 176.782 297.169C179.337 296.917 179.579 297.155 182.264 296.818C184.241 296.57 188.644 295.764 190.642 295.478C192.207 295.255 193.743 295.361 195.297 295.118C197.825 294.723 200.354 293.965 202.783 293.531C204.204 293.277 205.601 293.017 206.965 292.754C209.669 292.232 214.454 290.853 216.829 290.311C219.883 289.614 220.396 289.75 222.646 289.063C226.112 288.004 229.82 286.722 233.583 285.324C236.198 284.354 238.839 283.327 241.444 282.281C243.91 281.291 245.032 281.16 247.381 280.165C249.129 279.425 252.144 277.814 253.777 277.101C255.732 276.246 257.239 275.898 258.96 275.121C260.568 274.395 262.407 273.234 263.748 272.612C265.323 271.882 266.692 271.468 267.806 270.934C268.801 270.458 269.205 268.87 269.205 268.035C269.205 267.201 268.908 267.169 268.151 264.917C267.404 262.693 267.334 261.829 266.658 259.603C265.968 257.33 264.329 252.844 263.748 250.73C263.11 248.412 262.554 244.835 262.09 242.912C261.706 241.321 261.383 240.249 261.145 239.063C260.899 237.831 260.485 236.266 260.245 234.743C259.85 232.228 259.697 229.757 259.367 226.881C259.065 224.246 258.401 220.953 258.203 218.448C258.042 216.423 258.268 214.925 258.203 213.23C258.165 212.262 257.711 212.042 256.894 211.545C256.076 211.049 254.749 211.68 252.894 212.275C251.541 212.709 249.866 212.679 247.991 213.23C246.717 213.605 244.439 214.955 242.963 215.368C241.318 215.829 238.491 216.52 236.638 217.012C234.831 217.492 232.068 217.955 230.103 218.448C226.688 219.306 221.692 220.713 217.971 221.546C213.978 222.439 214.109 222.148 210.021 222.911C206.693 223.531 203.377 224.092 200.146 224.563C194.769 225.347 188.103 226.032 180.97 226.615C179.314 226.75 177.414 226.791 175.579 226.974C173.951 227.137 172.389 227.444 170.869 227.545C162.29 228.119 153.565 228.554 145.984 228.848C143.752 228.935 142.147 228.786 140.146 228.848C138.779 228.89 137.288 229.181 136.188 229.025C135.082 228.762 134.096 228.96 133.12 229.025Z" fill="#948275" stroke="#3D3131" stroke-width="3" stroke-linejoin="round"/>
<ellipse cx="13.5495" cy="19.4519" rx="13.5495" ry="19.4519" transform="matrix(0.992112 -0.125353 0.170094 0.985428 174.513 206.89)" fill="#FFFBFA" stroke="#3D3131" stroke-width="3"/>
<ellipse cx="13.5495" cy="19.4519" rx="13.5495" ry="19.4519" transform="matrix(0.992112 -0.125353 0.170094 0.985428 142.536 209.711)" fill="#FFFBFA" stroke="#3D3131" stroke-width="3"/>
<path d="M178.528 229.263C179.74 229.845 184.012 230.522 188.748 230.049C193.483 229.575 202.097 226.669 204.138 224.154" stroke="#3D3131" stroke-width="3" stroke-linecap="round" stroke-linejoin="round"/>
<path d="M146.551 232.084C147.763 232.667 152.034 233.343 156.77 232.87C161.506 232.396 170.119 229.49 172.161 226.975" stroke="#3D3131" stroke-width="3" stroke-linecap="round" stroke-linejoin="round"/>
<path d="M188.235 241.205C193.103 242.286 193.288 233.602 190.348 230.368H179.444C180.41 233.556 183.368 240.123 188.235 241.205Z" fill="#3D3131"/>
<path d="M156.259 244.026C161.126 245.108 161.311 236.423 158.371 233.19H147.468C148.434 236.377 151.391 242.944 156.259 244.026Z" fill="#3D3131"/>
<path d="M259.968 82.1796L261.615 86.813L262.929 91.3222L261.753 93.8089L256.33 95.3281L246.611 97.2804L236.831 100.702L225.625 103.33L217.784 106.325L211.532 107.746L205.845 109.466L204.901 108.063L201.189 99.3835L201.555 97.118L207.026 95.0432L211.62 94.0945L227.854 89.5314L233.949 87.5573L243.61 85.3138L252.95 82.4549L257.711 81.3255L259.968 82.1796Z" stroke="#3D3131" stroke-width="3" stroke-linecap="round" stroke-linejoin="round"/>
<path d="M201.903 111.563L200.368 115.896L188.402 114.563L190.872 104.573L201.903 111.563Z" stroke="#3D3131" stroke-width="3" stroke-linecap="round" stroke-linejoin="round"/>
<path d="M204.901 109.563L202.402 111.563L190.902 104.563L200.902 97.5628L204.901 109.563Z" stroke="#3D3131" stroke-width="3" stroke-linecap="round" stroke-linejoin="round"/>
<path d="M201.834 246.563C200.505 251.116 199.176 260.085 204.493 259.539C211.139 258.856 205.822 249.295 201.834 246.563Z" fill="#94B3D6" stroke="#3D3131" stroke-width="3" stroke-linecap="round" stroke-linejoin="round"/>
<path d="M218.157 259.845C216.645 264.563 216.949 273.573 222.178 272.466C228.714 271.081 222.646 261.563 218.157 259.845Z" fill="#94B3D6" stroke="#3D3131" stroke-width="3" stroke-linecap="round" stroke-linejoin="round"/>
<path d="M152.376 306.016C154.527 307.253 156.612 310.463 154.377 312.199C155.577 312.729 156.492 312.992 158.2 314.478C159.346 315.475 164.004 320.036 164.95 322.799C166.371 326.947 163.136 327.835 161.787 327.487C159.851 326.987 157.947 324.958 156.761 323.886C157.761 326.977 159.221 330.954 159.761 333.159C160.18 334.869 160.586 337.302 158.277 337.964C155.127 338.867 153.317 335.734 152.241 333.682C150.972 331.263 150.507 328.415 149.948 327.52C149.388 326.626 148.659 326.82 148.44 328.415C148.176 330.328 148.884 334.807 148.932 335.493C149.041 337.066 148.479 340.265 145.353 340.483C142.228 340.7 141.594 336.941 141.368 333.699C141.204 331.34 141.442 327.68 141.373 326.682C141.303 325.684 140.782 325.916 140.521 326.401C139.708 327.91 140.54 331.299 139.478 333.159C138.317 335.194 133.073 334.599 133.724 329.541C133.771 327.974 134.526 322.661 135.052 321.004C136.696 315.819 137.485 313.9 140.203 311.604C137.75 310.194 139.876 306.886 141.384 305.991C144.4 304.2 149.924 304.606 152.376 306.016Z" fill="#FFFBFA" stroke="#3D3131" stroke-width="3" stroke-linecap="round" stroke-linejoin="round"/>
<path d="M234.146 241.063C234.18 239.909 235.846 238.163 238.646 238.563C242.146 239.063 242.778 241.164 242.778 242.664C242.778 243.031 242.646 244.291 242.631 246.245C242.621 247.491 242.803 249.112 242.778 250.739C242.753 252.339 242.522 253.941 242.474 255.711L242.449 257.031C242.427 258.696 242.434 260.331 242.354 261.96C242.286 263.334 242.045 264.669 241.953 265.886C241.851 267.23 241.782 268.541 241.646 269.563C241.447 271.055 240.986 272.939 240.636 274.764C240.25 276.785 239.958 278.774 239.407 280.938C239.022 282.45 238.349 284.139 237.893 285.606C237.008 288.45 236.248 290.946 235.136 293.098C234.657 294.025 234.16 294.856 233.646 295.563C233.017 295.229 231.419 294.563 230.05 294.563H226.646C227.027 294.055 227.72 292.559 228.537 290.369C229.057 288.978 229.479 287.191 230.05 285.316C230.511 283.798 231.121 282.261 231.559 280.516C231.825 279.455 232.082 278.359 232.325 277.238C232.857 274.772 233.148 271.896 233.476 269.277C233.67 267.718 233.993 266.483 234.111 265C234.258 263.151 234.091 261.431 234.146 259.707C234.172 258.859 234.452 257.958 234.462 257.142C234.483 255.363 234.178 253.856 234.146 252.236C234.129 251.427 234.4 250.443 234.378 249.675C234.336 248.272 234.42 247.167 234.378 245.908C234.322 244.235 234.111 242.216 234.146 241.063Z" fill="#FFFBFA"/>
<path d="M242.474 255.711C242.522 253.941 242.753 252.339 242.778 250.739C242.803 249.112 242.621 247.491 242.631 246.245C242.646 244.291 242.778 243.031 242.778 242.664C242.778 241.164 242.146 239.063 238.646 238.563C235.846 238.163 234.18 239.909 234.146 241.063C234.111 242.216 234.322 244.235 234.378 245.908C234.42 247.167 234.336 248.272 234.378 249.675C234.4 250.443 234.129 251.427 234.146 252.236C234.178 253.856 234.483 255.363 234.462 257.142C234.452 257.958 234.172 258.859 234.146 259.707C234.091 261.431 234.258 263.151 234.111 265C233.993 266.483 233.67 267.718 233.476 269.277C233.148 271.896 232.857 274.772 232.325 277.238C232.082 278.359 231.825 279.455 231.559 280.516C231.121 282.261 230.511 283.798 230.05 285.316C229.479 287.191 229.057 288.978 228.537 290.369C227.72 292.559 227.027 294.055 226.646 294.563C227.271 294.563 228.68 294.563 230.05 294.563C231.419 294.563 233.017 295.229 233.646 295.563C234.16 294.856 234.657 294.025 235.136 293.098C236.248 290.946 237.008 288.45 237.893 285.606C238.349 284.139 239.022 282.45 239.407 280.938C239.958 278.774 240.25 276.785 240.636 274.764C240.986 272.939 241.447 271.055 241.646 269.563C241.782 268.541 241.851 267.23 241.953 265.886C242.045 264.669 242.286 263.334 242.354 261.96M242.474 255.711C242.417 257.835 242.455 259.903 242.354 261.96M242.474 255.711L242.354 261.96" stroke="#3D3131" stroke-width="3" stroke-linecap="round" stroke-linejoin="round"/>
<path d="M221.371 364.025C220.365 366.209 222.21 368.028 223.355 368.541L223.297 368.549C221.552 368.771 218.169 369.203 213.809 367.763C212.101 367.199 208.847 365.977 204.666 368.074C199.508 370.661 198.887 378.602 202.259 381.332C207.035 385.198 222.976 382.35 226.043 382.355C229.109 382.361 234.006 382.774 236.144 381.935C239.258 380.714 239.338 375.23 239.047 373.613C238.613 371.202 237.892 368.404 235.386 367.085C238.235 364.742 237.995 361.104 235.386 360.12C231.523 358.664 231.2 362.849 228.041 362.843C224.882 362.837 222.838 360.834 221.371 364.025Z" fill="#948275" stroke="#3D3131" stroke-width="3" stroke-linejoin="round"/>
<path d="M271.54 358.236C270.784 360.519 272.348 362.408 273.494 362.919C271.976 362.737 268.943 361.851 268.011 361.605C265.524 360.948 262.507 359.138 258.042 360.836C251.739 363.233 251.111 372.701 254.489 375.425C259.272 379.282 277.065 375.863 280.131 375.863C283.198 375.863 286.197 376.706 288.334 375.863C291.446 374.636 292.097 369.363 291.803 367.747C291.364 365.337 289.971 362.919 287.462 361.605C289.135 360.291 288.569 355.948 286.689 354.877C282.998 352.773 281.838 356.898 278.79 356.898C275.631 356.898 272.498 355.345 271.54 358.236Z" fill="#948275" stroke="#3D3131" stroke-width="3" stroke-linejoin="round"/>
<path d="M225.171 362.613C224.479 361.939 223.304 361.053 221.91 360.03C221.237 359.537 220.612 358.943 219.867 358.395C219.282 357.965 218.585 357.588 217.988 357.133C217.101 356.457 215.914 355.511 215.079 354.804C213.835 353.751 213.004 352.928 212.131 351.88C211.491 351.112 210.992 350.356 210.695 349.631C210.505 349.167 210.291 348.112 210.154 347.549C209.905 346.53 209.788 345.905 209.684 344.669C209.612 343.817 209.617 342.937 209.6 342.037C209.578 340.858 209.551 339.65 209.6 338.476C209.631 337.731 209.549 336.776 209.6 336.066C209.686 334.874 209.761 333.941 209.879 332.943C210.104 331.045 209.975 330.384 210.154 329.819" stroke="#3D3131" stroke-width="3" stroke-linejoin="round"/>
<path d="M275.265 356.577C274.669 355.847 273.475 354.991 272.287 353.918C271.127 352.87 269.984 351.612 268.55 350.379C267.776 349.714 267.054 348.955 266.263 348.267C265.138 347.286 263.948 346.371 262.901 345.399C261.846 344.419 261.269 343.447 260.426 342.541C259.168 341.188 257.815 339.967 257.403 338.96C256.927 337.799 256.519 336.238 256.188 334.585C255.915 333.218 255.773 331.991 255.593 330.495C255.5 329.727 255.343 328.775 255.274 328.01C255.186 327.031 255.116 326.066 255.065 325.139C255.016 324.269 254.681 323.391 254.664 322.613C254.617 320.482 254.988 318.822 255.158 318.002" stroke="#3D3131" stroke-width="3" stroke-linecap="round" stroke-linejoin="round"/>
<path d="M232.163 359.953C231.822 359.208 230.888 357.753 230.047 357.23C229.068 356.21 227.42 355.449 226.174 354.272C225.08 353.239 224.19 352.121 223.149 351.059C222.2 350.09 220.972 349.231 220.26 348.307C219.613 347.468 219.216 346.608 218.908 345.857C218.476 344.013 218.319 341.833 218.329 339.641C218.333 338.604 218.522 337.541 218.589 336.532C218.67 335.301 218.642 334.141 218.778 333.065C219.06 330.828 219.414 329.059 219.649 328.317" stroke="#3D3131" stroke-width="3" stroke-linejoin="round"/>
<path d="M282.706 354.6C282.295 353.706 281.568 352.779 280.608 351.668C279.833 350.772 279.033 349.541 278.042 348.562C277.016 347.549 275.774 346.685 274.654 345.64C274.277 345.289 273.761 344.57 273.384 344.219C272.428 343.329 271.617 342.813 270.72 341.953C269.964 341.23 269.315 340.465 268.658 339.785C268.029 339.135 267.386 338.567 266.893 337.976C266.115 337.045 265.534 336.199 265.237 335.475C264.797 334.401 264.553 333.904 264.27 332.337C264.053 331.14 263.94 328.671 263.797 327.341C263.691 326.35 263.431 325.616 263.357 324.616C263.252 323.172 263.409 321.936 263.357 320.612C263.319 319.642 263.144 318.313 263.126 317.484C263.086 315.642 263.126 313.654 263.126 313.028" stroke="#3D3131" stroke-width="3" stroke-linecap="round" stroke-linejoin="round"/>
<path d="M135.646 183.563L138.124 183.251L139.37 183.251L140.536 183.027L144.939 182.563L146.646 182.563" stroke="#3D3131" stroke-width="3" stroke-linecap="round" stroke-linejoin="round"/>
<path d="M152.419 182.394C152.419 182.394 154.422 182.584 157.895 182.394C159.692 182.296 162.021 181.853 164.379 181.742C165.21 181.702 166.068 181.663 166.948 181.623C169.087 181.529 170.618 181.223 172.931 181.142C175.413 181.055 178.705 181.115 181.199 181.063C183.589 181.013 185.92 181.063 188.145 181.063C189.34 181.063 190.683 181.124 191.946 181.142C194.884 181.183 197.862 181.215 200.915 181.323C203.658 181.42 207.417 181.501 209.979 181.623C212.389 181.739 213.621 181.895 215.651 182.008C217.344 182.103 218.815 181.929 220.106 182.008C222.89 182.179 224.645 182.563 224.645 182.563" stroke="#3D3131" stroke-width="3" stroke-linecap="round" stroke-linejoin="round"/>
<path d="M231.645 182.563L233.813 182.841L236.342 182.841L239.457 183.094L242.759 183.319L245.461 183.319L247.645 183.563M189.501 324.432C189.862 324.931 190.389 325.482 191.081 326.214M273.081 295.232C273.313 296.095 273.469 297.511 273.663 298.682C273.887 300.027 274.416 300.591 274.213 302.038C273.788 302.675 272.832 303.919 271.42 305.312C270.487 306.234 269.513 307.265 268.221 308.388C267.32 309.171 266.185 310.007 265.134 310.845C263.391 312.234 261.591 313.768 259.51 315.178C256.922 316.932 253.663 318.923 250.675 320.406C249.186 321.145 247.971 321.464 246.467 322.111C245.214 322.651 243.324 323.529 242.023 323.949C240.492 324.443 239.311 324.643 237.429 325.225C235.154 325.93 232.763 326.63 230.598 327.156C227.063 328.015 224.29 328.319 221.028 328.887C217.591 329.486 215.004 329.584 212.158 329.945C210.6 330.142 209.376 330.189 208.088 330.32C206.34 330.498 205.305 330.402 204.168 330.481C203.302 330.541 198.439 330.999 196.326 330.736C195.966 330.692 195.034 330.406 194.321 329.764M191.081 326.214C192.21 327.409 193.301 328.844 194.321 329.764M191.081 326.214L194.321 329.764" stroke="#3D3131" stroke-width="3" stroke-linecap="round" stroke-linejoin="round"/>
<path d="M222.235 296.21C220.175 297.594 218.318 300.94 220.668 302.517C219.885 303.568 218.025 306.302 216.145 307.563C213.795 309.139 210.745 309.497 209.646 312.063C208.147 315.563 211.146 316.563 212.645 316.563C214.645 316.563 217.535 315.918 219.101 314.341C218.318 317.494 217.137 321.563 216.751 323.8C216.452 325.535 215.58 329.318 217.146 330.107C218.712 330.895 221.646 331.563 223.8 326.165C225.647 321.538 225.654 318.425 226.15 317.494C226.646 316.563 227.387 316.706 227.716 318.282C228.112 320.172 227.716 324.689 227.716 325.377C227.716 326.953 228.5 330.107 231.632 330.107C234.765 330.107 235.137 326.313 235.137 323.063V315.836C235.137 314.836 235.335 315.371 235.629 315.836C236.545 317.286 236.71 319.061 238.01 321.011C239.309 322.96 243.712 322.801 243.137 317.063C242.981 315.503 241.369 310.462 240.869 309.462C238.354 304.434 236.811 302.517 234.766 300.94C237.116 299.364 234.765 296.21 233.199 295.422C230.066 293.846 224.583 294.634 222.235 296.21Z" fill="#FFFBFA" stroke="#3D3131" stroke-width="3" stroke-linecap="round" stroke-linejoin="round"/>
<path d="M51.0158 21.6633C52.6721 21.9445 53.6018 22.3 53.8049 22.7297L53.5939 23.8078V26.1633C53.5939 26.882 52.3049 27.382 49.7268 27.6633C49.8361 29.382 50.1252 30.2414 50.5939 30.2414H50.8049C52.6643 29.8117 53.6643 29.5968 53.8049 29.5968C54.0939 29.6437 54.2385 29.7883 54.2385 30.0304V30.2414C53.3635 31.2414 52.2189 31.7414 50.8049 31.7414C49.2268 31.7414 48.4377 30.9562 48.4377 29.3859C48.2971 28.6437 48.2268 27.7843 48.2268 26.8078C48.2268 26.6047 48.4416 26.3898 48.8713 26.1633H51.4494C51.6525 26.1633 51.8674 25.9484 52.0939 25.5187V23.5851L51.8713 23.1633C50.1916 23.3039 48.9768 23.3742 48.2268 23.3742H47.8049L46.7268 23.1633V22.0851L47.8049 21.8742H50.1604C50.4807 21.8742 50.7658 21.8039 51.0158 21.6633ZM57.4494 22.0851L57.883 22.7297V26.5968H58.5275C59.5822 26.5968 60.1525 26.8117 60.2385 27.2414V28.0968L59.1721 28.3078H57.883C57.883 28.8781 57.8127 29.1633 57.6721 29.1633L57.883 29.5968V31.3078C57.883 32.05 57.6682 32.4797 57.2385 32.5968H57.0275C56.4494 32.3703 56.1604 31.8703 56.1604 31.0968V25.9523C56.1604 23.3742 56.59 22.0851 57.4494 22.0851ZM74.2316 20.7961H75.0871C75.798 21.007 76.1535 23.1515 76.1535 27.2297V29.8078C76.0519 31.6672 75.7668 32.5968 75.298 32.5968H74.6535C74.6535 32.1672 74.5832 31.9523 74.4425 31.9523L74.6535 30.8742C74.6535 30.7023 74.5832 29.9875 74.4425 28.7297H74.6535L74.4425 28.3078C74.4425 28.1515 74.5129 27.9367 74.6535 27.6633C74.3722 24.4289 74.1574 22.6398 74.0089 22.2961C74.1574 22.0461 74.2316 21.7609 74.2316 21.4406V20.7961ZM63.7199 21.0187H65.4308C65.9308 21.0187 66.4308 21.3039 66.9308 21.8742H68.6535C69.5129 21.9601 69.9425 22.175 69.9425 22.5187V22.9406C69.9425 23.2297 69.798 23.3742 69.5089 23.3742H68.2199C68.0793 23.3742 68.0089 23.3039 68.0089 23.1633L67.5754 23.3742H66.5089V24.4406C66.6964 26.8781 66.9816 28.0968 67.3644 28.0968H67.5754C68.2941 27.6672 68.8683 27.4523 69.298 27.4523L69.7199 28.0968V28.3078C68.6183 29.3078 67.6183 29.8078 66.7199 29.8078C66.1496 29.6672 65.8644 29.382 65.8644 28.9523H65.0089C62.5793 28.9523 61.3644 27.8078 61.3644 25.5187V22.2961L60.9308 21.6633C60.9308 21.2336 61.8605 21.0187 63.7199 21.0187ZM72.298 21.8742C72.8683 22.0851 73.1535 22.3 73.1535 22.5187V28.7297L72.9425 30.8742H72.298C71.8683 30.7883 71.6535 30.2179 71.6535 29.1633V26.5851C71.6535 26.3508 70.4386 26.0656 68.0089 25.7297L67.798 25.3078V24.8742L69.9425 24.6633H71.0089L71.4425 24.8742C71.7238 23.0617 72.0089 22.0617 72.298 21.8742ZM62.8644 22.7297V24.8742C62.8644 26.5929 63.1496 27.4523 63.7199 27.4523H65.0089L65.4308 27.2297C65.1496 26.6125 65.0089 25.4718 65.0089 23.8078V22.9406C65.0089 22.6593 64.8644 22.5187 64.5754 22.5187H64.3644L62.8644 22.7297ZM78.9904 21.8625C79.4591 22.0031 79.7443 22.2883 79.8458 22.7179C79.2755 23.8742 78.9904 24.8781 78.9904 25.7297C80.2091 26.7297 80.9239 27.2297 81.1349 27.2297L82.4239 23.7961C82.4708 23.507 82.6154 23.3625 82.8575 23.3625H83.5021C83.6974 23.3625 83.9122 23.7922 84.1466 24.6515C83.4279 25.9015 83.0685 26.6164 83.0685 26.7961C84.3029 27.6867 85.2325 28.5461 85.8575 29.3742V29.5851C85.8575 29.8742 85.6427 30.0187 85.213 30.0187C84.6036 29.7687 83.9591 29.339 83.2794 28.7297H82.6349C82.6271 29.714 82.4161 30.4992 82.0021 31.0851C81.3849 31.0851 81.0255 30.1554 80.9239 28.2961C80.5646 28.2961 79.7794 28.0109 78.5685 27.4406V27.6515C78.4669 29.6593 78.1779 30.6633 77.7013 30.6633H77.4904C77.1622 30.6633 76.9474 30.3039 76.8458 29.5851L77.0568 26.5851L76.8458 26.1515L78.3458 22.0734C78.6271 21.9328 78.8419 21.8625 78.9904 21.8625ZM87.3575 22.7179H88.2247L88.4357 23.7961L88.2247 26.3742C88.3654 28.507 88.4357 30.2922 88.4357 31.7297C88.2404 32.7375 87.9552 33.2414 87.5802 33.2414C87.0021 33.2414 86.713 31.6672 86.713 28.5187V24.007C86.8068 23.1476 87.0216 22.7179 87.3575 22.7179ZM100.051 22.9289C100.418 22.9289 100.918 23.1437 101.551 23.5734C101.262 24.4953 101.117 25.6398 101.117 27.007C102.75 27.4367 103.754 27.7961 104.129 28.0851C103.918 28.6554 103.703 28.9406 103.484 28.9406C102.055 28.9406 101.125 28.7258 100.695 28.2961C100.266 28.2961 99.836 29.0148 99.4063 30.4523H98.9727C98.6914 30.3039 98.4766 30.2297 98.3282 30.2297C98.3282 29.55 98.7579 27.7609 99.6172 24.8625V24.4289H99.4063C97.6329 24.5773 96.6993 24.6515 96.6055 24.6515C96.6055 24.4406 96.3907 24.2258 95.961 24.007C95.711 24.1476 95.4258 24.2179 95.1055 24.2179V23.7843C95.1055 23.2922 96.7539 23.007 100.051 22.9289ZM105.852 22.9289H106.273C106.664 22.9289 106.953 24.0031 107.141 26.1515C108.57 26.0109 109.645 25.9406 110.363 25.9406L110.574 26.3625V26.7961C110.574 27.132 109.43 27.4172 107.141 27.6515V28.0851C107.141 29.1398 107.356 30.4289 107.785 31.9523C107.785 33.9601 107.141 34.964 105.852 34.964C104.703 35.05 104.129 35.2648 104.129 35.6086V36.675C104.129 36.964 104.344 37.1086 104.773 37.1086C105.141 37.1086 106.574 36.6789 109.074 35.8195C109.277 35.8195 109.492 36.0343 109.719 36.464C107.977 37.8937 106.113 38.6086 104.129 38.6086C102.981 38.0851 102.406 37.2258 102.406 36.0304C102.406 34.6008 102.981 33.8859 104.129 33.8859C105.418 33.6828 106.063 33.3976 106.063 33.0304V31.9523C104.914 32.2414 103.695 32.3859 102.406 32.3859H102.195L101.117 32.1633V31.5187C104.102 30.9172 105.606 30.5617 105.629 30.4523C105.629 28.5226 105.488 26.6593 105.207 24.8625C105.348 24.4328 105.488 24.2179 105.629 24.2179L105.418 23.7843V23.3625C105.465 23.0734 105.609 22.9289 105.852 22.9289ZM127.311 20.5968H127.955C128.236 20.6437 128.377 20.7883 128.377 21.0304V21.4523C128.377 21.6008 128.307 21.675 128.166 21.675C128.455 22.3156 128.6 23.2414 128.6 24.4523V26.5968H132.021C132.881 26.5968 133.311 27.0265 133.311 27.8859L132.877 28.0968H128.6C128.881 30.9562 129.021 32.6711 129.021 33.2414L128.377 33.675H128.166C127.307 33.675 126.877 29.7453 126.877 21.8859C127.166 21.8859 127.311 21.4562 127.311 20.5968ZM118.299 22.7414C118.455 22.7414 118.67 22.8117 118.943 22.9523C119.928 22.8117 120.717 22.7414 121.311 22.7414H122.377C124.377 22.7414 125.377 24.8859 125.377 29.175C124.916 29.3937 123.201 29.6789 120.232 30.0304C120.232 30.2023 119.947 30.3429 119.377 30.4523C118.518 30.4523 117.803 28.3117 117.232 24.0304C117.521 23.257 117.877 22.8273 118.299 22.7414ZM118.732 24.675C119.131 27.3859 119.561 28.7414 120.021 28.7414C121.412 28.3117 122.627 28.0265 123.666 27.8859C123.518 25.3156 123.088 24.0304 122.377 24.0304C120.424 24.1711 119.209 24.3859 118.732 24.675ZM136.991 19.2961C137.272 19.4445 137.487 19.5187 137.636 19.5187V19.9406C137.636 20.2843 137.28 21.214 136.569 22.7297C137.577 22.9562 138.718 23.8156 139.991 25.3078V25.5187C139.991 25.8078 139.851 25.9523 139.569 25.9523C137.335 24.6633 136.12 24.0187 135.925 24.0187V24.2297C135.643 26.2297 135.143 27.2297 134.425 27.2297C134.136 26.8859 133.991 26.6008 133.991 26.3742C134.155 24.1242 135.015 21.7648 136.569 19.2961H136.991ZM143.003 19.5187C143.276 19.6593 143.487 19.7297 143.636 19.7297C143.636 21.0265 143.425 22.8117 143.003 25.0851C143.143 25.8351 143.214 26.2648 143.214 26.3742C143.12 27.5226 142.976 28.0968 142.78 28.0968C142.069 28.2843 141.714 29.2843 141.714 31.0968C141.386 31.425 140.386 31.7101 138.714 31.9523L138.491 32.3859V33.0187L139.569 33.2414H140.425C140.94 33.2414 141.585 33.1672 142.358 33.0187C142.632 33.1672 142.847 33.2414 143.003 33.2414V34.3078L141.491 34.5304H138.069C137.351 34.1633 136.991 33.589 136.991 32.8078V32.1633C137.085 31.0226 137.944 30.4523 139.569 30.4523C139.569 30.5929 139.64 30.6633 139.78 30.6633L140.425 29.8078V28.9523C139.995 28.9523 139.78 28.8781 139.78 28.7297L138.714 28.9523C137.44 28.8039 136.651 28.7297 136.347 28.7297V28.0968C137.448 27.6672 138.237 27.4523 138.714 27.4523H138.925L141.491 27.6633C141.491 26.9445 141.565 26.5851 141.714 26.5851L141.491 26.1633C141.491 21.7336 141.995 19.5187 143.003 19.5187ZM149.039 21.2531C150.469 21.675 151.183 22.3859 151.183 23.3859L150.961 24.675H151.183C153.183 24.675 154.183 24.175 154.183 23.175C154.183 22.0343 154.394 21.464 154.816 21.464H155.25C155.531 21.5109 155.672 21.6554 155.672 21.8976V22.7531C155.672 24.2922 155.601 25.5773 155.461 26.6086C155.601 27.5148 155.672 28.7258 155.672 30.2414L155.039 30.675C154.32 30.675 153.961 29.0304 153.961 25.7414H153.75C151.609 25.7414 150.539 26.0304 150.539 26.6086L150.105 29.175H149.039L148.828 27.8859C149.258 25.339 149.473 23.7687 149.473 23.175C149.473 22.8937 149.328 22.7531 149.039 22.7531H148.605C147.754 22.7531 146.473 23.0383 144.762 23.6086C144.473 23.6086 144.328 23.464 144.328 23.175V22.964C144.328 22.214 145.898 21.6437 149.039 21.2531ZM158.25 21.2531C158.961 21.2531 159.316 22.1086 159.316 23.8195V27.8859C159.316 30.4562 159.101 31.7414 158.672 31.7414H158.25C158 31.7414 157.785 31.3859 157.605 30.675C157.746 29.9015 157.816 29.257 157.816 28.7414H157.605L157.816 28.3195C157.816 28.0148 157.746 27.2297 157.605 25.964L157.816 24.675H157.605C157.605 24.5343 157.676 24.464 157.816 24.464L157.605 22.3195V21.8976C157.605 21.6867 157.82 21.4718 158.25 21.2531ZM166.454 20.1398C168.462 21.1945 169.466 22.6984 169.466 24.6515C169.466 25.2375 169.036 26.0968 168.177 27.2297C168.606 27.2297 168.821 27.5851 168.821 28.2961V31.3078C168.821 31.5422 170.036 31.9015 172.466 32.3859L172.688 32.8078V33.0304L172.255 33.675L168.821 33.2414L167.954 33.4523C167.868 33.4523 166.938 33.382 165.165 33.2414C162.876 33.5695 161.731 33.7843 161.731 33.8859C160.583 33.5968 160.009 33.3117 160.009 33.0304V32.8078C160.009 32.6984 160.223 32.4836 160.653 32.1633C160.934 32.3117 161.149 32.3859 161.298 32.3859C162.212 32.0968 162.786 31.9523 163.02 31.9523C163.02 31.7336 162.946 30.589 162.798 28.5187C163.087 28.1203 163.231 27.6164 163.231 27.007C162.513 27.007 162.083 25.9328 161.942 23.7843C162.552 21.3547 163.77 20.1398 165.598 20.1398H166.454ZM163.442 24.007C163.442 25.4367 164.161 26.1515 165.598 26.1515H166.243C167.384 26.1515 167.954 25.4367 167.954 24.007C167.407 22.7179 166.907 21.9992 166.454 21.8508H165.376C164.29 21.8508 163.645 22.5695 163.442 24.007ZM164.52 27.4406V30.0187C164.52 31.0734 164.735 31.6476 165.165 31.7414H167.098V28.5187L167.309 27.4406H164.52ZM182.568 25.9758L183.424 26.6203C182.221 28.7609 181.01 29.8312 179.791 29.8312C178.947 29.8312 177.947 29.1906 176.791 27.9093H176.58L174.224 30.0422H173.369V29.3976C173.603 29.3976 174.318 28.4718 175.513 26.6203L176.146 26.1984H176.369C177.111 26.1984 178.178 26.9797 179.568 28.5422H179.791C179.924 28.5422 180.849 27.6867 182.568 25.9758Z" fill="#3D3131"/>
<path d="M93.587 91.2478H93.7979C94.376 91.2478 94.6651 92.1072 94.6651 93.8259V95.7478L95.5205 95.9705C96.5205 95.9705 97.0205 95.2556 97.0205 93.8259L96.8096 93.3923C96.9893 92.6736 97.2041 92.3142 97.4541 92.3142H97.876C98.1651 92.3142 98.3096 92.5291 98.3096 92.9587C98.3096 93.9353 98.3799 94.7947 98.5205 95.5369C98.3799 96.9119 98.3096 98.2712 98.3096 99.615V100.26C98.3096 100.541 98.1651 100.681 97.876 100.681H97.6651C97.2354 100.681 96.9502 99.4666 96.8096 97.0369L95.7315 97.2478H94.876V98.115C94.876 98.4353 94.8057 98.7205 94.6651 98.9705C94.8057 99.2205 94.876 99.5056 94.876 99.8259L94.2315 100.681C93.3721 100.681 92.9424 98.4666 92.9424 94.0369V91.6814L93.587 91.2478ZM85.6534 92.1033L86.9424 92.3142H91.2315L91.876 92.7478C91.876 93.4666 90.7315 93.8259 88.4424 93.8259C88.4424 94.2478 88.3721 94.4587 88.2315 94.4587L88.876 97.0369H89.087C89.251 97.0369 90.0362 96.8923 91.4424 96.6033L91.876 97.2478V97.8923C90.0479 98.4626 88.9737 98.7478 88.6534 98.7478C88.3799 98.6072 88.1651 98.5369 88.0088 98.5369C87.2041 98.9666 86.6338 99.1814 86.2979 99.1814C83.8682 99.1814 82.6534 98.1814 82.6534 96.1814L82.8643 95.7478L82.6534 94.6814C82.794 94.4314 82.8643 94.1462 82.8643 93.8259C82.294 93.6072 82.0088 93.3923 82.0088 93.1814C82.0088 92.7126 83.2237 92.3533 85.6534 92.1033ZM84.1534 95.3259C84.1534 96.7556 84.5088 97.4705 85.2198 97.4705C85.376 97.4705 85.5909 97.5408 85.8643 97.6814C86.4502 97.3923 86.8799 97.2478 87.1534 97.2478C87.0596 94.8181 86.7745 93.6033 86.2979 93.6033H85.8643C84.7237 93.6033 84.1534 94.033 84.1534 94.8923V95.3259ZM95.3096 100.681C96.7393 101.056 97.4541 101.842 97.4541 103.037V103.904C97.2666 105.185 96.6221 105.826 95.5205 105.826H94.6651C92.9776 105.826 91.9737 105.111 91.6534 103.681C92.2393 101.822 93.169 100.892 94.4424 100.892C94.6924 100.752 94.9815 100.681 95.3096 100.681ZM93.1651 103.47V103.681C93.1651 103.908 93.4502 104.197 94.0205 104.549H94.876C95.6182 104.549 96.0479 104.334 96.1651 103.904V102.826C96.1651 102.623 95.9502 102.408 95.5205 102.181H95.087C94.3057 102.181 93.6651 102.611 93.1651 103.47ZM102.002 93.1814H103.924L105.213 94.0486H105.424C106.033 93.6189 106.607 93.4041 107.146 93.4041C108.857 93.4041 109.857 94.1189 110.146 95.5486C109.951 98.6892 109.592 100.26 109.068 100.26H108.857C108.654 100.26 108.439 100.045 108.213 99.615C108.213 99.2009 108.357 97.8455 108.646 95.5486C108.123 95.1189 107.623 94.9041 107.146 94.9041H106.713C106.197 94.9041 105.697 96.1892 105.213 98.7595L104.779 98.9705H104.357C104.068 98.9705 103.924 98.7556 103.924 98.3259L104.146 95.7595C104.146 94.9001 103.646 94.4705 102.646 94.4705H102.424C101.658 94.4705 100.803 95.0408 99.8574 96.1814C99.6543 96.1814 99.4395 95.9705 99.2129 95.5486C99.2129 94.2283 100.143 93.4392 102.002 93.1814ZM105.213 100.681C105.354 100.681 105.424 100.756 105.424 100.904L108.002 100.681H109.713C111.572 100.681 112.502 100.896 112.502 101.326V101.76L111.857 102.404L111.424 102.181H110.779L110.357 102.404L110.568 103.47V107.326C110.568 107.849 110.354 108.279 109.924 108.615C109.213 108.615 108.857 106.615 108.857 102.615C108.857 102.326 108.713 102.181 108.424 102.181H107.779C107.357 102.181 107.146 103.47 107.146 106.049V107.549C107.146 107.752 106.932 107.963 106.502 108.181C105.932 108.181 105.646 107.326 105.646 105.615V102.615L105.424 102.181L102.857 102.404H101.568C101.428 102.404 101.357 102.474 101.357 102.615C100.498 102.427 100.068 102.213 100.068 101.97V101.326C102.084 101.185 103.799 100.97 105.213 100.681ZM113.827 88.9392H114.472C114.472 89.7908 114.612 90.2166 114.894 90.2166C114.753 91.6462 114.683 92.7166 114.683 93.4275V96.4275L114.894 97.7048C114.753 98.2751 114.397 98.5603 113.827 98.5603C113.499 97.8494 113.284 97.4939 113.183 97.4939C113.323 97.2205 113.394 97.0056 113.394 96.8494C113.394 96.7244 113.323 96.1541 113.183 95.1384H113.394L113.183 94.7166V92.3611L113.394 91.9275H113.183L113.394 91.5056V89.3611C113.44 89.0798 113.585 88.9392 113.827 88.9392ZM113.616 100.916C114.39 100.916 114.96 101.275 115.327 101.994V102.416C115.327 102.619 115.112 102.834 114.683 103.06H114.249C114.038 103.06 113.683 102.631 113.183 101.771V101.349C113.229 101.06 113.374 100.916 113.616 100.916Z" fill="#3D3131"/>
</svg>
