<svg width="127" height="126" viewBox="0 0 127 126" fill="none" xmlns="http://www.w3.org/2000/svg">
<path d="M72.6528 59.3335C72.4208 58.6874 71.7613 57.6323 71.4255 57.0486C70.8006 55.9622 70.3593 55.6201 69.4329 54.8139C68.8488 54.3056 67.8674 53.7796 66.8828 53.3211C66.1375 52.974 65.1635 52.7418 64.6039 52.5514C63.6358 52.222 63.6991 52.3507 62.6293 52.3267C62.0464 52.2611 61.1557 52.1538 60.2533 52.3601C59.6466 52.4987 59.0745 52.8685 58.4374 53.1519C57.9732 53.3583 58.1016 53.2018 57.6633 53.4932C57.0768 53.8831 55.941 54.7558 55.4754 55.3118L55.1487 55.6669L54.7664 55.9497C54.4727 55.9431 54.2542 56.1345 53.8727 56.1612C53.1791 56.2098 52.9472 56.0223 52.2706 55.8936C51.594 55.765 51.0322 55.7004 50.3865 55.446C49.7364 55.1898 49.4555 55.1112 48.9277 55.0466C48.7117 55.0202 48.3451 55.2513 48.1594 55.2901L47.8513 55.9078L47.3661 59.5259L47.2261 60.5417L47.164 63.3077L47.2168 66.1718L47.1927 67.2448L47.1343 69.844L47.3752 70.4852L47.975 70.9918L49.0099 71.015L50.2402 70.9125L51.1316 70.5696L51.9438 70.4413L52.8492 70.1833L53.5573 70.1992L54.5699 70.5003C55.0277 71.0922 55.7602 72.1081 56.7737 72.941C57.5792 73.603 58.5875 74.1021 59.5947 74.5187C60.4123 74.8569 61.2327 74.9231 62.1212 74.9431C62.5226 74.9521 63.0101 75.088 63.6278 74.9769C64.3512 74.8469 65.2088 74.4598 65.6488 74.3577C66.6113 74.1346 66.5357 74.0995 67.3844 73.6228C67.9495 73.3053 68.5329 73.0285 69.033 72.6134C69.5275 72.2029 69.9395 71.6551 70.359 71.1606C70.7678 70.6788 71.0527 70.1095 71.3798 69.5586C71.6237 69.1479 71.9291 68.7698 72.1225 68.3258C72.4687 67.5312 72.8079 66.7685 72.973 65.8871C73.0907 65.2586 73.0818 64.5295 73.0967 63.8678C73.1133 63.126 73.101 62.2736 72.9988 61.5352C72.8942 60.7797 72.8928 60.0019 72.6528 59.3335Z" fill="#FFFBFA" stroke="#3D3131" stroke-width="1.89184" stroke-linejoin="round"/>
<path d="M60.9123 69.8482C60.7549 69.9086 60.4723 69.9745 60.3106 70.0083C60.1497 70.0419 60.0004 70.0958 59.8385 70.1043C59.4728 70.1493 59.4565 70.0851 59.2825 70.0669C59.1212 70.0499 58.9988 70.0537 58.8493 70.0135C58.7138 69.9771 58.5033 69.9548 58.3422 69.8694C58.1689 69.7776 58.0457 69.6209 57.9275 69.5413C57.7741 69.438 57.7378 69.3134 57.614 69.1768C57.4975 69.0484 57.368 68.9711 57.2815 68.8146C57.1946 68.6573 57.1848 68.5438 57.132 68.3594C57.0541 68.1756 57.0876 67.9989 57.069 67.8475C57.0409 67.6189 56.9735 67.4451 56.994 67.2377C57.0049 67.1278 57.0754 67.0763 57.1304 66.9234C57.1724 66.8068 57.1981 66.5842 57.2234 66.5089C57.2746 66.3562 57.3594 66.2114 57.4387 66.0745C57.5324 65.9126 57.5539 65.9732 57.6837 65.8345C57.7731 65.7389 57.8707 65.6489 57.9759 65.5648C58.0683 65.4909 58.1525 65.3867 58.2563 65.3219C58.3329 65.2741 58.4266 65.2636 58.509 65.2209C58.6226 65.162 58.8829 65.0857 59.0068 65.0367C59.1157 64.9938 59.0871 64.9771 59.2035 64.942C59.3519 64.8972 59.4532 64.8282 59.6128 64.7965C59.7436 64.7705 59.931 64.7796 60.0686 64.7627C60.3044 64.7337 60.3038 64.6718 60.5287 64.6616C60.7688 64.6507 61.2336 64.6928 61.4567 64.7068C61.6298 64.7176 61.6659 64.6887 61.8262 64.7164C62.0076 64.7478 62.1946 64.7353 62.3925 64.8038C62.5493 64.858 62.7228 64.9891 62.8368 65.0493C63.0424 65.1578 63.1886 65.2892 63.3406 65.4565C63.4736 65.6029 63.6346 65.7398 63.7066 65.9343C63.7785 66.1283 63.8387 66.3103 63.8695 66.5607C63.9226 66.9921 63.8461 67.1094 63.7187 67.4343C63.6526 67.6027 63.6941 67.6131 63.6219 67.7429C63.508 67.9475 63.2611 68.2543 63.0044 68.4629C62.7499 68.6696 62.878 68.6325 62.5127 68.862C62.4086 68.9274 62.2797 69.0628 62.0826 69.166C61.927 69.2476 61.7054 69.2917 61.5821 69.3868C61.2181 69.6677 61.1626 69.6918 60.9123 69.8482Z" fill="#3D3131"/>
<path d="M61.0821 57.1917C60.9246 57.1315 60.642 57.0658 60.4803 57.0321C60.3193 56.9987 60.17 56.9449 60.0081 56.9365C59.6424 56.8919 59.6261 56.956 59.4521 56.9745C59.2908 56.9915 59.1684 56.9879 59.0189 57.0282C58.8835 57.0647 58.673 57.0871 58.512 57.1727C58.3388 57.2647 58.2157 57.4214 58.0976 57.5011C57.9443 57.6046 57.9081 57.7292 57.7844 57.8659C57.668 57.9945 57.5385 58.0718 57.4522 58.2284C57.3654 58.3858 57.3558 58.4993 57.3031 58.6837C57.2254 58.8676 57.259 59.0443 57.2405 59.1957C57.2126 59.4243 57.1453 59.5982 57.166 59.8056C57.177 59.9154 57.2476 59.9669 57.3027 60.1198C57.3448 60.2363 57.3707 60.4589 57.3961 60.5342C57.4474 60.6868 57.5324 60.8315 57.6117 60.9684C57.7056 61.1302 57.727 61.0695 57.8569 61.2082C57.9464 61.3037 58.0441 61.3936 58.1494 61.4776C58.2419 61.5515 58.3261 61.6555 58.43 61.7203C58.5066 61.768 58.6003 61.7785 58.6828 61.8211C58.7964 61.8798 59.0567 61.956 59.1807 62.0048C59.2897 62.0477 59.2611 62.0644 59.3775 62.0994C59.526 62.1441 59.6273 62.213 59.7869 62.2446C59.9178 62.2704 60.1051 62.2611 60.2427 62.2779C60.4786 62.3067 60.478 62.3686 60.7029 62.3786C60.9431 62.3894 61.4079 62.3468 61.6309 62.3327C61.804 62.3217 61.8401 62.3506 62.0004 62.3227C62.1818 62.2912 62.3688 62.3035 62.5667 62.2349C62.7234 62.1805 62.8968 62.0493 63.0107 61.989C63.2163 61.8803 63.3623 61.7488 63.5142 61.5813C63.6471 61.4349 63.8079 61.2978 63.8798 61.1032C63.9514 60.9092 64.0116 60.7271 64.0422 60.4767C64.0949 60.0453 64.0182 59.928 63.8906 59.6033C63.8244 59.4349 63.8658 59.4244 63.7935 59.2947C63.6794 59.0902 63.4323 58.7836 63.1754 58.5753C62.9207 58.3687 63.0489 58.4057 62.6834 58.1765C62.5792 58.1112 62.4502 57.976 62.253 57.8729C62.0973 57.7914 61.8757 57.7476 61.7523 57.6525C61.3881 57.372 61.3326 57.3479 61.0821 57.1917Z" fill="#3D3131"/>
<path d="M51.2888 59.5657L51.0228 59.5111L50.555 59.5493L50.1196 59.4471L49.3977 59.4308L48.7219 59.3062L48.3719 59.2984L47.9438 59.2121" stroke="#3D3131" stroke-width="1.89184" stroke-linecap="round"/>
<path d="M51.196 63.3809L50.6405 63.2967L50.1711 63.3579L49.6233 63.2739L48.9754 63.331L48.2582 63.2432L47.7985 63.3046" stroke="#3D3131" stroke-width="1.89184" stroke-linecap="round"/>
<path d="M51.1711 66.8308L50.5241 67.0566L49.33 67.0291L48.4974 67.2749L47.6544 67.3657" stroke="#3D3131" stroke-width="1.89184" stroke-linecap="round"/>
<path d="M72.3947 77.0331L72.1418 76.5348L71.3133 75.2306L70.5945 74.3335L70.4706 73.928L70.0326 73.2396L69.8169 72.7166L69.6578 72.3891L69.7373 72.553L69.4838 72.2914L67.0923 73.8522C67.0923 73.8522 67.353 74.4319 67.5358 74.7761C67.759 75.1964 68.0258 75.544 68.1374 75.7449C68.3205 76.0748 68.573 76.3224 68.7518 76.6399C68.8542 76.9522 69.1692 77.3767 69.3681 77.7168C69.4454 78.0016 69.9293 78.7108 70.115 79.0054C70.3445 79.3694 70.3979 79.3679 70.5847 79.6091C70.0923 80.0169 70.0271 80.1972 69.7685 80.7695C69.6237 81.0901 69.6122 81.3436 69.615 81.7029C69.6168 81.9319 69.4709 82.2844 69.5967 82.5172C69.6897 82.5702 69.8074 82.9559 69.9191 83.1354C70.0771 83.3896 70.2599 83.7375 70.4906 83.7979C70.7455 83.9223 70.567 84.114 71.0193 84.2255C71.2598 84.2848 71.2906 84.4763 71.6667 84.4646C72.1181 84.6959 72.5139 84.7123 72.9225 84.5836C73.2234 84.4889 73.5897 84.3472 73.7121 84.1304C73.9879 83.9803 74.122 83.8062 74.2541 83.5754C74.3745 83.3649 74.4978 83.2485 74.5336 82.8959C74.5246 82.6058 74.6422 82.3629 74.6442 82.0888C74.6458 81.8544 74.6587 81.538 74.5697 81.3891C74.4404 81.1727 74.443 81.1049 74.3148 80.8716C74.9278 81.2211 76.0582 81.1653 76.2443 80.915C76.3173 80.8167 76.6945 80.5087 76.8492 80.4702C77.06 80.2646 77.3133 79.6586 77.3081 79.4934C77.4989 79.321 77.4167 78.7425 77.3311 78.4721C77.4537 78.1077 77.318 78.2659 77.283 78.0242C77.2522 77.8109 77.0714 77.5735 77.1034 77.3958C77.0968 77.1812 76.8943 77 76.7405 76.8194C76.569 76.6182 76.1192 76.4268 75.9264 76.1871C75.6954 76.0218 75.3951 76.2193 75.1463 76.1696C74.9387 76.1282 74.7419 76.0308 74.5075 76.1147C74.2732 76.1986 74.0335 76.1522 73.8017 76.2113C73.6441 76.2515 73.4567 76.222 73.3396 76.3687C72.9843 76.5224 72.6585 76.7446 72.3947 77.0331Z" fill="#FFFBFA"/>
<path d="M69.4796 72.287L69.7373 72.553L69.6578 72.3891L69.8169 72.7166L70.0326 73.2396L70.4706 73.928L70.5945 74.3335L71.3133 75.2306L72.1418 76.5348L72.3947 77.0331C72.6585 76.7446 72.9843 76.5224 73.3396 76.3687C73.4567 76.222 73.6441 76.2515 73.8017 76.2113C74.0335 76.1522 74.2732 76.1986 74.5075 76.1147C74.7419 76.0308 74.9387 76.1282 75.1463 76.1696C75.3951 76.2193 75.6954 76.0218 75.9264 76.1871C76.1192 76.4268 76.569 76.6182 76.7405 76.8194C76.8943 77 77.0968 77.1812 77.1034 77.3958C77.0714 77.5735 77.2522 77.8109 77.283 78.0242C77.318 78.2659 77.4537 78.1077 77.3311 78.4721C77.4167 78.7425 77.4989 79.321 77.3081 79.4934C77.3133 79.6586 77.06 80.2646 76.8492 80.4702C76.6945 80.5087 76.3173 80.8167 76.2443 80.915C76.0582 81.1653 74.9278 81.2211 74.3148 80.8716C74.443 81.1049 74.4404 81.1727 74.5697 81.3891C74.6587 81.538 74.6458 81.8544 74.6442 82.0888C74.6422 82.3629 74.5246 82.6058 74.5336 82.8959C74.4978 83.2485 74.3745 83.3649 74.2541 83.5754C74.122 83.8062 73.9879 83.9803 73.7121 84.1304C73.5897 84.3472 73.2234 84.4889 72.9225 84.5836C72.5139 84.7123 72.1181 84.6959 71.6667 84.4646C71.2906 84.4763 71.2598 84.2848 71.0193 84.2255C70.567 84.114 70.7455 83.9223 70.4906 83.7979C70.2599 83.7375 70.0771 83.3896 69.9191 83.1354C69.8074 82.9559 69.6897 82.5702 69.5967 82.5172C69.4709 82.2844 69.6168 81.9319 69.615 81.7029C69.6122 81.3436 69.6237 81.0901 69.7685 80.7695C70.0271 80.1972 70.0923 80.0169 70.5847 79.6091C70.3979 79.3679 70.3445 79.3694 70.115 79.0054C69.9293 78.7108 69.4454 78.0016 69.3681 77.7168C69.1692 77.3767 68.8542 76.9522 68.7518 76.6399C68.573 76.3224 68.3205 76.0748 68.1374 75.7449C68.0258 75.544 67.759 75.1964 67.5358 74.7761C67.353 74.4319 67.0923 73.8522 67.0923 73.8522M67.2549 74.0507L67.2992 74.2594L67.0923 73.8522M67.0923 73.8522L69.49 72.2873" stroke="#3D3131" stroke-width="1.89184" stroke-linecap="round" stroke-linejoin="round"/>
<path d="M72.9207 51.2622L72.6133 51.7289L71.6431 52.9314L70.8277 53.7418L70.6589 54.1307L70.1461 54.7653L69.9177 55.1064L67.4444 53.4185C67.6385 53.1492 67.6179 53.2786 67.8384 52.9572C68.1075 52.5647 68.4118 52.2495 68.5453 52.0624C68.7645 51.7552 69.0433 51.5377 69.2567 51.2423C69.3937 50.9436 69.7545 50.5573 69.9905 50.2418C70.0994 49.9676 70.6602 49.3173 70.8779 49.0456C71.1469 48.7098 71.1998 48.7173 71.4126 48.4987C70.8571 48.1984 70.4453 47.6763 70.2529 47.0785C70.1452 46.7437 70.0729 46.6288 70.1162 46.272C70.1438 46.0447 70.1705 45.676 70.3217 45.4589C70.42 45.4167 70.5205 45.0016 70.6517 44.8358C70.8374 44.6012 71.1376 44.2278 71.3736 44.1937C71.6409 44.0988 71.811 43.8312 72.273 43.7714C72.5186 43.7396 72.5708 43.5528 72.9432 43.6068C73.4177 43.4278 73.9626 43.5929 74.3541 43.7667C74.6424 43.8948 74.9903 44.0769 75.0875 44.3061C75.3446 44.4863 75.4005 44.727 75.5057 44.9713C75.6017 45.194 75.711 45.3235 75.7069 45.6779C75.6652 45.9652 75.7547 46.2198 75.7257 46.4924C75.701 46.7255 75.6781 47.0413 75.5729 47.1792C75.42 47.3796 75.3668 47.6658 75.2132 47.8831C75.8616 47.605 76.7292 47.8524 76.8858 48.1221C76.9473 48.228 77.0896 48.4307 77.239 48.4864C77.4252 48.7144 77.5735 48.967 77.5498 49.1305C77.7199 49.3233 77.8335 50.011 77.7179 50.27C77.7987 50.6459 77.6817 50.4734 77.6197 50.7096C77.565 50.9181 77.3586 51.1336 77.3704 51.3138C77.3396 51.5263 77.118 51.6834 76.9448 51.8455C76.7517 52.0261 76.5044 52.0448 76.2858 52.2612C76.0377 52.3995 75.8103 52.4091 75.5575 52.4304C75.3466 52.4482 75.14 52.5228 74.9166 52.413C74.6932 52.3032 74.4498 52.3223 74.2262 52.2374C74.0741 52.1797 73.8845 52.1879 73.7847 52.0289C73.4491 51.8362 73.1504 51.5787 72.9207 51.2622Z" fill="#FFFBFA" stroke="#3D3131" stroke-width="1.89184" stroke-linecap="round" stroke-linejoin="round"/>
<path d="M57.7841 73.6349L56.7931 75.1051L56.6762 75.3955L56.0475 76.4607L55.4531 77.2382L54.8647 78.1648L54.6702 78.5419L54.5416 78.7695C54.7798 78.8671 55.0571 79.0615 55.3223 79.3222C55.6941 79.4624 56.1853 80.1118 56.1747 80.582C56.2612 80.7986 56.4311 80.8944 56.458 81.1228C56.4834 81.3379 56.3761 81.6834 56.3543 81.8964C56.3155 82.2761 56.204 82.646 56.0284 82.9834C56.0186 83.4216 55.3705 84.1948 54.9633 84.1856C54.7213 84.3316 54.4498 84.5175 54.1532 84.5771C53.8923 84.6296 53.6114 84.5649 53.319 84.5583C52.4837 84.5396 52.3209 84.1262 51.88 84.0545C51.5904 84.0073 50.9282 83.2967 50.5969 82.8586C50.5941 82.8594 50.5913 82.8603 50.5885 82.8612C50.1516 82.9992 49.3504 83.0686 49.049 82.9521C48.6894 82.8131 48.4029 82.8405 48.1288 82.6645C47.8263 82.4703 47.5104 82.1808 47.3022 81.9522C46.9675 81.5848 46.6478 80.9917 46.5238 80.5671C46.3711 80.0442 46.3626 79.3253 46.5555 79.1559C46.5699 78.5186 46.8177 78.1938 47.049 77.7794C47.156 77.3459 47.4928 76.9192 47.7956 76.6581C48.0197 76.465 48.3298 76.3659 48.6175 76.2221C49.2671 75.8972 49.6823 75.9614 50.246 75.9798C51.0519 76.181 51.5098 76.2353 51.9876 76.5913L52.1638 76.206L52.5062 75.8787L52.9452 75.3861L53.5032 74.5705L53.9556 73.9014L54.2706 73.5456L54.6717 72.9777L54.9888 72.6406L55.5556 71.9992L57.7841 73.6349Z" fill="#FFFBFA" stroke="#3D3131" stroke-width="1.89184" stroke-linecap="round" stroke-linejoin="round"/>
<path d="M57.7834 52.3169L58.2464 53.0558L55.7208 54.5608L55.1144 53.5875L54.7232 52.9767L53.9727 51.9347L53.6787 51.4111L53.1988 50.496L52.5512 49.6249L52.1112 48.9317L51.9315 48.7213C51.6578 48.7818 51.257 48.9125 51.0238 48.773C50.7055 48.742 50.085 48.7519 49.9962 48.5088C49.4343 48.4962 49.2997 48.1718 48.9241 47.9027C48.5585 47.6407 48.098 47.1539 48.1446 46.9396C47.9482 46.6849 47.8348 45.9572 47.9263 45.8524C47.8329 45.3617 47.9513 44.7384 48.3202 44.3875C48.5042 44.0867 48.7398 43.7312 49.0177 43.7375C49.2876 43.4707 49.4567 43.5787 49.6654 43.5463C49.9028 43.5094 50.1511 43.4291 50.3625 43.5484C50.4969 43.6685 50.6866 43.6176 50.8506 43.6764C51.2999 43.8375 51.7647 44.1155 52.2941 44.4768C52.2564 44.245 52.3979 43.8134 52.2746 43.6529C52.1814 43.3221 52.3304 42.8588 52.4193 42.8608C52.5183 42.2453 52.9159 41.7949 53.1504 41.7549C53.4611 41.5201 53.7988 41.3117 54.2093 41.4007C54.5059 41.309 55.2833 41.4939 55.399 41.589C55.6717 41.5952 56.0488 41.9223 56.3038 42.2571C56.5671 42.6029 56.7734 43.0853 56.9005 43.7568C56.9385 43.9578 56.9512 44.1653 56.9424 44.3752C56.9293 44.6867 56.9666 44.7457 56.8713 45.0555C56.7809 45.3491 56.6543 45.8973 56.419 46.1642C56.4139 46.3942 55.966 46.9053 55.7065 47.19C55.4168 47.5081 55.1128 47.7414 54.8385 47.8451L55.009 48.1515L55.7401 49.105L55.9995 49.5651L56.7473 50.5757L57.332 51.5543L57.7834 52.3169Z" fill="#FFFBFA" stroke="#3D3131" stroke-width="1.89184" stroke-linecap="round" stroke-linejoin="round"/>
</svg>
