<svg width="97" height="136" viewBox="0 0 97 136" fill="none" xmlns="http://www.w3.org/2000/svg">
<path d="M50.5917 95.8458C50.3832 93.0086 51.8608 93.4467 52.6257 94.0204C61.8917 92.9077 81.1748 90.8285 84.1788 91.4127C87.1829 91.9968 87.2385 95.5154 86.8908 97.2017L52.1042 104.086C51.6869 102.521 50.8003 98.6829 50.5917 95.8458Z" fill="#726044"/>
<path d="M83.1857 97.5502C84.9126 97.4174 85.909 97.683 86.8388 98.148L88.4329 102.598L90.4919 121.328L70.367 126.442L55.4891 132.752H52.1681C49.3563 126.575 43.6132 113.942 43.1351 112.827C42.5374 111.432 42.4045 109.705 43.1351 108.177C43.8657 106.65 81.4589 97.683 83.1857 97.5502Z" fill="#514127"/>
<path d="M82.6717 97.9155C75.0423 98.3358 52.6575 104.658 42.4189 107.767C42.0886 108.467 41.6262 110.262 42.4189 111.838C43.4097 113.809 50.2216 129.702 51.2124 131.409C52.2032 133.117 54.5565 134.693 56.9097 132.592C59.263 130.49 70.7814 126.024 74.6209 125.236C78.4604 124.448 89.3597 121.952 90.5982 121.558C91.8367 121.164 90.5982 119.457 90.5982 117.355C90.5982 115.254 89.2358 107.373 88.4927 104.089C87.7495 100.805 87.4013 94.7303 86.782 93.0227" stroke="#3D3131" stroke-width="3" stroke-linecap="round" stroke-linejoin="round"/>
<path d="M26.5583 34.6486C24.5595 33.4493 21.1948 29.9181 20.1621 29.3518L19.7676 30.8732C21.5879 37.4297 25.6735 51.2709 27.4534 54.1834C28.5665 56.0049 31.7591 58.4579 35.8134 59.1277C39.8626 59.7967 44.773 58.6837 46.8195 58.6837C50.9153 58.6837 55.1515 48.5227 56.7696 46.6012C57.1764 46.1181 57.7011 45.5723 58.2984 45.0287C58.8195 44.5545 59.3958 44.082 59.9975 43.6542C60.7838 43.0952 61.6134 42.6126 62.4193 42.3026C63.1012 42.0402 63.9431 41.94 64.5508 41.9829C64.9837 42.0135 65.5486 42.1264 66.4815 42.3426C67.1342 42.4939 67.9739 42.4035 68.7735 42.5987C69.4994 42.776 70.2397 42.8555 71.0231 43.0386C72.1273 43.2967 73.1947 43.9276 74.2686 44.1281C76.9034 44.6201 79.1928 44.817 79.8887 44.1211C81.264 42.7458 80.1921 41.4243 79.4842 40.9356L70.7871 17.777C68.3094 17.9119 62.8653 17.5246 58.82 18.3992C55.0513 19.2139 52.1932 21.2118 50.2282 24.1014C48.7256 25.2187 48.5336 26.7912 47.841 27.4109C47.3943 27.8107 46.9684 28.8813 46.1225 29.5991C45.3601 30.246 45.0536 30.6128 44.0318 31.3296C43.5475 31.6692 42.8172 32.4533 42.2997 32.7919C40.9934 33.6465 39.5371 34.139 38.1994 34.8655C36.5658 35.7525 35.3795 35.8964 34.1273 36.3049C33.5245 36.5016 32.2812 36.2734 31.8477 36.3049C31.1258 36.3574 30.4202 36.8355 29.9373 36.7356C27.9692 36.3284 28.1634 35.6117 26.5583 34.6486Z" fill="#219653"/>
<path d="M83.4012 93.2562C84.2251 93.3431 84.9634 92.7457 85.0503 91.9219C85.1372 91.098 84.5398 90.3597 83.716 90.2728L83.4012 93.2562ZM50.2218 96.0768L51.7184 95.976L50.2218 96.0768ZM83.716 90.2728C81.1803 90.0053 77.8292 90.3379 74.7034 90.6535C71.4644 90.9804 68.4489 91.2912 66.267 91.1085L66.0167 94.0981C68.5412 94.3094 71.886 93.9531 75.0047 93.6383C78.2367 93.312 81.2408 93.0283 83.4012 93.2562L83.716 90.2728ZM66.267 91.1085C63.7588 90.8985 60.2709 91.1589 57.3802 91.4521C55.9173 91.6004 54.5728 91.7611 53.5427 91.8834C53.0244 91.9449 52.5925 91.9958 52.2598 92.0315C52.0935 92.0493 51.9598 92.0625 51.8572 92.071C51.744 92.0804 51.7039 92.0811 51.708 92.0811V95.0811C52.0717 95.0811 52.9387 94.9761 53.8962 94.8625C54.9299 94.7398 56.2495 94.5822 57.6829 94.4368C60.5848 94.1425 63.8183 93.914 66.0167 94.0981L66.267 91.1085ZM51.708 92.0811C50.8505 92.0811 49.9102 92.3918 49.2995 93.3063C48.7633 94.1091 48.6549 95.1352 48.7252 96.1776L51.7184 95.976C51.693 95.6 51.7101 95.3401 51.7399 95.17C51.7695 95.0007 51.8056 94.9555 51.7942 94.9725C51.7746 95.0018 51.7285 95.0469 51.6694 95.0742C51.623 95.0956 51.6222 95.0811 51.708 95.0811V92.0811ZM48.7252 96.1776C48.833 97.7784 49.7962 102.652 50.2392 104.788L53.1767 104.178C52.7115 101.936 51.8087 97.3173 51.7184 95.976L48.7252 96.1776Z" fill="#3D3131"/>
<path d="M77.8761 43.4395C80.1794 43.693 80.6193 42.0151 80.1861 40.6151C80.0326 40.1187 79.6855 38.9522 78.9557 37.1788C78.3291 35.6559 77.6539 34.3054 77.007 32.6056C76.2476 30.6102 76.4665 30.8779 76.0646 29.7903C75.8414 29.1864 74.6775 26.2866 74.4021 25.418C74.0268 24.2348 74.1674 24.2638 73.7912 22.97C73.4848 21.9167 72.9741 20.3367 72.5732 19.0679C72.3469 18.352 71.7658 17.8266 71.6659 17.4595C70.7866 17.1646 70.0637 16.8452 68.8001 16.7016C67.3247 16.534 65.6195 16.384 63.8645 16.4743C62.8486 16.5265 61.832 16.724 60.792 16.8773C58.9872 17.1434 57.1846 17.4139 55.5175 18.0286C54.5085 18.4007 53.6823 18.9595 52.7136 19.5355C51.8678 20.0384 50.8593 20.5417 50.2314 21.1115C48.666 22.5322 47.5236 24.1906 46.2706 25.6681C45.474 26.6073 44.8901 27.6113 44.0674 28.4583C42.9382 29.6208 41.7329 30.737 40.3101 31.918C39.4711 32.6145 38.2934 33.273 37.2679 33.918C36.3986 34.4648 35.5665 35.0138 34.4291 35.2271C30.648 35.936 28.1221 35.5553 25.8231 33.2566C25.3317 32.7653 24.0607 31.707 23.6556 31.2097C22.3278 29.5796 21.2653 28.6818 20.7964 28.6818C19.6526 28.6818 18.7045 28.6818 18.7045 30.3589C18.7045 31.1308 19.1747 32.6809 19.5286 33.918C19.9742 35.4756 20.5759 36.7648 21.1091 38.3588C21.3126 38.9671 21.6157 39.1924 22.0286 40.418C22.4958 41.8047 23.0932 44.252 23.6556 45.918C23.9702 46.85 23.9352 47.7684 24.2348 48.6555C24.7071 50.0538 25.4909 51.3522 25.8231 52.3348C26.5173 54.3887 26.3311 55.012 30.1092 57.6808C30.8353 58.1937 30.6198 58.0846 31.9315 58.5521C32.7897 58.858 33.926 59.5177 35.2773 59.8674C36.614 60.2133 38.1644 60.2511 39.2808 60.2249C40.9391 60.1858 42.3837 60.1422 44.0919 59.429C45.3088 58.9209 46.8024 57.9422 47.9547 56.9764C48.8763 56.2039 49.6002 55.1271 50.4376 54.0063C50.9549 53.3138 51.6177 52.6927 52.0911 51.852C52.6079 50.9342 53.0957 49.9247 53.5488 48.8159C54.1331 47.3857 54.7952 46.1703 55.5175 45.1425C56.4104 43.8721 57.4459 43.014 58.4902 42.2655C60.1161 41.1003 61.0846 40.1383 62.8745 39.9204C63.8311 39.804 65.544 40.0366 66.4932 40.1059C68.0747 40.2215 69.7823 40.3191 71.2038 40.732C72.7646 41.1854 74.0139 41.9707 75.1609 42.4375C76.4639 42.9677 77.4254 43.3899 77.8761 43.4395Z" stroke="#3D3131" stroke-width="3" stroke-linejoin="round"/>
<path d="M25.4693 18.7609C27.3716 21.93 37.5229 18.9796 42.9635 15.7294C44.3658 14.8917 46.0107 13.664 47.8242 12.5212C48.9744 11.7963 50.2657 11.2126 51.3711 10.4418C55.2846 7.71269 58.4061 4.882 57.1151 3.27159C55.5848 1.36261 49.098 3.0204 44.3815 4.64711C42.2236 5.39139 40.4362 6.12916 39.6637 6.51582C38.4255 7.0127 36.5312 7.97867 34.5231 9.1843C33.3243 9.90397 32.0042 10.426 30.8395 11.2676C30.0439 11.8426 29.3634 12.7173 28.6717 13.3083C26.2484 15.3787 24.6779 17.4423 25.4693 18.7609Z" stroke="#3D3131" stroke-width="3" stroke-linejoin="round"/>
<path d="M74.5149 24.2875C76.2971 21.721 81.1121 16.2677 86.1151 14.9871C92.3687 13.3863 95.8203 16.4497 94.3517 20.4714C92.8831 24.4931 84.8629 27.0836 83.6502 27.3448C85.5165 26.9428 91.5212 26.0668 91.1086 29.0997C90.6959 32.1325 83.9197 36.3724 77.9039 33.6583" stroke="#3D3131" stroke-width="3" stroke-linecap="round" stroke-linejoin="round"/>
<path d="M21.291 40.9102C18.4514 39.2546 5.16434 38.716 2.4439 45.1318C-0.27654 51.5475 11.6401 50.9903 15.477 49.5037C12.5491 51.2238 9.82789 54.3416 12.0422 57.1034C14.2564 59.8652 20.9937 55.8185 24.5078 50.5813" stroke="#3D3131" stroke-width="3" stroke-linecap="round" stroke-linejoin="round"/>
<path d="M58.1592 59.1829C58.5223 59.546 58.5106 59.2366 59.2982 60.1144C59.546 60.3906 59.632 60.6512 59.9201 61.0052C60.29 61.4598 60.939 61.9741 61.3318 62.5009C62.3892 63.9194 63.1255 65.4581 63.1819 66.3892C63.246 67.4477 63.0645 68.253 63.1344 68.9714C63.2231 69.8831 63.4339 70.1894 63.7596 70.963C64.342 72.346 67.3309 71.7029 67.2581 74.2506C67.2441 74.7404 67.2296 75.0702 67.3581 75.5583C67.4111 75.7596 67.6037 76.1948 67.6746 76.3964C67.9844 77.2764 68.4865 77.7047 68.8531 78.4787C69.2576 79.3327 69.5263 80.3104 69.5541 80.8389C69.6065 81.8332 69.831 83.408 69.8778 83.9542C69.9246 84.5005 70.4064 85.7793 71.2795 86.572" stroke="#3D3131" stroke-width="3" stroke-linecap="round"/>
</svg>
