<svg width="318" height="318" viewBox="0 0 318 318" fill="none" xmlns="http://www.w3.org/2000/svg">
<mask id="path-1-inside-1_332_487" fill="white">
<path d="M313.657 159.105C313.657 161.41 313.795 163.971 313.657 166.206C313.484 169.014 313.005 171.486 312.725 174.308C312.467 176.902 312.319 179.685 311.935 182.239C311.453 185.444 310.728 188.694 310.202 191.735C309.632 195.037 309.246 198.124 308.291 201.442C307.904 202.791 306.886 204.632 306.483 206.091C305.794 208.586 305.066 211.134 304.24 213.366C303.475 215.437 302.546 216.755 301.695 218.783C301.143 220.099 300.93 222.082 300.342 223.379C299.406 225.447 298.068 226.815 297.044 228.834C295.851 231.185 294.313 233.328 293.005 235.608C291.729 237.831 290.687 240.194 289.306 242.346C288.225 244.03 287.346 246.276 286.202 247.914C284.583 250.234 282.669 251.923 280.928 254.147C280.005 255.326 278.292 256.929 277.336 258.08C274.784 261.153 272.888 263.688 270.109 266.553C268.798 267.904 267.689 269.924 266.329 271.226C264.342 273.131 262.078 274.291 259.991 276.088C258.851 277.07 257.867 278.303 256.699 279.252C255.066 280.577 253.236 281.602 251.549 282.861C250.393 283.724 249.472 284.688 248.291 285.519C246.787 286.578 245.013 287.494 243.47 288.5C241.048 290.078 239.034 291.719 236.52 293.163C234.537 294.302 232.069 295.269 230.032 296.321C228.052 297.343 225.631 298.034 223.603 298.972C220.896 300.223 218.562 301.689 215.773 302.785C214.689 303.211 212.699 303.614 211.603 304.016C208.841 305.03 206.943 305.978 204.11 306.836C201.257 307.7 198.37 308.483 195.45 309.183C193.429 309.668 191.565 310.672 189.514 311.076C187.545 311.464 185.391 311.255 183.396 311.568C181.97 311.791 177.424 312.188 175.985 312.372C171.763 312.912 170.6 313.088 166.278 313.28C163.975 313.382 160.199 313.128 157.87 313.128C154.583 313.128 152.779 313.331 149.543 313.128C146.719 312.951 143.915 312.699 141.135 312.372C138.491 312.062 136.232 311.519 133.631 311.076C130.861 310.605 127.368 310.548 124.651 309.932C121.512 309.22 118.297 308.127 115.143 307.027C112.946 306.26 111.162 305.189 109.068 304.473C106.881 303.726 105.036 303.631 102.894 302.789C100.908 302.008 98.9413 301.187 96.996 300.328C95.1345 299.505 92.576 298.439 90.8442 297.43C88.8805 296.286 87.7508 295.186 85.738 294.085C82.2668 292.185 78.49 290.652 75.1873 288.5C73.9266 287.678 72.7986 286.314 71.5638 285.457C69.1949 283.813 66.4667 282.614 64.1686 280.967C62.6373 279.87 61.264 278.607 59.8943 277.316C58.9734 276.447 58.0022 275.218 57.0375 274.364C56.2996 273.711 55.6199 273.399 54.8947 272.732C52.7687 270.777 50.1591 268.775 48.1457 266.705C46.829 265.351 46.0755 263.961 44.8088 262.559C43.6221 261.247 42.8605 259.783 41.7189 258.429C40.4969 256.981 38.8983 255.64 37.7294 254.147C36.6134 252.721 34.7737 249.682 33.7074 248.217C32.4567 246.498 31.9889 246.345 30.8085 244.574C29.686 242.889 28.6899 240.527 27.6328 238.797C26.1589 236.384 24.6552 234.583 23.3124 232.085C22.4216 230.429 21.8613 228.428 21.0299 226.736C20.0884 224.819 18.8843 223.206 18.021 221.245C16.788 218.446 15.6716 215.357 14.6031 212.473C13.9731 210.773 13.3364 209.303 12.7652 207.575C12.114 205.605 11.7427 203.473 11.1696 201.469C10.7013 199.831 10.0181 198.326 9.60306 196.666C9.11355 194.709 9.03044 192.626 8.6165 190.64C8.22305 188.752 7.49507 186.961 7.1713 185.049C6.80767 182.9 6.48842 180.737 6.21454 178.56C5.80523 175.306 5.82662 171.856 5.6232 168.542C5.42828 165.367 5 162.329 5 159.105C5 156.332 5.47877 151.911 5.6232 149.174C5.79339 145.949 5.65695 144.415 6.02218 141.246C6.47253 137.338 6.6472 133.531 7.38397 129.718C7.89923 127.05 8.90486 124.35 9.55556 121.734C10.2449 118.962 10.5088 116.053 11.3457 113.342C12.0715 110.992 13.3522 108.833 14.1858 106.532C15.3239 103.391 16.561 100.297 17.8935 97.2542C18.3899 96.1207 18.2182 95.0051 18.7409 93.886C20.3655 90.4075 21.1131 90.0888 23.1428 86.7549C24.4738 84.5686 25.378 81.2067 27.1045 78.2152C28.3569 76.0451 30.4541 74.1503 31.4696 72.6514C33.5563 69.5714 36.4276 66.6046 38.7256 63.6889C40.3157 61.6713 41.2787 59.6604 42.9655 57.7259C45.2953 55.054 47.0483 52.46 49.5543 49.9549C51.603 47.9069 54.3762 45.9194 56.5369 43.9887C58.8619 41.9112 60.8398 40.8856 63.2882 38.9501C65.2606 37.391 67.6824 34.8963 69.731 33.4331C71.665 32.0518 73.6322 30.714 75.6312 29.4212C78.2959 27.6979 79.4422 27.3045 82.2164 25.7444C84.4492 24.4888 86.8466 22.5936 89.6116 21.0784C91.1294 20.2466 93.1256 19.6498 94.4073 19.0547C96.2627 18.1931 98.1381 17.3674 100.033 16.5783C102.913 15.3787 105.046 15.2383 108.012 14.2114C110.494 13.3516 112.576 11.9406 115.319 10.954C117.876 10.0342 121.09 9.52928 123.502 8.95598C126.144 8.32784 129.529 7.13041 132.222 6.6401C135.547 6.0348 138.192 6.17323 141.587 5.78462C144.405 5.46206 147.144 4.94456 150.006 4.77592C153.056 4.5962 156.233 4.77593 159.329 4.77593C163.505 4.77593 166.514 4.90596 170.607 5.23147C173.09 5.42901 176.685 5.72118 179.134 6.03491C181.206 6.30031 182.648 6.99767 184.693 7.34439C186.756 7.69411 189.422 7.6939 191.456 8.12463C194.9 8.85391 197.185 9.64697 200.54 10.6018C203.531 11.453 207.602 12.4433 210.516 13.4674C212.403 14.1307 214.622 14.358 216.475 15.0918C219.312 16.2153 221.759 17.8922 224.511 19.1762C227.818 20.7191 229.94 21.5139 233.114 23.2793C235.167 24.4214 238.312 26.4708 240.307 27.7026C242.768 29.2226 243.777 29.991 246.144 31.6429C248.341 33.1769 251.905 35.5855 254.017 37.2289C256.704 39.3196 259.097 40.4754 261.638 42.7358C263.467 44.3622 265.479 47.0534 267.228 48.764C269.142 50.6354 271.007 52.5562 272.821 54.5242C274.557 56.4071 275.403 58.1116 277.045 60.0793C278.333 61.6231 280.435 63.4141 281.662 65.0081C282.946 66.6745 284.193 67.3399 285.409 69.0592C286.468 70.5574 287.172 71.8579 287.884 73.2433C288.457 74.3567 289.598 76.3424 290.372 77.7121C291.253 79.2693 292.158 80.2032 293.245 81.9873C294.467 83.9925 295.308 86.0301 296.186 87.7107C297.553 90.3262 298.436 93.1102 299.654 95.8111C300.213 97.049 301.168 98.171 301.695 99.426C302.736 101.906 303.714 104.419 304.627 106.963C305.472 109.317 305.725 110.604 306.457 113.009C307.223 115.526 308.463 119.164 309.102 121.734C309.585 123.677 310.252 125.254 310.661 127.225C311.027 128.993 311.143 131.152 311.449 132.941C311.773 134.838 312.062 136.746 312.316 138.666C312.601 140.819 312.529 142.778 312.725 144.958C312.945 147.422 313.42 150.11 313.523 152.606C313.612 154.761 313.657 156.928 313.657 159.105Z"/>
</mask>
<path d="M313.657 159.105C313.657 161.41 313.795 163.971 313.657 166.206C313.484 169.014 313.005 171.486 312.725 174.308C312.467 176.902 312.319 179.685 311.935 182.239C311.453 185.444 310.728 188.694 310.202 191.735C309.632 195.037 309.246 198.124 308.291 201.442C307.904 202.791 306.886 204.632 306.483 206.091C305.794 208.586 305.066 211.134 304.24 213.366C303.475 215.437 302.546 216.755 301.695 218.783C301.143 220.099 300.93 222.082 300.342 223.379C299.406 225.447 298.068 226.815 297.044 228.834C295.851 231.185 294.313 233.328 293.005 235.608C291.729 237.831 290.687 240.194 289.306 242.346C288.225 244.03 287.346 246.276 286.202 247.914C284.583 250.234 282.669 251.923 280.928 254.147C280.005 255.326 278.292 256.929 277.336 258.08C274.784 261.153 272.888 263.688 270.109 266.553C268.798 267.904 267.689 269.924 266.329 271.226C264.342 273.131 262.078 274.291 259.991 276.088C258.851 277.07 257.867 278.303 256.699 279.252C255.066 280.577 253.236 281.602 251.549 282.861C250.393 283.724 249.472 284.688 248.291 285.519C246.787 286.578 245.013 287.494 243.47 288.5C241.048 290.078 239.034 291.719 236.52 293.163C234.537 294.302 232.069 295.269 230.032 296.321C228.052 297.343 225.631 298.034 223.603 298.972C220.896 300.223 218.562 301.689 215.773 302.785C214.689 303.211 212.699 303.614 211.603 304.016C208.841 305.03 206.943 305.978 204.11 306.836C201.257 307.7 198.37 308.483 195.45 309.183C193.429 309.668 191.565 310.672 189.514 311.076C187.545 311.464 185.391 311.255 183.396 311.568C181.97 311.791 177.424 312.188 175.985 312.372C171.763 312.912 170.6 313.088 166.278 313.28C163.975 313.382 160.199 313.128 157.87 313.128C154.583 313.128 152.779 313.331 149.543 313.128C146.719 312.951 143.915 312.699 141.135 312.372C138.491 312.062 136.232 311.519 133.631 311.076C130.861 310.605 127.368 310.548 124.651 309.932C121.512 309.22 118.297 308.127 115.143 307.027C112.946 306.26 111.162 305.189 109.068 304.473C106.881 303.726 105.036 303.631 102.894 302.789C100.908 302.008 98.9413 301.187 96.996 300.328C95.1345 299.505 92.576 298.439 90.8442 297.43C88.8805 296.286 87.7508 295.186 85.738 294.085C82.2668 292.185 78.49 290.652 75.1873 288.5C73.9266 287.678 72.7986 286.314 71.5638 285.457C69.1949 283.813 66.4667 282.614 64.1686 280.967C62.6373 279.87 61.264 278.607 59.8943 277.316C58.9734 276.447 58.0022 275.218 57.0375 274.364C56.2996 273.711 55.6199 273.399 54.8947 272.732C52.7687 270.777 50.1591 268.775 48.1457 266.705C46.829 265.351 46.0755 263.961 44.8088 262.559C43.6221 261.247 42.8605 259.783 41.7189 258.429C40.4969 256.981 38.8983 255.64 37.7294 254.147C36.6134 252.721 34.7737 249.682 33.7074 248.217C32.4567 246.498 31.9889 246.345 30.8085 244.574C29.686 242.889 28.6899 240.527 27.6328 238.797C26.1589 236.384 24.6552 234.583 23.3124 232.085C22.4216 230.429 21.8613 228.428 21.0299 226.736C20.0884 224.819 18.8843 223.206 18.021 221.245C16.788 218.446 15.6716 215.357 14.6031 212.473C13.9731 210.773 13.3364 209.303 12.7652 207.575C12.114 205.605 11.7427 203.473 11.1696 201.469C10.7013 199.831 10.0181 198.326 9.60306 196.666C9.11355 194.709 9.03044 192.626 8.6165 190.64C8.22305 188.752 7.49507 186.961 7.1713 185.049C6.80767 182.9 6.48842 180.737 6.21454 178.56C5.80523 175.306 5.82662 171.856 5.6232 168.542C5.42828 165.367 5 162.329 5 159.105C5 156.332 5.47877 151.911 5.6232 149.174C5.79339 145.949 5.65695 144.415 6.02218 141.246C6.47253 137.338 6.6472 133.531 7.38397 129.718C7.89923 127.05 8.90486 124.35 9.55556 121.734C10.2449 118.962 10.5088 116.053 11.3457 113.342C12.0715 110.992 13.3522 108.833 14.1858 106.532C15.3239 103.391 16.561 100.297 17.8935 97.2542C18.3899 96.1207 18.2182 95.0051 18.7409 93.886C20.3655 90.4075 21.1131 90.0888 23.1428 86.7549C24.4738 84.5686 25.378 81.2067 27.1045 78.2152C28.3569 76.0451 30.4541 74.1503 31.4696 72.6514C33.5563 69.5714 36.4276 66.6046 38.7256 63.6889C40.3157 61.6713 41.2787 59.6604 42.9655 57.7259C45.2953 55.054 47.0483 52.46 49.5543 49.9549C51.603 47.9069 54.3762 45.9194 56.5369 43.9887C58.8619 41.9112 60.8398 40.8856 63.2882 38.9501C65.2606 37.391 67.6824 34.8963 69.731 33.4331C71.665 32.0518 73.6322 30.714 75.6312 29.4212C78.2959 27.6979 79.4422 27.3045 82.2164 25.7444C84.4492 24.4888 86.8466 22.5936 89.6116 21.0784C91.1294 20.2466 93.1256 19.6498 94.4073 19.0547C96.2627 18.1931 98.1381 17.3674 100.033 16.5783C102.913 15.3787 105.046 15.2383 108.012 14.2114C110.494 13.3516 112.576 11.9406 115.319 10.954C117.876 10.0342 121.09 9.52928 123.502 8.95598C126.144 8.32784 129.529 7.13041 132.222 6.6401C135.547 6.0348 138.192 6.17323 141.587 5.78462C144.405 5.46206 147.144 4.94456 150.006 4.77592C153.056 4.5962 156.233 4.77593 159.329 4.77593C163.505 4.77593 166.514 4.90596 170.607 5.23147C173.09 5.42901 176.685 5.72118 179.134 6.03491C181.206 6.30031 182.648 6.99767 184.693 7.34439C186.756 7.69411 189.422 7.6939 191.456 8.12463C194.9 8.85391 197.185 9.64697 200.54 10.6018C203.531 11.453 207.602 12.4433 210.516 13.4674C212.403 14.1307 214.622 14.358 216.475 15.0918C219.312 16.2153 221.759 17.8922 224.511 19.1762C227.818 20.7191 229.94 21.5139 233.114 23.2793C235.167 24.4214 238.312 26.4708 240.307 27.7026C242.768 29.2226 243.777 29.991 246.144 31.6429C248.341 33.1769 251.905 35.5855 254.017 37.2289C256.704 39.3196 259.097 40.4754 261.638 42.7358C263.467 44.3622 265.479 47.0534 267.228 48.764C269.142 50.6354 271.007 52.5562 272.821 54.5242C274.557 56.4071 275.403 58.1116 277.045 60.0793C278.333 61.6231 280.435 63.4141 281.662 65.0081C282.946 66.6745 284.193 67.3399 285.409 69.0592C286.468 70.5574 287.172 71.8579 287.884 73.2433C288.457 74.3567 289.598 76.3424 290.372 77.7121C291.253 79.2693 292.158 80.2032 293.245 81.9873C294.467 83.9925 295.308 86.0301 296.186 87.7107C297.553 90.3262 298.436 93.1102 299.654 95.8111C300.213 97.049 301.168 98.171 301.695 99.426C302.736 101.906 303.714 104.419 304.627 106.963C305.472 109.317 305.725 110.604 306.457 113.009C307.223 115.526 308.463 119.164 309.102 121.734C309.585 123.677 310.252 125.254 310.661 127.225C311.027 128.993 311.143 131.152 311.449 132.941C311.773 134.838 312.062 136.746 312.316 138.666C312.601 140.819 312.529 142.778 312.725 144.958C312.945 147.422 313.42 150.11 313.523 152.606C313.612 154.761 313.657 156.928 313.657 159.105Z" fill="#5E4942" stroke="#3D3131" stroke-width="4" mask="url(#path-1-inside-1_332_487)"/>
<mask id="path-2-inside-2_332_487" fill="white">
<path d="M304.345 159.098C304.345 161.264 304.475 163.671 304.345 165.772C304.182 168.41 303.732 170.732 303.469 173.385C303.227 175.821 303.087 178.436 302.727 180.836C302.274 183.848 301.592 186.902 301.099 189.76C300.563 192.862 300.2 195.763 299.303 198.881C298.939 200.148 297.982 201.878 297.604 203.249C296.956 205.593 296.272 207.987 295.497 210.085C294.777 212.031 293.905 213.269 293.105 215.175C292.586 216.411 292.386 218.275 291.834 219.493C290.954 221.437 289.696 222.722 288.734 224.619C287.613 226.829 286.168 228.842 284.939 230.985C283.741 233.074 282.761 235.294 281.463 237.316C280.448 238.898 279.621 241.008 278.547 242.548C277.026 244.728 275.227 246.315 273.591 248.405C272.724 249.512 271.114 251.018 270.216 252.1C267.817 254.988 266.036 257.37 263.425 260.062C262.193 261.332 261.151 263.229 259.874 264.453C258.006 266.243 255.878 267.333 253.918 269.022C252.847 269.944 251.922 271.103 250.824 271.994C249.29 273.24 247.571 274.202 245.986 275.385C244.899 276.197 244.034 277.102 242.924 277.884C241.51 278.878 239.844 279.739 238.394 280.684C236.118 282.167 234.226 283.709 231.863 285.066C230 286.136 227.681 287.045 225.766 288.034C223.906 288.994 221.632 289.643 219.726 290.524C217.182 291.7 214.99 293.077 212.369 294.107C211.35 294.508 209.48 294.886 208.45 295.264C205.855 296.217 204.071 297.108 201.409 297.914C198.729 298.725 196.015 299.461 193.272 300.119C191.373 300.574 189.621 301.518 187.694 301.898C185.844 302.263 183.82 302.066 181.946 302.36C180.605 302.57 176.334 302.943 174.982 303.116C171.014 303.623 169.922 303.788 165.861 303.968C163.696 304.064 160.148 303.826 157.96 303.826C154.871 303.826 153.176 304.016 150.135 303.826C147.482 303.66 144.848 303.423 142.235 303.116C139.75 302.824 137.628 302.314 135.184 301.898C132.581 301.455 129.299 301.402 126.746 300.823C123.796 300.153 120.775 299.126 117.811 298.093C115.747 297.373 114.071 296.366 112.103 295.694C110.048 294.991 108.314 294.902 106.302 294.111C104.436 293.377 102.588 292.606 100.76 291.798C99.0107 291.025 96.6067 290.024 94.9794 289.076C93.1342 288.001 92.0727 286.967 90.1814 285.932C86.9197 284.147 83.3708 282.706 80.2674 280.684C79.0829 279.912 78.0229 278.63 76.8627 277.825C74.6367 276.28 72.0732 275.154 69.9138 273.606C68.4749 272.575 67.1845 271.389 65.8974 270.175C65.0321 269.359 64.1195 268.204 63.2131 267.402C62.5197 266.788 61.881 266.494 61.1996 265.868C59.2018 264.031 56.7498 262.15 54.8578 260.205C53.6206 258.933 52.9126 257.626 51.7224 256.309C50.6073 255.076 49.8916 253.7 48.8189 252.429C47.6707 251.067 46.1686 249.808 45.0702 248.405C44.0216 247.065 42.2929 244.209 41.291 242.832C40.1158 241.217 39.6762 241.074 38.567 239.409C37.5123 237.826 36.5763 235.607 35.583 233.981C34.198 231.714 32.7851 230.021 31.5234 227.675C30.6863 226.118 30.1598 224.238 29.3786 222.648C28.4939 220.847 27.3625 219.331 26.5513 217.489C25.3928 214.858 24.3437 211.956 23.3397 209.246C22.7477 207.648 22.1495 206.267 21.6128 204.644C21.0008 202.792 20.6519 200.789 20.1134 198.906C19.6734 197.366 19.0314 195.952 18.6414 194.393C18.1814 192.553 18.1034 190.597 17.7144 188.73C17.3447 186.956 16.6606 185.274 16.3564 183.476C16.0147 181.458 15.7148 179.425 15.4574 177.379C15.0728 174.322 15.0929 171.08 14.9018 167.967C14.7186 164.983 14.3162 162.128 14.3162 159.098C14.3162 156.493 14.766 152.339 14.9018 149.767C15.0617 146.737 14.9335 145.296 15.2767 142.317C15.6998 138.645 15.864 135.068 16.5562 131.485C17.0404 128.979 17.9853 126.441 18.5968 123.983C19.2445 121.378 19.4925 118.645 20.2789 116.098C20.9609 113.89 22.1643 111.861 22.9476 109.699C24.017 106.747 25.1795 103.84 26.4315 100.981C26.8979 99.9157 26.7366 98.8674 27.2278 97.8158C28.7543 94.5473 29.4568 94.2478 31.364 91.1151C32.6147 89.0608 33.4643 85.9018 35.0866 83.0908C36.2634 81.0517 38.2341 79.2713 39.1882 77.8629C41.149 74.9687 43.847 72.181 46.0063 69.4412C47.5004 67.5454 48.4053 65.6559 49.9904 63.8381C52.1795 61.3275 53.8267 58.89 56.1814 56.5361C58.1065 54.6118 60.7124 52.7442 62.7427 50.93C64.9274 48.9779 66.7859 48.0142 69.0865 46.1955C70.9398 44.7305 73.2155 42.3864 75.1405 41.0115C76.9577 39.7136 78.8062 38.4565 80.6846 37.2417C83.1884 35.6224 84.2655 35.2528 86.8724 33.7868C88.9704 32.607 91.2231 30.8262 93.8213 29.4024C95.2474 28.6209 97.1231 28.0601 98.3275 27.5008C100.071 26.6913 101.833 25.9154 103.613 25.1739C106.319 24.0467 108.325 23.9148 111.111 22.9499C113.443 22.1419 115.4 20.8161 117.977 19.889C120.379 19.0248 123.4 18.5503 125.666 18.0116C128.149 17.4214 131.33 16.2962 133.86 15.8355C136.984 15.2667 139.47 15.3968 142.66 15.0317C145.308 14.7286 147.881 14.2423 150.57 14.0838C153.437 13.915 156.422 14.0839 159.331 14.0839C163.255 14.0839 166.083 14.206 169.928 14.5119C172.262 14.6975 175.639 14.972 177.94 15.2668C179.887 15.5162 181.242 16.1715 183.164 16.4973C185.102 16.8259 187.607 16.8257 189.519 17.2304C192.755 17.9157 194.902 18.6609 198.055 19.5581C200.865 20.358 204.69 21.2884 207.429 22.2508C209.202 22.8741 211.287 23.0876 213.028 23.7771C215.694 24.8328 217.994 26.4085 220.579 27.615C223.686 29.0648 225.68 29.8117 228.663 31.4705C230.592 32.5437 233.548 34.4694 235.422 35.6268C237.734 37.0551 238.682 37.7771 240.906 39.3294C242.971 40.7707 246.319 43.0339 248.304 44.5781C250.829 46.5427 253.078 47.6287 255.466 49.7527C257.184 51.281 259.075 53.8098 260.718 55.4171C262.516 57.1756 264.269 58.9804 265.973 60.8297C267.605 62.5989 268.4 64.2006 269.942 66.0495C271.153 67.5001 273.127 69.183 274.281 70.6808C275.487 72.2466 276.659 72.8719 277.801 74.4874C278.797 75.8952 279.458 77.1172 280.127 78.419C280.666 79.4652 281.737 81.3311 282.466 82.6181C283.293 84.0813 284.143 84.9589 285.165 86.6353C286.313 88.5194 287.103 90.4341 287.928 92.0133C289.213 94.4709 290.042 97.0869 291.187 99.6248C291.712 100.788 292.61 101.842 293.105 103.022C294.083 105.352 295.002 107.713 295.86 110.104C296.653 112.315 296.892 113.525 297.579 115.784C298.299 118.15 299.464 121.568 300.064 123.983C300.519 125.809 301.145 127.291 301.53 129.143C301.874 130.804 301.983 132.832 302.27 134.514C302.574 136.296 302.846 138.089 303.085 139.893C303.352 141.916 303.285 143.757 303.469 145.805C303.676 148.121 304.122 150.647 304.219 152.992C304.303 155.017 304.345 157.053 304.345 159.098Z"/>
</mask>
<path d="M304.345 159.098C304.345 161.264 304.475 163.671 304.345 165.772C304.182 168.41 303.732 170.732 303.469 173.385C303.227 175.821 303.087 178.436 302.727 180.836C302.274 183.848 301.592 186.902 301.099 189.76C300.563 192.862 300.2 195.763 299.303 198.881C298.939 200.148 297.982 201.878 297.604 203.249C296.956 205.593 296.272 207.987 295.497 210.085C294.777 212.031 293.905 213.269 293.105 215.175C292.586 216.411 292.386 218.275 291.834 219.493C290.954 221.437 289.696 222.722 288.734 224.619C287.613 226.829 286.168 228.842 284.939 230.985C283.741 233.074 282.761 235.294 281.463 237.316C280.448 238.898 279.621 241.008 278.547 242.548C277.026 244.728 275.227 246.315 273.591 248.405C272.724 249.512 271.114 251.018 270.216 252.1C267.817 254.988 266.036 257.37 263.425 260.062C262.193 261.332 261.151 263.229 259.874 264.453C258.006 266.243 255.878 267.333 253.918 269.022C252.847 269.944 251.922 271.103 250.824 271.994C249.29 273.24 247.571 274.202 245.986 275.385C244.899 276.197 244.034 277.102 242.924 277.884C241.51 278.878 239.844 279.739 238.394 280.684C236.118 282.167 234.226 283.709 231.863 285.066C230 286.136 227.681 287.045 225.766 288.034C223.906 288.994 221.632 289.643 219.726 290.524C217.182 291.7 214.99 293.077 212.369 294.107C211.35 294.508 209.48 294.886 208.45 295.264C205.855 296.217 204.071 297.108 201.409 297.914C198.729 298.725 196.015 299.461 193.272 300.119C191.373 300.574 189.621 301.518 187.694 301.898C185.844 302.263 183.82 302.066 181.946 302.36C180.605 302.57 176.334 302.943 174.982 303.116C171.014 303.623 169.922 303.788 165.861 303.968C163.696 304.064 160.148 303.826 157.96 303.826C154.871 303.826 153.176 304.016 150.135 303.826C147.482 303.66 144.848 303.423 142.235 303.116C139.75 302.824 137.628 302.314 135.184 301.898C132.581 301.455 129.299 301.402 126.746 300.823C123.796 300.153 120.775 299.126 117.811 298.093C115.747 297.373 114.071 296.366 112.103 295.694C110.048 294.991 108.314 294.902 106.302 294.111C104.436 293.377 102.588 292.606 100.76 291.798C99.0107 291.025 96.6067 290.024 94.9794 289.076C93.1342 288.001 92.0727 286.967 90.1814 285.932C86.9197 284.147 83.3708 282.706 80.2674 280.684C79.0829 279.912 78.0229 278.63 76.8627 277.825C74.6367 276.28 72.0732 275.154 69.9138 273.606C68.4749 272.575 67.1845 271.389 65.8974 270.175C65.0321 269.359 64.1195 268.204 63.2131 267.402C62.5197 266.788 61.881 266.494 61.1996 265.868C59.2018 264.031 56.7498 262.15 54.8578 260.205C53.6206 258.933 52.9126 257.626 51.7224 256.309C50.6073 255.076 49.8916 253.7 48.8189 252.429C47.6707 251.067 46.1686 249.808 45.0702 248.405C44.0216 247.065 42.2929 244.209 41.291 242.832C40.1158 241.217 39.6762 241.074 38.567 239.409C37.5123 237.826 36.5763 235.607 35.583 233.981C34.198 231.714 32.7851 230.021 31.5234 227.675C30.6863 226.118 30.1598 224.238 29.3786 222.648C28.4939 220.847 27.3625 219.331 26.5513 217.489C25.3928 214.858 24.3437 211.956 23.3397 209.246C22.7477 207.648 22.1495 206.267 21.6128 204.644C21.0008 202.792 20.6519 200.789 20.1134 198.906C19.6734 197.366 19.0314 195.952 18.6414 194.393C18.1814 192.553 18.1034 190.597 17.7144 188.73C17.3447 186.956 16.6606 185.274 16.3564 183.476C16.0147 181.458 15.7148 179.425 15.4574 177.379C15.0728 174.322 15.0929 171.08 14.9018 167.967C14.7186 164.983 14.3162 162.128 14.3162 159.098C14.3162 156.493 14.766 152.339 14.9018 149.767C15.0617 146.737 14.9335 145.296 15.2767 142.317C15.6998 138.645 15.864 135.068 16.5562 131.485C17.0404 128.979 17.9853 126.441 18.5968 123.983C19.2445 121.378 19.4925 118.645 20.2789 116.098C20.9609 113.89 22.1643 111.861 22.9476 109.699C24.017 106.747 25.1795 103.84 26.4315 100.981C26.8979 99.9157 26.7366 98.8674 27.2278 97.8158C28.7543 94.5473 29.4568 94.2478 31.364 91.1151C32.6147 89.0608 33.4643 85.9018 35.0866 83.0908C36.2634 81.0517 38.2341 79.2713 39.1882 77.8629C41.149 74.9687 43.847 72.181 46.0063 69.4412C47.5004 67.5454 48.4053 65.6559 49.9904 63.8381C52.1795 61.3275 53.8267 58.89 56.1814 56.5361C58.1065 54.6118 60.7124 52.7442 62.7427 50.93C64.9274 48.9779 66.7859 48.0142 69.0865 46.1955C70.9398 44.7305 73.2155 42.3864 75.1405 41.0115C76.9577 39.7136 78.8062 38.4565 80.6846 37.2417C83.1884 35.6224 84.2655 35.2528 86.8724 33.7868C88.9704 32.607 91.2231 30.8262 93.8213 29.4024C95.2474 28.6209 97.1231 28.0601 98.3275 27.5008C100.071 26.6913 101.833 25.9154 103.613 25.1739C106.319 24.0467 108.325 23.9148 111.111 22.9499C113.443 22.1419 115.4 20.8161 117.977 19.889C120.379 19.0248 123.4 18.5503 125.666 18.0116C128.149 17.4214 131.33 16.2962 133.86 15.8355C136.984 15.2667 139.47 15.3968 142.66 15.0317C145.308 14.7286 147.881 14.2423 150.57 14.0838C153.437 13.915 156.422 14.0839 159.331 14.0839C163.255 14.0839 166.083 14.206 169.928 14.5119C172.262 14.6975 175.639 14.972 177.94 15.2668C179.887 15.5162 181.242 16.1715 183.164 16.4973C185.102 16.8259 187.607 16.8257 189.519 17.2304C192.755 17.9157 194.902 18.6609 198.055 19.5581C200.865 20.358 204.69 21.2884 207.429 22.2508C209.202 22.8741 211.287 23.0876 213.028 23.7771C215.694 24.8328 217.994 26.4085 220.579 27.615C223.686 29.0648 225.68 29.8117 228.663 31.4705C230.592 32.5437 233.548 34.4694 235.422 35.6268C237.734 37.0551 238.682 37.7771 240.906 39.3294C242.971 40.7707 246.319 43.0339 248.304 44.5781C250.829 46.5427 253.078 47.6287 255.466 49.7527C257.184 51.281 259.075 53.8098 260.718 55.4171C262.516 57.1756 264.269 58.9804 265.973 60.8297C267.605 62.5989 268.4 64.2006 269.942 66.0495C271.153 67.5001 273.127 69.183 274.281 70.6808C275.487 72.2466 276.659 72.8719 277.801 74.4874C278.797 75.8952 279.458 77.1172 280.127 78.419C280.666 79.4652 281.737 81.3311 282.466 82.6181C283.293 84.0813 284.143 84.9589 285.165 86.6353C286.313 88.5194 287.103 90.4341 287.928 92.0133C289.213 94.4709 290.042 97.0869 291.187 99.6248C291.712 100.788 292.61 101.842 293.105 103.022C294.083 105.352 295.002 107.713 295.86 110.104C296.653 112.315 296.892 113.525 297.579 115.784C298.299 118.15 299.464 121.568 300.064 123.983C300.519 125.809 301.145 127.291 301.53 129.143C301.874 130.804 301.983 132.832 302.27 134.514C302.574 136.296 302.846 138.089 303.085 139.893C303.352 141.916 303.285 143.757 303.469 145.805C303.676 148.121 304.122 150.647 304.219 152.992C304.303 155.017 304.345 157.053 304.345 159.098Z" fill="#FFFBFA" stroke="#948275" stroke-width="8" mask="url(#path-2-inside-2_332_487)"/>
<mask id="path-3-inside-3_332_487" fill="white">
<path d="M300.613 159.096C300.613 161.206 300.739 163.551 300.613 165.597C300.454 168.168 300.015 170.43 299.759 173.014C299.523 175.388 299.387 177.936 299.036 180.274C298.595 183.208 297.931 186.183 297.45 188.968C296.928 191.991 296.574 194.816 295.7 197.854C295.345 199.089 294.413 200.774 294.045 202.11C293.414 204.393 292.748 206.726 291.992 208.77C291.291 210.666 290.441 211.872 289.662 213.729C289.156 214.933 288.961 216.749 288.423 217.936C287.566 219.83 286.341 221.082 285.403 222.93C284.311 225.083 282.904 227.044 281.706 229.132C280.539 231.167 279.584 233.33 278.32 235.3C277.331 236.841 276.525 238.897 275.479 240.397C273.996 242.521 272.244 244.067 270.65 246.103C269.806 247.182 268.237 248.65 267.362 249.703C265.025 252.517 263.29 254.837 260.746 257.46C259.546 258.697 258.53 260.546 257.286 261.738C255.467 263.482 253.394 264.544 251.484 266.189C250.44 267.088 249.539 268.217 248.469 269.085C246.975 270.299 245.3 271.237 243.756 272.389C242.697 273.179 241.854 274.062 240.773 274.823C239.395 275.792 237.772 276.631 236.359 277.551C234.142 278.996 232.298 280.499 229.997 281.82C228.181 282.863 225.922 283.749 224.057 284.712C222.245 285.647 220.029 286.28 218.172 287.138C215.694 288.284 213.557 289.625 211.004 290.629C210.012 291.019 208.19 291.388 207.186 291.756C204.658 292.684 202.92 293.552 200.327 294.337C197.715 295.128 195.072 295.845 192.399 296.486C190.548 296.93 188.842 297.849 186.964 298.219C185.162 298.574 183.19 298.383 181.364 298.669C180.058 298.874 175.897 299.237 174.579 299.406C170.714 299.9 169.65 300.061 165.694 300.236C163.585 300.33 160.128 300.098 157.996 300.098C154.987 300.098 153.335 300.283 150.373 300.098C147.787 299.936 145.221 299.704 142.676 299.406C140.255 299.121 138.188 298.624 135.806 298.219C133.27 297.788 130.073 297.736 127.585 297.172C124.712 296.52 121.768 295.519 118.881 294.512C116.87 293.81 115.237 292.83 113.32 292.175C111.318 291.49 109.629 291.403 107.668 290.633C105.85 289.918 104.049 289.166 102.269 288.379C100.564 287.626 98.2222 286.651 96.6368 285.727C94.8391 284.68 93.8049 283.673 91.9623 282.664C88.7846 280.926 85.3271 279.522 82.3036 277.551C81.1495 276.799 80.1169 275.551 78.9865 274.766C76.8179 273.261 74.3203 272.163 72.2165 270.656C70.8146 269.651 69.5575 268.495 68.3035 267.313C67.4605 266.518 66.5714 265.393 65.6883 264.611C65.0127 264.013 64.3905 263.727 63.7266 263.117C61.7803 261.327 59.3914 259.495 57.5482 257.599C56.3428 256.36 55.653 255.087 54.4934 253.804C53.407 252.602 52.7098 251.262 51.6647 250.023C50.546 248.697 49.0826 247.47 48.0125 246.103C46.9908 244.798 45.3067 242.016 44.3305 240.674C43.1856 239.101 42.7573 238.961 41.6767 237.339C40.6491 235.797 39.7373 233.635 38.7695 232.051C37.4202 229.842 36.0436 228.193 34.8144 225.907C33.9989 224.39 33.4859 222.558 32.7248 221.009C31.8629 219.255 30.7607 217.778 29.9704 215.983C28.8416 213.42 27.8196 210.593 26.8414 207.953C26.2647 206.396 25.6818 205.051 25.1589 203.469C24.5628 201.665 24.2228 199.713 23.6982 197.878C23.2695 196.379 22.644 195.001 22.2641 193.482C21.8159 191.69 21.7399 189.783 21.3609 187.965C21.0007 186.237 20.3343 184.597 20.0379 182.846C19.705 180.88 19.4128 178.899 19.162 176.906C18.7873 173.927 18.8069 170.769 18.6207 167.736C18.4422 164.829 18.0502 162.048 18.0502 159.096C18.0502 156.557 18.4885 152.51 18.6207 150.005C18.7765 147.052 18.6516 145.648 18.9859 142.747C19.3982 139.169 19.5581 135.685 20.2326 132.193C20.7043 129.751 21.6249 127.279 22.2206 124.884C22.8516 122.347 23.0932 119.683 23.8594 117.202C24.5238 115.051 25.6963 113.074 26.4594 110.968C27.5012 108.092 28.6338 105.26 29.8536 102.474C30.308 101.437 30.1509 100.415 30.6294 99.391C32.1166 96.2066 32.801 95.9148 34.6591 92.8627C35.8776 90.8613 36.7054 87.7837 38.2859 85.045C39.4324 83.0584 41.3523 81.3238 42.2819 79.9517C44.1922 77.132 46.8208 74.4161 48.9245 71.7468C50.3801 69.8998 51.2618 68.0589 52.806 66.2879C54.9388 63.842 56.5435 61.4673 58.8377 59.174C60.7132 57.2992 63.252 55.4797 65.23 53.7122C67.3585 51.8103 69.1691 50.8715 71.4105 49.0996C73.2161 47.6722 75.4332 45.3885 77.3086 44.049C79.0791 42.7845 80.88 41.5598 82.71 40.3763C85.1494 38.7987 86.1988 38.4385 88.7385 37.0103C90.7825 35.8608 92.9772 34.1259 95.5085 32.7388C96.8979 31.9774 98.7253 31.431 99.8987 30.8862C101.597 30.0974 103.314 29.3415 105.048 28.6191C107.685 27.521 109.638 27.3925 112.353 26.4523C114.626 25.6652 116.532 24.3735 119.042 23.4703C121.383 22.6283 124.326 22.1661 126.533 21.6412C128.952 21.0662 132.051 19.97 134.517 19.5212C137.56 18.967 139.982 19.0938 143.09 18.738C145.67 18.4427 148.177 17.969 150.797 17.8146C153.589 17.65 156.498 17.8146 159.331 17.8146C163.154 17.8146 165.91 17.9336 169.656 18.2316C171.93 18.4125 175.22 18.6799 177.462 18.9671C179.359 19.2101 180.679 19.8485 182.551 20.1659C184.44 20.4861 186.88 20.4859 188.742 20.8802C191.895 21.5478 193.987 22.2738 197.058 23.1479C199.797 23.9272 203.523 24.8337 206.191 25.7713C207.919 26.3785 209.95 26.5865 211.646 27.2583C214.243 28.2868 216.484 29.822 219.003 30.9974C222.03 32.4099 223.973 33.1375 226.879 34.7536C228.758 35.7992 231.638 37.6753 233.464 38.8029C235.717 40.1945 236.64 40.8979 238.807 42.4102C240.819 43.8144 244.081 46.0194 246.014 47.5238C248.474 49.4378 250.665 50.4959 252.991 52.5652C254.665 54.0541 256.508 56.5178 258.109 58.0837C259.86 59.7969 261.568 61.5553 263.229 63.357C264.818 65.0807 265.593 66.6411 267.096 68.4424C268.275 69.8557 270.199 71.4953 271.323 72.9545C272.498 74.48 273.639 75.0892 274.752 76.6631C275.722 78.0346 276.366 79.2252 277.018 80.4935C277.543 81.5127 278.587 83.3306 279.296 84.5845C280.103 86.01 280.931 86.865 281.926 88.4983C283.045 90.3339 283.814 92.1993 284.619 93.7378C285.87 96.1321 286.678 98.6808 287.794 101.153C288.305 102.287 289.179 103.314 289.662 104.463C290.615 106.733 291.51 109.034 292.346 111.362C293.119 113.517 293.351 114.695 294.021 116.897C294.723 119.201 295.857 122.532 296.442 124.884C296.885 126.663 297.495 128.107 297.87 129.912C298.205 131.53 298.311 133.506 298.591 135.144C298.887 136.88 299.152 138.628 299.385 140.385C299.645 142.356 299.58 144.149 299.759 146.145C299.961 148.401 300.395 150.862 300.49 153.147C300.571 155.12 300.613 157.103 300.613 159.096Z"/>
</mask>
<path d="M300.613 159.096C300.613 161.206 300.739 163.551 300.613 165.597C300.454 168.168 300.015 170.43 299.759 173.014C299.523 175.388 299.387 177.936 299.036 180.274C298.595 183.208 297.931 186.183 297.45 188.968C296.928 191.991 296.574 194.816 295.7 197.854C295.345 199.089 294.413 200.774 294.045 202.11C293.414 204.393 292.748 206.726 291.992 208.77C291.291 210.666 290.441 211.872 289.662 213.729C289.156 214.933 288.961 216.749 288.423 217.936C287.566 219.83 286.341 221.082 285.403 222.93C284.311 225.083 282.904 227.044 281.706 229.132C280.539 231.167 279.584 233.33 278.32 235.3C277.331 236.841 276.525 238.897 275.479 240.397C273.996 242.521 272.244 244.067 270.65 246.103C269.806 247.182 268.237 248.65 267.362 249.703C265.025 252.517 263.29 254.837 260.746 257.46C259.546 258.697 258.53 260.546 257.286 261.738C255.467 263.482 253.394 264.544 251.484 266.189C250.44 267.088 249.539 268.217 248.469 269.085C246.975 270.299 245.3 271.237 243.756 272.389C242.697 273.179 241.854 274.062 240.773 274.823C239.395 275.792 237.772 276.631 236.359 277.551C234.142 278.996 232.298 280.499 229.997 281.82C228.181 282.863 225.922 283.749 224.057 284.712C222.245 285.647 220.029 286.28 218.172 287.138C215.694 288.284 213.557 289.625 211.004 290.629C210.012 291.019 208.19 291.388 207.186 291.756C204.658 292.684 202.92 293.552 200.327 294.337C197.715 295.128 195.072 295.845 192.399 296.486C190.548 296.93 188.842 297.849 186.964 298.219C185.162 298.574 183.19 298.383 181.364 298.669C180.058 298.874 175.897 299.237 174.579 299.406C170.714 299.9 169.65 300.061 165.694 300.236C163.585 300.33 160.128 300.098 157.996 300.098C154.987 300.098 153.335 300.283 150.373 300.098C147.787 299.936 145.221 299.704 142.676 299.406C140.255 299.121 138.188 298.624 135.806 298.219C133.27 297.788 130.073 297.736 127.585 297.172C124.712 296.52 121.768 295.519 118.881 294.512C116.87 293.81 115.237 292.83 113.32 292.175C111.318 291.49 109.629 291.403 107.668 290.633C105.85 289.918 104.049 289.166 102.269 288.379C100.564 287.626 98.2222 286.651 96.6368 285.727C94.8391 284.68 93.8049 283.673 91.9623 282.664C88.7846 280.926 85.3271 279.522 82.3036 277.551C81.1495 276.799 80.1169 275.551 78.9865 274.766C76.8179 273.261 74.3203 272.163 72.2165 270.656C70.8146 269.651 69.5575 268.495 68.3035 267.313C67.4605 266.518 66.5714 265.393 65.6883 264.611C65.0127 264.013 64.3905 263.727 63.7266 263.117C61.7803 261.327 59.3914 259.495 57.5482 257.599C56.3428 256.36 55.653 255.087 54.4934 253.804C53.407 252.602 52.7098 251.262 51.6647 250.023C50.546 248.697 49.0826 247.47 48.0125 246.103C46.9908 244.798 45.3067 242.016 44.3305 240.674C43.1856 239.101 42.7573 238.961 41.6767 237.339C40.6491 235.797 39.7373 233.635 38.7695 232.051C37.4202 229.842 36.0436 228.193 34.8144 225.907C33.9989 224.39 33.4859 222.558 32.7248 221.009C31.8629 219.255 30.7607 217.778 29.9704 215.983C28.8416 213.42 27.8196 210.593 26.8414 207.953C26.2647 206.396 25.6818 205.051 25.1589 203.469C24.5628 201.665 24.2228 199.713 23.6982 197.878C23.2695 196.379 22.644 195.001 22.2641 193.482C21.8159 191.69 21.7399 189.783 21.3609 187.965C21.0007 186.237 20.3343 184.597 20.0379 182.846C19.705 180.88 19.4128 178.899 19.162 176.906C18.7873 173.927 18.8069 170.769 18.6207 167.736C18.4422 164.829 18.0502 162.048 18.0502 159.096C18.0502 156.557 18.4885 152.51 18.6207 150.005C18.7765 147.052 18.6516 145.648 18.9859 142.747C19.3982 139.169 19.5581 135.685 20.2326 132.193C20.7043 129.751 21.6249 127.279 22.2206 124.884C22.8516 122.347 23.0932 119.683 23.8594 117.202C24.5238 115.051 25.6963 113.074 26.4594 110.968C27.5012 108.092 28.6338 105.26 29.8536 102.474C30.308 101.437 30.1509 100.415 30.6294 99.391C32.1166 96.2066 32.801 95.9148 34.6591 92.8627C35.8776 90.8613 36.7054 87.7837 38.2859 85.045C39.4324 83.0584 41.3523 81.3238 42.2819 79.9517C44.1922 77.132 46.8208 74.4161 48.9245 71.7468C50.3801 69.8998 51.2618 68.0589 52.806 66.2879C54.9388 63.842 56.5435 61.4673 58.8377 59.174C60.7132 57.2992 63.252 55.4797 65.23 53.7122C67.3585 51.8103 69.1691 50.8715 71.4105 49.0996C73.2161 47.6722 75.4332 45.3885 77.3086 44.049C79.0791 42.7845 80.88 41.5598 82.71 40.3763C85.1494 38.7987 86.1988 38.4385 88.7385 37.0103C90.7825 35.8608 92.9772 34.1259 95.5085 32.7388C96.8979 31.9774 98.7253 31.431 99.8987 30.8862C101.597 30.0974 103.314 29.3415 105.048 28.6191C107.685 27.521 109.638 27.3925 112.353 26.4523C114.626 25.6652 116.532 24.3735 119.042 23.4703C121.383 22.6283 124.326 22.1661 126.533 21.6412C128.952 21.0662 132.051 19.97 134.517 19.5212C137.56 18.967 139.982 19.0938 143.09 18.738C145.67 18.4427 148.177 17.969 150.797 17.8146C153.589 17.65 156.498 17.8146 159.331 17.8146C163.154 17.8146 165.91 17.9336 169.656 18.2316C171.93 18.4125 175.22 18.6799 177.462 18.9671C179.359 19.2101 180.679 19.8485 182.551 20.1659C184.44 20.4861 186.88 20.4859 188.742 20.8802C191.895 21.5478 193.987 22.2738 197.058 23.1479C199.797 23.9272 203.523 24.8337 206.191 25.7713C207.919 26.3785 209.95 26.5865 211.646 27.2583C214.243 28.2868 216.484 29.822 219.003 30.9974C222.03 32.4099 223.973 33.1375 226.879 34.7536C228.758 35.7992 231.638 37.6753 233.464 38.8029C235.717 40.1945 236.64 40.8979 238.807 42.4102C240.819 43.8144 244.081 46.0194 246.014 47.5238C248.474 49.4378 250.665 50.4959 252.991 52.5652C254.665 54.0541 256.508 56.5178 258.109 58.0837C259.86 59.7969 261.568 61.5553 263.229 63.357C264.818 65.0807 265.593 66.6411 267.096 68.4424C268.275 69.8557 270.199 71.4953 271.323 72.9545C272.498 74.48 273.639 75.0892 274.752 76.6631C275.722 78.0346 276.366 79.2252 277.018 80.4935C277.543 81.5127 278.587 83.3306 279.296 84.5845C280.103 86.01 280.931 86.865 281.926 88.4983C283.045 90.3339 283.814 92.1993 284.619 93.7378C285.87 96.1321 286.678 98.6808 287.794 101.153C288.305 102.287 289.179 103.314 289.662 104.463C290.615 106.733 291.51 109.034 292.346 111.362C293.119 113.517 293.351 114.695 294.021 116.897C294.723 119.201 295.857 122.532 296.442 124.884C296.885 126.663 297.495 128.107 297.87 129.912C298.205 131.53 298.311 133.506 298.591 135.144C298.887 136.88 299.152 138.628 299.385 140.385C299.645 142.356 299.58 144.149 299.759 146.145C299.961 148.401 300.395 150.862 300.49 153.147C300.571 155.12 300.613 157.103 300.613 159.096Z" fill="#FFFBFA" stroke="#3D3131" stroke-width="4" mask="url(#path-3-inside-3_332_487)"/>
</svg>