<svg width="270" height="271" viewBox="0 0 270 271" fill="none" xmlns="http://www.w3.org/2000/svg">
<mask id="path-1-inside-1_332_709" fill="white">
<path d="M266.247 135.507C266.247 137.464 266.364 139.638 266.247 141.534C266.1 143.917 265.693 146.015 265.456 148.41C265.237 150.611 265.111 152.972 264.785 155.14C264.377 157.86 263.761 160.618 263.315 163.199C262.831 166.001 262.503 168.621 261.693 171.437C261.364 172.581 260.5 174.144 260.159 175.382C259.574 177.499 258.956 179.661 258.256 181.555C257.606 183.313 256.818 184.432 256.096 186.153C255.627 187.269 255.446 188.952 254.948 190.053C254.153 191.808 253.017 192.969 252.148 194.682C251.136 196.677 249.831 198.496 248.721 200.431C247.638 202.318 246.754 204.323 245.582 206.149C244.664 207.578 243.918 209.484 242.948 210.874C241.574 212.842 239.949 214.276 238.472 216.163C237.689 217.164 236.235 218.524 235.424 219.501C233.258 222.109 231.649 224.26 229.29 226.692C228.178 227.838 227.237 229.552 226.083 230.658C224.397 232.274 222.475 233.259 220.704 234.784C219.737 235.617 218.902 236.663 217.91 237.468C216.525 238.593 214.972 239.462 213.54 240.531C212.559 241.263 211.778 242.082 210.775 242.787C209.498 243.686 207.994 244.463 206.684 245.316C204.628 246.656 202.92 248.048 200.786 249.273C199.103 250.24 197.009 251.061 195.28 251.954C193.6 252.821 191.546 253.407 189.824 254.203C187.527 255.265 185.547 256.509 183.18 257.439C182.26 257.801 180.571 258.143 179.64 258.484C177.297 259.344 175.686 260.149 173.282 260.877C170.861 261.61 168.41 262.275 165.932 262.869C164.217 263.28 162.635 264.132 160.895 264.475C159.224 264.805 157.396 264.627 155.704 264.892C154.493 265.082 150.635 265.419 149.414 265.575C145.831 266.033 144.844 266.183 141.177 266.345C139.222 266.432 136.018 266.217 134.041 266.217C131.252 266.217 129.72 266.388 126.974 266.217C124.578 266.067 122.199 265.852 119.839 265.575C117.595 265.312 115.679 264.851 113.471 264.475C111.12 264.076 108.156 264.027 105.85 263.504C103.187 262.9 100.458 261.972 97.7814 261.039C95.9169 260.388 94.4033 259.479 92.6262 258.872C90.7703 258.238 89.2042 258.157 87.3869 257.443C85.7011 256.78 84.0323 256.083 82.3815 255.354C80.8017 254.655 78.6305 253.751 77.1609 252.895C75.4944 251.924 74.5357 250.991 72.8276 250.056C69.8818 248.444 66.6767 247.143 63.8739 245.316C62.8041 244.619 61.8468 243.461 60.7989 242.734C58.7886 241.339 56.4734 240.322 54.5231 238.924C53.2236 237.993 52.0582 236.921 50.8958 235.825C50.1143 235.088 49.2901 234.045 48.4715 233.32C47.8452 232.766 47.2684 232.501 46.653 231.935C44.8488 230.276 42.6342 228.577 40.9255 226.821C39.8082 225.672 39.1687 224.492 38.0938 223.303C37.0867 222.188 36.4404 220.946 35.4716 219.798C34.4346 218.568 33.0779 217.431 32.086 216.163C31.1389 214.953 29.5777 212.375 28.6728 211.131C27.6114 209.672 27.2144 209.543 26.2127 208.039C25.2601 206.61 24.4148 204.605 23.5177 203.137C22.2669 201.09 20.9908 199.561 19.8513 197.441C19.0953 196.035 18.6198 194.338 17.9143 192.901C17.1153 191.275 16.0935 189.906 15.3608 188.242C14.3145 185.866 13.3671 183.245 12.4603 180.798C11.9257 179.355 11.3853 178.108 10.9006 176.641C10.348 174.969 10.0328 173.16 9.54651 171.459C9.14908 170.069 8.56932 168.792 8.21709 167.383C7.80167 165.722 7.73115 163.955 7.37987 162.269C7.04597 160.667 6.42818 159.147 6.15343 157.524C5.84484 155.701 5.57391 153.866 5.34149 152.018C4.99414 149.256 5.01228 146.329 4.83966 143.517C4.67424 140.822 4.31079 138.244 4.31079 135.507C4.31079 133.154 4.71709 129.403 4.83966 127.08C4.98409 124.343 4.8683 123.042 5.17825 120.352C5.56043 117.035 5.70866 113.805 6.3339 110.569C6.77117 108.305 7.62457 106.014 8.17678 103.793C8.76176 101.441 8.98574 98.9721 9.69594 96.6723C10.3119 94.6777 11.3987 92.8455 12.1061 90.8929C13.072 88.227 14.1218 85.6014 15.2526 83.0193C15.6739 82.0574 15.5282 81.1106 15.9717 80.1609C17.3504 77.209 17.9849 76.9385 19.7073 74.1092C20.8369 72.2539 21.6042 69.4009 23.0694 66.8622C24.1322 65.0206 25.912 63.4126 26.7737 62.1406C28.5445 59.5268 30.9813 57.0091 32.9314 54.5347C34.2808 52.8225 35.098 51.116 36.5295 49.4743C38.5066 47.2069 39.9943 45.0055 42.1209 42.8796C43.8595 41.1417 46.213 39.455 48.0466 37.8166C50.0197 36.0535 51.6982 35.1832 53.776 33.5406C55.4498 32.2175 57.505 30.1005 59.2436 28.8588C60.8848 27.6865 62.5542 26.5512 64.2507 25.4541C66.512 23.9917 67.4848 23.6578 69.8391 22.3338C71.7339 21.2683 73.7684 19.66 76.1149 18.3741C77.4029 17.6683 79.0969 17.1618 80.1846 16.6567C81.7592 15.9256 83.3507 15.2248 84.9584 14.5552C87.4025 13.5372 89.2134 13.4181 91.7297 12.5466C93.8365 11.8169 95.6034 10.6195 97.9308 9.78223C100.1 9.00167 102.828 8.57319 104.875 8.08667C107.117 7.55361 109.99 6.53744 112.276 6.12134C115.097 5.60766 117.342 5.72514 120.223 5.39536C122.615 5.12163 124.938 4.68245 127.367 4.53934C129.956 4.38682 132.652 4.53935 135.279 4.53935C138.823 4.53935 141.377 4.6497 144.85 4.92594C146.957 5.09358 150.008 5.34152 152.086 5.60776C153.844 5.83299 155.068 6.42479 156.804 6.71903C158.554 7.01581 160.817 7.01563 162.543 7.38116C165.466 8.00005 167.405 8.67307 170.252 9.48337C172.79 10.2057 176.245 11.0461 178.718 11.9152C180.32 12.4781 182.202 12.671 183.775 13.2937C186.182 14.2471 188.26 15.6702 190.595 16.7599C193.401 18.0692 195.202 18.7437 197.895 20.2419C199.638 21.2111 202.307 22.9503 204 23.9956C206.088 25.2856 206.944 25.9376 208.953 27.3395C210.818 28.6413 213.842 30.6853 215.634 32.0799C217.915 33.8542 219.946 34.835 222.102 36.7532C223.654 38.1335 225.362 40.4174 226.846 41.869C228.47 43.4571 230.052 45.0871 231.592 46.7573C233.065 48.3552 233.784 49.8017 235.177 51.4715C236.27 52.7816 238.053 54.3015 239.095 55.6543C240.185 57.0684 241.242 57.6331 242.274 59.0921C243.174 60.3635 243.77 61.4672 244.375 62.6429C244.861 63.5877 245.829 65.2729 246.487 66.4353C247.234 67.7567 248.002 68.5493 248.924 70.0634C249.962 71.765 250.675 73.4942 251.421 74.9204C252.581 77.14 253.329 79.5026 254.364 81.7946C254.838 82.8451 255.649 83.7973 256.096 84.8624C256.979 86.967 257.809 89.0996 258.584 91.2585C259.3 93.2559 259.516 94.3481 260.137 96.389C260.787 98.5252 261.839 101.612 262.381 103.793C262.791 105.442 263.357 106.781 263.704 108.454C264.015 109.954 264.113 111.786 264.373 113.304C264.648 114.914 264.893 116.534 265.109 118.163C265.35 119.99 265.29 121.652 265.456 123.502C265.643 125.593 266.045 127.875 266.133 129.993C266.209 131.822 266.247 133.66 266.247 135.507Z"/>
</mask>
<path d="M266.247 135.507C266.247 137.464 266.364 139.638 266.247 141.534C266.1 143.917 265.693 146.015 265.456 148.41C265.237 150.611 265.111 152.972 264.785 155.14C264.377 157.86 263.761 160.618 263.315 163.199C262.831 166.001 262.503 168.621 261.693 171.437C261.364 172.581 260.5 174.144 260.159 175.382C259.574 177.499 258.956 179.661 258.256 181.555C257.606 183.313 256.818 184.432 256.096 186.153C255.627 187.269 255.446 188.952 254.948 190.053C254.153 191.808 253.017 192.969 252.148 194.682C251.136 196.677 249.831 198.496 248.721 200.431C247.638 202.318 246.754 204.323 245.582 206.149C244.664 207.578 243.918 209.484 242.948 210.874C241.574 212.842 239.949 214.276 238.472 216.163C237.689 217.164 236.235 218.524 235.424 219.501C233.258 222.109 231.649 224.26 229.29 226.692C228.178 227.838 227.237 229.552 226.083 230.658C224.397 232.274 222.475 233.259 220.704 234.784C219.737 235.617 218.902 236.663 217.91 237.468C216.525 238.593 214.972 239.462 213.54 240.531C212.559 241.263 211.778 242.082 210.775 242.787C209.498 243.686 207.994 244.463 206.684 245.316C204.628 246.656 202.92 248.048 200.786 249.273C199.103 250.24 197.009 251.061 195.28 251.954C193.6 252.821 191.546 253.407 189.824 254.203C187.527 255.265 185.547 256.509 183.18 257.439C182.26 257.801 180.571 258.143 179.64 258.484C177.297 259.344 175.686 260.149 173.282 260.877C170.861 261.61 168.41 262.275 165.932 262.869C164.217 263.28 162.635 264.132 160.895 264.475C159.224 264.805 157.396 264.627 155.704 264.892C154.493 265.082 150.635 265.419 149.414 265.575C145.831 266.033 144.844 266.183 141.177 266.345C139.222 266.432 136.018 266.217 134.041 266.217C131.252 266.217 129.72 266.388 126.974 266.217C124.578 266.067 122.199 265.852 119.839 265.575C117.595 265.312 115.679 264.851 113.471 264.475C111.12 264.076 108.156 264.027 105.85 263.504C103.187 262.9 100.458 261.972 97.7814 261.039C95.9169 260.388 94.4033 259.479 92.6262 258.872C90.7703 258.238 89.2042 258.157 87.3869 257.443C85.7011 256.78 84.0323 256.083 82.3815 255.354C80.8017 254.655 78.6305 253.751 77.1609 252.895C75.4944 251.924 74.5357 250.991 72.8276 250.056C69.8818 248.444 66.6767 247.143 63.8739 245.316C62.8041 244.619 61.8468 243.461 60.7989 242.734C58.7886 241.339 56.4734 240.322 54.5231 238.924C53.2236 237.993 52.0582 236.921 50.8958 235.825C50.1143 235.088 49.2901 234.045 48.4715 233.32C47.8452 232.766 47.2684 232.501 46.653 231.935C44.8488 230.276 42.6342 228.577 40.9255 226.821C39.8082 225.672 39.1687 224.492 38.0938 223.303C37.0867 222.188 36.4404 220.946 35.4716 219.798C34.4346 218.568 33.0779 217.431 32.086 216.163C31.1389 214.953 29.5777 212.375 28.6728 211.131C27.6114 209.672 27.2144 209.543 26.2127 208.039C25.2601 206.61 24.4148 204.605 23.5177 203.137C22.2669 201.09 20.9908 199.561 19.8513 197.441C19.0953 196.035 18.6198 194.338 17.9143 192.901C17.1153 191.275 16.0935 189.906 15.3608 188.242C14.3145 185.866 13.3671 183.245 12.4603 180.798C11.9257 179.355 11.3853 178.108 10.9006 176.641C10.348 174.969 10.0328 173.16 9.54651 171.459C9.14908 170.069 8.56932 168.792 8.21709 167.383C7.80167 165.722 7.73115 163.955 7.37987 162.269C7.04597 160.667 6.42818 159.147 6.15343 157.524C5.84484 155.701 5.57391 153.866 5.34149 152.018C4.99414 149.256 5.01228 146.329 4.83966 143.517C4.67424 140.822 4.31079 138.244 4.31079 135.507C4.31079 133.154 4.71709 129.403 4.83966 127.08C4.98409 124.343 4.8683 123.042 5.17825 120.352C5.56043 117.035 5.70866 113.805 6.3339 110.569C6.77117 108.305 7.62457 106.014 8.17678 103.793C8.76176 101.441 8.98574 98.9721 9.69594 96.6723C10.3119 94.6777 11.3987 92.8455 12.1061 90.8929C13.072 88.227 14.1218 85.6014 15.2526 83.0193C15.6739 82.0574 15.5282 81.1106 15.9717 80.1609C17.3504 77.209 17.9849 76.9385 19.7073 74.1092C20.8369 72.2539 21.6042 69.4009 23.0694 66.8622C24.1322 65.0206 25.912 63.4126 26.7737 62.1406C28.5445 59.5268 30.9813 57.0091 32.9314 54.5347C34.2808 52.8225 35.098 51.116 36.5295 49.4743C38.5066 47.2069 39.9943 45.0055 42.1209 42.8796C43.8595 41.1417 46.213 39.455 48.0466 37.8166C50.0197 36.0535 51.6982 35.1832 53.776 33.5406C55.4498 32.2175 57.505 30.1005 59.2436 28.8588C60.8848 27.6865 62.5542 26.5512 64.2507 25.4541C66.512 23.9917 67.4848 23.6578 69.8391 22.3338C71.7339 21.2683 73.7684 19.66 76.1149 18.3741C77.4029 17.6683 79.0969 17.1618 80.1846 16.6567C81.7592 15.9256 83.3507 15.2248 84.9584 14.5552C87.4025 13.5372 89.2134 13.4181 91.7297 12.5466C93.8365 11.8169 95.6034 10.6195 97.9308 9.78223C100.1 9.00167 102.828 8.57319 104.875 8.08667C107.117 7.55361 109.99 6.53744 112.276 6.12134C115.097 5.60766 117.342 5.72514 120.223 5.39536C122.615 5.12163 124.938 4.68245 127.367 4.53934C129.956 4.38682 132.652 4.53935 135.279 4.53935C138.823 4.53935 141.377 4.6497 144.85 4.92594C146.957 5.09358 150.008 5.34152 152.086 5.60776C153.844 5.83299 155.068 6.42479 156.804 6.71903C158.554 7.01581 160.817 7.01563 162.543 7.38116C165.466 8.00005 167.405 8.67307 170.252 9.48337C172.79 10.2057 176.245 11.0461 178.718 11.9152C180.32 12.4781 182.202 12.671 183.775 13.2937C186.182 14.2471 188.26 15.6702 190.595 16.7599C193.401 18.0692 195.202 18.7437 197.895 20.2419C199.638 21.2111 202.307 22.9503 204 23.9956C206.088 25.2856 206.944 25.9376 208.953 27.3395C210.818 28.6413 213.842 30.6853 215.634 32.0799C217.915 33.8542 219.946 34.835 222.102 36.7532C223.654 38.1335 225.362 40.4174 226.846 41.869C228.47 43.4571 230.052 45.0871 231.592 46.7573C233.065 48.3552 233.784 49.8017 235.177 51.4715C236.27 52.7816 238.053 54.3015 239.095 55.6543C240.185 57.0684 241.242 57.6331 242.274 59.0921C243.174 60.3635 243.77 61.4672 244.375 62.6429C244.861 63.5877 245.829 65.2729 246.487 66.4353C247.234 67.7567 248.002 68.5493 248.924 70.0634C249.962 71.765 250.675 73.4942 251.421 74.9204C252.581 77.14 253.329 79.5026 254.364 81.7946C254.838 82.8451 255.649 83.7973 256.096 84.8624C256.979 86.967 257.809 89.0996 258.584 91.2585C259.3 93.2559 259.516 94.3481 260.137 96.389C260.787 98.5252 261.839 101.612 262.381 103.793C262.791 105.442 263.357 106.781 263.704 108.454C264.015 109.954 264.113 111.786 264.373 113.304C264.648 114.914 264.893 116.534 265.109 118.163C265.35 119.99 265.29 121.652 265.456 123.502C265.643 125.593 266.045 127.875 266.133 129.993C266.209 131.822 266.247 133.66 266.247 135.507Z" fill="#5E4942" stroke="#3D3131" stroke-width="3.39453" mask="url(#path-1-inside-1_332_709)"/>
<mask id="path-2-inside-2_332_709" fill="white">
<path d="M258.344 135.502C258.344 137.34 258.454 139.383 258.344 141.165C258.206 143.404 257.824 145.375 257.601 147.626C257.396 149.694 257.277 151.913 256.971 153.95C256.587 156.506 256.008 159.097 255.589 161.522C255.135 164.155 254.827 166.617 254.066 169.263C253.756 170.338 252.945 171.806 252.623 172.97C252.074 174.959 251.494 176.991 250.835 178.771C250.225 180.422 249.484 181.473 248.806 183.091C248.365 184.14 248.195 185.721 247.727 186.755C246.98 188.405 245.913 189.496 245.096 191.105C244.145 192.98 242.919 194.689 241.876 196.507C240.859 198.28 240.027 200.164 238.926 201.88C238.064 203.223 237.363 205.014 236.451 206.32C235.16 208.17 233.634 209.517 232.246 211.29C231.51 212.23 230.143 213.508 229.381 214.426C227.346 216.877 225.835 218.898 223.618 221.183C222.573 222.261 221.688 223.871 220.604 224.91C219.02 226.428 217.214 227.354 215.55 228.787C214.641 229.569 213.857 230.553 212.925 231.309C211.623 232.366 210.164 233.183 208.819 234.187C207.896 234.875 207.163 235.644 206.22 236.307C205.021 237.151 203.607 237.882 202.376 238.684C200.444 239.942 198.839 241.251 196.834 242.402C195.253 243.31 193.285 244.082 191.66 244.921C190.081 245.736 188.151 246.286 186.534 247.034C184.375 248.032 182.514 249.201 180.29 250.075C179.426 250.415 177.839 250.736 176.965 251.057C174.763 251.865 173.249 252.621 170.99 253.305C168.715 253.994 166.412 254.618 164.084 255.177C162.472 255.563 160.986 256.364 159.35 256.686C157.781 256.996 156.063 256.829 154.473 257.078C153.335 257.256 149.71 257.573 148.562 257.72C145.196 258.15 144.268 258.291 140.822 258.443C138.985 258.525 135.975 258.323 134.117 258.323C131.496 258.323 130.057 258.484 127.477 258.323C125.225 258.182 122.99 257.98 120.773 257.72C118.664 257.472 116.863 257.039 114.789 256.686C112.58 256.311 109.795 256.266 107.628 255.774C105.125 255.206 102.561 254.334 100.046 253.457C98.2942 252.846 96.872 251.992 95.2021 251.421C93.4582 250.825 91.9867 250.749 90.279 250.078C88.6949 249.456 87.1269 248.801 85.5757 248.115C84.0913 247.459 82.0511 246.61 80.6701 245.805C79.1043 244.893 78.2034 244.016 76.5984 243.137C73.8304 241.623 70.8187 240.4 68.1851 238.684C67.1799 238.029 66.2804 236.941 65.2957 236.257C63.4067 234.947 61.2312 233.99 59.3987 232.677C58.1776 231.802 57.0825 230.795 55.9903 229.765C55.256 229.073 54.4815 228.093 53.7122 227.412C53.1238 226.891 52.5818 226.642 52.0035 226.11C50.3082 224.551 48.2273 222.955 46.6217 221.304C45.5718 220.225 44.9709 219.116 43.9609 217.999C43.0146 216.952 42.4072 215.784 41.4969 214.705C40.5225 213.55 39.2477 212.481 38.3156 211.29C37.4257 210.153 35.9587 207.73 35.1085 206.562C34.1112 205.191 33.7381 205.069 32.7969 203.657C31.9018 202.313 31.1075 200.43 30.2645 199.05C29.0892 197.126 27.8901 195.689 26.8194 193.698C26.109 192.377 25.6622 190.782 24.9993 189.432C24.2485 187.904 23.2884 186.617 22.5999 185.054C21.6167 182.821 20.7265 180.359 19.8744 178.059C19.3721 176.703 18.8644 175.531 18.4089 174.153C17.8896 172.582 17.5935 170.882 17.1365 169.284C16.7631 167.978 16.2183 166.778 15.8873 165.454C15.497 163.893 15.4307 162.233 15.1006 160.649C14.7869 159.143 14.2064 157.715 13.9482 156.19C13.6583 154.477 13.4037 152.752 13.1853 151.016C12.8589 148.421 12.876 145.671 12.7137 143.028C12.5583 140.496 12.2168 138.074 12.2168 135.502C12.2168 133.291 12.5986 129.766 12.7137 127.583C12.8495 125.012 12.7407 123.789 13.0319 121.261C13.391 118.145 13.5303 115.11 14.1178 112.069C14.5287 109.942 15.3306 107.788 15.8495 105.702C16.3991 103.492 16.6096 101.172 17.2769 99.0108C17.8557 97.1366 18.877 95.415 19.5417 93.5802C20.4492 91.0752 21.4357 88.6081 22.4983 86.1818C22.8941 85.2779 22.7572 84.3883 23.174 83.4959C24.4694 80.7221 25.0656 80.468 26.6841 77.8095C27.7455 76.0661 28.4665 73.3853 29.8433 70.9998C30.8419 69.2693 32.5143 67.7584 33.324 66.5632C34.988 64.1071 37.2776 61.7414 39.11 59.4163C40.378 57.8075 41.1459 56.204 42.491 54.6613C44.3488 52.5308 45.7467 50.4623 47.745 48.4647C49.3787 46.8316 51.5901 45.2467 53.313 43.7072C55.1671 42.0505 56.7442 41.2327 58.6966 39.6893C60.2694 38.446 62.2006 36.4567 63.8342 35.29C65.3764 34.1885 66.9451 33.1217 68.5391 32.0908C70.664 30.7166 71.578 30.403 73.7903 29.1589C75.5707 28.1576 77.4824 26.6464 79.6873 25.4381C80.8976 24.7749 82.4894 24.299 83.5114 23.8244C84.991 23.1374 86.4864 22.4789 87.9971 21.8497C90.2937 20.8932 91.9952 20.7812 94.3597 19.9623C96.3393 19.2767 97.9997 18.1515 100.187 17.3648C102.225 16.6313 104.789 16.2287 106.712 15.7716C108.819 15.2707 111.518 14.3158 113.666 13.9249C116.317 13.4422 118.426 13.5526 121.133 13.2427C123.381 12.9855 125.564 12.5728 127.846 12.4383C130.279 12.295 132.812 12.4383 135.281 12.4383C138.611 12.4383 141.011 12.542 144.274 12.8016C146.254 12.9591 149.121 13.1921 151.074 13.4423C152.726 13.6539 153.876 14.21 155.506 14.4865C157.151 14.7653 159.277 14.7652 160.899 15.1086C163.646 15.6902 165.468 16.3226 168.143 17.084C170.528 17.7627 173.774 18.5524 176.098 19.3691C177.603 19.898 179.372 20.0792 180.85 20.6643C183.112 21.5602 185.064 22.8974 187.258 23.9213C189.895 25.1516 191.587 25.7854 194.118 27.1932C195.755 28.1039 198.263 29.7382 199.854 30.7203C201.817 31.9325 202.621 32.5452 204.508 33.8625C206.261 35.0856 209.102 37.0063 210.786 38.3167C212.929 39.984 214.837 40.9056 216.864 42.708C218.322 44.005 219.927 46.151 221.321 47.515C222.847 49.0073 224.334 50.539 225.781 52.1083C227.165 53.6098 227.84 54.9689 229.149 56.538C230.176 57.769 231.852 59.1972 232.831 60.4683C233.855 61.7971 234.849 62.3277 235.819 63.6987C236.664 64.8934 237.224 65.9304 237.793 67.0351C238.249 67.923 239.159 69.5065 239.777 70.5987C240.479 71.8404 241.2 72.5851 242.067 74.0078C243.042 75.6067 243.712 77.2316 244.413 78.5717C245.503 80.6573 246.206 82.8773 247.178 85.031C247.624 86.0181 248.386 86.9129 248.806 87.9136C249.636 89.8913 250.415 91.8952 251.143 93.9237C251.817 95.8006 252.019 96.8268 252.603 98.7446C253.214 100.752 254.202 103.653 254.712 105.702C255.097 107.251 255.629 108.509 255.955 110.081C256.247 111.491 256.34 113.212 256.583 114.639C256.841 116.151 257.072 117.673 257.275 119.204C257.502 120.921 257.445 122.483 257.601 124.221C257.777 126.186 258.155 128.33 258.237 130.32C258.309 132.039 258.344 133.766 258.344 135.502Z"/>
</mask>
<path d="M258.344 135.502C258.344 137.34 258.454 139.383 258.344 141.165C258.206 143.404 257.824 145.375 257.601 147.626C257.396 149.694 257.277 151.913 256.971 153.95C256.587 156.506 256.008 159.097 255.589 161.522C255.135 164.155 254.827 166.617 254.066 169.263C253.756 170.338 252.945 171.806 252.623 172.97C252.074 174.959 251.494 176.991 250.835 178.771C250.225 180.422 249.484 181.473 248.806 183.091C248.365 184.14 248.195 185.721 247.727 186.755C246.98 188.405 245.913 189.496 245.096 191.105C244.145 192.98 242.919 194.689 241.876 196.507C240.859 198.28 240.027 200.164 238.926 201.88C238.064 203.223 237.363 205.014 236.451 206.32C235.16 208.17 233.634 209.517 232.246 211.29C231.51 212.23 230.143 213.508 229.381 214.426C227.346 216.877 225.835 218.898 223.618 221.183C222.573 222.261 221.688 223.871 220.604 224.91C219.02 226.428 217.214 227.354 215.55 228.787C214.641 229.569 213.857 230.553 212.925 231.309C211.623 232.366 210.164 233.183 208.819 234.187C207.896 234.875 207.163 235.644 206.22 236.307C205.021 237.151 203.607 237.882 202.376 238.684C200.444 239.942 198.839 241.251 196.834 242.402C195.253 243.31 193.285 244.082 191.66 244.921C190.081 245.736 188.151 246.286 186.534 247.034C184.375 248.032 182.514 249.201 180.29 250.075C179.426 250.415 177.839 250.736 176.965 251.057C174.763 251.865 173.249 252.621 170.99 253.305C168.715 253.994 166.412 254.618 164.084 255.177C162.472 255.563 160.986 256.364 159.35 256.686C157.781 256.996 156.063 256.829 154.473 257.078C153.335 257.256 149.71 257.573 148.562 257.72C145.196 258.15 144.268 258.291 140.822 258.443C138.985 258.525 135.975 258.323 134.117 258.323C131.496 258.323 130.057 258.484 127.477 258.323C125.225 258.182 122.99 257.98 120.773 257.72C118.664 257.472 116.863 257.039 114.789 256.686C112.58 256.311 109.795 256.266 107.628 255.774C105.125 255.206 102.561 254.334 100.046 253.457C98.2942 252.846 96.872 251.992 95.2021 251.421C93.4582 250.825 91.9867 250.749 90.279 250.078C88.6949 249.456 87.1269 248.801 85.5757 248.115C84.0913 247.459 82.0511 246.61 80.6701 245.805C79.1043 244.893 78.2034 244.016 76.5984 243.137C73.8304 241.623 70.8187 240.4 68.1851 238.684C67.1799 238.029 66.2804 236.941 65.2957 236.257C63.4067 234.947 61.2312 233.99 59.3987 232.677C58.1776 231.802 57.0825 230.795 55.9903 229.765C55.256 229.073 54.4815 228.093 53.7122 227.412C53.1238 226.891 52.5818 226.642 52.0035 226.11C50.3082 224.551 48.2273 222.955 46.6217 221.304C45.5718 220.225 44.9709 219.116 43.9609 217.999C43.0146 216.952 42.4072 215.784 41.4969 214.705C40.5225 213.55 39.2477 212.481 38.3156 211.29C37.4257 210.153 35.9587 207.73 35.1085 206.562C34.1112 205.191 33.7381 205.069 32.7969 203.657C31.9018 202.313 31.1075 200.43 30.2645 199.05C29.0892 197.126 27.8901 195.689 26.8194 193.698C26.109 192.377 25.6622 190.782 24.9993 189.432C24.2485 187.904 23.2884 186.617 22.5999 185.054C21.6167 182.821 20.7265 180.359 19.8744 178.059C19.3721 176.703 18.8644 175.531 18.4089 174.153C17.8896 172.582 17.5935 170.882 17.1365 169.284C16.7631 167.978 16.2183 166.778 15.8873 165.454C15.497 163.893 15.4307 162.233 15.1006 160.649C14.7869 159.143 14.2064 157.715 13.9482 156.19C13.6583 154.477 13.4037 152.752 13.1853 151.016C12.8589 148.421 12.876 145.671 12.7137 143.028C12.5583 140.496 12.2168 138.074 12.2168 135.502C12.2168 133.291 12.5986 129.766 12.7137 127.583C12.8495 125.012 12.7407 123.789 13.0319 121.261C13.391 118.145 13.5303 115.11 14.1178 112.069C14.5287 109.942 15.3306 107.788 15.8495 105.702C16.3991 103.492 16.6096 101.172 17.2769 99.0108C17.8557 97.1366 18.877 95.415 19.5417 93.5802C20.4492 91.0752 21.4357 88.6081 22.4983 86.1818C22.8941 85.2779 22.7572 84.3883 23.174 83.4959C24.4694 80.7221 25.0656 80.468 26.6841 77.8095C27.7455 76.0661 28.4665 73.3853 29.8433 70.9998C30.8419 69.2693 32.5143 67.7584 33.324 66.5632C34.988 64.1071 37.2776 61.7414 39.11 59.4163C40.378 57.8075 41.1459 56.204 42.491 54.6613C44.3488 52.5308 45.7467 50.4623 47.745 48.4647C49.3787 46.8316 51.5901 45.2467 53.313 43.7072C55.1671 42.0505 56.7442 41.2327 58.6966 39.6893C60.2694 38.446 62.2006 36.4567 63.8342 35.29C65.3764 34.1885 66.9451 33.1217 68.5391 32.0908C70.664 30.7166 71.578 30.403 73.7903 29.1589C75.5707 28.1576 77.4824 26.6464 79.6873 25.4381C80.8976 24.7749 82.4894 24.299 83.5114 23.8244C84.991 23.1374 86.4864 22.4789 87.9971 21.8497C90.2937 20.8932 91.9952 20.7812 94.3597 19.9623C96.3393 19.2767 97.9997 18.1515 100.187 17.3648C102.225 16.6313 104.789 16.2287 106.712 15.7716C108.819 15.2707 111.518 14.3158 113.666 13.9249C116.317 13.4422 118.426 13.5526 121.133 13.2427C123.381 12.9855 125.564 12.5728 127.846 12.4383C130.279 12.295 132.812 12.4383 135.281 12.4383C138.611 12.4383 141.011 12.542 144.274 12.8016C146.254 12.9591 149.121 13.1921 151.074 13.4423C152.726 13.6539 153.876 14.21 155.506 14.4865C157.151 14.7653 159.277 14.7652 160.899 15.1086C163.646 15.6902 165.468 16.3226 168.143 17.084C170.528 17.7627 173.774 18.5524 176.098 19.3691C177.603 19.898 179.372 20.0792 180.85 20.6643C183.112 21.5602 185.064 22.8974 187.258 23.9213C189.895 25.1516 191.587 25.7854 194.118 27.1932C195.755 28.1039 198.263 29.7382 199.854 30.7203C201.817 31.9325 202.621 32.5452 204.508 33.8625C206.261 35.0856 209.102 37.0063 210.786 38.3167C212.929 39.984 214.837 40.9056 216.864 42.708C218.322 44.005 219.927 46.151 221.321 47.515C222.847 49.0073 224.334 50.539 225.781 52.1083C227.165 53.6098 227.84 54.9689 229.149 56.538C230.176 57.769 231.852 59.1972 232.831 60.4683C233.855 61.7971 234.849 62.3277 235.819 63.6987C236.664 64.8934 237.224 65.9304 237.793 67.0351C238.249 67.923 239.159 69.5065 239.777 70.5987C240.479 71.8404 241.2 72.5851 242.067 74.0078C243.042 75.6067 243.712 77.2316 244.413 78.5717C245.503 80.6573 246.206 82.8773 247.178 85.031C247.624 86.0181 248.386 86.9129 248.806 87.9136C249.636 89.8913 250.415 91.8952 251.143 93.9237C251.817 95.8006 252.019 96.8268 252.603 98.7446C253.214 100.752 254.202 103.653 254.712 105.702C255.097 107.251 255.629 108.509 255.955 110.081C256.247 111.491 256.34 113.212 256.583 114.639C256.841 116.151 257.072 117.673 257.275 119.204C257.502 120.921 257.445 122.483 257.601 124.221C257.777 126.186 258.155 128.33 258.237 130.32C258.309 132.039 258.344 133.766 258.344 135.502Z" fill="#FFFBFA" stroke="#948275" stroke-width="6.78905" mask="url(#path-2-inside-2_332_709)"/>
<mask id="path-3-inside-3_332_709" fill="white">
<path d="M255.177 135.5C255.177 137.291 255.284 139.281 255.177 141.017C255.042 143.199 254.67 145.119 254.452 147.312C254.253 149.326 254.137 151.488 253.839 153.472C253.465 155.963 252.901 158.487 252.493 160.85C252.05 163.415 251.75 165.814 251.008 168.392C250.707 169.439 249.916 170.87 249.603 172.003C249.068 173.941 248.503 175.921 247.861 177.655C247.266 179.264 246.545 180.288 245.884 181.863C245.455 182.886 245.289 184.426 244.833 185.434C244.105 187.041 243.066 188.103 242.27 189.672C241.343 191.498 240.148 193.163 239.132 194.935C238.142 196.662 237.332 198.497 236.259 200.169C235.419 201.477 234.736 203.222 233.847 204.495C232.59 206.297 231.102 207.609 229.75 209.337C229.033 210.253 227.702 211.498 226.959 212.392C224.976 214.78 223.504 216.749 221.345 218.975C220.326 220.025 219.465 221.594 218.409 222.606C216.865 224.085 215.106 224.987 213.484 226.383C212.599 227.146 211.834 228.104 210.927 228.841C209.658 229.87 208.237 230.666 206.926 231.644C206.028 232.315 205.313 233.064 204.395 233.71C203.226 234.532 201.848 235.244 200.65 236.025C198.768 237.251 197.203 238.526 195.25 239.648C193.709 240.533 191.792 241.284 190.209 242.102C188.671 242.896 186.791 243.432 185.215 244.161C183.112 245.133 181.299 246.271 179.132 247.123C178.29 247.454 176.744 247.767 175.892 248.08C173.747 248.867 172.272 249.604 170.071 250.27C167.855 250.941 165.612 251.55 163.343 252.094C161.773 252.47 160.325 253.25 158.731 253.564C157.202 253.866 155.529 253.704 153.979 253.946C152.871 254.12 149.339 254.428 148.221 254.571C144.941 254.991 144.038 255.127 140.68 255.276C138.891 255.356 135.957 255.158 134.148 255.158C131.594 255.158 130.193 255.316 127.679 255.158C125.485 255.021 123.307 254.825 121.147 254.571C119.093 254.33 117.338 253.908 115.317 253.564C113.165 253.199 110.452 253.154 108.341 252.675C105.902 252.122 103.404 251.273 100.954 250.418C99.2471 249.823 97.8614 248.991 96.2346 248.435C94.5355 247.854 93.1019 247.78 91.4382 247.126C89.8949 246.52 88.3672 245.882 86.856 245.214C85.4098 244.575 83.4221 243.747 82.0767 242.963C80.5512 242.074 79.6735 241.22 78.1098 240.364C75.4131 238.888 72.4789 237.697 69.9131 236.025C68.9337 235.387 68.0574 234.327 67.0981 233.661C65.2577 232.384 63.1382 231.453 61.3528 230.173C60.1632 229.321 59.0963 228.34 58.0322 227.336C57.3168 226.662 56.5623 225.707 55.8128 225.044C55.2395 224.536 54.7115 224.293 54.1481 223.775C52.4964 222.256 50.469 220.701 48.9048 219.093C47.8819 218.041 47.2965 216.961 46.3125 215.873C45.3905 214.853 44.7988 213.715 43.912 212.664C42.9626 211.539 41.7207 210.497 40.8126 209.337C39.9456 208.229 38.5164 205.868 37.688 204.73C36.7163 203.395 36.3529 203.276 35.4359 201.9C34.5638 200.591 33.79 198.756 32.9687 197.412C31.8236 195.538 30.6554 194.138 29.6123 192.198C28.9202 190.911 28.4849 189.356 27.839 188.042C27.1076 186.553 26.1722 185.299 25.5015 183.776C24.5436 181.601 23.6762 179.202 22.8461 176.961C22.3567 175.64 21.8621 174.499 21.4183 173.156C20.9124 171.626 20.6239 169.969 20.1787 168.412C19.8149 167.139 19.2841 165.97 18.9617 164.681C18.5814 163.16 18.5168 161.542 18.1952 159.999C17.8896 158.533 17.324 157.141 17.0725 155.655C16.79 153.987 16.542 152.306 16.3292 150.614C16.0112 148.086 16.0278 145.407 15.8698 142.832C15.7183 140.365 15.3856 138.005 15.3856 135.5C15.3856 133.346 15.7576 129.911 15.8698 127.785C16.002 125.28 15.896 124.088 16.1797 121.626C16.5296 118.589 16.6653 115.632 17.2377 112.67C17.638 110.597 18.4192 108.5 18.9248 106.467C19.4603 104.314 19.6653 102.053 20.3155 99.948C20.8793 98.122 21.8743 96.4448 22.5219 94.6572C23.4061 92.2168 24.3672 89.8131 25.4024 87.4493C25.788 86.5687 25.6547 85.702 26.0607 84.8326C27.3228 82.1302 27.9036 81.8826 29.4805 79.2925C30.5146 77.594 31.217 74.9823 32.5583 72.6581C33.5313 70.9722 35.1606 69.5002 35.9494 68.3358C37.5706 65.9429 39.8013 63.6381 41.5865 61.3729C42.8218 59.8054 43.57 58.2432 44.8805 56.7403C46.6904 54.6646 48.0523 52.6494 49.9992 50.7032C51.5908 49.1121 53.7453 47.5681 55.4239 46.0681C57.2302 44.4541 58.7667 43.6574 60.6689 42.1537C62.2012 40.9424 64.0827 39.0044 65.6742 37.8677C67.1767 36.7945 68.705 35.7552 70.258 34.7509C72.3281 33.412 73.2187 33.1064 75.3739 31.8944C77.1086 30.9189 78.971 29.4466 81.1192 28.2694C82.2983 27.6233 83.8491 27.1596 84.8448 26.6972C86.2863 26.0279 87.7432 25.3864 89.2151 24.7734C91.4525 23.8415 93.1103 23.7324 95.4139 22.9346C97.3425 22.2666 98.9601 21.1704 101.091 20.4039C103.077 19.6894 105.574 19.2971 107.448 18.8517C109.501 18.3637 112.13 17.4335 114.223 17.0525C116.805 16.5823 118.861 16.6898 121.498 16.3879C123.688 16.1373 125.815 15.7353 128.039 15.6043C130.408 15.4647 132.877 15.6043 135.281 15.6043C138.526 15.6043 140.864 15.7053 144.043 15.9582C145.973 16.1117 148.765 16.3386 150.668 16.5824C152.277 16.7886 153.398 17.3303 154.986 17.5997C156.589 17.8714 158.66 17.8712 160.24 18.2059C162.916 18.7724 164.691 19.3885 167.298 20.1303C169.621 20.7916 172.784 21.5609 175.048 22.3566C176.514 22.8719 178.238 23.0484 179.677 23.6185C181.881 24.4914 183.783 25.7941 185.921 26.7916C188.489 27.9903 190.138 28.6078 192.604 29.9793C194.199 30.8666 196.643 32.4587 198.192 33.4157C200.104 34.5966 200.888 35.1935 202.727 36.4769C204.434 37.6686 207.202 39.5398 208.843 40.8165C210.931 42.4408 212.79 43.3387 214.764 45.0947C216.185 46.3583 217.748 48.4491 219.107 49.778C220.593 51.2318 222.042 52.7241 223.452 54.253C224.8 55.7158 225.458 57.04 226.733 58.5687C227.734 59.768 229.367 61.1594 230.321 62.3978C231.318 63.6924 232.286 64.2093 233.231 65.545C234.054 66.7089 234.601 67.7193 235.154 68.7956C235.599 69.6605 236.485 71.2033 237.087 72.2674C237.772 73.4771 238.474 74.2027 239.319 75.5887C240.268 77.1465 240.921 78.7295 241.604 80.0351C242.666 82.067 243.351 84.2299 244.298 86.3282C244.732 87.2899 245.474 88.1615 245.884 89.1365C246.692 91.0633 247.452 93.0156 248.161 94.9919C248.818 96.8204 249.014 97.8203 249.583 99.6887C250.178 101.644 251.141 104.47 251.638 106.467C252.013 107.977 252.531 109.202 252.849 110.733C253.134 112.107 253.224 113.784 253.461 115.174C253.713 116.647 253.937 118.13 254.135 119.622C254.356 121.294 254.301 122.816 254.452 124.51C254.624 126.424 254.992 128.513 255.073 130.451C255.142 132.126 255.177 133.809 255.177 135.5Z"/>
</mask>
<path d="M255.177 135.5C255.177 137.291 255.284 139.281 255.177 141.017C255.042 143.199 254.67 145.119 254.452 147.312C254.253 149.326 254.137 151.488 253.839 153.472C253.465 155.963 252.901 158.487 252.493 160.85C252.05 163.415 251.75 165.814 251.008 168.392C250.707 169.439 249.916 170.87 249.603 172.003C249.068 173.941 248.503 175.921 247.861 177.655C247.266 179.264 246.545 180.288 245.884 181.863C245.455 182.886 245.289 184.426 244.833 185.434C244.105 187.041 243.066 188.103 242.27 189.672C241.343 191.498 240.148 193.163 239.132 194.935C238.142 196.662 237.332 198.497 236.259 200.169C235.419 201.477 234.736 203.222 233.847 204.495C232.59 206.297 231.102 207.609 229.75 209.337C229.033 210.253 227.702 211.498 226.959 212.392C224.976 214.78 223.504 216.749 221.345 218.975C220.326 220.025 219.465 221.594 218.409 222.606C216.865 224.085 215.106 224.987 213.484 226.383C212.599 227.146 211.834 228.104 210.927 228.841C209.658 229.87 208.237 230.666 206.926 231.644C206.028 232.315 205.313 233.064 204.395 233.71C203.226 234.532 201.848 235.244 200.65 236.025C198.768 237.251 197.203 238.526 195.25 239.648C193.709 240.533 191.792 241.284 190.209 242.102C188.671 242.896 186.791 243.432 185.215 244.161C183.112 245.133 181.299 246.271 179.132 247.123C178.29 247.454 176.744 247.767 175.892 248.08C173.747 248.867 172.272 249.604 170.071 250.27C167.855 250.941 165.612 251.55 163.343 252.094C161.773 252.47 160.325 253.25 158.731 253.564C157.202 253.866 155.529 253.704 153.979 253.946C152.871 254.12 149.339 254.428 148.221 254.571C144.941 254.991 144.038 255.127 140.68 255.276C138.891 255.356 135.957 255.158 134.148 255.158C131.594 255.158 130.193 255.316 127.679 255.158C125.485 255.021 123.307 254.825 121.147 254.571C119.093 254.33 117.338 253.908 115.317 253.564C113.165 253.199 110.452 253.154 108.341 252.675C105.902 252.122 103.404 251.273 100.954 250.418C99.2471 249.823 97.8614 248.991 96.2346 248.435C94.5355 247.854 93.1019 247.78 91.4382 247.126C89.8949 246.52 88.3672 245.882 86.856 245.214C85.4098 244.575 83.4221 243.747 82.0767 242.963C80.5512 242.074 79.6735 241.22 78.1098 240.364C75.4131 238.888 72.4789 237.697 69.9131 236.025C68.9337 235.387 68.0574 234.327 67.0981 233.661C65.2577 232.384 63.1382 231.453 61.3528 230.173C60.1632 229.321 59.0963 228.34 58.0322 227.336C57.3168 226.662 56.5623 225.707 55.8128 225.044C55.2395 224.536 54.7115 224.293 54.1481 223.775C52.4964 222.256 50.469 220.701 48.9048 219.093C47.8819 218.041 47.2965 216.961 46.3125 215.873C45.3905 214.853 44.7988 213.715 43.912 212.664C42.9626 211.539 41.7207 210.497 40.8126 209.337C39.9456 208.229 38.5164 205.868 37.688 204.73C36.7163 203.395 36.3529 203.276 35.4359 201.9C34.5638 200.591 33.79 198.756 32.9687 197.412C31.8236 195.538 30.6554 194.138 29.6123 192.198C28.9202 190.911 28.4849 189.356 27.839 188.042C27.1076 186.553 26.1722 185.299 25.5015 183.776C24.5436 181.601 23.6762 179.202 22.8461 176.961C22.3567 175.64 21.8621 174.499 21.4183 173.156C20.9124 171.626 20.6239 169.969 20.1787 168.412C19.8149 167.139 19.2841 165.97 18.9617 164.681C18.5814 163.16 18.5168 161.542 18.1952 159.999C17.8896 158.533 17.324 157.141 17.0725 155.655C16.79 153.987 16.542 152.306 16.3292 150.614C16.0112 148.086 16.0278 145.407 15.8698 142.832C15.7183 140.365 15.3856 138.005 15.3856 135.5C15.3856 133.346 15.7576 129.911 15.8698 127.785C16.002 125.28 15.896 124.088 16.1797 121.626C16.5296 118.589 16.6653 115.632 17.2377 112.67C17.638 110.597 18.4192 108.5 18.9248 106.467C19.4603 104.314 19.6653 102.053 20.3155 99.948C20.8793 98.122 21.8743 96.4448 22.5219 94.6572C23.4061 92.2168 24.3672 89.8131 25.4024 87.4493C25.788 86.5687 25.6547 85.702 26.0607 84.8326C27.3228 82.1302 27.9036 81.8826 29.4805 79.2925C30.5146 77.594 31.217 74.9823 32.5583 72.6581C33.5313 70.9722 35.1606 69.5002 35.9494 68.3358C37.5706 65.9429 39.8013 63.6381 41.5865 61.3729C42.8218 59.8054 43.57 58.2432 44.8805 56.7403C46.6904 54.6646 48.0523 52.6494 49.9992 50.7032C51.5908 49.1121 53.7453 47.5681 55.4239 46.0681C57.2302 44.4541 58.7667 43.6574 60.6689 42.1537C62.2012 40.9424 64.0827 39.0044 65.6742 37.8677C67.1767 36.7945 68.705 35.7552 70.258 34.7509C72.3281 33.412 73.2187 33.1064 75.3739 31.8944C77.1086 30.9189 78.971 29.4466 81.1192 28.2694C82.2983 27.6233 83.8491 27.1596 84.8448 26.6972C86.2863 26.0279 87.7432 25.3864 89.2151 24.7734C91.4525 23.8415 93.1103 23.7324 95.4139 22.9346C97.3425 22.2666 98.9601 21.1704 101.091 20.4039C103.077 19.6894 105.574 19.2971 107.448 18.8517C109.501 18.3637 112.13 17.4335 114.223 17.0525C116.805 16.5823 118.861 16.6898 121.498 16.3879C123.688 16.1373 125.815 15.7353 128.039 15.6043C130.408 15.4647 132.877 15.6043 135.281 15.6043C138.526 15.6043 140.864 15.7053 144.043 15.9582C145.973 16.1117 148.765 16.3386 150.668 16.5824C152.277 16.7886 153.398 17.3303 154.986 17.5997C156.589 17.8714 158.66 17.8712 160.24 18.2059C162.916 18.7724 164.691 19.3885 167.298 20.1303C169.621 20.7916 172.784 21.5609 175.048 22.3566C176.514 22.8719 178.238 23.0484 179.677 23.6185C181.881 24.4914 183.783 25.7941 185.921 26.7916C188.489 27.9903 190.138 28.6078 192.604 29.9793C194.199 30.8666 196.643 32.4587 198.192 33.4157C200.104 34.5966 200.888 35.1935 202.727 36.4769C204.434 37.6686 207.202 39.5398 208.843 40.8165C210.931 42.4408 212.79 43.3387 214.764 45.0947C216.185 46.3583 217.748 48.4491 219.107 49.778C220.593 51.2318 222.042 52.7241 223.452 54.253C224.8 55.7158 225.458 57.04 226.733 58.5687C227.734 59.768 229.367 61.1594 230.321 62.3978C231.318 63.6924 232.286 64.2093 233.231 65.545C234.054 66.7089 234.601 67.7193 235.154 68.7956C235.599 69.6605 236.485 71.2033 237.087 72.2674C237.772 73.4771 238.474 74.2027 239.319 75.5887C240.268 77.1465 240.921 78.7295 241.604 80.0351C242.666 82.067 243.351 84.2299 244.298 86.3282C244.732 87.2899 245.474 88.1615 245.884 89.1365C246.692 91.0633 247.452 93.0156 248.161 94.9919C248.818 96.8204 249.014 97.8203 249.583 99.6887C250.178 101.644 251.141 104.47 251.638 106.467C252.013 107.977 252.531 109.202 252.849 110.733C253.134 112.107 253.224 113.784 253.461 115.174C253.713 116.647 253.937 118.13 254.135 119.622C254.356 121.294 254.301 122.816 254.452 124.51C254.624 126.424 254.992 128.513 255.073 130.451C255.142 132.126 255.177 133.809 255.177 135.5Z" fill="#FFFBFA" stroke="#3D3131" stroke-width="3.39453" mask="url(#path-3-inside-3_332_709)"/>
</svg>
