<svg width="270" height="271" viewBox="0 0 270 271" fill="none" xmlns="http://www.w3.org/2000/svg">
<mask id="path-1-inside-1_384_247" fill="white">
<path d="M266.247 135.507C266.247 137.464 266.364 139.638 266.247 141.534C266.1 143.917 265.693 146.015 265.456 148.41C265.237 150.611 265.111 152.972 264.785 155.14C264.377 157.86 263.761 160.618 263.315 163.199C262.831 166.001 262.503 168.621 261.693 171.437C261.364 172.581 260.5 174.144 260.159 175.382C259.574 177.499 258.956 179.661 258.256 181.555C257.606 183.313 256.818 184.432 256.096 186.153C255.627 187.269 255.446 188.952 254.948 190.053C254.153 191.808 253.017 192.969 252.148 194.682C251.136 196.677 249.831 198.496 248.721 200.431C247.638 202.318 246.754 204.323 245.582 206.149C244.664 207.578 243.918 209.484 242.948 210.874C241.574 212.842 239.949 214.276 238.472 216.163C237.689 217.164 236.235 218.524 235.424 219.501C233.258 222.109 231.649 224.26 229.29 226.692C228.178 227.838 227.237 229.552 226.083 230.658C224.397 232.274 222.475 233.259 220.704 234.784C219.737 235.617 218.902 236.663 217.91 237.468C216.525 238.593 214.972 239.462 213.54 240.531C212.559 241.263 211.778 242.082 210.775 242.787C209.498 243.686 207.994 244.463 206.684 245.316C204.628 246.656 202.92 248.048 200.786 249.273C199.103 250.24 197.009 251.061 195.28 251.954C193.6 252.821 191.546 253.407 189.824 254.203C187.527 255.265 185.547 256.509 183.18 257.439C182.26 257.801 180.571 258.143 179.64 258.484C177.297 259.344 175.686 260.149 173.282 260.877C170.861 261.61 168.41 262.275 165.932 262.869C164.217 263.28 162.635 264.132 160.895 264.475C159.224 264.805 157.396 264.627 155.704 264.892C154.493 265.082 150.635 265.419 149.414 265.575C145.831 266.033 144.844 266.183 141.177 266.345C139.222 266.432 136.018 266.217 134.041 266.217C131.252 266.217 129.72 266.388 126.974 266.217C124.578 266.067 122.199 265.852 119.839 265.575C117.595 265.312 115.679 264.851 113.471 264.475C111.12 264.076 108.156 264.027 105.85 263.504C103.187 262.9 100.458 261.972 97.7814 261.039C95.9169 260.388 94.4033 259.479 92.6262 258.872C90.7703 258.238 89.2042 258.157 87.3869 257.443C85.7011 256.78 84.0323 256.083 82.3815 255.354C80.8017 254.655 78.6305 253.751 77.1609 252.895C75.4944 251.924 74.5357 250.991 72.8276 250.056C69.8818 248.444 66.6767 247.143 63.8739 245.316C62.8041 244.619 61.8468 243.461 60.7989 242.734C58.7886 241.339 56.4734 240.322 54.5231 238.924C53.2236 237.993 52.0582 236.921 50.8958 235.825C50.1143 235.088 49.2901 234.045 48.4715 233.32C47.8452 232.766 47.2684 232.501 46.653 231.935C44.8488 230.276 42.6342 228.577 40.9255 226.821C39.8082 225.672 39.1687 224.492 38.0938 223.303C37.0867 222.188 36.4404 220.946 35.4716 219.798C34.4346 218.568 33.0779 217.431 32.086 216.163C31.1389 214.953 29.5777 212.375 28.6728 211.131C27.6114 209.672 27.2144 209.543 26.2127 208.039C25.2601 206.61 24.4148 204.605 23.5177 203.137C22.2669 201.09 20.9908 199.561 19.8513 197.441C19.0953 196.035 18.6198 194.338 17.9143 192.901C17.1153 191.275 16.0935 189.906 15.3608 188.242C14.3145 185.866 13.3671 183.245 12.4603 180.798C11.9257 179.355 11.3853 178.108 10.9006 176.641C10.348 174.969 10.0328 173.16 9.54651 171.459C9.14908 170.069 8.56932 168.792 8.21709 167.383C7.80167 165.722 7.73115 163.955 7.37987 162.269C7.04597 160.667 6.42818 159.147 6.15343 157.524C5.84484 155.701 5.57391 153.866 5.34149 152.018C4.99414 149.256 5.01228 146.329 4.83966 143.517C4.67424 140.822 4.31079 138.244 4.31079 135.507C4.31079 133.154 4.71709 129.403 4.83966 127.08C4.98409 124.343 4.8683 123.042 5.17825 120.352C5.56043 117.035 5.70866 113.805 6.3339 110.569C6.77117 108.305 7.62457 106.014 8.17678 103.793C8.76176 101.441 8.98574 98.9721 9.69594 96.6723C10.3119 94.6777 11.3987 92.8455 12.1061 90.8929C13.072 88.227 14.1218 85.6014 15.2526 83.0193C15.6739 82.0574 15.5282 81.1106 15.9717 80.1609C17.3504 77.209 17.9849 76.9385 19.7073 74.1092C20.8369 72.2539 21.6042 69.4009 23.0694 66.8622C24.1322 65.0206 25.912 63.4126 26.7737 62.1406C28.5445 59.5268 30.9813 57.0091 32.9314 54.5347C34.2808 52.8225 35.098 51.116 36.5295 49.4743C38.5066 47.2069 39.9943 45.0055 42.1209 42.8796C43.8595 41.1417 46.213 39.455 48.0466 37.8166C50.0197 36.0535 51.6982 35.1832 53.776 33.5406C55.4498 32.2175 57.505 30.1005 59.2436 28.8588C60.8848 27.6865 62.5542 26.5512 64.2507 25.4541C66.512 23.9917 67.4848 23.6578 69.8391 22.3338C71.7339 21.2683 73.7684 19.66 76.1149 18.3741C77.4029 17.6683 79.0969 17.1618 80.1846 16.6567C81.7592 15.9256 83.3507 15.2248 84.9584 14.5552C87.4025 13.5372 89.2134 13.4181 91.7297 12.5466C93.8365 11.8169 95.6034 10.6195 97.9308 9.78223C100.1 9.00167 102.828 8.57319 104.875 8.08667C107.117 7.55361 109.99 6.53744 112.276 6.12134C115.097 5.60766 117.342 5.72514 120.223 5.39536C122.615 5.12163 124.938 4.68245 127.367 4.53934C129.956 4.38682 132.652 4.53935 135.279 4.53935C138.823 4.53935 141.377 4.6497 144.85 4.92594C146.957 5.09358 150.008 5.34152 152.086 5.60776C153.844 5.83299 155.068 6.42479 156.804 6.71903C158.554 7.01581 160.817 7.01563 162.543 7.38116C165.466 8.00005 167.405 8.67307 170.252 9.48337C172.79 10.2057 176.245 11.0461 178.718 11.9152C180.32 12.4781 182.202 12.671 183.775 13.2937C186.182 14.2471 188.26 15.6702 190.595 16.7599C193.401 18.0692 195.202 18.7437 197.895 20.2419C199.638 21.2111 202.307 22.9503 204 23.9956C206.088 25.2856 206.944 25.9376 208.953 27.3395C210.818 28.6413 213.842 30.6853 215.634 32.0799C217.915 33.8542 219.946 34.835 222.102 36.7532C223.654 38.1335 225.362 40.4174 226.846 41.869C228.47 43.4571 230.052 45.0871 231.592 46.7573C233.065 48.3552 233.784 49.8017 235.177 51.4715C236.27 52.7816 238.053 54.3015 239.095 55.6543C240.185 57.0684 241.242 57.6331 242.274 59.0921C243.174 60.3635 243.77 61.4672 244.375 62.6429C244.861 63.5877 245.829 65.2729 246.487 66.4353C247.234 67.7567 248.002 68.5493 248.924 70.0634C249.962 71.765 250.675 73.4942 251.421 74.9204C252.581 77.14 253.329 79.5026 254.364 81.7946C254.838 82.8451 255.649 83.7973 256.096 84.8624C256.979 86.967 257.809 89.0996 258.584 91.2585C259.3 93.2559 259.516 94.3481 260.137 96.389C260.787 98.5252 261.839 101.612 262.381 103.793C262.791 105.442 263.357 106.781 263.704 108.454C264.015 109.954 264.113 111.786 264.373 113.304C264.648 114.914 264.893 116.534 265.109 118.163C265.35 119.99 265.29 121.652 265.456 123.502C265.643 125.593 266.045 127.875 266.133 129.993C266.209 131.822 266.247 133.66 266.247 135.507Z"/>
</mask>
<path d="M266.247 135.507C266.247 137.464 266.364 139.638 266.247 141.534C266.1 143.917 265.693 146.015 265.456 148.41C265.237 150.611 265.111 152.972 264.785 155.14C264.377 157.86 263.761 160.618 263.315 163.199C262.831 166.001 262.503 168.621 261.693 171.437C261.364 172.581 260.5 174.144 260.159 175.382C259.574 177.499 258.956 179.661 258.256 181.555C257.606 183.313 256.818 184.432 256.096 186.153C255.627 187.269 255.446 188.952 254.948 190.053C254.153 191.808 253.017 192.969 252.148 194.682C251.136 196.677 249.831 198.496 248.721 200.431C247.638 202.318 246.754 204.323 245.582 206.149C244.664 207.578 243.918 209.484 242.948 210.874C241.574 212.842 239.949 214.276 238.472 216.163C237.689 217.164 236.235 218.524 235.424 219.501C233.258 222.109 231.649 224.26 229.29 226.692C228.178 227.838 227.237 229.552 226.083 230.658C224.397 232.274 222.475 233.259 220.704 234.784C219.737 235.617 218.902 236.663 217.91 237.468C216.525 238.593 214.972 239.462 213.54 240.531C212.559 241.263 211.778 242.082 210.775 242.787C209.498 243.686 207.994 244.463 206.684 245.316C204.628 246.656 202.92 248.048 200.786 249.273C199.103 250.24 197.009 251.061 195.28 251.954C193.6 252.821 191.546 253.407 189.824 254.203C187.527 255.265 185.547 256.509 183.18 257.439C182.26 257.801 180.571 258.143 179.64 258.484C177.297 259.344 175.686 260.149 173.282 260.877C170.861 261.61 168.41 262.275 165.932 262.869C164.217 263.28 162.635 264.132 160.895 264.475C159.224 264.805 157.396 264.627 155.704 264.892C154.493 265.082 150.635 265.419 149.414 265.575C145.831 266.033 144.844 266.183 141.177 266.345C139.222 266.432 136.018 266.217 134.041 266.217C131.252 266.217 129.72 266.388 126.974 266.217C124.578 266.067 122.199 265.852 119.839 265.575C117.595 265.312 115.679 264.851 113.471 264.475C111.12 264.076 108.156 264.027 105.85 263.504C103.187 262.9 100.458 261.972 97.7814 261.039C95.9169 260.388 94.4033 259.479 92.6262 258.872C90.7703 258.238 89.2042 258.157 87.3869 257.443C85.7011 256.78 84.0323 256.083 82.3815 255.354C80.8017 254.655 78.6305 253.751 77.1609 252.895C75.4944 251.924 74.5357 250.991 72.8276 250.056C69.8818 248.444 66.6767 247.143 63.8739 245.316C62.8041 244.619 61.8468 243.461 60.7989 242.734C58.7886 241.339 56.4734 240.322 54.5231 238.924C53.2236 237.993 52.0582 236.921 50.8958 235.825C50.1143 235.088 49.2901 234.045 48.4715 233.32C47.8452 232.766 47.2684 232.501 46.653 231.935C44.8488 230.276 42.6342 228.577 40.9255 226.821C39.8082 225.672 39.1687 224.492 38.0938 223.303C37.0867 222.188 36.4404 220.946 35.4716 219.798C34.4346 218.568 33.0779 217.431 32.086 216.163C31.1389 214.953 29.5777 212.375 28.6728 211.131C27.6114 209.672 27.2144 209.543 26.2127 208.039C25.2601 206.61 24.4148 204.605 23.5177 203.137C22.2669 201.09 20.9908 199.561 19.8513 197.441C19.0953 196.035 18.6198 194.338 17.9143 192.901C17.1153 191.275 16.0935 189.906 15.3608 188.242C14.3145 185.866 13.3671 183.245 12.4603 180.798C11.9257 179.355 11.3853 178.108 10.9006 176.641C10.348 174.969 10.0328 173.16 9.54651 171.459C9.14908 170.069 8.56932 168.792 8.21709 167.383C7.80167 165.722 7.73115 163.955 7.37987 162.269C7.04597 160.667 6.42818 159.147 6.15343 157.524C5.84484 155.701 5.57391 153.866 5.34149 152.018C4.99414 149.256 5.01228 146.329 4.83966 143.517C4.67424 140.822 4.31079 138.244 4.31079 135.507C4.31079 133.154 4.71709 129.403 4.83966 127.08C4.98409 124.343 4.8683 123.042 5.17825 120.352C5.56043 117.035 5.70866 113.805 6.3339 110.569C6.77117 108.305 7.62457 106.014 8.17678 103.793C8.76176 101.441 8.98574 98.9721 9.69594 96.6723C10.3119 94.6777 11.3987 92.8455 12.1061 90.8929C13.072 88.227 14.1218 85.6014 15.2526 83.0193C15.6739 82.0574 15.5282 81.1106 15.9717 80.1609C17.3504 77.209 17.9849 76.9385 19.7073 74.1092C20.8369 72.2539 21.6042 69.4009 23.0694 66.8622C24.1322 65.0206 25.912 63.4126 26.7737 62.1406C28.5445 59.5268 30.9813 57.0091 32.9314 54.5347C34.2808 52.8225 35.098 51.116 36.5295 49.4743C38.5066 47.2069 39.9943 45.0055 42.1209 42.8796C43.8595 41.1417 46.213 39.455 48.0466 37.8166C50.0197 36.0535 51.6982 35.1832 53.776 33.5406C55.4498 32.2175 57.505 30.1005 59.2436 28.8588C60.8848 27.6865 62.5542 26.5512 64.2507 25.4541C66.512 23.9917 67.4848 23.6578 69.8391 22.3338C71.7339 21.2683 73.7684 19.66 76.1149 18.3741C77.4029 17.6683 79.0969 17.1618 80.1846 16.6567C81.7592 15.9256 83.3507 15.2248 84.9584 14.5552C87.4025 13.5372 89.2134 13.4181 91.7297 12.5466C93.8365 11.8169 95.6034 10.6195 97.9308 9.78223C100.1 9.00167 102.828 8.57319 104.875 8.08667C107.117 7.55361 109.99 6.53744 112.276 6.12134C115.097 5.60766 117.342 5.72514 120.223 5.39536C122.615 5.12163 124.938 4.68245 127.367 4.53934C129.956 4.38682 132.652 4.53935 135.279 4.53935C138.823 4.53935 141.377 4.6497 144.85 4.92594C146.957 5.09358 150.008 5.34152 152.086 5.60776C153.844 5.83299 155.068 6.42479 156.804 6.71903C158.554 7.01581 160.817 7.01563 162.543 7.38116C165.466 8.00005 167.405 8.67307 170.252 9.48337C172.79 10.2057 176.245 11.0461 178.718 11.9152C180.32 12.4781 182.202 12.671 183.775 13.2937C186.182 14.2471 188.26 15.6702 190.595 16.7599C193.401 18.0692 195.202 18.7437 197.895 20.2419C199.638 21.2111 202.307 22.9503 204 23.9956C206.088 25.2856 206.944 25.9376 208.953 27.3395C210.818 28.6413 213.842 30.6853 215.634 32.0799C217.915 33.8542 219.946 34.835 222.102 36.7532C223.654 38.1335 225.362 40.4174 226.846 41.869C228.47 43.4571 230.052 45.0871 231.592 46.7573C233.065 48.3552 233.784 49.8017 235.177 51.4715C236.27 52.7816 238.053 54.3015 239.095 55.6543C240.185 57.0684 241.242 57.6331 242.274 59.0921C243.174 60.3635 243.77 61.4672 244.375 62.6429C244.861 63.5877 245.829 65.2729 246.487 66.4353C247.234 67.7567 248.002 68.5493 248.924 70.0634C249.962 71.765 250.675 73.4942 251.421 74.9204C252.581 77.14 253.329 79.5026 254.364 81.7946C254.838 82.8451 255.649 83.7973 256.096 84.8624C256.979 86.967 257.809 89.0996 258.584 91.2585C259.3 93.2559 259.516 94.3481 260.137 96.389C260.787 98.5252 261.839 101.612 262.381 103.793C262.791 105.442 263.357 106.781 263.704 108.454C264.015 109.954 264.113 111.786 264.373 113.304C264.648 114.914 264.893 116.534 265.109 118.163C265.35 119.99 265.29 121.652 265.456 123.502C265.643 125.593 266.045 127.875 266.133 129.993C266.209 131.822 266.247 133.66 266.247 135.507Z" fill="#5E4942" stroke="#3D3131" stroke-width="3.39453" mask="url(#path-1-inside-1_384_247)"/>
<mask id="path-2-inside-2_384_247" fill="white">
<path d="M258.344 135.502C258.344 137.34 258.454 139.383 258.344 141.165C258.206 143.404 257.824 145.375 257.601 147.626C257.396 149.694 257.277 151.913 256.971 153.95C256.587 156.506 256.008 159.097 255.589 161.522C255.135 164.155 254.827 166.617 254.066 169.263C253.756 170.338 252.945 171.806 252.623 172.97C252.074 174.959 251.494 176.991 250.835 178.771C250.225 180.422 249.484 181.473 248.806 183.091C248.365 184.14 248.195 185.721 247.727 186.755C246.98 188.405 245.913 189.496 245.096 191.105C244.145 192.98 242.919 194.689 241.876 196.507C240.859 198.28 240.027 200.164 238.926 201.88C238.064 203.223 237.363 205.014 236.451 206.32C235.16 208.17 233.634 209.517 232.246 211.29C231.51 212.23 230.143 213.508 229.381 214.426C227.346 216.877 225.835 218.898 223.618 221.183C222.573 222.261 221.688 223.871 220.604 224.91C219.02 226.428 217.214 227.354 215.55 228.787C214.641 229.569 213.857 230.553 212.925 231.309C211.623 232.366 210.164 233.183 208.819 234.187C207.896 234.875 207.163 235.644 206.22 236.307C205.021 237.151 203.607 237.882 202.376 238.684C200.444 239.942 198.839 241.251 196.834 242.402C195.253 243.31 193.285 244.082 191.66 244.921C190.081 245.736 188.151 246.286 186.534 247.034C184.375 248.032 182.514 249.201 180.29 250.075C179.426 250.415 177.839 250.736 176.965 251.057C174.763 251.865 173.249 252.621 170.99 253.305C168.715 253.994 166.412 254.618 164.084 255.177C162.472 255.563 160.986 256.364 159.35 256.686C157.781 256.996 156.063 256.829 154.473 257.078C153.335 257.256 149.71 257.573 148.562 257.72C145.196 258.15 144.268 258.291 140.822 258.443C138.985 258.525 135.975 258.323 134.117 258.323C131.496 258.323 130.057 258.484 127.477 258.323C125.225 258.182 122.99 257.98 120.773 257.72C118.664 257.472 116.863 257.039 114.789 256.686C112.58 256.311 109.795 256.266 107.628 255.774C105.125 255.206 102.561 254.334 100.046 253.457C98.2942 252.846 96.872 251.992 95.2021 251.421C93.4582 250.825 91.9867 250.749 90.279 250.078C88.6949 249.456 87.1269 248.801 85.5757 248.115C84.0913 247.459 82.0511 246.61 80.6701 245.805C79.1043 244.893 78.2034 244.016 76.5984 243.137C73.8304 241.623 70.8187 240.4 68.1851 238.684C67.1799 238.029 66.2804 236.941 65.2957 236.257C63.4067 234.947 61.2312 233.99 59.3987 232.677C58.1776 231.802 57.0825 230.795 55.9903 229.765C55.256 229.073 54.4815 228.093 53.7122 227.412C53.1238 226.891 52.5818 226.642 52.0035 226.11C50.3082 224.551 48.2273 222.955 46.6217 221.304C45.5718 220.225 44.9709 219.116 43.9609 217.999C43.0146 216.952 42.4072 215.784 41.4969 214.705C40.5225 213.55 39.2477 212.481 38.3156 211.29C37.4257 210.153 35.9587 207.73 35.1085 206.562C34.1112 205.191 33.7381 205.069 32.7969 203.657C31.9018 202.313 31.1075 200.43 30.2645 199.05C29.0892 197.126 27.8901 195.689 26.8194 193.698C26.109 192.377 25.6622 190.782 24.9993 189.432C24.2485 187.904 23.2884 186.617 22.5999 185.054C21.6167 182.821 20.7265 180.359 19.8744 178.059C19.3721 176.703 18.8644 175.531 18.4089 174.153C17.8896 172.582 17.5935 170.882 17.1365 169.284C16.7631 167.978 16.2183 166.778 15.8873 165.454C15.497 163.893 15.4307 162.233 15.1006 160.649C14.7869 159.143 14.2064 157.715 13.9482 156.19C13.6583 154.477 13.4037 152.752 13.1853 151.016C12.8589 148.421 12.876 145.671 12.7137 143.028C12.5583 140.496 12.2168 138.074 12.2168 135.502C12.2168 133.291 12.5986 129.766 12.7137 127.583C12.8495 125.012 12.7407 123.789 13.0319 121.261C13.391 118.145 13.5303 115.11 14.1178 112.069C14.5287 109.942 15.3306 107.788 15.8495 105.702C16.3991 103.492 16.6096 101.172 17.2769 99.0108C17.8557 97.1366 18.877 95.415 19.5417 93.5802C20.4492 91.0752 21.4357 88.6081 22.4983 86.1818C22.8941 85.2779 22.7572 84.3883 23.174 83.4959C24.4694 80.7221 25.0656 80.468 26.6841 77.8095C27.7455 76.0661 28.4665 73.3853 29.8433 70.9998C30.8419 69.2693 32.5143 67.7584 33.324 66.5632C34.988 64.1071 37.2776 61.7414 39.11 59.4163C40.378 57.8075 41.1459 56.204 42.491 54.6613C44.3488 52.5308 45.7467 50.4623 47.745 48.4647C49.3787 46.8316 51.5901 45.2467 53.313 43.7072C55.1671 42.0505 56.7442 41.2327 58.6966 39.6893C60.2694 38.446 62.2006 36.4567 63.8342 35.29C65.3764 34.1885 66.9451 33.1217 68.5391 32.0908C70.664 30.7166 71.578 30.403 73.7903 29.1589C75.5707 28.1576 77.4824 26.6464 79.6873 25.4381C80.8976 24.7749 82.4894 24.299 83.5114 23.8244C84.991 23.1374 86.4864 22.4789 87.9971 21.8497C90.2937 20.8932 91.9952 20.7812 94.3597 19.9623C96.3393 19.2767 97.9997 18.1515 100.187 17.3648C102.225 16.6313 104.789 16.2287 106.712 15.7716C108.819 15.2707 111.518 14.3158 113.666 13.9249C116.317 13.4422 118.426 13.5526 121.133 13.2427C123.381 12.9855 125.564 12.5728 127.846 12.4383C130.279 12.295 132.812 12.4383 135.281 12.4383C138.611 12.4383 141.011 12.542 144.274 12.8016C146.254 12.9591 149.121 13.1921 151.074 13.4423C152.726 13.6539 153.876 14.21 155.506 14.4865C157.151 14.7653 159.277 14.7652 160.899 15.1086C163.646 15.6902 165.468 16.3226 168.143 17.084C170.528 17.7627 173.774 18.5524 176.098 19.3691C177.603 19.898 179.372 20.0792 180.85 20.6643C183.112 21.5602 185.064 22.8974 187.258 23.9213C189.895 25.1516 191.587 25.7854 194.118 27.1932C195.755 28.1039 198.263 29.7382 199.854 30.7203C201.817 31.9325 202.621 32.5452 204.508 33.8625C206.261 35.0856 209.102 37.0063 210.786 38.3167C212.929 39.984 214.837 40.9056 216.864 42.708C218.322 44.005 219.927 46.151 221.321 47.515C222.847 49.0073 224.334 50.539 225.781 52.1083C227.165 53.6098 227.84 54.9689 229.149 56.538C230.176 57.769 231.852 59.1972 232.831 60.4683C233.855 61.7971 234.849 62.3277 235.819 63.6987C236.664 64.8934 237.224 65.9304 237.793 67.0351C238.249 67.923 239.159 69.5065 239.777 70.5987C240.479 71.8404 241.2 72.5851 242.067 74.0078C243.042 75.6067 243.712 77.2316 244.413 78.5717C245.503 80.6573 246.206 82.8773 247.178 85.031C247.624 86.0181 248.386 86.9129 248.806 87.9136C249.636 89.8913 250.415 91.8952 251.143 93.9237C251.817 95.8006 252.019 96.8268 252.603 98.7446C253.214 100.752 254.202 103.653 254.712 105.702C255.097 107.251 255.629 108.509 255.955 110.081C256.247 111.491 256.34 113.212 256.583 114.639C256.841 116.151 257.072 117.673 257.275 119.204C257.502 120.921 257.445 122.483 257.601 124.221C257.777 126.186 258.155 128.33 258.237 130.32C258.309 132.039 258.344 133.766 258.344 135.502Z"/>
</mask>
<path d="M258.344 135.502C258.344 137.34 258.454 139.383 258.344 141.165C258.206 143.404 257.824 145.375 257.601 147.626C257.396 149.694 257.277 151.913 256.971 153.95C256.587 156.506 256.008 159.097 255.589 161.522C255.135 164.155 254.827 166.617 254.066 169.263C253.756 170.338 252.945 171.806 252.623 172.97C252.074 174.959 251.494 176.991 250.835 178.771C250.225 180.422 249.484 181.473 248.806 183.091C248.365 184.14 248.195 185.721 247.727 186.755C246.98 188.405 245.913 189.496 245.096 191.105C244.145 192.98 242.919 194.689 241.876 196.507C240.859 198.28 240.027 200.164 238.926 201.88C238.064 203.223 237.363 205.014 236.451 206.32C235.16 208.17 233.634 209.517 232.246 211.29C231.51 212.23 230.143 213.508 229.381 214.426C227.346 216.877 225.835 218.898 223.618 221.183C222.573 222.261 221.688 223.871 220.604 224.91C219.02 226.428 217.214 227.354 215.55 228.787C214.641 229.569 213.857 230.553 212.925 231.309C211.623 232.366 210.164 233.183 208.819 234.187C207.896 234.875 207.163 235.644 206.22 236.307C205.021 237.151 203.607 237.882 202.376 238.684C200.444 239.942 198.839 241.251 196.834 242.402C195.253 243.31 193.285 244.082 191.66 244.921C190.081 245.736 188.151 246.286 186.534 247.034C184.375 248.032 182.514 249.201 180.29 250.075C179.426 250.415 177.839 250.736 176.965 251.057C174.763 251.865 173.249 252.621 170.99 253.305C168.715 253.994 166.412 254.618 164.084 255.177C162.472 255.563 160.986 256.364 159.35 256.686C157.781 256.996 156.063 256.829 154.473 257.078C153.335 257.256 149.71 257.573 148.562 257.72C145.196 258.15 144.268 258.291 140.822 258.443C138.985 258.525 135.975 258.323 134.117 258.323C131.496 258.323 130.057 258.484 127.477 258.323C125.225 258.182 122.99 257.98 120.773 257.72C118.664 257.472 116.863 257.039 114.789 256.686C112.58 256.311 109.795 256.266 107.628 255.774C105.125 255.206 102.561 254.334 100.046 253.457C98.2942 252.846 96.872 251.992 95.2021 251.421C93.4582 250.825 91.9867 250.749 90.279 250.078C88.6949 249.456 87.1269 248.801 85.5757 248.115C84.0913 247.459 82.0511 246.61 80.6701 245.805C79.1043 244.893 78.2034 244.016 76.5984 243.137C73.8304 241.623 70.8187 240.4 68.1851 238.684C67.1799 238.029 66.2804 236.941 65.2957 236.257C63.4067 234.947 61.2312 233.99 59.3987 232.677C58.1776 231.802 57.0825 230.795 55.9903 229.765C55.256 229.073 54.4815 228.093 53.7122 227.412C53.1238 226.891 52.5818 226.642 52.0035 226.11C50.3082 224.551 48.2273 222.955 46.6217 221.304C45.5718 220.225 44.9709 219.116 43.9609 217.999C43.0146 216.952 42.4072 215.784 41.4969 214.705C40.5225 213.55 39.2477 212.481 38.3156 211.29C37.4257 210.153 35.9587 207.73 35.1085 206.562C34.1112 205.191 33.7381 205.069 32.7969 203.657C31.9018 202.313 31.1075 200.43 30.2645 199.05C29.0892 197.126 27.8901 195.689 26.8194 193.698C26.109 192.377 25.6622 190.782 24.9993 189.432C24.2485 187.904 23.2884 186.617 22.5999 185.054C21.6167 182.821 20.7265 180.359 19.8744 178.059C19.3721 176.703 18.8644 175.531 18.4089 174.153C17.8896 172.582 17.5935 170.882 17.1365 169.284C16.7631 167.978 16.2183 166.778 15.8873 165.454C15.497 163.893 15.4307 162.233 15.1006 160.649C14.7869 159.143 14.2064 157.715 13.9482 156.19C13.6583 154.477 13.4037 152.752 13.1853 151.016C12.8589 148.421 12.876 145.671 12.7137 143.028C12.5583 140.496 12.2168 138.074 12.2168 135.502C12.2168 133.291 12.5986 129.766 12.7137 127.583C12.8495 125.012 12.7407 123.789 13.0319 121.261C13.391 118.145 13.5303 115.11 14.1178 112.069C14.5287 109.942 15.3306 107.788 15.8495 105.702C16.3991 103.492 16.6096 101.172 17.2769 99.0108C17.8557 97.1366 18.877 95.415 19.5417 93.5802C20.4492 91.0752 21.4357 88.6081 22.4983 86.1818C22.8941 85.2779 22.7572 84.3883 23.174 83.4959C24.4694 80.7221 25.0656 80.468 26.6841 77.8095C27.7455 76.0661 28.4665 73.3853 29.8433 70.9998C30.8419 69.2693 32.5143 67.7584 33.324 66.5632C34.988 64.1071 37.2776 61.7414 39.11 59.4163C40.378 57.8075 41.1459 56.204 42.491 54.6613C44.3488 52.5308 45.7467 50.4623 47.745 48.4647C49.3787 46.8316 51.5901 45.2467 53.313 43.7072C55.1671 42.0505 56.7442 41.2327 58.6966 39.6893C60.2694 38.446 62.2006 36.4567 63.8342 35.29C65.3764 34.1885 66.9451 33.1217 68.5391 32.0908C70.664 30.7166 71.578 30.403 73.7903 29.1589C75.5707 28.1576 77.4824 26.6464 79.6873 25.4381C80.8976 24.7749 82.4894 24.299 83.5114 23.8244C84.991 23.1374 86.4864 22.4789 87.9971 21.8497C90.2937 20.8932 91.9952 20.7812 94.3597 19.9623C96.3393 19.2767 97.9997 18.1515 100.187 17.3648C102.225 16.6313 104.789 16.2287 106.712 15.7716C108.819 15.2707 111.518 14.3158 113.666 13.9249C116.317 13.4422 118.426 13.5526 121.133 13.2427C123.381 12.9855 125.564 12.5728 127.846 12.4383C130.279 12.295 132.812 12.4383 135.281 12.4383C138.611 12.4383 141.011 12.542 144.274 12.8016C146.254 12.9591 149.121 13.1921 151.074 13.4423C152.726 13.6539 153.876 14.21 155.506 14.4865C157.151 14.7653 159.277 14.7652 160.899 15.1086C163.646 15.6902 165.468 16.3226 168.143 17.084C170.528 17.7627 173.774 18.5524 176.098 19.3691C177.603 19.898 179.372 20.0792 180.85 20.6643C183.112 21.5602 185.064 22.8974 187.258 23.9213C189.895 25.1516 191.587 25.7854 194.118 27.1932C195.755 28.1039 198.263 29.7382 199.854 30.7203C201.817 31.9325 202.621 32.5452 204.508 33.8625C206.261 35.0856 209.102 37.0063 210.786 38.3167C212.929 39.984 214.837 40.9056 216.864 42.708C218.322 44.005 219.927 46.151 221.321 47.515C222.847 49.0073 224.334 50.539 225.781 52.1083C227.165 53.6098 227.84 54.9689 229.149 56.538C230.176 57.769 231.852 59.1972 232.831 60.4683C233.855 61.7971 234.849 62.3277 235.819 63.6987C236.664 64.8934 237.224 65.9304 237.793 67.0351C238.249 67.923 239.159 69.5065 239.777 70.5987C240.479 71.8404 241.2 72.5851 242.067 74.0078C243.042 75.6067 243.712 77.2316 244.413 78.5717C245.503 80.6573 246.206 82.8773 247.178 85.031C247.624 86.0181 248.386 86.9129 248.806 87.9136C249.636 89.8913 250.415 91.8952 251.143 93.9237C251.817 95.8006 252.019 96.8268 252.603 98.7446C253.214 100.752 254.202 103.653 254.712 105.702C255.097 107.251 255.629 108.509 255.955 110.081C256.247 111.491 256.34 113.212 256.583 114.639C256.841 116.151 257.072 117.673 257.275 119.204C257.502 120.921 257.445 122.483 257.601 124.221C257.777 126.186 258.155 128.33 258.237 130.32C258.309 132.039 258.344 133.766 258.344 135.502Z" fill="#FFFBFA" stroke="#948275" stroke-width="6.78905" mask="url(#path-2-inside-2_384_247)"/>
<mask id="path-3-inside-3_384_247" fill="white">
<path d="M255.177 135.5C255.177 137.291 255.284 139.281 255.177 141.017C255.042 143.199 254.67 145.119 254.452 147.312C254.253 149.326 254.137 151.488 253.839 153.472C253.465 155.963 252.901 158.487 252.493 160.85C252.05 163.415 251.75 165.814 251.008 168.392C250.707 169.439 249.916 170.87 249.603 172.003C249.068 173.941 248.503 175.921 247.861 177.655C247.266 179.264 246.545 180.288 245.884 181.863C245.455 182.886 245.289 184.426 244.833 185.434C244.105 187.041 243.066 188.103 242.27 189.672C241.343 191.498 240.148 193.163 239.132 194.935C238.142 196.662 237.332 198.497 236.259 200.169C235.419 201.477 234.736 203.222 233.847 204.495C232.59 206.297 231.102 207.609 229.75 209.337C229.033 210.253 227.702 211.498 226.959 212.392C224.976 214.78 223.504 216.749 221.345 218.975C220.326 220.025 219.465 221.594 218.409 222.606C216.865 224.085 215.106 224.987 213.484 226.383C212.599 227.146 211.834 228.104 210.927 228.841C209.658 229.87 208.237 230.666 206.926 231.644C206.028 232.315 205.313 233.064 204.395 233.71C203.226 234.532 201.848 235.244 200.65 236.025C198.768 237.251 197.203 238.526 195.25 239.648C193.709 240.533 191.792 241.284 190.209 242.102C188.671 242.896 186.791 243.432 185.215 244.161C183.112 245.133 181.299 246.271 179.132 247.123C178.29 247.454 176.744 247.767 175.892 248.08C173.747 248.867 172.272 249.604 170.071 250.27C167.855 250.941 165.612 251.55 163.343 252.094C161.773 252.47 160.325 253.25 158.731 253.564C157.202 253.866 155.529 253.704 153.979 253.946C152.871 254.12 149.339 254.428 148.221 254.571C144.941 254.991 144.038 255.127 140.68 255.276C138.891 255.356 135.957 255.158 134.148 255.158C131.594 255.158 130.193 255.316 127.679 255.158C125.485 255.021 123.307 254.825 121.147 254.571C119.093 254.33 117.338 253.908 115.317 253.564C113.165 253.199 110.452 253.154 108.341 252.675C105.902 252.122 103.404 251.273 100.954 250.418C99.2471 249.823 97.8614 248.991 96.2346 248.435C94.5355 247.854 93.1019 247.78 91.4382 247.126C89.8949 246.52 88.3672 245.882 86.856 245.214C85.4098 244.575 83.4221 243.747 82.0767 242.963C80.5512 242.074 79.6735 241.22 78.1098 240.364C75.4131 238.888 72.4789 237.697 69.9131 236.025C68.9337 235.387 68.0574 234.327 67.0981 233.661C65.2577 232.384 63.1382 231.453 61.3528 230.173C60.1632 229.321 59.0963 228.34 58.0322 227.336C57.3168 226.662 56.5623 225.707 55.8128 225.044C55.2395 224.536 54.7115 224.293 54.1481 223.775C52.4964 222.256 50.469 220.701 48.9048 219.093C47.8819 218.041 47.2965 216.961 46.3125 215.873C45.3905 214.853 44.7988 213.715 43.912 212.664C42.9626 211.539 41.7207 210.497 40.8126 209.337C39.9456 208.229 38.5164 205.868 37.688 204.73C36.7163 203.395 36.3529 203.276 35.4359 201.9C34.5638 200.591 33.79 198.756 32.9687 197.412C31.8236 195.538 30.6554 194.138 29.6123 192.198C28.9202 190.911 28.4849 189.356 27.839 188.042C27.1076 186.553 26.1722 185.299 25.5015 183.776C24.5436 181.601 23.6762 179.202 22.8461 176.961C22.3567 175.64 21.8621 174.499 21.4183 173.156C20.9124 171.626 20.6239 169.969 20.1787 168.412C19.8149 167.139 19.2841 165.97 18.9617 164.681C18.5814 163.16 18.5168 161.542 18.1952 159.999C17.8896 158.533 17.324 157.141 17.0725 155.655C16.79 153.987 16.542 152.306 16.3292 150.614C16.0112 148.086 16.0278 145.407 15.8698 142.832C15.7183 140.365 15.3856 138.005 15.3856 135.5C15.3856 133.346 15.7576 129.911 15.8698 127.785C16.002 125.28 15.896 124.088 16.1797 121.626C16.5296 118.589 16.6653 115.632 17.2377 112.67C17.638 110.597 18.4192 108.5 18.9248 106.467C19.4603 104.314 19.6653 102.053 20.3155 99.948C20.8793 98.122 21.8743 96.4448 22.5219 94.6572C23.4061 92.2168 24.3672 89.8131 25.4024 87.4493C25.788 86.5687 25.6547 85.702 26.0607 84.8326C27.3228 82.1302 27.9036 81.8826 29.4805 79.2925C30.5146 77.594 31.217 74.9823 32.5583 72.6581C33.5313 70.9722 35.1606 69.5002 35.9494 68.3358C37.5706 65.9429 39.8013 63.6381 41.5865 61.3729C42.8218 59.8054 43.57 58.2432 44.8805 56.7403C46.6904 54.6646 48.0523 52.6494 49.9992 50.7032C51.5908 49.1121 53.7453 47.5681 55.4239 46.0681C57.2302 44.4541 58.7667 43.6574 60.6689 42.1537C62.2012 40.9424 64.0827 39.0044 65.6742 37.8677C67.1767 36.7945 68.705 35.7552 70.258 34.7509C72.3281 33.412 73.2187 33.1064 75.3739 31.8944C77.1086 30.9189 78.971 29.4466 81.1192 28.2694C82.2983 27.6233 83.8491 27.1596 84.8448 26.6972C86.2863 26.0279 87.7432 25.3864 89.2151 24.7734C91.4525 23.8415 93.1103 23.7324 95.4139 22.9346C97.3425 22.2666 98.9601 21.1704 101.091 20.4039C103.077 19.6894 105.574 19.2971 107.448 18.8517C109.501 18.3637 112.13 17.4335 114.223 17.0525C116.805 16.5823 118.861 16.6898 121.498 16.3879C123.688 16.1373 125.815 15.7353 128.039 15.6043C130.408 15.4647 132.877 15.6043 135.281 15.6043C138.526 15.6043 140.864 15.7053 144.043 15.9582C145.973 16.1117 148.765 16.3386 150.668 16.5824C152.277 16.7886 153.398 17.3303 154.986 17.5997C156.589 17.8714 158.66 17.8712 160.24 18.2059C162.916 18.7724 164.691 19.3885 167.298 20.1303C169.621 20.7916 172.784 21.5609 175.048 22.3566C176.514 22.8719 178.238 23.0484 179.677 23.6185C181.881 24.4914 183.783 25.7941 185.921 26.7916C188.489 27.9903 190.138 28.6078 192.604 29.9793C194.199 30.8666 196.643 32.4587 198.192 33.4157C200.104 34.5966 200.888 35.1935 202.727 36.4769C204.434 37.6686 207.202 39.5398 208.843 40.8165C210.931 42.4408 212.79 43.3387 214.764 45.0947C216.185 46.3583 217.748 48.4491 219.107 49.778C220.593 51.2318 222.042 52.7241 223.452 54.253C224.8 55.7158 225.458 57.04 226.733 58.5687C227.734 59.768 229.367 61.1594 230.321 62.3978C231.318 63.6924 232.286 64.2093 233.231 65.545C234.054 66.7089 234.601 67.7193 235.154 68.7956C235.599 69.6605 236.485 71.2033 237.087 72.2674C237.772 73.4771 238.474 74.2027 239.319 75.5887C240.268 77.1465 240.921 78.7295 241.604 80.0351C242.666 82.067 243.351 84.2299 244.298 86.3282C244.732 87.2899 245.474 88.1615 245.884 89.1365C246.692 91.0633 247.452 93.0156 248.161 94.9919C248.818 96.8204 249.014 97.8203 249.583 99.6887C250.178 101.644 251.141 104.47 251.638 106.467C252.013 107.977 252.531 109.202 252.849 110.733C253.134 112.107 253.224 113.784 253.461 115.174C253.713 116.647 253.937 118.13 254.135 119.622C254.356 121.294 254.301 122.816 254.452 124.51C254.624 126.424 254.992 128.513 255.073 130.451C255.142 132.126 255.177 133.809 255.177 135.5Z"/>
</mask>
<path d="M255.177 135.5C255.177 137.291 255.284 139.281 255.177 141.017C255.042 143.199 254.67 145.119 254.452 147.312C254.253 149.326 254.137 151.488 253.839 153.472C253.465 155.963 252.901 158.487 252.493 160.85C252.05 163.415 251.75 165.814 251.008 168.392C250.707 169.439 249.916 170.87 249.603 172.003C249.068 173.941 248.503 175.921 247.861 177.655C247.266 179.264 246.545 180.288 245.884 181.863C245.455 182.886 245.289 184.426 244.833 185.434C244.105 187.041 243.066 188.103 242.27 189.672C241.343 191.498 240.148 193.163 239.132 194.935C238.142 196.662 237.332 198.497 236.259 200.169C235.419 201.477 234.736 203.222 233.847 204.495C232.59 206.297 231.102 207.609 229.75 209.337C229.033 210.253 227.702 211.498 226.959 212.392C224.976 214.78 223.504 216.749 221.345 218.975C220.326 220.025 219.465 221.594 218.409 222.606C216.865 224.085 215.106 224.987 213.484 226.383C212.599 227.146 211.834 228.104 210.927 228.841C209.658 229.87 208.237 230.666 206.926 231.644C206.028 232.315 205.313 233.064 204.395 233.71C203.226 234.532 201.848 235.244 200.65 236.025C198.768 237.251 197.203 238.526 195.25 239.648C193.709 240.533 191.792 241.284 190.209 242.102C188.671 242.896 186.791 243.432 185.215 244.161C183.112 245.133 181.299 246.271 179.132 247.123C178.29 247.454 176.744 247.767 175.892 248.08C173.747 248.867 172.272 249.604 170.071 250.27C167.855 250.941 165.612 251.55 163.343 252.094C161.773 252.47 160.325 253.25 158.731 253.564C157.202 253.866 155.529 253.704 153.979 253.946C152.871 254.12 149.339 254.428 148.221 254.571C144.941 254.991 144.038 255.127 140.68 255.276C138.891 255.356 135.957 255.158 134.148 255.158C131.594 255.158 130.193 255.316 127.679 255.158C125.485 255.021 123.307 254.825 121.147 254.571C119.093 254.33 117.338 253.908 115.317 253.564C113.165 253.199 110.452 253.154 108.341 252.675C105.902 252.122 103.404 251.273 100.954 250.418C99.2471 249.823 97.8614 248.991 96.2346 248.435C94.5355 247.854 93.1019 247.78 91.4382 247.126C89.8949 246.52 88.3672 245.882 86.856 245.214C85.4098 244.575 83.4221 243.747 82.0767 242.963C80.5512 242.074 79.6735 241.22 78.1098 240.364C75.4131 238.888 72.4789 237.697 69.9131 236.025C68.9337 235.387 68.0574 234.327 67.0981 233.661C65.2577 232.384 63.1382 231.453 61.3528 230.173C60.1632 229.321 59.0963 228.34 58.0322 227.336C57.3168 226.662 56.5623 225.707 55.8128 225.044C55.2395 224.536 54.7115 224.293 54.1481 223.775C52.4964 222.256 50.469 220.701 48.9048 219.093C47.8819 218.041 47.2965 216.961 46.3125 215.873C45.3905 214.853 44.7988 213.715 43.912 212.664C42.9626 211.539 41.7207 210.497 40.8126 209.337C39.9456 208.229 38.5164 205.868 37.688 204.73C36.7163 203.395 36.3529 203.276 35.4359 201.9C34.5638 200.591 33.79 198.756 32.9687 197.412C31.8236 195.538 30.6554 194.138 29.6123 192.198C28.9202 190.911 28.4849 189.356 27.839 188.042C27.1076 186.553 26.1722 185.299 25.5015 183.776C24.5436 181.601 23.6762 179.202 22.8461 176.961C22.3567 175.64 21.8621 174.499 21.4183 173.156C20.9124 171.626 20.6239 169.969 20.1787 168.412C19.8149 167.139 19.2841 165.97 18.9617 164.681C18.5814 163.16 18.5168 161.542 18.1952 159.999C17.8896 158.533 17.324 157.141 17.0725 155.655C16.79 153.987 16.542 152.306 16.3292 150.614C16.0112 148.086 16.0278 145.407 15.8698 142.832C15.7183 140.365 15.3856 138.005 15.3856 135.5C15.3856 133.346 15.7576 129.911 15.8698 127.785C16.002 125.28 15.896 124.088 16.1797 121.626C16.5296 118.589 16.6653 115.632 17.2377 112.67C17.638 110.597 18.4192 108.5 18.9248 106.467C19.4603 104.314 19.6653 102.053 20.3155 99.948C20.8793 98.122 21.8743 96.4448 22.5219 94.6572C23.4061 92.2168 24.3672 89.8131 25.4024 87.4493C25.788 86.5687 25.6547 85.702 26.0607 84.8326C27.3228 82.1302 27.9036 81.8826 29.4805 79.2925C30.5146 77.594 31.217 74.9823 32.5583 72.6581C33.5313 70.9722 35.1606 69.5002 35.9494 68.3358C37.5706 65.9429 39.8013 63.6381 41.5865 61.3729C42.8218 59.8054 43.57 58.2432 44.8805 56.7403C46.6904 54.6646 48.0523 52.6494 49.9992 50.7032C51.5908 49.1121 53.7453 47.5681 55.4239 46.0681C57.2302 44.4541 58.7667 43.6574 60.6689 42.1537C62.2012 40.9424 64.0827 39.0044 65.6742 37.8677C67.1767 36.7945 68.705 35.7552 70.258 34.7509C72.3281 33.412 73.2187 33.1064 75.3739 31.8944C77.1086 30.9189 78.971 29.4466 81.1192 28.2694C82.2983 27.6233 83.8491 27.1596 84.8448 26.6972C86.2863 26.0279 87.7432 25.3864 89.2151 24.7734C91.4525 23.8415 93.1103 23.7324 95.4139 22.9346C97.3425 22.2666 98.9601 21.1704 101.091 20.4039C103.077 19.6894 105.574 19.2971 107.448 18.8517C109.501 18.3637 112.13 17.4335 114.223 17.0525C116.805 16.5823 118.861 16.6898 121.498 16.3879C123.688 16.1373 125.815 15.7353 128.039 15.6043C130.408 15.4647 132.877 15.6043 135.281 15.6043C138.526 15.6043 140.864 15.7053 144.043 15.9582C145.973 16.1117 148.765 16.3386 150.668 16.5824C152.277 16.7886 153.398 17.3303 154.986 17.5997C156.589 17.8714 158.66 17.8712 160.24 18.2059C162.916 18.7724 164.691 19.3885 167.298 20.1303C169.621 20.7916 172.784 21.5609 175.048 22.3566C176.514 22.8719 178.238 23.0484 179.677 23.6185C181.881 24.4914 183.783 25.7941 185.921 26.7916C188.489 27.9903 190.138 28.6078 192.604 29.9793C194.199 30.8666 196.643 32.4587 198.192 33.4157C200.104 34.5966 200.888 35.1935 202.727 36.4769C204.434 37.6686 207.202 39.5398 208.843 40.8165C210.931 42.4408 212.79 43.3387 214.764 45.0947C216.185 46.3583 217.748 48.4491 219.107 49.778C220.593 51.2318 222.042 52.7241 223.452 54.253C224.8 55.7158 225.458 57.04 226.733 58.5687C227.734 59.768 229.367 61.1594 230.321 62.3978C231.318 63.6924 232.286 64.2093 233.231 65.545C234.054 66.7089 234.601 67.7193 235.154 68.7956C235.599 69.6605 236.485 71.2033 237.087 72.2674C237.772 73.4771 238.474 74.2027 239.319 75.5887C240.268 77.1465 240.921 78.7295 241.604 80.0351C242.666 82.067 243.351 84.2299 244.298 86.3282C244.732 87.2899 245.474 88.1615 245.884 89.1365C246.692 91.0633 247.452 93.0156 248.161 94.9919C248.818 96.8204 249.014 97.8203 249.583 99.6887C250.178 101.644 251.141 104.47 251.638 106.467C252.013 107.977 252.531 109.202 252.849 110.733C253.134 112.107 253.224 113.784 253.461 115.174C253.713 116.647 253.937 118.13 254.135 119.622C254.356 121.294 254.301 122.816 254.452 124.51C254.624 126.424 254.992 128.513 255.073 130.451C255.142 132.126 255.177 133.809 255.177 135.5Z" fill="#FFFBFA" stroke="#3D3131" stroke-width="3.39453" mask="url(#path-3-inside-3_384_247)"/>
<path d="M16.8008 135.419L19.6295 135.419L22.5067 135.01H25.5734C25.7003 135.01 25.827 135.02 25.9524 135.038L28.29 135.39C28.4154 135.409 28.542 135.419 28.6689 135.419L31.666 135.419L34.5586 135.419L37.4586 135.049C37.6598 135.023 37.8634 135.022 38.065 135.044L41.3988 135.419L46.5313 135.419L50.1934 135.419L53.2504 135.698C53.3837 135.71 53.5177 135.711 53.6513 135.702L57.9022 135.419L63.2224 135.419L69.4655 135.716L76.0746 135.427C76.1993 135.421 76.3242 135.425 76.4483 135.438L78.9063 135.693C79.0543 135.708 79.2033 135.71 79.3517 135.7L82.968 135.439C83.1584 135.426 83.3498 135.433 83.5385 135.462L86.6762 135.946C86.8556 135.973 87.0375 135.982 87.2187 135.971L91.3977 135.716L96.3273 135.432C96.4788 135.423 96.6308 135.428 96.7815 135.446L100.919 135.95C101.121 135.975 101.326 135.975 101.528 135.951L105.992 135.419H109.163C109.299 135.419 109.434 135.43 109.568 135.451L112.568 135.934C112.785 135.97 113.007 135.976 113.226 135.954L118.389 135.439C118.527 135.426 118.665 135.423 118.803 135.432L123.265 135.716L127.336 135.419L131.499 135.703C131.619 135.712 131.739 135.711 131.859 135.703L135.723 135.419L138.682 135.419L141.828 135.696C141.974 135.709 142.122 135.71 142.268 135.697L145.522 135.419H149.811L153.937 135.716L158.497 135.419L165.453 135.419L168.15 135.693C168.301 135.708 168.454 135.71 168.606 135.698L171.982 135.434C172.112 135.424 172.243 135.424 172.373 135.434L176.086 135.716L182.334 135.428C182.475 135.422 182.617 135.427 182.758 135.444L184.787 135.691C184.922 135.708 185.058 135.713 185.194 135.708L192.59 135.419H195.184L198.344 135.716L206.759 135.419H210.049L215.918 134.885C216.078 134.87 216.239 134.871 216.399 134.887L221.798 135.419H224.915H227.707C227.836 135.419 227.965 135.409 228.093 135.389L231.181 134.917C231.414 134.881 231.651 134.878 231.885 134.907L235.936 135.419H239.78L243.506 135.419L247.418 135.703C247.54 135.711 247.662 135.711 247.783 135.703L251.773 135.419L254.645 135.419" stroke="#3D3131" stroke-width="1.69726" stroke-linecap="round" stroke-linejoin="round"/>
<path d="M135.723 254.341L135.723 251.512L135.314 248.635L135.314 245.568C135.314 245.441 135.324 245.315 135.343 245.189L135.694 242.852C135.713 242.726 135.723 242.6 135.723 242.473L135.723 239.476L135.723 236.583L135.353 233.683C135.327 233.482 135.326 233.278 135.348 233.077L135.723 229.743L135.723 224.61L135.723 220.948L136.002 217.891C136.014 217.758 136.016 217.624 136.007 217.49L135.723 213.239L135.723 207.919L136.02 201.676L135.731 195.067C135.726 194.942 135.729 194.817 135.742 194.693L135.997 192.235C136.012 192.087 136.015 191.938 136.004 191.79L135.743 188.174C135.73 187.983 135.738 187.792 135.767 187.603L136.25 184.465C136.278 184.286 136.286 184.104 136.275 183.923L136.02 179.744L135.736 174.814C135.727 174.663 135.732 174.511 135.75 174.36L136.254 170.222C136.279 170.02 136.279 169.816 136.255 169.613L135.723 165.149L135.723 161.979C135.723 161.843 135.734 161.707 135.755 161.574L136.239 158.574C136.274 158.356 136.28 158.135 136.259 157.916L135.744 152.753C135.73 152.615 135.727 152.476 135.736 152.338L136.02 147.877L135.723 143.806L136.008 139.643C136.016 139.523 136.016 139.402 136.007 139.282L135.723 135.419L135.723 132.459L136.001 129.314C136.013 129.167 136.014 129.02 136.001 128.873L135.723 125.619L135.723 121.33L136.02 117.205L135.723 112.644L135.723 105.688L135.997 102.992C136.012 102.84 136.014 102.688 136.002 102.536L135.738 99.1597C135.728 99.0294 135.728 98.8985 135.738 98.7682L136.02 95.0553L135.733 88.8079C135.726 88.6662 135.731 88.5243 135.749 88.3835L135.995 86.3548C136.012 86.2199 136.017 86.0838 136.012 85.948L135.723 78.5518L135.723 75.9576L136.02 72.7973L135.723 64.3828L135.723 61.0923L135.189 55.2233C135.174 55.0635 135.175 54.9027 135.191 54.7429L135.723 49.3435L135.723 46.2271L135.723 43.4342C135.723 43.3052 135.713 43.1764 135.694 43.0489L135.221 39.9609C135.185 39.7278 135.182 39.4908 135.212 39.2568L135.723 35.206L135.723 31.3618L135.723 27.6352L136.007 23.7233C136.016 23.6017 136.016 23.4797 136.007 23.3581L135.723 19.369L135.723 16.4965" stroke="#3D3131" stroke-width="1.69726" stroke-linecap="round" stroke-linejoin="round"/>
<path d="M51.6322 219.509L53.6324 217.509L55.378 215.186L57.5465 213.017C57.6362 212.927 57.7325 212.845 57.8345 212.769L59.7362 211.365C59.8383 211.29 59.9346 211.207 60.0242 211.117L62.1436 208.998L64.1889 206.953L65.9779 204.64C66.1021 204.48 66.2449 204.335 66.4035 204.208L69.0257 202.116L72.6549 198.487L75.2444 195.897L77.6032 193.933C77.7061 193.847 77.802 193.753 77.8901 193.653L80.6953 190.446L84.4573 186.684L89.0819 182.48L93.551 177.602C93.6353 177.51 93.7262 177.425 93.8231 177.346L95.7413 175.788C95.8568 175.694 95.9638 175.59 96.0612 175.478L98.4341 172.737C98.5591 172.592 98.6999 172.462 98.8538 172.35L101.414 170.473C101.561 170.365 101.695 170.243 101.816 170.107L104.59 166.971L107.875 163.285C107.976 163.172 108.087 163.068 108.207 162.974L111.489 160.404C111.649 160.279 111.794 160.134 111.92 159.974L114.7 156.441L116.942 154.199C117.038 154.103 117.142 154.015 117.252 153.936L119.715 152.156C119.893 152.027 120.054 151.876 120.194 151.705L123.48 147.69C123.568 147.583 123.664 147.483 123.768 147.392L127.124 144.438L129.792 141.349L132.937 138.607C133.028 138.528 133.113 138.443 133.192 138.351L135.723 135.419L137.815 133.326L140.236 131.298C140.349 131.204 140.453 131.1 140.548 130.987L142.652 128.489L145.685 125.457L148.812 122.749L151.827 119.315L156.746 114.396L158.846 112.683C158.964 112.587 159.073 112.48 159.172 112.365L161.373 109.79C161.458 109.691 161.55 109.599 161.649 109.513L164.474 107.088L168.689 102.467C168.784 102.362 168.888 102.265 169 102.178L170.609 100.918C170.716 100.834 170.816 100.742 170.908 100.642L175.934 95.2077L177.768 93.3733L180.213 91.3488L185.953 85.1887L188.28 82.862L192.052 78.3344C192.155 78.2111 192.269 78.0978 192.393 77.996L196.587 74.5543L198.791 72.3507L200.766 70.3758C200.857 70.2846 200.941 70.1866 201.017 70.0827L202.867 67.5648C203.006 67.3748 203.172 67.205 203.358 67.0604L206.584 64.5576L209.302 61.8393L211.937 59.2042L214.904 56.6388C214.996 56.5591 215.083 56.4729 215.163 56.3808L217.782 53.3591L219.814 51.328" stroke="#3D3131" stroke-width="1.69726" stroke-linecap="round" stroke-linejoin="round"/>
<path d="M51.6324 51.328L53.6326 53.3282L55.9561 55.0738L58.1245 57.2423C58.2142 57.332 58.2971 57.4283 58.3725 57.5303L59.7765 59.432C59.8519 59.5341 59.9348 59.6304 60.0244 59.72L62.1437 61.8394L64.1891 63.8847L66.5013 65.6737C66.6618 65.7979 66.8068 65.9407 66.9333 66.0993L69.0259 68.7215L72.6551 72.3507L75.2446 74.9402L77.209 77.299C77.2946 77.4019 77.3883 77.4978 77.489 77.5859L80.6955 80.3911L84.4575 84.1531L88.6619 88.7777L93.5395 93.2468C93.6315 93.3311 93.7172 93.422 93.7959 93.5189L95.3538 95.4371C95.4476 95.5526 95.5513 95.6596 95.6638 95.757L98.4051 98.1299C98.5495 98.2549 98.6793 98.3957 98.7922 98.5496L100.669 101.11C100.776 101.256 100.899 101.391 101.035 101.511L104.17 104.286L107.857 107.571C107.97 107.672 108.074 107.783 108.168 107.902L110.737 111.185C110.863 111.345 111.007 111.49 111.168 111.616L114.7 114.396L116.942 116.638C117.038 116.734 117.126 116.837 117.206 116.947L118.985 119.41C119.114 119.589 119.266 119.75 119.436 119.89L123.451 123.176C123.559 123.264 123.658 123.36 123.75 123.464L126.704 126.819L129.793 129.488L132.535 132.633C132.614 132.724 132.699 132.809 132.79 132.887L135.723 135.419L137.816 137.511L139.843 139.932C139.938 140.045 140.042 140.149 140.155 140.244L142.652 142.348L145.685 145.381L148.392 148.508L151.827 151.522L156.746 156.441L158.459 158.542C158.555 158.66 158.661 158.769 158.777 158.868L161.351 161.068C161.451 161.153 161.543 161.246 161.628 161.345L164.054 164.17L168.675 168.384C168.78 168.48 168.876 168.584 168.964 168.696L170.224 170.305C170.308 170.412 170.4 170.512 170.5 170.604L175.934 175.63L177.768 177.464L179.793 179.909L185.953 185.649L188.28 187.975L192.807 191.748C192.931 191.851 193.044 191.965 193.146 192.089L196.587 196.283L198.791 198.487L200.766 200.462C200.857 200.553 200.955 200.637 201.059 200.713L203.577 202.563C203.767 202.702 203.937 202.868 204.081 203.054L206.584 206.28L209.302 208.998L211.938 211.633L214.503 214.6C214.583 214.692 214.669 214.779 214.761 214.858L217.783 217.478L219.814 219.509" stroke="#3D3131" stroke-width="1.69726" stroke-linecap="round" stroke-linejoin="round"/>
<path d="M104.164 60.12C104.357 60.2195 104.506 60.2692 104.611 60.2692V67.4047C104.611 67.7638 104.664 68.2168 104.769 68.7638C104.614 69.1671 104.462 69.3688 104.313 69.3688H104.164C103.86 69.2693 103.708 68.9682 103.708 68.4655V67.2472C103.708 67.1478 103.655 67.098 103.55 67.098C103.55 66.9986 103.603 66.9489 103.708 66.9489C103.603 64.9267 103.55 63.4101 103.55 62.3991V61.7858C103.55 61.6919 103.653 61.2886 103.857 60.5758C103.758 60.5758 103.708 60.5261 103.708 60.4267L104.164 60.12ZM95.064 61.3383L95.669 61.6366C96.0723 61.5593 96.274 61.4598 96.274 61.3383L98.0972 61.4875H100.973C101.177 61.5206 101.28 61.6201 101.28 61.7858V62.0924C101.28 62.3355 100.824 62.4875 99.9121 62.5482V63.609L100.061 64.5207C99.9619 64.6864 99.9121 64.9378 99.9121 65.2748V65.7306H100.061L101.885 65.5814L102.034 65.8881V66.0373C101.47 66.7444 99.2961 67.098 95.5115 67.098L95.3624 66.7914V66.6422C95.3624 66.4599 95.8182 66.2582 96.7298 66.0373L96.5806 65.4323C96.5806 65.3218 96.6303 65.1698 96.7298 64.9765L96.5806 64.214C96.6801 63.5234 96.7298 62.9681 96.7298 62.5482C96.5033 62.4488 95.8458 62.3466 94.7574 62.2416V61.4875C94.9618 61.4875 95.064 61.4377 95.064 61.3383ZM97.7906 62.5482L97.6414 64.0648V65.8881C97.7464 65.8881 97.8983 65.9378 98.0972 66.0373C98.6994 65.9047 99.0005 65.7527 99.0005 65.5814C99.0005 64.924 98.9508 63.9129 98.8514 62.5482H97.7906ZM114.084 59.9709H114.382C114.686 59.9709 114.838 60.8797 114.838 62.6974V63.1532L114.996 63.4599L115.294 63.3024H117.416L117.871 63.7582C117.772 64.1671 117.418 64.3715 116.811 64.3715C116.711 64.3715 116.661 64.319 116.661 64.214C115.446 64.319 114.838 64.5207 114.838 64.819V64.9765C114.838 65.529 114.891 66.2361 114.996 67.098C114.891 67.5014 114.636 67.703 114.233 67.703C113.929 67.3328 113.777 66.9793 113.777 66.6422V65.5814C113.777 64.4212 113.728 62.6505 113.628 60.2692L114.084 59.9709ZM107.255 60.4267H109.377C110.172 60.4267 110.73 60.7305 111.051 61.3383V61.4875C111.051 61.9129 110.899 62.4681 110.595 63.1532C111.805 63.9709 112.41 64.7306 112.41 65.4323C112.211 65.4599 112.112 65.5593 112.112 65.7306C111.775 65.6643 111.269 65.2113 110.595 64.3715H110.139C110.139 65.3218 109.786 65.877 109.078 66.0373L108.772 65.5814C108.877 64.8743 109.283 63.5593 109.99 61.6366C109.62 61.4377 109.214 61.3383 108.772 61.3383H107.711C106.716 61.5372 106.161 61.6366 106.045 61.6366H105.896C105.692 61.6366 105.589 61.5372 105.589 61.3383C106.28 60.7305 106.835 60.4267 107.255 60.4267Z" fill="black"/>
<path d="M152.089 59.0592H152.238C152.553 59.0592 152.907 60.12 153.299 62.2416C154.321 62.3466 155.13 62.4985 155.727 62.6974V63.4599C155.512 63.4599 154.956 63.4074 154.061 63.3024C152.978 63.5068 151.561 63.609 149.81 63.609L149.661 63.3024C150.406 62.7996 151.266 62.5482 152.238 62.5482V62.3991C151.934 60.9736 151.782 60.214 151.782 60.12V59.3659C151.815 59.1615 151.918 59.0592 152.089 59.0592ZM156.788 61.9433H156.937C157.241 61.9433 157.495 62.6007 157.699 63.9157C157.6 64.0925 157.55 64.2941 157.55 64.5207H158.454C158.652 64.5207 158.857 64.2168 159.067 63.609C158.962 63.2057 158.909 62.8521 158.909 62.5482C159.014 62.3549 159.067 62.2029 159.067 62.0924H159.514C159.818 62.1919 159.97 62.4958 159.97 63.0041V64.3715C159.97 66.261 159.818 67.5732 159.514 68.308C160.227 68.6395 160.583 69.0456 160.583 69.5263C160.423 71.1451 159.815 71.9545 158.76 71.9545C157.826 72.2528 157.219 72.402 156.937 72.402C156.556 72.402 156.152 71.8965 155.727 70.8854C155.854 69.7473 156.006 69.0401 156.183 68.7638L156.034 68.0097C156.437 67.855 156.639 67.703 156.639 67.5538C156.556 67.1505 156.454 66.9489 156.332 66.9489L156.481 65.1256V64.5207C156.481 64.1008 156.431 63.5455 156.332 62.8549C156.465 62.2471 156.617 61.9433 156.788 61.9433ZM153.299 64.0648C154.1 64.0648 154.708 64.4184 155.122 65.1256C155.122 66.645 154.362 67.4047 152.843 67.4047H152.694C151.683 67.0621 151.177 66.5566 151.177 65.8881C151.177 65.0207 151.884 64.4129 153.299 64.0648ZM152.238 65.7306C152.536 66.4378 152.89 66.7914 153.299 66.7914C153.807 66.7914 154.061 66.2361 154.061 65.1256H153.904C153.727 65.0262 153.525 64.9765 153.299 64.9765C152.895 64.9765 152.542 65.2278 152.238 65.7306ZM157.244 66.9489V67.703L158.304 67.8522H158.909V65.2748C157.799 65.2748 157.244 65.8328 157.244 66.9489ZM156.937 68.6146L156.788 70.1312V70.587C156.815 71.0898 156.918 71.3412 157.094 71.3412C158.608 71.2141 159.365 70.8605 159.365 70.2804V69.2196C158.525 68.9157 157.716 68.7141 156.937 68.6146ZM161.86 61.3217H162.009C162.274 61.3217 162.578 62.1836 162.921 63.9074C164.341 63.7637 165.051 63.5593 165.051 63.2941L164.901 61.9267C165.095 61.8272 165.247 61.7775 165.357 61.7775C165.816 61.9709 166.067 62.1726 166.111 62.3825V63.9074H166.418C167.534 63.9074 168.092 63.3494 168.092 62.2333C168.092 62.0289 168.244 61.8272 168.548 61.6283C168.951 61.7278 169.153 62.0317 169.153 62.54V66.9406C169.153 67.6864 169.001 68.0925 168.697 68.1588H168.39C168.192 68.1588 168.092 68.0566 168.092 67.8522V65.7306C168.092 65.0179 167.99 64.6615 167.786 64.6615C166.669 64.8881 166.111 65.0925 166.111 65.2748V66.3356C166.111 67.0428 165.454 67.3964 164.139 67.3964C164.139 67.5566 163.634 67.7085 162.622 67.8522C162.015 67.8522 161.711 66.5373 161.711 63.9074C161.578 63.9074 161.476 63.1477 161.404 61.6283L161.86 61.3217ZM162.921 64.9682V66.6422C164.341 66.4654 165.051 66.261 165.051 66.029V64.819C164.846 64.819 164.744 64.7665 164.744 64.6615C164.645 64.7665 164.037 64.8687 162.921 64.9682ZM178.162 60.7416H178.311C178.714 60.946 178.916 61.2499 178.916 61.6532C178.916 62.3217 179.018 64.4405 179.222 68.0097C179.118 68.413 178.814 68.6146 178.311 68.6146C178.106 68.4323 177.955 67.3743 177.855 65.4406C175.535 65.4406 174.374 65.7417 174.374 66.3439C174.374 67.5594 174.222 68.1671 173.919 68.1671H173.463C173.264 68.1671 173.164 68.0649 173.164 67.8605C173.164 66.4737 173.617 64.7057 174.524 62.5565H171.648C171.548 62.5565 171.499 62.609 171.499 62.714C170.488 62.4322 169.982 62.1781 169.982 61.9516C170.291 61.8521 171.2 61.7029 172.709 61.504C174.725 61.6035 175.733 61.8051 175.733 62.109C175.733 62.667 175.432 63.4737 174.83 64.5289C174.93 64.5289 174.979 64.5787 174.979 64.6781C175.742 64.4792 176.449 64.3798 177.101 64.3798H177.557C177.756 64.3798 177.855 64.2776 177.855 64.0731C177.756 62.6698 177.706 61.7609 177.706 61.3466C177.855 60.9433 178.007 60.7416 178.162 60.7416Z" fill="black"/>
<path d="M197.981 98.846H198.13C198.395 98.846 198.6 99.9593 198.744 102.186C198.639 102.352 198.586 102.606 198.586 102.948C199.094 103.573 199.349 103.976 199.349 104.158C199.144 104.816 199.042 105.272 199.042 105.526V105.675C200.561 106.211 201.321 106.766 201.321 107.341C201.072 107.545 200.871 107.647 200.716 107.647C199.539 106.841 198.829 106.437 198.586 106.437C197.912 107.752 197.509 108.41 197.376 108.41H197.07C196.871 108.41 196.771 108.307 196.771 108.103V107.954C196.771 107.733 197.174 106.821 197.981 105.219C198.081 105.042 198.13 104.841 198.13 104.614L197.683 104.307H197.376C197.26 104.307 196.705 104.41 195.71 104.614H195.097L194.948 103.852C196.755 103.492 197.666 103.191 197.683 102.948V102.037C197.683 101.932 197.63 101.879 197.525 101.879C197.525 101.78 197.578 101.73 197.683 101.73L197.525 100.213V99.3018C197.525 99.1582 197.677 99.0062 197.981 98.846ZM203.293 102.186C203.293 102.285 203.343 102.335 203.443 102.335C203.343 103.523 203.293 104.385 203.293 104.921V107.042C203.293 107.628 203.343 108.437 203.443 109.47C203.293 109.874 203.141 110.075 202.987 110.075C202.583 110.075 202.332 109.266 202.233 107.647C202.332 107.454 202.382 107.302 202.382 107.191L202.233 106.893C202.233 106.689 202.282 106.586 202.382 106.586L202.233 105.07V103.852C202.332 102.741 202.686 102.186 203.293 102.186ZM206.393 99.3018H206.551C208.672 99.9095 209.733 100.973 209.733 102.492V103.404C209.457 105.122 209.205 105.981 208.979 105.981H208.672C208.468 105.981 208.366 105.879 208.366 105.675V104.614L208.523 103.852L208.216 103.702H206.393L206.095 103.852V103.702L205.788 103.852C205.385 103.774 205.183 103.675 205.183 103.553L204.877 103.702H204.421C204.421 103.597 204.371 103.446 204.272 103.247L204.727 102.948L205.034 103.097C205.791 102.893 206.498 102.791 207.156 102.791H207.454L208.523 102.948L208.672 102.642V102.335C208.672 101.578 207.965 100.871 206.551 100.213C206.109 100.213 205.703 100.061 205.332 99.7576L204.877 100.064L204.727 99.7576C204.727 99.4537 205.283 99.3018 206.393 99.3018ZM212.766 100.363H212.915C213.17 100.363 213.321 100.97 213.371 102.186L213.222 102.791C213.222 102.896 213.272 102.948 213.371 102.948L213.222 104.009V106.736C213.222 106.94 213.12 107.042 212.915 107.042H212.31L212.161 106.28C212.161 102.335 212.363 100.363 212.766 100.363ZM208.366 107.341H208.672L208.821 108.103V110.225C208.855 110.429 208.957 110.531 209.128 110.531H209.277C209.421 110.531 210.23 110.429 211.705 110.225H212.766C212.91 110.225 213.062 110.377 213.222 110.68V111.136C211.382 111.28 210.321 111.432 210.04 111.592C208.62 111.592 207.91 111.189 207.91 110.382C207.91 109.962 207.86 109.556 207.761 109.164C207.86 107.948 208.062 107.341 208.366 107.341Z" fill="black"/>
<path d="M198.373 158.568C199.544 158.767 200.202 159.018 200.345 159.322L200.196 160.084V161.75C200.196 162.258 199.284 162.612 197.461 162.811C197.539 164.026 197.743 164.634 198.074 164.634H198.224C199.539 164.33 200.246 164.178 200.345 164.178C200.55 164.212 200.652 164.314 200.652 164.485V164.634C200.033 165.341 199.224 165.695 198.224 165.695C197.108 165.695 196.55 165.14 196.55 164.029C196.45 163.504 196.4 162.897 196.4 162.206C196.4 162.062 196.552 161.91 196.856 161.75H198.679C198.823 161.75 198.975 161.598 199.135 161.294V159.927L198.978 159.629C197.79 159.728 196.931 159.778 196.4 159.778H196.102L195.34 159.629V158.866L196.102 158.717H197.768C197.994 158.717 198.196 158.667 198.373 158.568ZM202.923 158.866L203.229 159.322V162.057H203.685C204.431 162.057 204.834 162.209 204.895 162.513V163.118L204.141 163.267H203.229C203.229 163.67 203.18 163.872 203.08 163.872L203.229 164.178V165.388C203.229 165.913 203.077 166.217 202.773 166.3H202.624C202.215 166.14 202.011 165.786 202.011 165.239V161.601C202.011 159.778 202.315 158.866 202.923 158.866ZM212.545 158.261H212.702C213.105 158.427 213.307 158.78 213.307 159.322L213.158 159.927C213.158 160.032 213.208 160.084 213.307 160.084L213.158 161.601V162.048C213.158 162.866 213.208 163.828 213.307 164.933C213.208 165.131 213.158 165.283 213.158 165.388H212.395C212.263 164.145 212.111 163.336 211.94 162.96L210.879 163.118H210.423C210.423 163.62 210.221 163.921 209.818 164.021C209.641 163.921 209.44 163.872 209.213 163.872C208.279 164.275 207.52 164.477 206.934 164.477C206.299 164.477 205.895 162.808 205.724 159.471C205.873 159.068 206.025 158.866 206.18 158.866L206.785 159.173C207.42 158.897 208.127 158.695 208.906 158.568C209.918 158.833 210.423 159.339 210.423 160.084H210.581C211.691 160.084 212.246 159.83 212.246 159.322C212.246 158.615 212.346 158.261 212.545 158.261ZM206.785 160.234C206.989 162.156 207.191 163.217 207.39 163.416C208.605 163.084 209.213 162.781 209.213 162.504V161.145L209.362 160.234C209.263 160.035 209.213 159.883 209.213 159.778H209.064C208.362 159.778 207.603 159.93 206.785 160.234ZM210.423 161.145V162.206L212.097 161.899V160.988H211.94C211.813 160.988 211.307 161.04 210.423 161.145ZM210.274 165.082L210.423 165.388V166.598L210.581 167.361L212.097 167.212H212.851C213.459 167.212 213.763 167.463 213.763 167.966L213.307 168.272H212.395C211.887 168.272 211.282 168.372 210.581 168.571C209.973 168.571 209.517 167.814 209.213 166.3C209.412 165.488 209.766 165.082 210.274 165.082Z" fill="black"/>
<path d="M158.073 201.719L158.687 202.166L158.529 203.235V206.269L158.687 206.567L158.985 206.418H159.897C161.112 206.661 161.72 207.266 161.72 208.233C161.261 210.559 160.855 211.722 160.502 211.722C160.38 211.722 160.129 211.57 159.747 211.266C160.35 209.857 160.651 208.796 160.651 208.084C160.551 207.68 160.25 207.479 159.747 207.479H159.134C158.88 207.479 158.678 207.934 158.529 208.846L158.231 208.995C157.822 208.785 157.618 208.531 157.618 208.233C157.518 206.459 157.468 205.398 157.468 205.05C157.369 205.05 157.319 205.001 157.319 204.901L156.557 205.05C156.457 205.05 156.408 205.001 156.408 204.901L156.101 205.05H155.952L154.891 204.752V204.445C154.891 204.296 155.093 204.144 155.496 203.99L155.803 204.139C156.206 204.039 156.56 203.99 156.863 203.99C157.057 204.089 157.209 204.139 157.319 204.139L157.775 201.868L158.073 201.719ZM155.496 202.166C156.004 202.299 156.258 202.451 156.258 202.622V202.929C156.258 203.056 155.347 203.307 153.524 203.683L153.681 203.99V204.901C153.681 205.647 153.833 206.05 154.137 206.111H155.654C155.852 206.144 155.952 206.246 155.952 206.418V206.716C155.952 206.898 155.446 207.05 154.435 207.172C153.927 206.973 153.573 206.874 153.374 206.874C153.275 207.177 152.971 207.329 152.463 207.329H152.165C150.745 207.329 150.035 206.114 150.035 203.683C149.532 203.556 149.28 203.407 149.28 203.235V203.078C149.28 202.879 150.09 202.628 151.709 202.324L152.314 202.473L152.62 202.324L153.374 202.473C153.623 202.473 154.33 202.371 155.496 202.166ZM151.104 203.683L151.253 203.99V204.901C151.253 205.675 151.455 206.13 151.858 206.269H152.769V206.111C152.565 204.293 152.363 203.385 152.165 203.385H152.007C151.736 203.385 151.435 203.484 151.104 203.683ZM166.792 198.992H167.099C167.53 198.992 167.834 200.509 168.01 203.542C167.867 204.045 167.51 204.296 166.941 204.296H166.336L166.187 204.909L166.336 205.208C166.237 205.407 166.187 205.559 166.187 205.664C166.287 205.862 166.336 206.014 166.336 206.119H167.555L168.615 205.97L168.914 206.426V206.724C168.814 207.028 168.513 207.18 168.01 207.18H167.099C166.629 207.18 165.82 207.282 164.671 207.487C164.113 207.382 163.709 207.329 163.461 207.329V207.487C163.262 207.382 163.11 207.329 163.005 207.329V206.575H163.154C163.491 206.575 164.198 206.473 165.276 206.269V204.603H164.82C164.704 204.603 164.148 204.705 163.154 204.909H163.005C162.701 204.169 162.549 202.854 162.549 200.965V199.755C162.549 199.605 162.701 199.454 163.005 199.299C163.408 199.299 163.61 199.904 163.61 201.114V201.876L163.759 202.175C164.659 201.677 165.621 201.426 166.643 201.42C166.544 200.15 166.494 199.393 166.494 199.15L166.792 198.992ZM163.759 202.937V203.691C165.466 203.387 166.477 203.235 166.792 203.235V202.788L166.643 202.481C165.328 202.785 164.367 202.937 163.759 202.937ZM165.881 208.548L166.494 208.697C167.389 208.597 167.944 208.548 168.16 208.548C168.707 208.747 169.06 209.048 169.22 209.451V211.581L169.071 212.335H168.309L168.16 211.581V209.907C168.16 209.708 168.057 209.608 167.853 209.608H167.555C167.35 209.636 167.248 209.735 167.248 209.907V211.581C167.248 212.183 166.997 212.484 166.494 212.484C166.339 212.357 166.187 211.752 166.038 210.669L166.187 210.363V209.758H166.038C164.784 209.857 164.126 209.907 164.066 209.907L163.61 209.302V209.153C164.118 209.153 164.875 208.951 165.881 208.548ZM178.544 201.868H178.693C179.097 202.034 179.298 202.387 179.298 202.929C179.298 203.133 179.248 203.235 179.149 203.235L179.298 203.99V205.199C179.298 207.514 179.45 209.335 179.754 210.661C179.655 211.169 179.403 211.423 179 211.423C178.547 211.423 178.243 208.694 178.088 203.235C178.392 202.749 178.544 202.293 178.544 201.868ZM173.389 203.385H173.688C174.726 203.385 175.486 204.396 175.967 206.418V206.874C175.967 207.885 175.055 208.642 173.232 209.144C171.11 208.735 170.049 207.777 170.049 206.269C170.795 204.346 171.909 203.385 173.389 203.385ZM171.259 206.269V206.567C171.259 207.346 171.867 207.851 173.083 208.084H173.232C174.143 208.084 174.701 207.628 174.906 206.716V206.418C174.889 205.76 174.483 205.053 173.688 204.296H173.389C171.969 204.755 171.259 205.412 171.259 206.269Z" fill="black"/>
<path d="M95.6348 201.561C95.7398 201.76 95.7923 201.912 95.7923 202.017C95.5879 203.094 95.4857 203.804 95.4857 204.147V204.296H95.6348C97.4581 204.462 98.3697 204.713 98.3697 205.05C98.3697 205.199 98.2177 205.351 97.9139 205.506C97.6045 205.506 96.6929 205.407 95.179 205.208V205.813C95.179 206.586 94.9774 207.042 94.574 207.18C94.2702 207.108 94.0685 206.904 93.9691 206.567C94.3061 203.23 94.7619 201.561 95.3365 201.561H95.6348ZM99.5796 202.017L99.7371 202.324V204.752H100.491C100.768 204.752 101.071 204.65 101.403 204.445C101.806 204.6 102.008 204.752 102.008 204.901V205.357C101.908 205.661 101.605 205.813 101.096 205.813H99.7371V206.874C99.7371 206.973 99.7868 207.023 99.8863 207.023L99.5796 208.084C100.696 208.084 101.254 208.49 101.254 209.302V209.907C101.254 211.222 100.798 211.879 99.8863 211.879C99.4664 211.879 99.0631 211.929 98.6763 212.028C97.4608 212.028 96.8531 211.271 96.8531 209.758V208.241C96.8531 208.092 97.005 207.94 97.3089 207.785H97.4581L97.9139 208.084H98.9747C98.7758 207.327 98.6763 206.619 98.6763 205.962V203.534C98.6763 202.523 98.9774 202.017 99.5796 202.017ZM97.9139 208.995C97.9139 209.1 97.8641 209.153 97.7647 209.153L98.063 210.968H98.2205C99.5354 210.968 100.193 210.766 100.193 210.363C100.193 209.91 100.243 209.606 100.342 209.451C100.243 209.258 100.193 209.106 100.193 208.995L98.3697 209.153C98.1708 209.048 98.0188 208.995 97.9139 208.995ZM111.613 201.122H111.912C112.287 201.122 112.541 201.829 112.674 203.244C112.47 203.636 112.367 204.191 112.367 204.909V207.934C112.367 208.166 112.417 208.371 112.517 208.548C112.517 208.885 112.163 209.136 111.456 209.302L111.613 209.6C111.713 211.622 111.762 212.733 111.762 212.932C111.762 213.639 111.207 213.992 110.097 213.992L109.798 213.843C109.445 213.943 109.24 213.992 109.185 213.992C107.975 213.992 107.37 213.639 107.37 212.932C107.37 211.948 107.32 211.445 107.221 211.423C107.32 211.247 107.37 211.045 107.37 210.818V210.363C107.37 210.263 107.32 210.213 107.221 210.213C107.37 209.103 107.572 208.548 107.826 208.548H108.133C108.232 210.001 108.331 210.807 108.431 210.968L108.738 210.818H110.553C110.553 210.454 110.503 209.998 110.403 209.451C110.503 209.048 110.804 208.846 111.307 208.846V207.329L111.157 205.514H107.519V204.909C108.177 204.705 108.633 204.603 108.887 204.603H111.008C111.207 204.603 111.307 204.503 111.307 204.304V203.55H111.008C110.782 203.55 110.58 203.6 110.403 203.699C110.298 203.699 110.246 203.65 110.246 203.55L109.185 203.699H108.133C108.028 203.699 107.975 203.749 107.975 203.849L107.677 203.699H107.519C107.017 204.213 106.765 205.274 106.765 206.882L106.309 207.329H106.011C105.856 207.329 105.704 207.128 105.555 206.724C105.959 204.647 106.16 203.385 106.16 202.937C105.497 202.639 104.79 202.49 104.039 202.49H103.434C103.191 202.285 102.989 202.183 102.829 202.183V201.727L103.889 201.578H104.345C105.997 201.578 106.956 202.083 107.221 203.094H107.37C107.707 202.791 108.566 202.639 109.948 202.639H111.157C111.461 202.578 111.613 202.175 111.613 201.429V201.122ZM108.431 211.722V212.932C108.834 212.932 109.036 212.984 109.036 213.089C110.146 212.984 110.702 212.832 110.702 212.633V212.177C110.702 212.034 110.55 211.882 110.246 211.722H108.431ZM115.011 200.65H115.318C115.462 200.65 115.614 200.802 115.774 201.106V201.263C115.442 201.683 115.188 202.39 115.011 203.385C116.73 203.815 117.589 204.423 117.589 205.208L117.291 205.357C116.732 204.849 115.871 204.595 114.705 204.595L114.556 205.506C114.655 205.677 114.705 205.932 114.705 206.269L114.257 206.567H113.951C113.719 206.567 113.567 206.316 113.495 205.813C113.937 202.371 114.442 200.65 115.011 200.65ZM118.956 201.868H119.263C119.489 201.868 119.641 202.423 119.719 203.534C119.614 203.534 119.561 203.586 119.561 203.691L119.868 203.84H120.929C121.028 203.84 121.078 203.791 121.078 203.691C121.487 203.84 121.691 203.992 121.691 204.147V204.595L120.622 204.901L120.324 204.752C120.152 204.851 119.898 204.901 119.561 204.901V205.962C119.561 206.188 119.614 206.39 119.719 206.567C119.614 206.744 119.561 206.948 119.561 207.18C119.766 207.208 119.868 207.307 119.868 207.479C119.868 209.136 119.058 210.2 117.44 210.669C117.136 210.669 116.984 210.769 116.984 210.968L117.589 211.274C118.583 210.871 119.191 210.669 119.412 210.669H119.719C119.918 210.697 120.017 210.796 120.017 210.968V211.125C119.244 211.832 118.282 212.186 117.133 212.186C116.453 212.186 116 211.68 115.774 210.669V210.213C115.895 210.053 116.804 209.647 118.5 208.995C118.5 208.824 118.603 208.52 118.807 208.084C118.608 207.984 118.456 207.934 118.351 207.934C117.031 208.238 116.119 208.39 115.616 208.39L115.467 208.084V207.636H115.923C116.868 207.332 117.829 207.078 118.807 206.874C118.603 206.503 118.5 206.1 118.5 205.664V203.534C118.5 202.423 118.652 201.868 118.956 201.868Z" fill="black"/>
<path d="M52.5827 156.174H53.0385C53.2374 156.207 53.3369 156.309 53.3369 156.481V156.779C53.3369 156.884 53.2871 156.937 53.1877 156.937C53.3921 157.39 53.4943 158.044 53.4943 158.901V160.417H55.9142C56.522 160.417 56.8259 160.721 56.8259 161.329L56.5192 161.478H53.4943C53.6932 163.5 53.7927 164.713 53.7927 165.116L53.3369 165.423H53.1877C52.5799 165.423 52.2761 162.644 52.2761 157.086C52.4805 157.086 52.5827 156.782 52.5827 156.174ZM46.2097 157.691C46.3202 157.691 46.4721 157.74 46.6655 157.84C47.3616 157.74 47.9197 157.691 48.3396 157.691H49.0937C50.5081 157.691 51.2153 159.207 51.2153 162.24C50.8893 162.395 49.6766 162.597 47.5771 162.845C47.5771 162.967 47.3754 163.066 46.9721 163.144C46.3644 163.144 45.8589 161.63 45.4555 158.602C45.66 158.055 45.9113 157.751 46.2097 157.691ZM46.5163 159.058C46.7981 160.975 47.102 161.934 47.4279 161.934C48.4114 161.63 49.2705 161.428 50.0053 161.329C49.9003 159.511 49.5965 158.602 49.0937 158.602C47.7125 158.702 46.8533 158.854 46.5163 159.058ZM60.6798 156.928C61.8511 157.127 62.5086 157.379 62.6522 157.682L62.5031 158.445V160.111C62.5031 160.619 61.5915 160.973 59.7682 161.171C59.8456 162.387 60.05 162.995 60.3815 162.995H60.5307C61.8456 162.691 62.5528 162.539 62.6522 162.539C62.8567 162.572 62.9589 162.674 62.9589 162.845V162.995C62.3401 163.702 61.5307 164.055 60.5307 164.055C59.4146 164.055 58.8566 163.5 58.8566 162.39C58.7572 161.865 58.7074 161.257 58.7074 160.566C58.7074 160.423 58.8594 160.271 59.1632 160.111H60.9865C61.1301 160.111 61.2821 159.959 61.4423 159.655V158.287L61.2848 157.989C60.097 158.088 59.2378 158.138 58.7074 158.138H58.4091L57.6466 157.989V157.227L58.4091 157.077H60.0749C60.3014 157.077 60.503 157.028 60.6798 156.928ZM65.2296 157.227L65.5363 157.682V160.417H65.9921C66.7379 160.417 67.1413 160.569 67.202 160.873V161.478L66.4479 161.627H65.5363C65.5363 162.031 65.4865 162.232 65.3871 162.232L65.5363 162.539V163.749C65.5363 164.274 65.3843 164.578 65.0805 164.66H64.9313C64.5224 164.5 64.318 164.147 64.318 163.6V159.961C64.318 158.138 64.6219 157.227 65.2296 157.227ZM69.8543 155.105C71.777 155.166 72.7384 155.367 72.7384 155.71V155.859C72.7384 156.064 72.6362 156.166 72.4317 156.166H70.1527C69.6499 156.193 69.3985 156.296 69.3985 156.472C69.498 157.367 69.5477 157.923 69.5477 158.138H69.6969C70.5588 158.039 71.2687 157.989 71.8267 157.989H72.4317L73.1859 157.832L73.4925 158.287V158.445C73.4925 158.765 72.4317 158.967 70.3102 159.05C70.3102 159.171 70.1057 159.274 69.6969 159.356C69.8019 160.368 70.1057 160.873 70.6085 160.873L72.4317 159.961L73.0367 160.417C73.0367 160.942 72.1776 161.395 70.4593 161.776C69.0449 161.776 68.3377 159.956 68.3377 156.315C68.1333 156.315 68.0311 156.113 68.0311 155.71C68.4621 155.356 69.0698 155.155 69.8543 155.105ZM75.1583 155.412H75.3157L76.0699 156.017L75.9207 156.315V157.227C75.9207 157.945 76.0229 158.503 76.2274 158.901C76.592 158.696 76.9953 158.594 77.4373 158.594H77.744L78.4981 158.743V159.199C78.4981 159.437 77.6887 159.638 76.0699 159.804V160.111C76.0699 160.293 76.1721 160.848 76.3765 161.776L75.7716 162.232C75.2246 162.232 74.8682 160.16 74.7025 156.017C74.8572 155.613 75.0091 155.412 75.1583 155.412ZM76.0699 162.39C77.2854 162.848 77.8931 163.506 77.8931 164.362V164.818C77.8931 165.652 77.3876 166.611 76.3765 167.694C75.6583 167.091 74.6472 166.688 73.3433 166.484C72.835 165.622 72.5809 164.915 72.5809 164.362C72.5809 163.047 73.7439 162.39 76.0699 162.39ZM73.6417 164.66V165.116C73.6417 165.724 74.5036 166.028 76.2274 166.028C76.6307 165.928 76.8323 165.625 76.8323 165.116V164.205C76.4843 163.597 76.0782 163.293 75.6141 163.293C74.2992 163.293 73.6417 163.749 73.6417 164.66Z" fill="black"/>
<path d="M46.6633 101.73C47.6909 101.73 48.8042 101.932 50.0031 102.335C51.4672 102.335 52.3264 102.893 52.5805 104.009C52.4037 105.097 52.2021 105.653 51.9755 105.675C51.9755 105.979 52.5308 106.534 53.6413 107.341V107.647C53.6413 107.852 53.4894 107.954 53.1855 107.954C52.7601 107.777 52.307 107.473 51.8264 107.042H51.5197C51.1496 108.258 50.796 108.865 50.4589 108.865C50.2545 108.617 50.1523 108.412 50.1523 108.252C50.3567 107.595 50.4589 107.142 50.4589 106.893C50.1827 106.893 49.5252 106.689 48.4865 106.28C48.155 107.396 47.9009 107.954 47.7241 107.954H47.2683L47.1191 107.341C48.1302 104.744 48.6357 103.28 48.6357 102.948C48.1661 102.777 47.307 102.625 46.0583 102.492V102.186C46.0583 101.932 46.26 101.78 46.6633 101.73ZM54.7021 102.335H55.1579L55.3154 103.097V105.219H55.4645C57.0833 105.291 57.8927 105.493 57.8927 105.824V105.981C57.8927 106.18 57.7905 106.28 57.5861 106.28H55.4645C55.4645 106.484 55.4148 106.586 55.3154 106.586L55.4645 106.893V108.103L55.3154 108.41H55.4645C55.3651 109.52 55.2131 110.075 55.0087 110.075H54.7021C54.5253 110.075 54.3761 109.57 54.2546 108.559C54.354 108.36 54.4037 108.208 54.4037 108.103C54.4037 106.689 54.3015 105.981 54.0971 105.981L54.2546 105.675V102.791C54.2546 102.647 54.4037 102.495 54.7021 102.335ZM49.6965 103.404C49.1937 104.642 48.9423 105.349 48.9423 105.526C49.9258 105.802 50.5335 106.053 50.7656 106.28C51.0639 105.65 51.3153 104.943 51.5197 104.158C51.5197 103.655 50.912 103.404 49.6965 103.404ZM59.476 100.653H60.6859C62.0064 100.653 62.8683 100.957 63.2716 101.564V101.722C63.2716 102.125 63.0175 102.885 62.5092 104.001C63.7136 104.465 64.3213 104.769 64.3324 104.912V105.368C64.1059 105.368 63.9042 105.418 63.7274 105.517L61.9042 104.912C61.3296 106.023 60.9235 106.631 60.6859 106.736C60.5423 106.736 60.3904 106.584 60.2301 106.28V106.122C60.2301 105.918 60.7384 104.907 61.755 103.089C62.0589 102.581 62.2108 102.175 62.2108 101.871C62.0174 101.871 60.8517 101.669 58.7135 101.266V100.81L59.476 100.653ZM66.0065 100.653H66.3131L66.6114 100.81L66.4623 102.633V103.694H66.7689L67.6805 103.545C68.3877 103.722 68.7413 103.923 68.7413 104.15V104.299C68.7413 104.603 67.9816 104.755 66.4623 104.755V105.368C66.4623 105.595 66.512 105.796 66.6114 105.973C66.512 106.15 66.4623 106.352 66.4623 106.578V106.885C67.1695 107.758 67.5231 108.415 67.5231 108.857V109.164C67.5231 109.976 67.0672 110.736 66.1556 111.443H65.6998C63.6777 111.443 62.6666 110.733 62.6666 109.313V109.164C62.6666 107.644 63.1722 106.885 64.1832 106.885C64.1832 106.824 64.639 106.672 65.5506 106.429L65.4015 105.667V101.871C65.523 101.114 65.7247 100.708 66.0065 100.653ZM63.5782 109.164C63.5782 109.694 63.9318 110.15 64.639 110.531C65.7606 110.531 66.4181 110.075 66.6114 109.164C66.3462 108.153 65.8407 107.647 65.0948 107.647C64.0838 107.647 63.5782 108.153 63.5782 109.164ZM76.3826 100.669H76.5401C76.9434 100.835 77.1451 101.189 77.1451 101.73L76.9959 102.335C76.9959 102.44 77.0456 102.492 77.1451 102.492L76.9959 104.009V104.457C76.9959 105.274 77.0456 106.236 77.1451 107.341C77.0456 107.539 76.9959 107.691 76.9959 107.796H76.2335C76.1009 106.553 75.9489 105.744 75.7777 105.368L74.7169 105.526H74.2611C74.2611 106.028 74.0594 106.33 73.6561 106.429C73.4793 106.33 73.2776 106.28 73.0511 106.28C72.1174 106.683 71.3577 106.885 70.7721 106.885C70.1367 106.885 69.7334 105.216 69.5621 101.879C69.7113 101.476 69.8632 101.274 70.0179 101.274L70.6229 101.581C71.2582 101.305 71.9654 101.103 72.7445 100.976C73.7555 101.241 74.2611 101.747 74.2611 102.492H74.4185C75.529 102.492 76.0843 102.238 76.0843 101.73C76.0843 101.023 76.1837 100.669 76.3826 100.669ZM70.6229 102.642C70.8273 104.564 71.029 105.625 71.2279 105.824C72.4433 105.493 73.0511 105.189 73.0511 104.912V103.553L73.2003 102.642C73.1008 102.443 73.0511 102.291 73.0511 102.186H72.9019C72.2003 102.186 71.4406 102.338 70.6229 102.642ZM74.2611 103.553V104.614L75.9351 104.307V103.396H75.7777C75.6506 103.396 75.145 103.448 74.2611 103.553ZM74.1119 107.49L74.2611 107.796V109.006L74.4185 109.769L75.9351 109.62H76.6893C77.297 109.62 77.6009 109.871 77.6009 110.374L77.1451 110.68H76.2335C75.7252 110.68 75.1202 110.78 74.4185 110.979C73.8108 110.979 73.355 110.222 73.0511 108.708C73.25 107.896 73.6036 107.49 74.1119 107.49Z" fill="black"/>
</svg>
