<svg width="22" height="36" viewBox="0 0 22 36" fill="none" xmlns="http://www.w3.org/2000/svg">
<path d="M6.74255 1.67562L8.57278 1.02442H10.0255L11.6968 0.848698L12.7701 1.02438L14.9373 1.2275L16.5254 1.95804L17.6367 2.79972L18.383 3.55714L19.5787 5.77944L19.7392 7.01059V10.1056L19.3906 11.7354L18.8698 13.4503L18.383 15.2506L17.9677 16.6825L17.1863 18.6724L16.4305 20.94L15.5716 23.2418L15.0219 25.2345L14.0943 27.7768L12.9262 30.4566L12.462 31.6514L11.8947 32.9426C11.8947 32.9426 11.4251 34.0773 10.8187 34.0773C10.2122 34.0773 9.84046 33.1969 9.84046 33.1969L9.61095 32.5081L8.94074 30.6386L8.37635 29.2276L7.95305 27.7768L7.38866 26.3351L6.96536 24.9241L6.68317 23.4426L6.04823 22.1727L5.62493 20.5501L5.06054 18.6724L4.50696 16.9168L4.07285 15.2506L3.15572 12.7897L2.76371 10.396L2.5636 9.31502L2.5636 7.76819L2.76377 6.28711L3.63536 4.12885L4.50696 3.21574L5.21527 2.59314L6.74255 1.67562Z" fill="#3D3131" stroke="#3D3131" stroke-width="1.69726" stroke-linejoin="round"/>
<circle cx="11.0951" cy="9.03185" r="3.39453" fill="#FFFBFA"/>
</svg>
