<svg width="32" height="32" viewBox="0 0 32 32" fill="none" xmlns="http://www.w3.org/2000/svg">
<mask id="path-1-outside-1_286_213" maskUnits="userSpaceOnUse" x="1.94385" y="5.11694" width="16" height="21" fill="black">
<rect fill="white" x="1.94385" y="5.11694" width="16" height="21"/>
<path fill-rule="evenodd" clip-rule="evenodd" d="M5.44959 20.0279H4.71675C4.28989 20.0279 3.94385 19.6819 3.94385 19.255V12.7449C3.94385 12.3181 4.28989 11.972 4.71675 11.972H8.41936L14.3975 8.23566C14.9123 7.91392 15.5801 8.28402 15.5801 8.89108V23.1089C15.5801 23.716 14.9123 24.0861 14.3975 23.7644L8.41929 20.028H5.45818C5.45531 20.028 5.45245 20.0279 5.44959 20.0279Z"/>
</mask>
<path d="M5.44959 20.0279L5.4716 18.028L5.4606 18.0279H5.44959V20.0279ZM8.41936 11.972V13.972H8.99295L9.47936 13.668L8.41936 11.972ZM14.3975 8.23566L15.4575 9.93166L15.4575 9.93166L14.3975 8.23566ZM14.3975 23.7644L15.4575 22.0684L15.4575 22.0684L14.3975 23.7644ZM8.41929 20.028L9.47928 18.332L8.99288 18.028H8.41929V20.028ZM5.44959 18.0279H4.71675V22.0279H5.44959V18.0279ZM4.71675 18.0279C5.39446 18.0279 5.94385 18.5773 5.94385 19.255H1.94385C1.94385 20.7864 3.18532 22.0279 4.71675 22.0279V18.0279ZM5.94385 19.255V12.7449H1.94385V19.255H5.94385ZM5.94385 12.7449C5.94385 13.4226 5.39446 13.972 4.71675 13.972V9.97202C3.18532 9.97202 1.94385 11.2135 1.94385 12.7449H5.94385ZM4.71675 13.972H8.41936V9.97202H4.71675V13.972ZM9.47936 13.668L15.4575 9.93166L13.3375 6.53966L7.35936 10.276L9.47936 13.668ZM15.4575 9.93166C14.6402 10.4425 13.5801 9.85489 13.5801 8.89108H17.5801C17.5801 6.71314 15.1844 5.38536 13.3375 6.53966L15.4575 9.93166ZM13.5801 8.89108V23.1089H17.5801V8.89108H13.5801ZM13.5801 23.1089C13.5801 22.1451 14.6402 21.5575 15.4575 22.0684L13.3375 25.4604C15.1844 26.6147 17.5801 25.2869 17.5801 23.1089H13.5801ZM15.4575 22.0684L9.47928 18.332L7.35929 21.7239L13.3375 25.4604L15.4575 22.0684ZM8.41929 18.028H5.45818V22.028H8.41929V18.028ZM5.45818 18.028C5.46241 18.028 5.46689 18.028 5.4716 18.028L5.42758 22.0278C5.43801 22.0279 5.44822 22.028 5.45818 22.028V18.028Z" fill="#3D3131" mask="url(#path-1-outside-1_286_213)"/>
<path d="M20.6632 11.8202C24.2459 13.0144 24.2459 18.9856 20.6632 20.1798" stroke="#3D3131" stroke-width="2" stroke-linecap="round" stroke-linejoin="round"/>
<path d="M24.246 8.23749C29.0229 11.2231 29.62 20.1799 24.246 23.7626" stroke="#3D3131" stroke-width="2" stroke-linecap="round" stroke-linejoin="round"/>
</svg>
