 <svg
        width="132"
        height="40"
        viewBox="0 0 132 40"
        fill="none"
        xmlns="http://www.w3.org/2000/svg"
      >
        <path
          d="M4.18981 1.59748C4.99504 1.40383 6.39248 1.1915 8.50865 1.1147C9.93463 1.06295 10.5705 1.27283 12.1061 1.2719C13.8329 1.27084 16.2945 1.05396 17.6348 1.11473C18.2887 1.14438 19.6107 1.2552 20.4792 1.26887C22.6916 1.30371 24.4342 1.22641 26.9125 1.20492C28.1815 1.19391 30.3868 1.24696 31.4046 1.23465C32.7521 1.21836 34.1728 1.2719 34.6376 1.2719C35.2591 1.2719 36.8893 1.36691 39.7498 1.42096C40.643 1.43784 41.5471 1.21624 42.5899 1.23465C44.1186 1.26164 46.2424 1.47562 48.0056 1.50118C49.503 1.52288 50.4593 1.40403 52.0569 1.42096C53.7967 1.4394 56.1841 1.59301 57.9644 1.60153C59.0851 1.60689 60.3947 1.27337 61.5051 1.27337C62.8518 1.27337 63.9899 1.42096 65.3864 1.27337C66.783 1.12577 68.7231 1.39857 70.4254 1.39399C72.4079 1.38865 74.3367 1.25243 76.5199 1.2329C77.3904 1.22512 78.2769 1.21588 79.1794 1.20492C80.5148 1.18871 81.7783 1.3939 82.8244 1.39399C84.8463 1.39415 86.3143 1.20831 87.7295 1.24386C89.5903 1.29059 91.6705 1.20324 93.7326 1.24386C94.9761 1.26835 95.8533 1.53681 97.584 1.53681C98.4725 1.53681 99.7057 1.41484 100.858 1.39399C101.828 1.37642 102.782 1.35831 103.534 1.35117C105.138 1.33596 105.781 1.37357 107.224 1.35117C108.367 1.33342 109.835 1.3692 110.783 1.35117C113.345 1.30243 113.441 1.10725 114.638 1.20492C115.836 1.30259 116.254 1.25141 118.301 1.30259C119.332 1.32837 120.64 1.41211 121.739 1.43492C123.31 1.46756 124.626 1.43492 125.582 1.43492C128.532 1.43492 129.194 1.93075 129.744 2.52917C130.295 3.12759 130.716 4.19734 130.716 5.80086C130.716 6.94556 130.559 8.6965 130.559 9.97173C130.559 12.6474 130.716 15.4135 130.716 15.8749C130.716 16.8645 130.435 19.2777 130.435 20.1434C130.435 21.0091 130.716 23.9856 130.716 25.0945C130.716 26.2035 130.716 28.4741 130.716 29.3546C130.716 30.2352 130.716 33.4471 130.716 34.179C130.716 34.9108 130.716 36.8634 129.002 37.8026C127.287 38.7418 126.638 38.6768 124.306 38.7379C123.119 38.769 120.703 38.8657 119.652 38.8422C118.309 38.8123 116.78 38.6615 115.255 38.7379C114.074 38.7971 113.123 38.8286 111.624 38.8422C110.391 38.8534 108.557 38.7456 107.272 38.7379C105.382 38.7265 103.925 38.9174 102.32 38.8938C100.658 38.8695 99.4033 38.7379 98.5605 38.7379C96.8756 38.7379 94.5922 38.6897 92.2018 38.7379C90.5025 38.7721 88.9831 38.9132 86.5342 38.8938C85.3898 38.8848 84.2223 38.7582 83.1344 38.7319C81.8861 38.7018 80.7314 38.7702 79.6493 38.7319C77.22 38.646 75.3332 38.5592 74.5444 38.5592C73.5283 38.5592 72.2777 38.8115 71.0625 38.8383C68.6619 38.8913 66.4048 38.7379 66.4048 38.7379C66.4048 38.7379 65.2847 38.7428 63.4397 38.7479C62.6532 38.7501 60.8034 38.9653 59.784 38.9672C57.9757 38.9706 56.7807 38.7601 54.5069 38.7595C52.5015 38.7589 50.4158 38.5658 48.2985 38.5592C47.3233 38.5561 46.3145 38.7426 45.3519 38.7379C43.9352 38.7309 41.2369 38.5547 38.4685 38.5592C36.0212 38.5632 33.4741 38.7484 32.3636 38.7379C29.4219 38.7099 30.3162 38.5832 28.2247 38.5592C25.8566 38.532 25.5082 38.5928 24.8101 38.5986C23.7554 38.6074 22.5287 38.5717 20.5332 38.5725C18.4216 38.5734 15.76 38.3494 13.635 38.3464C10.8202 38.3425 8.73874 38.5592 8.08198 38.5592C6.4609 38.5592 6.18497 38.3464 4.06529 37.9507C1.94562 37.555 1.58503 35.2767 1.83919 34.242C2.09336 33.2072 1.59767 30.373 1.59767 29.4132C1.59767 28.4534 1.18068 26.0326 1.59771 24.481C2.01475 22.9294 1.8392 20.2041 1.8392 20.2041C1.8392 20.2041 1.63095 17.2127 1.8392 14.4441C2.01951 12.0469 2.04497 9.44071 2.09336 9.01716C2.19762 8.10446 2.31015 5.51344 2.09336 4.86336C1.87656 4.21329 2.23183 2.06836 4.18981 1.59748Z"
          stroke="#3D3131"
          stroke-width="2"
          stroke-linejoin="round"
        />
      </svg>