<svg width="32" height="32" viewBox="0 0 32 32" fill="none" xmlns="http://www.w3.org/2000/svg">
<mask id="path-1-outside-1_286_212" maskUnits="userSpaceOnUse" x="2.05273" y="5.21063" width="16" height="21" fill="black">
<rect fill="white" x="2.05273" y="5.21063" width="16" height="21"/>
<path fill-rule="evenodd" clip-rule="evenodd" d="M5.55328 19.9836H4.82563C4.39877 19.9836 4.05273 19.6375 4.05273 19.2107V12.7893C4.05273 12.3625 4.39877 12.0164 4.82563 12.0164H8.4789L14.3782 8.32935C14.893 8.00761 15.5608 8.3777 15.5608 8.98477V23.0153C15.5608 23.6223 14.893 23.9924 14.3782 23.6707L8.47887 19.9836H5.55891C5.55703 19.9836 5.55516 19.9836 5.55328 19.9836Z"/>
</mask>
<path d="M5.55328 19.9836L5.56754 17.9836L5.56041 17.9836H5.55328V19.9836ZM8.4789 12.0164V14.0164H9.0525L9.5389 13.7124L8.4789 12.0164ZM14.3782 8.32935L15.4382 10.0253L15.4382 10.0253L14.3782 8.32935ZM14.3782 23.6707L13.3182 25.3667V25.3667L14.3782 23.6707ZM8.47887 19.9836L9.53887 18.2876L9.05247 17.9836H8.47887V19.9836ZM5.55328 17.9836H4.82563V21.9836H5.55328V17.9836ZM4.82563 17.9836C5.50334 17.9836 6.05273 18.533 6.05273 19.2107H2.05273C2.05273 20.7421 3.29421 21.9836 4.82563 21.9836V17.9836ZM6.05273 19.2107V12.7893H2.05273V19.2107H6.05273ZM6.05273 12.7893C6.05273 13.467 5.50334 14.0164 4.82563 14.0164V10.0164C3.2942 10.0164 2.05273 11.2579 2.05273 12.7893H6.05273ZM4.82563 14.0164H8.4789V10.0164H4.82563V14.0164ZM9.5389 13.7124L15.4382 10.0253L13.3182 6.63335L7.41891 10.3204L9.5389 13.7124ZM15.4382 10.0253C14.6209 10.5362 13.5608 9.94857 13.5608 8.98477H17.5608C17.5608 6.80684 15.1651 5.47905 13.3182 6.63335L15.4382 10.0253ZM13.5608 8.98477V23.0153H17.5608V8.98477H13.5608ZM13.5608 23.0153C13.5608 22.0514 14.6209 21.4639 15.4382 21.9747L13.3182 25.3667C15.1651 26.521 17.5608 25.1932 17.5608 23.0153H13.5608ZM15.4382 21.9747L9.53887 18.2876L7.41888 21.6796L13.3182 25.3667L15.4382 21.9747ZM8.47887 17.9836H5.55891V21.9836H8.47887V17.9836ZM5.55891 17.9836C5.56177 17.9836 5.56465 17.9836 5.56754 17.9836L5.53902 21.9835C5.54566 21.9836 5.55228 21.9836 5.55891 21.9836V17.9836Z" fill="#3D3131" mask="url(#path-1-outside-1_286_212)"/>
<path d="M28.2125 12.6705L21.5534 19.3296" stroke="#3D3131" stroke-width="2" stroke-linecap="round" stroke-linejoin="round"/>
<path d="M21.5533 12.6704L28.2125 19.3295" stroke="#3D3131" stroke-width="2" stroke-linecap="round" stroke-linejoin="round"/>
</svg>
