<svg width="40" height="40" viewBox="0 0 40 40" fill="none" xmlns="http://www.w3.org/2000/svg">
<path d="M38.9174 20.1082C38.9174 19.2394 39 16.8174 39 15.8243C39 15.3611 38.9537 12.5851 38.9537 9.89976C38.9537 8.61993 39 6.86266 39 5.71383C39 4.10452 38.8761 3.03091 38.7144 2.43033C38.5527 1.82975 38.3581 1.33213 37.4911 1.33213C37.2102 1.33213 36.8233 1.36488 36.3616 1.33213C36.0389 1.30923 35.6543 1.22519 35.3513 1.19932C34.7498 1.14795 33.852 1.3461 33.5 1.24808C33.148 1.15006 32.753 1.19916 32 1.24808C31.7215 1.26617 30.6 1.23026 30.2639 1.24808C29.84 1.27055 28.9713 1.23281 28.5 1.24808C27.3146 1.08447 26.7851 1.23045 26.5 1.24808C26.1615 1.26901 25.799 1.39142 25.5379 1.39142C25.0293 1.39142 24.7715 1.12199 24.4061 1.0974C23.8 1.05664 23.1887 1.1443 22.6419 1.0974C22.2259 1.06173 21.7946 1.24824 21.2004 1.24808C20.8929 1.24799 19.6635 1.15224 19.2711 1.16851C19.0058 1.17951 17.7558 1.12332 17.5 1.13113C16.6593 1.07689 14.6827 1.0974 14.5 1.0974C14.3634 1.0974 13.0778 1.15216 12.6818 1.16851C12.3826 1.18087 10.2636 1.02217 9.89063 1.03322C9.16229 1.05479 8.65019 1.13236 8 1.0974C7.74476 1.08368 5.95964 1.04053 5.76749 1.01078C5.37359 0.949788 4.65017 1.16746 4.1427 1.16851C3.6914 1.16946 3.50454 0.958809 3.08547 1.01075C2.46357 1.08783 2.05288 1.30093 1.81624 1.49528C1.24083 1.96785 1.13642 4.12053 1.20013 4.77295C1.26385 5.42537 1.23077 8.02575 1.20013 8.94175C1.18592 9.36682 1.17843 11.9824 1.12544 14.3883C1.06424 17.1669 1.12544 20.1691 1.12544 20.1691C1.12544 20.1691 1.17703 22.9042 1.05447 24.4614C0.931915 26.0186 1.05446 28.4482 1.05446 29.4115C1.05446 30.3747 1.20013 33.2192 1.12544 34.2576C1.05075 35.2961 1.15672 37.5826 1.77965 37.9798C2.40258 38.3769 2.48367 38.5904 2.96008 38.5904C3.15309 38.5904 3.76478 38.373 4.59202 38.3769C5.2165 38.3799 5.9987 38.6047 6.61926 38.6038C7.20571 38.603 7.56622 38.6389 7.87617 38.63C8.08133 38.6242 8.1837 38.5632 8.87966 38.5904C9.4943 38.6145 10.1355 38.6019 11 38.63C11.3263 38.6406 12.2808 38.634 13 38.63C13.8136 38.6255 15.0837 38.7628 15.5 38.7698C15.9163 38.7768 18.2134 38.7667 18.5 38.7698C19.1222 38.7764 19.9107 38.9994 20.5 39C21.1682 39.0006 21.4686 39.0034 22 39C22.2996 38.998 24.6059 38.772 24.8371 38.7698C25.3793 38.7646 28 39 28 39C28 39 30.2945 39.0531 31 39C31.4405 38.9863 34.1092 38.8292 34.4563 38.7698C34.9043 38.6931 35.3539 38.8444 35.7485 38.8745C36.0574 38.8981 36.7673 38.801 37.1161 38.7698C37.8015 38.7085 37.9923 38.7737 38.4962 37.8311C39 36.8885 39 34.9289 39 34.1944V29.3527V25.0772C39 23.9642 38.9174 20.977 38.9174 20.1082Z" fill="#3D3131" stroke="#3D3131" stroke-width="2" stroke-linejoin="round"/>
</svg>
