<svg width="66" height="121" viewBox="0 0 66 121" fill="none" xmlns="http://www.w3.org/2000/svg">
<path d="M37.9191 17.4249L42.1378 18.3406L40.8548 25.1674L40.3047 27.9243L39.0822 34.4004L38.4226 38.6629L37.2798 43.4773L36.8494 44.7916L32.3271 63.5408L31.3985 68.7357L30.0864 75.0292L29.0073 81.3146L28.0939 83.8936L27.4277 86.5135L26.3385 92.4281L24.338 100.235L22.5163 108.741L21.3463 108.797L18.2976 107.825L18.2374 106.57L20.1651 98.7068L22.1672 89.4725L23.3137 84.8843L23.7531 82.057L24.709 79.4927L25.4689 74.3475L27.0176 67.6534L28.1084 62.6252L28.4202 60.4009L30.5611 51.3251L30.8711 48.8383L32.4939 42.0763L33.0137 40.025L33.3117 37.9801L35.4664 28.725L36.3358 23.8531L37.2426 20.5687L37.9191 17.4249Z" stroke="#3D3131" stroke-width="1.85011" stroke-linecap="round" stroke-linejoin="round"/>
<path opacity="0.8" d="M11.1795 60.1143C9.96889 60.1143 11.1562 59.6789 8.21946 59.7767L6.94904 59.909L11.7376 91.5541L15.2355 115.815H15.5151L16.7226 116.039H18.1894L19.0734 115.815L20.3951 116.039H21.5134C21.9709 116.013 23.0028 115.933 23.4705 115.815C23.8008 115.732 24.4439 116.014 25.485 116.039C26.2865 116.058 27.5183 115.815 27.8279 115.815C28.5396 115.815 28.7042 115.696 29.4156 115.815C30.1704 115.941 30.5504 115.977 31.3328 115.715C32.3533 115.374 32.6044 115.815 33.2846 115.815H37.0687C37.5364 115.815 38.4951 115.658 39.152 115.815C39.5135 115.902 41.7714 115.944 42.0857 115.815C42.3999 115.687 43.4462 115.815 43.8289 115.815C44.2115 115.815 44.4804 116 44.9906 115.658C45.7907 115.815 47.9331 115.815 48.7791 115.815C49.4559 115.815 50.1699 115.587 50.4423 115.474L53.2322 98.3359L58.6285 59.909C58.5084 60.1091 58.0176 60.0297 57.4735 60.0617C56.7934 60.1018 56.3284 60.201 55.4082 59.909C54.9053 59.7494 51.1238 59.7305 49.5556 59.7767C48.2543 59.8152 49.1797 59.909 48.379 59.909C47.7359 59.909 45.9353 59.9471 44.3107 59.909C43.2192 59.8835 42.3499 59.7767 41.4286 59.7767C39.9568 59.7767 39.4899 59.909 38.9969 59.909H28.1014C27.8281 59.909 26.1921 60.1217 24.6293 60.1143C23.1028 60.107 21.663 59.8792 20.2412 59.909C18.5609 59.9442 18.6108 60.1141 17.1254 60.1143C15.1796 60.1146 14.9293 59.8919 13.6721 59.909C12.9451 59.909 11.7685 60.1143 11.1795 60.1143Z" fill="#3E241B"/>
<path opacity="0.38" d="M24.2743 89.504L25.4046 89.504L27.905 89.7899L28.9182 90.3718L30.5558 90.6304L31.9308 91.1203L32.2554 92.0597L31.6213 93.8531L30.6639 97.248L29.9527 99.0357L28.9182 99.1865L28.1269 98.8884L25.6207 98.54L23.0325 97.5311L22.1994 97.248L22 96.277L22.4742 94.4451L23.1854 91.7296L23.9825 90.3718L24.2743 89.504Z" stroke="#FFFBFA" stroke-width="1.85011" stroke-linecap="round" stroke-linejoin="round"/>
<path opacity="0.38" d="M42.4945 80.5749L44.3346 80.5749L45.8904 80.9826L49.8871 81.8673L50.7711 82.6909L50.4667 84.6127L49.5516 86.321L48.8575 89.4861L48.1635 90.3939L47.1112 90.3939L44.3346 89.4861L42.1389 89.0359L40.4195 88.3189L40.5828 86.6565L41.4673 83.789L41.9961 81.8673L42.4945 80.5749Z" stroke="#FFFBFA" stroke-width="1.85011" stroke-linecap="round" stroke-linejoin="round"/>
<path opacity="0.7" d="M31.4124 70.0736L32.8502 69.1166L34.278 68.6261L37.8612 67.2387L38.9803 67.4225L39.7419 69.0825L39.9153 70.8933L41.0191 73.7275L40.9489 74.7979L40.1266 75.3451L37.4848 76.0799L35.5349 76.87L33.8185 77.2039L33.0815 75.82L32.2813 73.1194L31.695 71.3427L31.4124 70.0736Z" stroke="#FFFBFA" stroke-width="1.85011" stroke-linecap="round" stroke-linejoin="round"/>
<path opacity="0.5" d="M17.0034 69.208L17.644 68.8708L20.1189 69.861L22.7218 70.5113L23.5043 71.2763L23.2631 72.4687L21.9469 75.5633L21.5884 77.2014L21.168 77.9121L20.1552 77.7234L16.7734 76.596L14.8828 76.0788L14.6595 74.9819L15.4062 73.0808L15.747 71.4909L16.4132 69.8117L17.0034 69.208Z" stroke="#FFFBFA" stroke-width="1.85011" stroke-linecap="round" stroke-linejoin="round"/>
<path opacity="0.7" d="M36.5375 100.778L36.8351 100.211L38.1928 99.939L41.914 99.1514L43.0818 98.7026L44.2815 98.7026L44.9821 99.939L45.5252 101.84L45.8511 103.768L46.3564 105.289L46.3564 106.447L45.5252 107.217L43.4613 107.76L40.4469 108.168L38.6125 108.522L37.8127 107.76L37.5066 105.71L37.1611 103.768L36.5377 102.41L36.5375 100.778Z" stroke="#FFFBFA" stroke-width="1.85011" stroke-linecap="round" stroke-linejoin="round"/>
<path d="M60.9804 49.6591C61.2317 47.2863 60.5583 45.618 60.143 43.7691C59.7245 41.9058 59.3096 40.1652 58.4845 38.3825C58.0956 37.5423 57.9298 36.7747 57.4632 35.9808C56.6711 34.6331 55.5077 33.3048 54.5129 32.1086C53.276 30.6213 51.8926 29.2599 50.3884 28.0467C50.0635 27.7846 49.8204 27.4051 49.4844 27.1571C48.5501 26.4673 47.4868 25.9569 46.4749 25.3822C44.9912 24.5397 43.6227 23.7944 41.9876 23.2271C40.4444 22.6917 38.7517 22.4195 37.1004 22.156C35.6335 21.922 34.076 21.6044 32.5431 21.6044C28.783 21.6044 25.2498 22.2014 21.966 23.53C21.5208 23.7101 21.1669 24.098 20.7333 24.2997C18.5198 25.3294 16.4613 26.6363 14.6024 28.1758C13.9148 28.7452 13.3172 29.3662 12.6865 29.997C11.9146 30.769 10.797 31.5142 10.1178 32.3706C9.45641 33.2047 9.16835 34.128 8.60259 35.0344C7.73175 36.4295 6.97877 37.9058 6.35758 39.4493C6.13158 40.0108 5.74738 40.5387 5.55694 41.1173C5.40551 41.5774 5.4412 42.0854 5.31302 42.5556C4.66341 44.9384 4.3645 47.022 4.3645 49.6108" stroke="#3D3131" stroke-width="1.85011" stroke-linecap="round" stroke-linejoin="round"/>
<path d="M1.23364 50.035C1.49809 49.929 2.08414 49.8673 2.08414 49.8673L6.2457 49.7982L14.907 49.9511H17.2307L29.8312 50.2881L32.3772 50.035L46.1979 49.7982L47.9489 50.035L62.4698 49.8614L63.5207 50.035L63.7336 51.536L63.5207 55.5171L63.1649 56.2861L59.2786 56.107L54.6875 56.2441L45.8544 56.2861L42.6454 56.107L38.2357 56.6229L29.8312 56.2861L28.1882 56.3702L16.5293 56.202L13.3381 56.3702L8.4091 56.202L6.73452 56.0226L1.56345 56.202L1.06951 54.126L1.23364 52.8358L1.06951 50.9C1.06951 50.9 0.969198 50.1411 1.23364 50.035Z" stroke="#3D3131" stroke-width="1.85011" stroke-linecap="round" stroke-linejoin="round"/>
<path d="M6.16711 56.202L6.63683 61.0221L7.49387 64.8488L8.1995 72.6075L8.5431 74.841L9.36775 77.2806L9.92712 82.8085L10.7924 87.9622L11.4142 90.8716L12.3853 101.008L13.1135 103.549L13.9945 110.881L14.7061 116.212L15.001 118.859L15.5892 119.722H19.3937H21.8808L24.1177 119.519L25.6736 119.722L31.2561 119.918L36.8478 119.722H40.5383L41.5455 119.918H48.0057L49.953 119.722L50.8638 114.711L51.0875 113.12L52.2807 104.705L54.3531 93.7147L54.8849 89.1974L55.7975 84.0436L57.1392 74.6649L57.7088 71.1521L58.3734 63.3672L59.2036 56.202" stroke="#3D3131" stroke-width="1.85011" stroke-linecap="round" stroke-linejoin="round"/>
<path d="M18.5012 114.172L19.6055 114.302L28.1196 114.063L30.8495 114.172L38.1692 114.063L40.0858 114.172" stroke="#3D3131" stroke-width="1.85011" stroke-linecap="round" stroke-linejoin="round"/>
<path d="M43.4777 114.172L44.3657 114.085L45.5642 114.172L46.8695 114.172" stroke="#3D3131" stroke-width="1.85011" stroke-linecap="round" stroke-linejoin="round"/>
<path d="M10.484 61.7523L12.4196 61.6251L15.3283 61.7523L21.1227 61.8771L23.1264 61.7523H26.5736L31.1084 61.8771L35.7688 61.7523" stroke="#3D3131" stroke-width="1.85011" stroke-linecap="round" stroke-linejoin="round"/>
<path d="M39.4691 61.7523L40.6541 61.6631L41.5888 61.7523H42.5526" stroke="#3D3131" stroke-width="1.85011" stroke-linecap="round" stroke-linejoin="round"/>
<path d="M45.6361 61.7524L47.4874 61.8463L48.347 61.7524H49.7989L51.0689 61.8463L52.4836 61.6135L53.9616 61.7524" stroke="#3D3131" stroke-width="1.85011" stroke-linecap="round" stroke-linejoin="round"/>
<path d="M62.7942 1.1803L63.7019 2.66217L64.486 4.12534L64.2608 5.07114L62.4967 5.99257L59.2786 7.37761L56.1466 9.2752L52.464 11.0024L49.9713 12.6109L47.9132 13.5588L46.0724 14.569L45.3903 14.6018L43.726 11.4228L43.687 10.6127L45.4273 9.49557L46.9465 8.83196L52.2266 6.06829L54.19 4.94045L57.3666 3.45898L60.3875 1.78818L61.9514 1.04983L62.7942 1.1803Z" stroke="#3D3131" stroke-width="1.85011" stroke-linecap="round" stroke-linejoin="round"/>
<path d="M43.7559 16.0099L42.4049 18.0875L38.1186 17.0392L39.6537 13.6483L43.7559 16.0099Z" stroke="#3D3131" stroke-width="1.85011" stroke-linecap="round" stroke-linejoin="round"/>
<path d="M45.1663 14.6783L43.9461 16.071L39.6945 13.7299L43.0697 10.988L45.1663 14.6783Z" stroke="#3D3131" stroke-width="1.85011" stroke-linecap="round" stroke-linejoin="round"/>
</svg>
