<svg width="270" height="279" viewBox="0 0 270 279" fill="none" xmlns="http://www.w3.org/2000/svg">
<mask id="path-1-inside-1_0_1" fill="white">
<path d="M266.247 143.507C266.247 145.464 266.364 147.638 266.247 149.534C266.1 151.917 265.693 154.015 265.456 156.41C265.237 158.611 265.111 160.972 264.785 163.14C264.377 165.86 263.761 168.618 263.315 171.199C262.831 174.001 262.503 176.621 261.693 179.437C261.364 180.581 260.5 182.144 260.159 183.382C259.574 185.499 258.956 187.661 258.256 189.555C257.606 191.313 256.818 192.432 256.096 194.153C255.627 195.269 255.446 196.952 254.948 198.053C254.153 199.808 253.017 200.969 252.148 202.682C251.136 204.677 249.831 206.496 248.721 208.431C247.638 210.318 246.754 212.323 245.582 214.149C244.664 215.578 243.918 217.484 242.948 218.874C241.574 220.842 239.949 222.276 238.472 224.163C237.689 225.164 236.235 226.524 235.424 227.501C233.258 230.109 231.649 232.26 229.29 234.692C228.178 235.838 227.237 237.552 226.083 238.658C224.397 240.274 222.475 241.259 220.704 242.784C219.737 243.617 218.902 244.663 217.91 245.468C216.525 246.593 214.972 247.462 213.54 248.531C212.559 249.263 211.778 250.082 210.775 250.787C209.498 251.686 207.994 252.463 206.684 253.316C204.628 254.656 202.92 256.048 200.786 257.273C199.103 258.24 197.009 259.061 195.28 259.954C193.6 260.821 191.546 261.407 189.824 262.203C187.527 263.265 185.547 264.509 183.18 265.439C182.26 265.801 180.571 266.143 179.64 266.484C177.297 267.344 175.686 268.149 173.282 268.877C170.861 269.61 168.41 270.275 165.932 270.869C164.217 271.28 162.635 272.132 160.895 272.475C159.224 272.805 157.396 272.627 155.704 272.892C154.493 273.082 150.635 273.419 149.414 273.575C145.831 274.033 144.844 274.183 141.177 274.345C139.222 274.432 136.018 274.217 134.041 274.217C131.252 274.217 129.72 274.388 126.974 274.217C124.578 274.067 122.199 273.852 119.839 273.575C117.595 273.312 115.679 272.851 113.471 272.475C111.12 272.076 108.156 272.027 105.85 271.504C103.187 270.9 100.458 269.972 97.7814 269.039C95.9169 268.388 94.4033 267.479 92.6262 266.872C90.7703 266.238 89.2042 266.157 87.3869 265.443C85.7011 264.78 84.0323 264.083 82.3815 263.354C80.8017 262.655 78.6305 261.751 77.1609 260.895C75.4944 259.924 74.5357 258.991 72.8276 258.056C69.8818 256.444 66.6767 255.143 63.8739 253.316C62.8041 252.619 61.8468 251.461 60.7989 250.734C58.7886 249.339 56.4734 248.322 54.5231 246.924C53.2236 245.993 52.0582 244.921 50.8958 243.825C50.1143 243.088 49.2901 242.045 48.4715 241.32C47.8452 240.766 47.2684 240.501 46.653 239.935C44.8488 238.276 42.6342 236.577 40.9255 234.821C39.8082 233.672 39.1687 232.492 38.0938 231.303C37.0867 230.188 36.4404 228.946 35.4716 227.798C34.4346 226.568 33.0779 225.431 32.086 224.163C31.1389 222.953 29.5777 220.375 28.6728 219.131C27.6114 217.672 27.2144 217.543 26.2127 216.039C25.2601 214.61 24.4148 212.605 23.5177 211.137C22.2669 209.09 20.9908 207.561 19.8513 205.441C19.0953 204.035 18.6198 202.338 17.9143 200.901C17.1153 199.275 16.0935 197.906 15.3608 196.242C14.3145 193.866 13.3671 191.245 12.4603 188.798C11.9257 187.355 11.3853 186.108 10.9006 184.641C10.348 182.969 10.0328 181.16 9.54651 179.459C9.14908 178.069 8.56932 176.792 8.21709 175.383C7.80167 173.722 7.73115 171.955 7.37987 170.269C7.04597 168.667 6.42818 167.147 6.15343 165.524C5.84484 163.701 5.57391 161.866 5.34149 160.018C4.99414 157.256 5.01228 154.329 4.83966 151.517C4.67424 148.822 4.31079 146.244 4.31079 143.507C4.31079 141.154 4.71709 137.403 4.83966 135.08C4.98409 132.343 4.8683 131.042 5.17825 128.352C5.56043 125.035 5.70866 121.805 6.3339 118.569C6.77117 116.305 7.62457 114.014 8.17678 111.793C8.76176 109.441 8.98574 106.972 9.69594 104.672C10.3119 102.678 11.3987 100.846 12.1061 98.8929C13.072 96.227 14.1218 93.6014 15.2526 91.0193C15.6739 90.0574 15.5282 89.1106 15.9717 88.1609C17.3504 85.209 17.9849 84.9385 19.7073 82.1092C20.8369 80.2539 21.6042 77.4009 23.0694 74.8622C24.1322 73.0206 25.912 71.4126 26.7737 70.1406C28.5445 67.5268 30.9813 65.0091 32.9314 62.5347C34.2808 60.8225 35.098 59.116 36.5295 57.4743C38.5066 55.2069 39.9943 53.0055 42.1209 50.8796C43.8595 49.1417 46.213 47.455 48.0466 45.8166C50.0197 44.0535 51.6982 43.1832 53.776 41.5406C55.4498 40.2175 57.505 38.1005 59.2436 36.8588C60.8848 35.6865 62.5542 34.5512 64.2507 33.4541C66.512 31.9917 67.4848 31.6578 69.8391 30.3338C71.7339 29.2683 73.7684 27.66 76.1149 26.3741C77.4029 25.6683 79.0969 25.1618 80.1846 24.6567C81.7592 23.9256 83.3507 23.2248 84.9584 22.5552C87.4025 21.5372 89.2134 21.4181 91.7297 20.5466C93.8365 19.8169 95.6034 18.6195 97.9308 17.7822C100.1 17.0017 102.828 16.5732 104.875 16.0867C107.117 15.5536 109.99 14.5374 112.276 14.1213C115.097 13.6077 117.342 13.7251 120.223 13.3954C122.615 13.1216 124.938 12.6825 127.367 12.5393C129.956 12.3868 132.652 12.5393 135.279 12.5393C138.823 12.5393 141.377 12.6497 144.85 12.9259C146.957 13.0936 150.008 13.3415 152.086 13.6078C153.844 13.833 155.068 14.4248 156.804 14.719C158.554 15.0158 160.817 15.0156 162.543 15.3812C165.466 16.0001 167.405 16.6731 170.252 17.4834C172.79 18.2057 176.245 19.0461 178.718 19.9152C180.32 20.4781 182.202 20.671 183.775 21.2937C186.182 22.2471 188.26 23.6702 190.595 24.7599C193.401 26.0692 195.202 26.7437 197.895 28.2419C199.638 29.2111 202.307 30.9503 204 31.9956C206.088 33.2856 206.944 33.9376 208.953 35.3395C210.818 36.6413 213.842 38.6853 215.634 40.0799C217.915 41.8542 219.946 42.835 222.102 44.7532C223.654 46.1335 225.362 48.4174 226.846 49.869C228.47 51.4571 230.052 53.0871 231.592 54.7573C233.065 56.3552 233.784 57.8017 235.177 59.4715C236.27 60.7816 238.053 62.3015 239.095 63.6543C240.185 65.0684 241.242 65.6331 242.274 67.0921C243.174 68.3635 243.77 69.4672 244.375 70.6429C244.861 71.5877 245.829 73.2729 246.487 74.4353C247.234 75.7567 248.002 76.5493 248.924 78.0634C249.962 79.765 250.675 81.4942 251.421 82.9204C252.581 85.14 253.329 87.5026 254.364 89.7946C254.838 90.8451 255.649 91.7973 256.096 92.8624C256.979 94.967 257.809 97.0996 258.584 99.2585C259.3 101.256 259.516 102.348 260.137 104.389C260.787 106.525 261.839 109.612 262.381 111.793C262.791 113.442 263.357 114.781 263.704 116.454C264.015 117.954 264.113 119.786 264.373 121.304C264.648 122.914 264.893 124.534 265.109 126.163C265.35 127.99 265.29 129.652 265.456 131.502C265.643 133.593 266.045 135.875 266.133 137.993C266.209 139.822 266.247 141.66 266.247 143.507Z"/>
</mask>
<path d="M266.247 143.507C266.247 145.464 266.364 147.638 266.247 149.534C266.1 151.917 265.693 154.015 265.456 156.41C265.237 158.611 265.111 160.972 264.785 163.14C264.377 165.86 263.761 168.618 263.315 171.199C262.831 174.001 262.503 176.621 261.693 179.437C261.364 180.581 260.5 182.144 260.159 183.382C259.574 185.499 258.956 187.661 258.256 189.555C257.606 191.313 256.818 192.432 256.096 194.153C255.627 195.269 255.446 196.952 254.948 198.053C254.153 199.808 253.017 200.969 252.148 202.682C251.136 204.677 249.831 206.496 248.721 208.431C247.638 210.318 246.754 212.323 245.582 214.149C244.664 215.578 243.918 217.484 242.948 218.874C241.574 220.842 239.949 222.276 238.472 224.163C237.689 225.164 236.235 226.524 235.424 227.501C233.258 230.109 231.649 232.26 229.29 234.692C228.178 235.838 227.237 237.552 226.083 238.658C224.397 240.274 222.475 241.259 220.704 242.784C219.737 243.617 218.902 244.663 217.91 245.468C216.525 246.593 214.972 247.462 213.54 248.531C212.559 249.263 211.778 250.082 210.775 250.787C209.498 251.686 207.994 252.463 206.684 253.316C204.628 254.656 202.92 256.048 200.786 257.273C199.103 258.24 197.009 259.061 195.28 259.954C193.6 260.821 191.546 261.407 189.824 262.203C187.527 263.265 185.547 264.509 183.18 265.439C182.26 265.801 180.571 266.143 179.64 266.484C177.297 267.344 175.686 268.149 173.282 268.877C170.861 269.61 168.41 270.275 165.932 270.869C164.217 271.28 162.635 272.132 160.895 272.475C159.224 272.805 157.396 272.627 155.704 272.892C154.493 273.082 150.635 273.419 149.414 273.575C145.831 274.033 144.844 274.183 141.177 274.345C139.222 274.432 136.018 274.217 134.041 274.217C131.252 274.217 129.72 274.388 126.974 274.217C124.578 274.067 122.199 273.852 119.839 273.575C117.595 273.312 115.679 272.851 113.471 272.475C111.12 272.076 108.156 272.027 105.85 271.504C103.187 270.9 100.458 269.972 97.7814 269.039C95.9169 268.388 94.4033 267.479 92.6262 266.872C90.7703 266.238 89.2042 266.157 87.3869 265.443C85.7011 264.78 84.0323 264.083 82.3815 263.354C80.8017 262.655 78.6305 261.751 77.1609 260.895C75.4944 259.924 74.5357 258.991 72.8276 258.056C69.8818 256.444 66.6767 255.143 63.8739 253.316C62.8041 252.619 61.8468 251.461 60.7989 250.734C58.7886 249.339 56.4734 248.322 54.5231 246.924C53.2236 245.993 52.0582 244.921 50.8958 243.825C50.1143 243.088 49.2901 242.045 48.4715 241.32C47.8452 240.766 47.2684 240.501 46.653 239.935C44.8488 238.276 42.6342 236.577 40.9255 234.821C39.8082 233.672 39.1687 232.492 38.0938 231.303C37.0867 230.188 36.4404 228.946 35.4716 227.798C34.4346 226.568 33.0779 225.431 32.086 224.163C31.1389 222.953 29.5777 220.375 28.6728 219.131C27.6114 217.672 27.2144 217.543 26.2127 216.039C25.2601 214.61 24.4148 212.605 23.5177 211.137C22.2669 209.09 20.9908 207.561 19.8513 205.441C19.0953 204.035 18.6198 202.338 17.9143 200.901C17.1153 199.275 16.0935 197.906 15.3608 196.242C14.3145 193.866 13.3671 191.245 12.4603 188.798C11.9257 187.355 11.3853 186.108 10.9006 184.641C10.348 182.969 10.0328 181.16 9.54651 179.459C9.14908 178.069 8.56932 176.792 8.21709 175.383C7.80167 173.722 7.73115 171.955 7.37987 170.269C7.04597 168.667 6.42818 167.147 6.15343 165.524C5.84484 163.701 5.57391 161.866 5.34149 160.018C4.99414 157.256 5.01228 154.329 4.83966 151.517C4.67424 148.822 4.31079 146.244 4.31079 143.507C4.31079 141.154 4.71709 137.403 4.83966 135.08C4.98409 132.343 4.8683 131.042 5.17825 128.352C5.56043 125.035 5.70866 121.805 6.3339 118.569C6.77117 116.305 7.62457 114.014 8.17678 111.793C8.76176 109.441 8.98574 106.972 9.69594 104.672C10.3119 102.678 11.3987 100.846 12.1061 98.8929C13.072 96.227 14.1218 93.6014 15.2526 91.0193C15.6739 90.0574 15.5282 89.1106 15.9717 88.1609C17.3504 85.209 17.9849 84.9385 19.7073 82.1092C20.8369 80.2539 21.6042 77.4009 23.0694 74.8622C24.1322 73.0206 25.912 71.4126 26.7737 70.1406C28.5445 67.5268 30.9813 65.0091 32.9314 62.5347C34.2808 60.8225 35.098 59.116 36.5295 57.4743C38.5066 55.2069 39.9943 53.0055 42.1209 50.8796C43.8595 49.1417 46.213 47.455 48.0466 45.8166C50.0197 44.0535 51.6982 43.1832 53.776 41.5406C55.4498 40.2175 57.505 38.1005 59.2436 36.8588C60.8848 35.6865 62.5542 34.5512 64.2507 33.4541C66.512 31.9917 67.4848 31.6578 69.8391 30.3338C71.7339 29.2683 73.7684 27.66 76.1149 26.3741C77.4029 25.6683 79.0969 25.1618 80.1846 24.6567C81.7592 23.9256 83.3507 23.2248 84.9584 22.5552C87.4025 21.5372 89.2134 21.4181 91.7297 20.5466C93.8365 19.8169 95.6034 18.6195 97.9308 17.7822C100.1 17.0017 102.828 16.5732 104.875 16.0867C107.117 15.5536 109.99 14.5374 112.276 14.1213C115.097 13.6077 117.342 13.7251 120.223 13.3954C122.615 13.1216 124.938 12.6825 127.367 12.5393C129.956 12.3868 132.652 12.5393 135.279 12.5393C138.823 12.5393 141.377 12.6497 144.85 12.9259C146.957 13.0936 150.008 13.3415 152.086 13.6078C153.844 13.833 155.068 14.4248 156.804 14.719C158.554 15.0158 160.817 15.0156 162.543 15.3812C165.466 16.0001 167.405 16.6731 170.252 17.4834C172.79 18.2057 176.245 19.0461 178.718 19.9152C180.32 20.4781 182.202 20.671 183.775 21.2937C186.182 22.2471 188.26 23.6702 190.595 24.7599C193.401 26.0692 195.202 26.7437 197.895 28.2419C199.638 29.2111 202.307 30.9503 204 31.9956C206.088 33.2856 206.944 33.9376 208.953 35.3395C210.818 36.6413 213.842 38.6853 215.634 40.0799C217.915 41.8542 219.946 42.835 222.102 44.7532C223.654 46.1335 225.362 48.4174 226.846 49.869C228.47 51.4571 230.052 53.0871 231.592 54.7573C233.065 56.3552 233.784 57.8017 235.177 59.4715C236.27 60.7816 238.053 62.3015 239.095 63.6543C240.185 65.0684 241.242 65.6331 242.274 67.0921C243.174 68.3635 243.77 69.4672 244.375 70.6429C244.861 71.5877 245.829 73.2729 246.487 74.4353C247.234 75.7567 248.002 76.5493 248.924 78.0634C249.962 79.765 250.675 81.4942 251.421 82.9204C252.581 85.14 253.329 87.5026 254.364 89.7946C254.838 90.8451 255.649 91.7973 256.096 92.8624C256.979 94.967 257.809 97.0996 258.584 99.2585C259.3 101.256 259.516 102.348 260.137 104.389C260.787 106.525 261.839 109.612 262.381 111.793C262.791 113.442 263.357 114.781 263.704 116.454C264.015 117.954 264.113 119.786 264.373 121.304C264.648 122.914 264.893 124.534 265.109 126.163C265.35 127.99 265.29 129.652 265.456 131.502C265.643 133.593 266.045 135.875 266.133 137.993C266.209 139.822 266.247 141.66 266.247 143.507Z" fill="#5E4942" stroke="#3D3131" stroke-width="3.39453" mask="url(#path-1-inside-1_0_1)"/>
<mask id="path-2-inside-2_0_1" fill="white">
<path d="M258.344 143.502C258.344 145.34 258.454 147.383 258.344 149.165C258.206 151.404 257.824 153.375 257.601 155.626C257.396 157.694 257.277 159.913 256.971 161.95C256.587 164.506 256.008 167.097 255.589 169.522C255.135 172.155 254.827 174.617 254.066 177.263C253.756 178.338 252.945 179.806 252.623 180.97C252.074 182.959 251.494 184.991 250.835 186.771C250.225 188.422 249.484 189.473 248.806 191.091C248.365 192.14 248.195 193.721 247.727 194.755C246.98 196.405 245.913 197.496 245.096 199.105C244.145 200.98 242.919 202.689 241.876 204.507C240.859 206.28 240.027 208.164 238.926 209.88C238.064 211.223 237.363 213.014 236.451 214.32C235.16 216.17 233.634 217.517 232.246 219.29C231.51 220.23 230.143 221.508 229.381 222.426C227.346 224.877 225.835 226.898 223.618 229.183C222.573 230.261 221.688 231.871 220.604 232.91C219.02 234.428 217.214 235.354 215.55 236.787C214.641 237.569 213.857 238.553 212.925 239.309C211.623 240.366 210.164 241.183 208.819 242.187C207.896 242.875 207.163 243.644 206.22 244.307C205.021 245.151 203.607 245.882 202.376 246.684C200.444 247.942 198.839 249.251 196.834 250.402C195.253 251.31 193.285 252.082 191.66 252.921C190.081 253.736 188.151 254.286 186.534 255.034C184.375 256.032 182.514 257.201 180.29 258.075C179.426 258.415 177.839 258.736 176.965 259.057C174.763 259.865 173.249 260.621 170.99 261.305C168.715 261.994 166.412 262.618 164.084 263.177C162.472 263.563 160.986 264.364 159.35 264.686C157.781 264.996 156.063 264.829 154.473 265.078C153.335 265.256 149.71 265.573 148.562 265.72C145.196 266.15 144.268 266.291 140.822 266.443C138.985 266.525 135.975 266.323 134.117 266.323C131.496 266.323 130.057 266.484 127.477 266.323C125.225 266.182 122.99 265.98 120.773 265.72C118.664 265.472 116.863 265.039 114.789 264.686C112.58 264.311 109.795 264.266 107.628 263.774C105.125 263.206 102.561 262.334 100.046 261.457C98.2942 260.846 96.872 259.992 95.2021 259.421C93.4582 258.825 91.9867 258.749 90.279 258.078C88.6949 257.456 87.1269 256.801 85.5757 256.115C84.0913 255.459 82.0511 254.61 80.6701 253.805C79.1043 252.893 78.2034 252.016 76.5984 251.137C73.8304 249.623 70.8187 248.4 68.1851 246.684C67.1799 246.029 66.2804 244.941 65.2957 244.257C63.4067 242.947 61.2312 241.99 59.3987 240.677C58.1776 239.802 57.0825 238.795 55.9903 237.765C55.256 237.073 54.4815 236.093 53.7122 235.412C53.1238 234.891 52.5818 234.642 52.0035 234.11C50.3082 232.551 48.2273 230.955 46.6217 229.304C45.5718 228.225 44.9709 227.116 43.9609 225.999C43.0146 224.952 42.4072 223.784 41.4969 222.705C40.5225 221.55 39.2477 220.481 38.3156 219.29C37.4257 218.153 35.9587 215.73 35.1085 214.562C34.1112 213.191 33.7381 213.069 32.7969 211.657C31.9018 210.313 31.1075 208.43 30.2645 207.05C29.0892 205.126 27.8901 203.689 26.8194 201.698C26.109 200.377 25.6622 198.782 24.9993 197.432C24.2485 195.904 23.2884 194.617 22.5999 193.054C21.6167 190.821 20.7265 188.359 19.8744 186.059C19.3721 184.703 18.8644 183.531 18.4089 182.153C17.8896 180.582 17.5935 178.882 17.1365 177.284C16.7631 175.978 16.2183 174.778 15.8873 173.454C15.497 171.893 15.4307 170.233 15.1006 168.649C14.7869 167.143 14.2064 165.715 13.9482 164.19C13.6583 162.477 13.4037 160.752 13.1853 159.016C12.8589 156.421 12.876 153.671 12.7137 151.028C12.5583 148.496 12.2168 146.074 12.2168 143.502C12.2168 141.291 12.5986 137.766 12.7137 135.583C12.8495 133.012 12.7407 131.789 13.0319 129.261C13.391 126.145 13.5303 123.11 14.1178 120.069C14.5287 117.942 15.3306 115.788 15.8495 113.702C16.3991 111.492 16.6096 109.172 17.2769 107.011C17.8557 105.137 18.877 103.415 19.5417 101.58C20.4492 99.0752 21.4357 96.6081 22.4983 94.1818C22.8941 93.2779 22.7572 92.3883 23.174 91.4959C24.4694 88.7221 25.0656 88.468 26.6841 85.8095C27.7455 84.0661 28.4665 81.3853 29.8433 78.9998C30.8419 77.2693 32.5143 75.7584 33.324 74.5632C34.988 72.1071 37.2776 69.7414 39.11 67.4163C40.378 65.8075 41.1459 64.204 42.491 62.6613C44.3488 60.5308 45.7467 58.4623 47.745 56.4647C49.3787 54.8316 51.5901 53.2467 53.313 51.7072C55.1671 50.0505 56.7442 49.2327 58.6966 47.6893C60.2694 46.446 62.2006 44.4567 63.8342 43.29C65.3764 42.1885 66.9451 41.1217 68.5391 40.0908C70.664 38.7166 71.578 38.403 73.7903 37.1589C75.5707 36.1576 77.4824 34.6464 79.6873 33.4381C80.8976 32.7749 82.4894 32.299 83.5114 31.8244C84.991 31.1374 86.4864 30.4789 87.9971 29.8497C90.2937 28.8932 91.9952 28.7812 94.3597 27.9623C96.3393 27.2767 97.9997 26.1515 100.187 25.3648C102.225 24.6313 104.789 24.2287 106.712 23.7716C108.819 23.2707 111.518 22.3158 113.666 21.9249C116.317 21.4422 118.426 21.5526 121.133 21.2427C123.381 20.9855 125.564 20.5728 127.846 20.4383C130.279 20.295 132.812 20.4383 135.281 20.4383C138.611 20.4383 141.011 20.542 144.274 20.8016C146.254 20.9591 149.121 21.1921 151.074 21.4423C152.726 21.6539 153.876 22.21 155.506 22.4865C157.151 22.7653 159.277 22.7652 160.899 23.1086C163.646 23.6902 165.468 24.3226 168.143 25.084C170.528 25.7627 173.774 26.5524 176.098 27.3691C177.603 27.898 179.372 28.0792 180.85 28.6643C183.112 29.5602 185.064 30.8974 187.258 31.9213C189.895 33.1516 191.587 33.7854 194.118 35.1932C195.755 36.1039 198.263 37.7382 199.854 38.7203C201.817 39.9325 202.621 40.5452 204.508 41.8625C206.261 43.0856 209.102 45.0063 210.786 46.3167C212.929 47.984 214.837 48.9056 216.864 50.708C218.322 52.005 219.927 54.151 221.321 55.515C222.847 57.0073 224.334 58.539 225.781 60.1083C227.165 61.6098 227.84 62.9689 229.149 64.538C230.176 65.769 231.852 67.1972 232.831 68.4683C233.855 69.7971 234.849 70.3277 235.819 71.6987C236.664 72.8934 237.224 73.9304 237.793 75.0351C238.249 75.923 239.159 77.5065 239.777 78.5987C240.479 79.8404 241.2 80.5851 242.067 82.0078C243.042 83.6067 243.712 85.2316 244.413 86.5717C245.503 88.6573 246.206 90.8773 247.178 93.031C247.624 94.0181 248.386 94.9129 248.806 95.9136C249.636 97.8913 250.415 99.8952 251.143 101.924C251.817 103.801 252.019 104.827 252.603 106.745C253.214 108.752 254.202 111.653 254.712 113.702C255.097 115.251 255.629 116.509 255.955 118.081C256.247 119.491 256.34 121.212 256.583 122.639C256.841 124.151 257.072 125.673 257.275 127.204C257.502 128.921 257.445 130.483 257.601 132.221C257.777 134.186 258.155 136.33 258.237 138.32C258.309 140.039 258.344 141.766 258.344 143.502Z"/>
</mask>
<path d="M258.344 143.502C258.344 145.34 258.454 147.383 258.344 149.165C258.206 151.404 257.824 153.375 257.601 155.626C257.396 157.694 257.277 159.913 256.971 161.95C256.587 164.506 256.008 167.097 255.589 169.522C255.135 172.155 254.827 174.617 254.066 177.263C253.756 178.338 252.945 179.806 252.623 180.97C252.074 182.959 251.494 184.991 250.835 186.771C250.225 188.422 249.484 189.473 248.806 191.091C248.365 192.14 248.195 193.721 247.727 194.755C246.98 196.405 245.913 197.496 245.096 199.105C244.145 200.98 242.919 202.689 241.876 204.507C240.859 206.28 240.027 208.164 238.926 209.88C238.064 211.223 237.363 213.014 236.451 214.32C235.16 216.17 233.634 217.517 232.246 219.29C231.51 220.23 230.143 221.508 229.381 222.426C227.346 224.877 225.835 226.898 223.618 229.183C222.573 230.261 221.688 231.871 220.604 232.91C219.02 234.428 217.214 235.354 215.55 236.787C214.641 237.569 213.857 238.553 212.925 239.309C211.623 240.366 210.164 241.183 208.819 242.187C207.896 242.875 207.163 243.644 206.22 244.307C205.021 245.151 203.607 245.882 202.376 246.684C200.444 247.942 198.839 249.251 196.834 250.402C195.253 251.31 193.285 252.082 191.66 252.921C190.081 253.736 188.151 254.286 186.534 255.034C184.375 256.032 182.514 257.201 180.29 258.075C179.426 258.415 177.839 258.736 176.965 259.057C174.763 259.865 173.249 260.621 170.99 261.305C168.715 261.994 166.412 262.618 164.084 263.177C162.472 263.563 160.986 264.364 159.35 264.686C157.781 264.996 156.063 264.829 154.473 265.078C153.335 265.256 149.71 265.573 148.562 265.72C145.196 266.15 144.268 266.291 140.822 266.443C138.985 266.525 135.975 266.323 134.117 266.323C131.496 266.323 130.057 266.484 127.477 266.323C125.225 266.182 122.99 265.98 120.773 265.72C118.664 265.472 116.863 265.039 114.789 264.686C112.58 264.311 109.795 264.266 107.628 263.774C105.125 263.206 102.561 262.334 100.046 261.457C98.2942 260.846 96.872 259.992 95.2021 259.421C93.4582 258.825 91.9867 258.749 90.279 258.078C88.6949 257.456 87.1269 256.801 85.5757 256.115C84.0913 255.459 82.0511 254.61 80.6701 253.805C79.1043 252.893 78.2034 252.016 76.5984 251.137C73.8304 249.623 70.8187 248.4 68.1851 246.684C67.1799 246.029 66.2804 244.941 65.2957 244.257C63.4067 242.947 61.2312 241.99 59.3987 240.677C58.1776 239.802 57.0825 238.795 55.9903 237.765C55.256 237.073 54.4815 236.093 53.7122 235.412C53.1238 234.891 52.5818 234.642 52.0035 234.11C50.3082 232.551 48.2273 230.955 46.6217 229.304C45.5718 228.225 44.9709 227.116 43.9609 225.999C43.0146 224.952 42.4072 223.784 41.4969 222.705C40.5225 221.55 39.2477 220.481 38.3156 219.29C37.4257 218.153 35.9587 215.73 35.1085 214.562C34.1112 213.191 33.7381 213.069 32.7969 211.657C31.9018 210.313 31.1075 208.43 30.2645 207.05C29.0892 205.126 27.8901 203.689 26.8194 201.698C26.109 200.377 25.6622 198.782 24.9993 197.432C24.2485 195.904 23.2884 194.617 22.5999 193.054C21.6167 190.821 20.7265 188.359 19.8744 186.059C19.3721 184.703 18.8644 183.531 18.4089 182.153C17.8896 180.582 17.5935 178.882 17.1365 177.284C16.7631 175.978 16.2183 174.778 15.8873 173.454C15.497 171.893 15.4307 170.233 15.1006 168.649C14.7869 167.143 14.2064 165.715 13.9482 164.19C13.6583 162.477 13.4037 160.752 13.1853 159.016C12.8589 156.421 12.876 153.671 12.7137 151.028C12.5583 148.496 12.2168 146.074 12.2168 143.502C12.2168 141.291 12.5986 137.766 12.7137 135.583C12.8495 133.012 12.7407 131.789 13.0319 129.261C13.391 126.145 13.5303 123.11 14.1178 120.069C14.5287 117.942 15.3306 115.788 15.8495 113.702C16.3991 111.492 16.6096 109.172 17.2769 107.011C17.8557 105.137 18.877 103.415 19.5417 101.58C20.4492 99.0752 21.4357 96.6081 22.4983 94.1818C22.8941 93.2779 22.7572 92.3883 23.174 91.4959C24.4694 88.7221 25.0656 88.468 26.6841 85.8095C27.7455 84.0661 28.4665 81.3853 29.8433 78.9998C30.8419 77.2693 32.5143 75.7584 33.324 74.5632C34.988 72.1071 37.2776 69.7414 39.11 67.4163C40.378 65.8075 41.1459 64.204 42.491 62.6613C44.3488 60.5308 45.7467 58.4623 47.745 56.4647C49.3787 54.8316 51.5901 53.2467 53.313 51.7072C55.1671 50.0505 56.7442 49.2327 58.6966 47.6893C60.2694 46.446 62.2006 44.4567 63.8342 43.29C65.3764 42.1885 66.9451 41.1217 68.5391 40.0908C70.664 38.7166 71.578 38.403 73.7903 37.1589C75.5707 36.1576 77.4824 34.6464 79.6873 33.4381C80.8976 32.7749 82.4894 32.299 83.5114 31.8244C84.991 31.1374 86.4864 30.4789 87.9971 29.8497C90.2937 28.8932 91.9952 28.7812 94.3597 27.9623C96.3393 27.2767 97.9997 26.1515 100.187 25.3648C102.225 24.6313 104.789 24.2287 106.712 23.7716C108.819 23.2707 111.518 22.3158 113.666 21.9249C116.317 21.4422 118.426 21.5526 121.133 21.2427C123.381 20.9855 125.564 20.5728 127.846 20.4383C130.279 20.295 132.812 20.4383 135.281 20.4383C138.611 20.4383 141.011 20.542 144.274 20.8016C146.254 20.9591 149.121 21.1921 151.074 21.4423C152.726 21.6539 153.876 22.21 155.506 22.4865C157.151 22.7653 159.277 22.7652 160.899 23.1086C163.646 23.6902 165.468 24.3226 168.143 25.084C170.528 25.7627 173.774 26.5524 176.098 27.3691C177.603 27.898 179.372 28.0792 180.85 28.6643C183.112 29.5602 185.064 30.8974 187.258 31.9213C189.895 33.1516 191.587 33.7854 194.118 35.1932C195.755 36.1039 198.263 37.7382 199.854 38.7203C201.817 39.9325 202.621 40.5452 204.508 41.8625C206.261 43.0856 209.102 45.0063 210.786 46.3167C212.929 47.984 214.837 48.9056 216.864 50.708C218.322 52.005 219.927 54.151 221.321 55.515C222.847 57.0073 224.334 58.539 225.781 60.1083C227.165 61.6098 227.84 62.9689 229.149 64.538C230.176 65.769 231.852 67.1972 232.831 68.4683C233.855 69.7971 234.849 70.3277 235.819 71.6987C236.664 72.8934 237.224 73.9304 237.793 75.0351C238.249 75.923 239.159 77.5065 239.777 78.5987C240.479 79.8404 241.2 80.5851 242.067 82.0078C243.042 83.6067 243.712 85.2316 244.413 86.5717C245.503 88.6573 246.206 90.8773 247.178 93.031C247.624 94.0181 248.386 94.9129 248.806 95.9136C249.636 97.8913 250.415 99.8952 251.143 101.924C251.817 103.801 252.019 104.827 252.603 106.745C253.214 108.752 254.202 111.653 254.712 113.702C255.097 115.251 255.629 116.509 255.955 118.081C256.247 119.491 256.34 121.212 256.583 122.639C256.841 124.151 257.072 125.673 257.275 127.204C257.502 128.921 257.445 130.483 257.601 132.221C257.777 134.186 258.155 136.33 258.237 138.32C258.309 140.039 258.344 141.766 258.344 143.502Z" fill="#FFFBFA" stroke="#948275" stroke-width="6.78905" mask="url(#path-2-inside-2_0_1)"/>
<mask id="path-3-inside-3_0_1" fill="white">
<path d="M255.177 143.5C255.177 145.291 255.284 147.281 255.177 149.017C255.042 151.199 254.67 153.119 254.452 155.312C254.253 157.326 254.137 159.488 253.839 161.472C253.465 163.963 252.901 166.487 252.493 168.85C252.05 171.415 251.75 173.814 251.008 176.392C250.707 177.439 249.916 178.87 249.603 180.003C249.068 181.941 248.503 183.921 247.861 185.655C247.266 187.264 246.545 188.288 245.884 189.863C245.455 190.886 245.289 192.426 244.833 193.434C244.105 195.041 243.066 196.103 242.27 197.672C241.343 199.498 240.148 201.163 239.132 202.935C238.142 204.662 237.332 206.497 236.259 208.169C235.419 209.477 234.736 211.222 233.847 212.495C232.59 214.297 231.102 215.609 229.75 217.337C229.033 218.253 227.702 219.498 226.959 220.392C224.976 222.78 223.504 224.749 221.345 226.975C220.326 228.025 219.465 229.594 218.409 230.606C216.865 232.085 215.106 232.987 213.484 234.383C212.599 235.146 211.834 236.104 210.927 236.841C209.658 237.87 208.237 238.666 206.926 239.644C206.028 240.315 205.313 241.064 204.395 241.71C203.226 242.532 201.848 243.244 200.65 244.025C198.768 245.251 197.203 246.526 195.25 247.648C193.709 248.533 191.792 249.284 190.209 250.102C188.671 250.896 186.791 251.432 185.215 252.161C183.112 253.133 181.299 254.271 179.132 255.123C178.29 255.454 176.744 255.767 175.892 256.08C173.747 256.867 172.272 257.604 170.071 258.27C167.855 258.941 165.612 259.55 163.343 260.094C161.773 260.47 160.325 261.25 158.731 261.564C157.202 261.866 155.529 261.704 153.979 261.946C152.871 262.12 149.339 262.428 148.221 262.571C144.941 262.991 144.038 263.127 140.68 263.276C138.891 263.356 135.957 263.158 134.148 263.158C131.594 263.158 130.193 263.316 127.679 263.158C125.485 263.021 123.307 262.825 121.147 262.571C119.093 262.33 117.338 261.908 115.317 261.564C113.165 261.199 110.452 261.154 108.341 260.675C105.902 260.122 103.404 259.273 100.954 258.418C99.2471 257.823 97.8614 256.991 96.2346 256.435C94.5355 255.854 93.1019 255.78 91.4382 255.126C89.8949 254.52 88.3672 253.882 86.856 253.214C85.4098 252.575 83.4221 251.747 82.0767 250.963C80.5512 250.074 79.6735 249.22 78.1098 248.364C75.4131 246.888 72.4789 245.697 69.9131 244.025C68.9337 243.387 68.0574 242.327 67.0981 241.661C65.2577 240.384 63.1382 239.453 61.3528 238.173C60.1632 237.321 59.0963 236.34 58.0322 235.336C57.3168 234.662 56.5623 233.707 55.8128 233.044C55.2395 232.536 54.7115 232.293 54.1481 231.775C52.4964 230.256 50.469 228.701 48.9048 227.093C47.8819 226.041 47.2965 224.961 46.3125 223.873C45.3905 222.853 44.7988 221.715 43.912 220.664C42.9626 219.539 41.7207 218.497 40.8126 217.337C39.9456 216.229 38.5164 213.868 37.688 212.73C36.7163 211.395 36.3529 211.276 35.4359 209.9C34.5638 208.591 33.79 206.756 32.9687 205.412C31.8236 203.538 30.6554 202.138 29.6123 200.198C28.9202 198.911 28.4849 197.356 27.839 196.042C27.1076 194.553 26.1722 193.299 25.5015 191.776C24.5436 189.601 23.6762 187.202 22.8461 184.961C22.3567 183.64 21.8621 182.499 21.4183 181.156C20.9124 179.626 20.6239 177.969 20.1787 176.412C19.8149 175.139 19.2841 173.97 18.9617 172.681C18.5814 171.16 18.5168 169.542 18.1952 167.999C17.8896 166.533 17.324 165.141 17.0725 163.655C16.79 161.987 16.542 160.306 16.3292 158.614C16.0112 156.086 16.0278 153.407 15.8698 150.832C15.7183 148.365 15.3856 146.005 15.3856 143.5C15.3856 141.346 15.7576 137.911 15.8698 135.785C16.002 133.28 15.896 132.088 16.1797 129.626C16.5296 126.589 16.6653 123.632 17.2377 120.67C17.638 118.597 18.4192 116.5 18.9248 114.467C19.4603 112.314 19.6653 110.053 20.3155 107.948C20.8793 106.122 21.8743 104.445 22.5219 102.657C23.4061 100.217 24.3672 97.8131 25.4024 95.4493C25.788 94.5687 25.6547 93.702 26.0607 92.8326C27.3228 90.1302 27.9036 89.8826 29.4805 87.2925C30.5146 85.594 31.217 82.9823 32.5583 80.6581C33.5313 78.9722 35.1606 77.5002 35.9494 76.3358C37.5706 73.9429 39.8013 71.6381 41.5865 69.3729C42.8218 67.8054 43.57 66.2432 44.8805 64.7403C46.6904 62.6646 48.0523 60.6494 49.9992 58.7032C51.5908 57.1121 53.7453 55.5681 55.4239 54.0681C57.2302 52.4541 58.7667 51.6574 60.6689 50.1537C62.2012 48.9424 64.0827 47.0044 65.6742 45.8677C67.1767 44.7945 68.705 43.7552 70.258 42.7509C72.3281 41.412 73.2187 41.1064 75.3739 39.8944C77.1086 38.9189 78.971 37.4466 81.1192 36.2694C82.2983 35.6233 83.8491 35.1596 84.8448 34.6972C86.2863 34.0279 87.7432 33.3864 89.2151 32.7734C91.4525 31.8415 93.1103 31.7324 95.4139 30.9346C97.3425 30.2666 98.9601 29.1704 101.091 28.4039C103.077 27.6894 105.574 27.2971 107.448 26.8517C109.501 26.3637 112.13 25.4335 114.223 25.0525C116.805 24.5823 118.861 24.6898 121.498 24.3879C123.688 24.1373 125.815 23.7353 128.039 23.6043C130.408 23.4647 132.877 23.6043 135.281 23.6043C138.526 23.6043 140.864 23.7053 144.043 23.9582C145.973 24.1117 148.765 24.3386 150.668 24.5824C152.277 24.7886 153.398 25.3303 154.986 25.5997C156.589 25.8714 158.66 25.8712 160.24 26.2059C162.916 26.7724 164.691 27.3885 167.298 28.1303C169.621 28.7916 172.784 29.5609 175.048 30.3566C176.514 30.8719 178.238 31.0484 179.677 31.6185C181.881 32.4914 183.783 33.7941 185.921 34.7916C188.489 35.9903 190.138 36.6078 192.604 37.9793C194.199 38.8666 196.643 40.4587 198.192 41.4157C200.104 42.5966 200.888 43.1935 202.727 44.4769C204.434 45.6686 207.202 47.5398 208.843 48.8165C210.931 50.4408 212.79 51.3387 214.764 53.0947C216.185 54.3583 217.748 56.4491 219.107 57.778C220.593 59.2318 222.042 60.7241 223.452 62.253C224.8 63.7158 225.458 65.04 226.733 66.5687C227.734 67.768 229.367 69.1594 230.321 70.3978C231.318 71.6924 232.286 72.2093 233.231 73.545C234.054 74.7089 234.601 75.7193 235.154 76.7956C235.599 77.6605 236.485 79.2033 237.087 80.2674C237.772 81.4771 238.474 82.2027 239.319 83.5887C240.268 85.1465 240.921 86.7295 241.604 88.0351C242.666 90.067 243.351 92.2299 244.298 94.3282C244.732 95.2899 245.474 96.1615 245.884 97.1365C246.692 99.0633 247.452 101.016 248.161 102.992C248.818 104.82 249.014 105.82 249.583 107.689C250.178 109.644 251.141 112.47 251.638 114.467C252.013 115.977 252.531 117.202 252.849 118.733C253.134 120.107 253.224 121.784 253.461 123.174C253.713 124.647 253.937 126.13 254.135 127.622C254.356 129.294 254.301 130.816 254.452 132.51C254.624 134.424 254.992 136.513 255.073 138.451C255.142 140.126 255.177 141.809 255.177 143.5Z"/>
</mask>
<path d="M255.177 143.5C255.177 145.291 255.284 147.281 255.177 149.017C255.042 151.199 254.67 153.119 254.452 155.312C254.253 157.326 254.137 159.488 253.839 161.472C253.465 163.963 252.901 166.487 252.493 168.85C252.05 171.415 251.75 173.814 251.008 176.392C250.707 177.439 249.916 178.87 249.603 180.003C249.068 181.941 248.503 183.921 247.861 185.655C247.266 187.264 246.545 188.288 245.884 189.863C245.455 190.886 245.289 192.426 244.833 193.434C244.105 195.041 243.066 196.103 242.27 197.672C241.343 199.498 240.148 201.163 239.132 202.935C238.142 204.662 237.332 206.497 236.259 208.169C235.419 209.477 234.736 211.222 233.847 212.495C232.59 214.297 231.102 215.609 229.75 217.337C229.033 218.253 227.702 219.498 226.959 220.392C224.976 222.78 223.504 224.749 221.345 226.975C220.326 228.025 219.465 229.594 218.409 230.606C216.865 232.085 215.106 232.987 213.484 234.383C212.599 235.146 211.834 236.104 210.927 236.841C209.658 237.87 208.237 238.666 206.926 239.644C206.028 240.315 205.313 241.064 204.395 241.71C203.226 242.532 201.848 243.244 200.65 244.025C198.768 245.251 197.203 246.526 195.25 247.648C193.709 248.533 191.792 249.284 190.209 250.102C188.671 250.896 186.791 251.432 185.215 252.161C183.112 253.133 181.299 254.271 179.132 255.123C178.29 255.454 176.744 255.767 175.892 256.08C173.747 256.867 172.272 257.604 170.071 258.27C167.855 258.941 165.612 259.55 163.343 260.094C161.773 260.47 160.325 261.25 158.731 261.564C157.202 261.866 155.529 261.704 153.979 261.946C152.871 262.12 149.339 262.428 148.221 262.571C144.941 262.991 144.038 263.127 140.68 263.276C138.891 263.356 135.957 263.158 134.148 263.158C131.594 263.158 130.193 263.316 127.679 263.158C125.485 263.021 123.307 262.825 121.147 262.571C119.093 262.33 117.338 261.908 115.317 261.564C113.165 261.199 110.452 261.154 108.341 260.675C105.902 260.122 103.404 259.273 100.954 258.418C99.2471 257.823 97.8614 256.991 96.2346 256.435C94.5355 255.854 93.1019 255.78 91.4382 255.126C89.8949 254.52 88.3672 253.882 86.856 253.214C85.4098 252.575 83.4221 251.747 82.0767 250.963C80.5512 250.074 79.6735 249.22 78.1098 248.364C75.4131 246.888 72.4789 245.697 69.9131 244.025C68.9337 243.387 68.0574 242.327 67.0981 241.661C65.2577 240.384 63.1382 239.453 61.3528 238.173C60.1632 237.321 59.0963 236.34 58.0322 235.336C57.3168 234.662 56.5623 233.707 55.8128 233.044C55.2395 232.536 54.7115 232.293 54.1481 231.775C52.4964 230.256 50.469 228.701 48.9048 227.093C47.8819 226.041 47.2965 224.961 46.3125 223.873C45.3905 222.853 44.7988 221.715 43.912 220.664C42.9626 219.539 41.7207 218.497 40.8126 217.337C39.9456 216.229 38.5164 213.868 37.688 212.73C36.7163 211.395 36.3529 211.276 35.4359 209.9C34.5638 208.591 33.79 206.756 32.9687 205.412C31.8236 203.538 30.6554 202.138 29.6123 200.198C28.9202 198.911 28.4849 197.356 27.839 196.042C27.1076 194.553 26.1722 193.299 25.5015 191.776C24.5436 189.601 23.6762 187.202 22.8461 184.961C22.3567 183.64 21.8621 182.499 21.4183 181.156C20.9124 179.626 20.6239 177.969 20.1787 176.412C19.8149 175.139 19.2841 173.97 18.9617 172.681C18.5814 171.16 18.5168 169.542 18.1952 167.999C17.8896 166.533 17.324 165.141 17.0725 163.655C16.79 161.987 16.542 160.306 16.3292 158.614C16.0112 156.086 16.0278 153.407 15.8698 150.832C15.7183 148.365 15.3856 146.005 15.3856 143.5C15.3856 141.346 15.7576 137.911 15.8698 135.785C16.002 133.28 15.896 132.088 16.1797 129.626C16.5296 126.589 16.6653 123.632 17.2377 120.67C17.638 118.597 18.4192 116.5 18.9248 114.467C19.4603 112.314 19.6653 110.053 20.3155 107.948C20.8793 106.122 21.8743 104.445 22.5219 102.657C23.4061 100.217 24.3672 97.8131 25.4024 95.4493C25.788 94.5687 25.6547 93.702 26.0607 92.8326C27.3228 90.1302 27.9036 89.8826 29.4805 87.2925C30.5146 85.594 31.217 82.9823 32.5583 80.6581C33.5313 78.9722 35.1606 77.5002 35.9494 76.3358C37.5706 73.9429 39.8013 71.6381 41.5865 69.3729C42.8218 67.8054 43.57 66.2432 44.8805 64.7403C46.6904 62.6646 48.0523 60.6494 49.9992 58.7032C51.5908 57.1121 53.7453 55.5681 55.4239 54.0681C57.2302 52.4541 58.7667 51.6574 60.6689 50.1537C62.2012 48.9424 64.0827 47.0044 65.6742 45.8677C67.1767 44.7945 68.705 43.7552 70.258 42.7509C72.3281 41.412 73.2187 41.1064 75.3739 39.8944C77.1086 38.9189 78.971 37.4466 81.1192 36.2694C82.2983 35.6233 83.8491 35.1596 84.8448 34.6972C86.2863 34.0279 87.7432 33.3864 89.2151 32.7734C91.4525 31.8415 93.1103 31.7324 95.4139 30.9346C97.3425 30.2666 98.9601 29.1704 101.091 28.4039C103.077 27.6894 105.574 27.2971 107.448 26.8517C109.501 26.3637 112.13 25.4335 114.223 25.0525C116.805 24.5823 118.861 24.6898 121.498 24.3879C123.688 24.1373 125.815 23.7353 128.039 23.6043C130.408 23.4647 132.877 23.6043 135.281 23.6043C138.526 23.6043 140.864 23.7053 144.043 23.9582C145.973 24.1117 148.765 24.3386 150.668 24.5824C152.277 24.7886 153.398 25.3303 154.986 25.5997C156.589 25.8714 158.66 25.8712 160.24 26.2059C162.916 26.7724 164.691 27.3885 167.298 28.1303C169.621 28.7916 172.784 29.5609 175.048 30.3566C176.514 30.8719 178.238 31.0484 179.677 31.6185C181.881 32.4914 183.783 33.7941 185.921 34.7916C188.489 35.9903 190.138 36.6078 192.604 37.9793C194.199 38.8666 196.643 40.4587 198.192 41.4157C200.104 42.5966 200.888 43.1935 202.727 44.4769C204.434 45.6686 207.202 47.5398 208.843 48.8165C210.931 50.4408 212.79 51.3387 214.764 53.0947C216.185 54.3583 217.748 56.4491 219.107 57.778C220.593 59.2318 222.042 60.7241 223.452 62.253C224.8 63.7158 225.458 65.04 226.733 66.5687C227.734 67.768 229.367 69.1594 230.321 70.3978C231.318 71.6924 232.286 72.2093 233.231 73.545C234.054 74.7089 234.601 75.7193 235.154 76.7956C235.599 77.6605 236.485 79.2033 237.087 80.2674C237.772 81.4771 238.474 82.2027 239.319 83.5887C240.268 85.1465 240.921 86.7295 241.604 88.0351C242.666 90.067 243.351 92.2299 244.298 94.3282C244.732 95.2899 245.474 96.1615 245.884 97.1365C246.692 99.0633 247.452 101.016 248.161 102.992C248.818 104.82 249.014 105.82 249.583 107.689C250.178 109.644 251.141 112.47 251.638 114.467C252.013 115.977 252.531 117.202 252.849 118.733C253.134 120.107 253.224 121.784 253.461 123.174C253.713 124.647 253.937 126.13 254.135 127.622C254.356 129.294 254.301 130.816 254.452 132.51C254.624 134.424 254.992 136.513 255.073 138.451C255.142 140.126 255.177 141.809 255.177 143.5Z" fill="#FFFBFA" stroke="#3D3131" stroke-width="3.39453" mask="url(#path-3-inside-3_0_1)"/>
<path d="M16.8008 143.419L19.6295 143.419L22.5067 143.01H25.5734C25.7003 143.01 25.827 143.02 25.9524 143.038L28.29 143.39C28.4154 143.409 28.542 143.419 28.6689 143.419L31.666 143.419L34.5586 143.419L37.4586 143.049C37.6598 143.023 37.8634 143.022 38.065 143.044L41.3988 143.419L46.5313 143.419L50.1934 143.419L53.2504 143.698C53.3837 143.71 53.5177 143.711 53.6513 143.702L57.9022 143.419L63.2224 143.419L69.4655 143.716L76.0746 143.427C76.1993 143.421 76.3242 143.425 76.4483 143.438L78.9063 143.693C79.0543 143.708 79.2033 143.71 79.3517 143.7L82.968 143.439C83.1584 143.426 83.3498 143.433 83.5385 143.462L86.6762 143.946C86.8556 143.973 87.0375 143.982 87.2187 143.971L91.3977 143.716L96.3273 143.432C96.4788 143.423 96.6308 143.428 96.7815 143.446L100.919 143.95C101.121 143.975 101.326 143.975 101.528 143.951L105.992 143.419H109.163C109.299 143.419 109.434 143.43 109.568 143.451L112.568 143.934C112.785 143.97 113.007 143.976 113.226 143.954L118.389 143.439C118.527 143.426 118.665 143.423 118.803 143.432L123.265 143.716L127.336 143.419L131.499 143.703C131.619 143.712 131.739 143.711 131.859 143.703L135.723 143.419L138.682 143.419L141.828 143.696C141.974 143.709 142.122 143.71 142.268 143.697L145.522 143.419H149.811L153.937 143.716L158.497 143.419L165.453 143.419L168.15 143.693C168.301 143.708 168.454 143.71 168.606 143.698L171.982 143.434C172.112 143.424 172.243 143.424 172.373 143.434L176.086 143.716L182.334 143.428C182.475 143.422 182.617 143.427 182.758 143.444L184.787 143.691C184.922 143.708 185.058 143.713 185.194 143.708L192.59 143.419H195.184L198.344 143.716L206.759 143.419H210.049L215.918 142.885C216.078 142.87 216.239 142.871 216.399 142.887L221.798 143.419H224.915H227.707C227.836 143.419 227.965 143.409 228.093 143.389L231.181 142.917C231.414 142.881 231.651 142.878 231.885 142.907L235.936 143.419H239.78L243.506 143.419L247.418 143.703C247.54 143.711 247.662 143.711 247.783 143.703L251.773 143.419L254.645 143.419" stroke="#3D3131" stroke-width="1.69726" stroke-linecap="round" stroke-linejoin="round"/>
<path d="M135.723 262.341L135.723 259.512L135.314 256.635L135.314 253.568C135.314 253.441 135.324 253.315 135.343 253.189L135.694 250.852C135.713 250.726 135.723 250.6 135.723 250.473L135.723 247.476L135.723 244.583L135.353 241.683C135.327 241.482 135.326 241.278 135.348 241.077L135.723 237.743L135.723 232.61L135.723 228.948L136.002 225.891C136.014 225.758 136.016 225.624 136.007 225.49L135.723 221.239L135.723 215.919L136.02 209.676L135.731 203.067C135.726 202.942 135.729 202.817 135.742 202.693L135.997 200.235C136.012 200.087 136.015 199.938 136.004 199.79L135.743 196.174C135.73 195.983 135.738 195.792 135.767 195.603L136.25 192.465C136.278 192.286 136.286 192.104 136.275 191.923L136.02 187.744L135.736 182.814C135.727 182.663 135.732 182.511 135.75 182.36L136.254 178.222C136.279 178.02 136.279 177.816 136.255 177.613L135.723 173.149L135.723 169.979C135.723 169.843 135.734 169.707 135.755 169.574L136.239 166.574C136.274 166.356 136.28 166.135 136.259 165.916L135.744 160.753C135.73 160.615 135.727 160.476 135.736 160.338L136.02 155.877L135.723 151.806L136.008 147.643C136.016 147.523 136.016 147.402 136.007 147.282L135.723 143.419L135.723 140.459L136.001 137.314C136.013 137.167 136.014 137.02 136.001 136.873L135.723 133.619L135.723 129.33L136.02 125.205L135.723 120.644L135.723 113.688L135.997 110.992C136.012 110.84 136.014 110.688 136.002 110.536L135.738 107.16C135.728 107.029 135.728 106.899 135.738 106.768L136.02 103.055L135.733 96.8079C135.726 96.6662 135.731 96.5243 135.749 96.3835L135.995 94.3548C136.012 94.2199 136.017 94.0838 136.012 93.948L135.723 86.5518L135.723 83.9576L136.02 80.7973L135.723 72.3828L135.723 69.0923L135.189 63.2233C135.174 63.0635 135.175 62.9027 135.191 62.7429L135.723 57.3435L135.723 54.2271L135.723 51.4342C135.723 51.3052 135.713 51.1764 135.694 51.0489L135.221 47.9609C135.185 47.7278 135.182 47.4908 135.212 47.2568L135.723 43.206L135.723 39.3618L135.723 35.6352L136.007 31.7233C136.016 31.6017 136.016 31.4797 136.007 31.3581L135.723 27.369L135.723 24.4965" stroke="#3D3131" stroke-width="1.69726" stroke-linecap="round" stroke-linejoin="round"/>
<path d="M51.6322 227.509L53.6324 225.509L55.378 223.186L57.5465 221.017C57.6362 220.927 57.7325 220.845 57.8345 220.769L59.7362 219.365C59.8383 219.29 59.9346 219.207 60.0242 219.117L62.1436 216.998L64.1889 214.953L65.9779 212.64C66.1021 212.48 66.2449 212.335 66.4035 212.208L69.0257 210.116L72.6549 206.487L75.2444 203.897L77.6032 201.933C77.7061 201.847 77.802 201.753 77.8901 201.653L80.6953 198.446L84.4573 194.684L89.0819 190.48L93.551 185.602C93.6353 185.51 93.7262 185.425 93.8231 185.346L95.7413 183.788C95.8568 183.694 95.9638 183.59 96.0612 183.478L98.4341 180.737C98.5591 180.592 98.6999 180.462 98.8538 180.35L101.414 178.473C101.561 178.365 101.695 178.243 101.816 178.107L104.59 174.971L107.875 171.285C107.976 171.172 108.087 171.068 108.207 170.974L111.489 168.404C111.649 168.279 111.794 168.134 111.92 167.974L114.7 164.441L116.942 162.199C117.038 162.103 117.142 162.015 117.252 161.936L119.715 160.156C119.893 160.027 120.054 159.876 120.194 159.705L123.48 155.69C123.568 155.583 123.664 155.483 123.768 155.392L127.124 152.438L129.792 149.349L132.937 146.607C133.028 146.528 133.113 146.443 133.192 146.351L135.723 143.419L137.815 141.326L140.236 139.298C140.349 139.204 140.453 139.1 140.548 138.987L142.652 136.489L145.685 133.457L148.812 130.749L151.827 127.315L156.746 122.396L158.846 120.683C158.964 120.587 159.073 120.48 159.172 120.365L161.373 117.79C161.458 117.691 161.55 117.599 161.649 117.513L164.474 115.088L168.689 110.467C168.784 110.362 168.888 110.265 169 110.178L170.609 108.918C170.716 108.834 170.816 108.742 170.908 108.642L175.934 103.208L177.768 101.373L180.213 99.3488L185.953 93.1887L188.28 90.862L192.052 86.3344C192.155 86.2111 192.269 86.0978 192.393 85.996L196.587 82.5543L198.791 80.3507L200.766 78.3758C200.857 78.2846 200.941 78.1866 201.017 78.0827L202.867 75.5648C203.006 75.3748 203.172 75.205 203.358 75.0604L206.584 72.5576L209.302 69.8393L211.937 67.2042L214.904 64.6388C214.996 64.5591 215.083 64.4729 215.163 64.3808L217.782 61.3591L219.814 59.328" stroke="#3D3131" stroke-width="1.69726" stroke-linecap="round" stroke-linejoin="round"/>
<path d="M51.6324 59.328L53.6326 61.3282L55.9561 63.0738L58.1245 65.2423C58.2142 65.332 58.2971 65.4283 58.3725 65.5303L59.7765 67.432C59.8519 67.5341 59.9348 67.6304 60.0244 67.72L62.1437 69.8394L64.1891 71.8847L66.5013 73.6737C66.6618 73.7979 66.8068 73.9407 66.9333 74.0993L69.0259 76.7215L72.6551 80.3507L75.2446 82.9402L77.209 85.299C77.2946 85.4019 77.3883 85.4978 77.489 85.5859L80.6955 88.3911L84.4575 92.1531L88.6619 96.7777L93.5395 101.247C93.6315 101.331 93.7172 101.422 93.7959 101.519L95.3538 103.437C95.4476 103.553 95.5513 103.66 95.6638 103.757L98.4051 106.13C98.5495 106.255 98.6793 106.396 98.7922 106.55L100.669 109.11C100.776 109.256 100.899 109.391 101.035 109.511L104.17 112.286L107.857 115.571C107.97 115.672 108.074 115.783 108.168 115.902L110.737 119.185C110.863 119.345 111.007 119.49 111.168 119.616L114.7 122.396L116.942 124.638C117.038 124.734 117.126 124.837 117.206 124.947L118.985 127.41C119.114 127.589 119.266 127.75 119.436 127.89L123.451 131.176C123.559 131.264 123.658 131.36 123.75 131.464L126.704 134.819L129.793 137.488L132.535 140.633C132.614 140.724 132.699 140.809 132.79 140.887L135.723 143.419L137.816 145.511L139.843 147.932C139.938 148.045 140.042 148.149 140.155 148.244L142.652 150.348L145.685 153.381L148.392 156.508L151.827 159.522L156.746 164.441L158.459 166.542C158.555 166.66 158.661 166.769 158.777 166.868L161.351 169.068C161.451 169.153 161.543 169.246 161.628 169.345L164.054 172.17L168.675 176.384C168.78 176.48 168.876 176.584 168.964 176.696L170.224 178.305C170.308 178.412 170.4 178.512 170.5 178.604L175.934 183.63L177.768 185.464L179.793 187.909L185.953 193.649L188.28 195.975L192.807 199.748C192.931 199.851 193.044 199.965 193.146 200.089L196.587 204.283L198.791 206.487L200.766 208.462C200.857 208.553 200.955 208.637 201.059 208.713L203.577 210.563C203.767 210.702 203.937 210.868 204.081 211.054L206.584 214.28L209.302 216.998L211.938 219.633L214.503 222.6C214.583 222.692 214.669 222.779 214.761 222.858L217.783 225.478L219.814 227.509" stroke="#3D3131" stroke-width="1.69726" stroke-linecap="round" stroke-linejoin="round"/>
<path d="M104.164 68.12C104.357 68.2195 104.506 68.2692 104.611 68.2692V75.4047C104.611 75.7638 104.664 76.2168 104.769 76.7638C104.614 77.1671 104.462 77.3688 104.313 77.3688H104.164C103.86 77.2693 103.708 76.9682 103.708 76.4655V75.2472C103.708 75.1478 103.655 75.098 103.55 75.098C103.55 74.9986 103.603 74.9489 103.708 74.9489C103.603 72.9267 103.55 71.4101 103.55 70.3991V69.7858C103.55 69.6919 103.653 69.2886 103.857 68.5758C103.758 68.5758 103.708 68.5261 103.708 68.4267L104.164 68.12ZM95.064 69.3383L95.669 69.6366C96.0723 69.5593 96.274 69.4598 96.274 69.3383L98.0972 69.4875H100.973C101.177 69.5206 101.28 69.6201 101.28 69.7858V70.0924C101.28 70.3355 100.824 70.4875 99.9121 70.5482V71.609L100.061 72.5207C99.9619 72.6864 99.9121 72.9378 99.9121 73.2748V73.7306H100.061L101.885 73.5814L102.034 73.8881V74.0373C101.47 74.7444 99.2961 75.098 95.5115 75.098L95.3624 74.7914V74.6422C95.3624 74.4599 95.8182 74.2582 96.7298 74.0373L96.5806 73.4323C96.5806 73.3218 96.6303 73.1698 96.7298 72.9765L96.5806 72.214C96.6801 71.5234 96.7298 70.9681 96.7298 70.5482C96.5033 70.4488 95.8458 70.3466 94.7574 70.2416V69.4875C94.9618 69.4875 95.064 69.4377 95.064 69.3383ZM97.7906 70.5482L97.6414 72.0648V73.8881C97.7464 73.8881 97.8983 73.9378 98.0972 74.0373C98.6994 73.9047 99.0005 73.7527 99.0005 73.5814C99.0005 72.924 98.9508 71.9129 98.8514 70.5482H97.7906ZM114.084 67.9709H114.382C114.686 67.9709 114.838 68.8797 114.838 70.6974V71.1532L114.996 71.4599L115.294 71.3024H117.416L117.871 71.7582C117.772 72.1671 117.418 72.3715 116.811 72.3715C116.711 72.3715 116.661 72.319 116.661 72.214C115.446 72.319 114.838 72.5207 114.838 72.819V72.9765C114.838 73.529 114.891 74.2361 114.996 75.098C114.891 75.5014 114.636 75.703 114.233 75.703C113.929 75.3328 113.777 74.9793 113.777 74.6422V73.5814C113.777 72.4212 113.728 70.6505 113.628 68.2692L114.084 67.9709ZM107.255 68.4267H109.377C110.172 68.4267 110.73 68.7305 111.051 69.3383V69.4875C111.051 69.9129 110.899 70.4681 110.595 71.1532C111.805 71.9709 112.41 72.7306 112.41 73.4323C112.211 73.4599 112.112 73.5593 112.112 73.7306C111.775 73.6643 111.269 73.2113 110.595 72.3715H110.139C110.139 73.3218 109.786 73.877 109.078 74.0373L108.772 73.5814C108.877 72.8743 109.283 71.5593 109.99 69.6366C109.62 69.4377 109.214 69.3383 108.772 69.3383H107.711C106.716 69.5372 106.161 69.6366 106.045 69.6366H105.896C105.692 69.6366 105.589 69.5372 105.589 69.3383C106.28 68.7305 106.835 68.4267 107.255 68.4267Z" fill="black"/>
<path d="M152.089 67.0592H152.238C152.553 67.0592 152.907 68.12 153.299 70.2416C154.321 70.3466 155.13 70.4985 155.727 70.6974V71.4599C155.512 71.4599 154.956 71.4074 154.061 71.3024C152.978 71.5068 151.561 71.609 149.81 71.609L149.661 71.3024C150.406 70.7996 151.266 70.5482 152.238 70.5482V70.3991C151.934 68.9736 151.782 68.214 151.782 68.12V67.3659C151.815 67.1615 151.918 67.0592 152.089 67.0592ZM156.788 69.9433H156.937C157.241 69.9433 157.495 70.6007 157.699 71.9157C157.6 72.0925 157.55 72.2941 157.55 72.5207H158.454C158.652 72.5207 158.857 72.2168 159.067 71.609C158.962 71.2057 158.909 70.8521 158.909 70.5482C159.014 70.3549 159.067 70.2029 159.067 70.0924H159.514C159.818 70.1919 159.97 70.4958 159.97 71.0041V72.3715C159.97 74.261 159.818 75.5732 159.514 76.308C160.227 76.6395 160.583 77.0456 160.583 77.5263C160.423 79.1451 159.815 79.9545 158.76 79.9545C157.826 80.2528 157.219 80.402 156.937 80.402C156.556 80.402 156.152 79.8965 155.727 78.8854C155.854 77.7473 156.006 77.0401 156.183 76.7638L156.034 76.0097C156.437 75.855 156.639 75.703 156.639 75.5538C156.556 75.1505 156.454 74.9489 156.332 74.9489L156.481 73.1256V72.5207C156.481 72.1008 156.431 71.5455 156.332 70.8549C156.465 70.2471 156.617 69.9433 156.788 69.9433ZM153.299 72.0648C154.1 72.0648 154.708 72.4184 155.122 73.1256C155.122 74.645 154.362 75.4047 152.843 75.4047H152.694C151.683 75.0621 151.177 74.5566 151.177 73.8881C151.177 73.0207 151.884 72.4129 153.299 72.0648ZM152.238 73.7306C152.536 74.4378 152.89 74.7914 153.299 74.7914C153.807 74.7914 154.061 74.2361 154.061 73.1256H153.904C153.727 73.0262 153.525 72.9765 153.299 72.9765C152.895 72.9765 152.542 73.2278 152.238 73.7306ZM157.244 74.9489V75.703L158.304 75.8522H158.909V73.2748C157.799 73.2748 157.244 73.8328 157.244 74.9489ZM156.937 76.6146L156.788 78.1312V78.587C156.815 79.0898 156.918 79.3412 157.094 79.3412C158.608 79.2141 159.365 78.8605 159.365 78.2804V77.2196C158.525 76.9157 157.716 76.7141 156.937 76.6146ZM161.86 69.3217H162.009C162.274 69.3217 162.578 70.1836 162.921 71.9074C164.341 71.7637 165.051 71.5593 165.051 71.2941L164.901 69.9267C165.095 69.8272 165.247 69.7775 165.357 69.7775C165.816 69.9709 166.067 70.1726 166.111 70.3825V71.9074H166.418C167.534 71.9074 168.092 71.3494 168.092 70.2333C168.092 70.0289 168.244 69.8272 168.548 69.6283C168.951 69.7278 169.153 70.0317 169.153 70.54V74.9406C169.153 75.6864 169.001 76.0925 168.697 76.1588H168.39C168.192 76.1588 168.092 76.0566 168.092 75.8522V73.7306C168.092 73.0179 167.99 72.6615 167.786 72.6615C166.669 72.8881 166.111 73.0925 166.111 73.2748V74.3356C166.111 75.0428 165.454 75.3964 164.139 75.3964C164.139 75.5566 163.634 75.7085 162.622 75.8522C162.015 75.8522 161.711 74.5373 161.711 71.9074C161.578 71.9074 161.476 71.1477 161.404 69.6283L161.86 69.3217ZM162.921 72.9682V74.6422C164.341 74.4654 165.051 74.261 165.051 74.029V72.819C164.846 72.819 164.744 72.7665 164.744 72.6615C164.645 72.7665 164.037 72.8687 162.921 72.9682ZM178.162 68.7416H178.311C178.714 68.946 178.916 69.2499 178.916 69.6532C178.916 70.3217 179.018 72.4405 179.222 76.0097C179.118 76.413 178.814 76.6146 178.311 76.6146C178.106 76.4323 177.955 75.3743 177.855 73.4406C175.535 73.4406 174.374 73.7417 174.374 74.3439C174.374 75.5594 174.222 76.1671 173.919 76.1671H173.463C173.264 76.1671 173.164 76.0649 173.164 75.8605C173.164 74.4737 173.617 72.7057 174.524 70.5565H171.648C171.548 70.5565 171.499 70.609 171.499 70.714C170.488 70.4322 169.982 70.1781 169.982 69.9516C170.291 69.8521 171.2 69.7029 172.709 69.504C174.725 69.6035 175.733 69.8051 175.733 70.109C175.733 70.667 175.432 71.4737 174.83 72.5289C174.93 72.5289 174.979 72.5787 174.979 72.6781C175.742 72.4792 176.449 72.3798 177.101 72.3798H177.557C177.756 72.3798 177.855 72.2776 177.855 72.0731C177.756 70.6698 177.706 69.7609 177.706 69.3466C177.855 68.9433 178.007 68.7416 178.162 68.7416Z" fill="black"/>
<path d="M197.981 106.846H198.13C198.395 106.846 198.6 107.959 198.744 110.186C198.639 110.352 198.586 110.606 198.586 110.948C199.094 111.573 199.349 111.976 199.349 112.158C199.144 112.816 199.042 113.272 199.042 113.526V113.675C200.561 114.211 201.321 114.766 201.321 115.341C201.072 115.545 200.871 115.647 200.716 115.647C199.539 114.841 198.829 114.437 198.586 114.437C197.912 115.752 197.509 116.41 197.376 116.41H197.07C196.871 116.41 196.771 116.307 196.771 116.103V115.954C196.771 115.733 197.174 114.821 197.981 113.219C198.081 113.042 198.13 112.841 198.13 112.614L197.683 112.307H197.376C197.26 112.307 196.705 112.41 195.71 112.614H195.097L194.948 111.852C196.755 111.492 197.666 111.191 197.683 110.948V110.037C197.683 109.932 197.63 109.879 197.525 109.879C197.525 109.78 197.578 109.73 197.683 109.73L197.525 108.213V107.302C197.525 107.158 197.677 107.006 197.981 106.846ZM203.293 110.186C203.293 110.285 203.343 110.335 203.443 110.335C203.343 111.523 203.293 112.385 203.293 112.921V115.042C203.293 115.628 203.343 116.437 203.443 117.47C203.293 117.874 203.141 118.075 202.987 118.075C202.583 118.075 202.332 117.266 202.233 115.647C202.332 115.454 202.382 115.302 202.382 115.191L202.233 114.893C202.233 114.689 202.282 114.586 202.382 114.586L202.233 113.07V111.852C202.332 110.741 202.686 110.186 203.293 110.186ZM206.393 107.302H206.551C208.672 107.91 209.733 108.973 209.733 110.492V111.404C209.457 113.122 209.205 113.981 208.979 113.981H208.672C208.468 113.981 208.366 113.879 208.366 113.675V112.614L208.523 111.852L208.216 111.702H206.393L206.095 111.852V111.702L205.788 111.852C205.385 111.774 205.183 111.675 205.183 111.553L204.877 111.702H204.421C204.421 111.597 204.371 111.446 204.272 111.247L204.727 110.948L205.034 111.097C205.791 110.893 206.498 110.791 207.156 110.791H207.454L208.523 110.948L208.672 110.642V110.335C208.672 109.578 207.965 108.871 206.551 108.213C206.109 108.213 205.703 108.061 205.332 107.758L204.877 108.064L204.727 107.758C204.727 107.454 205.283 107.302 206.393 107.302ZM212.766 108.363H212.915C213.17 108.363 213.321 108.97 213.371 110.186L213.222 110.791C213.222 110.896 213.272 110.948 213.371 110.948L213.222 112.009V114.736C213.222 114.94 213.12 115.042 212.915 115.042H212.31L212.161 114.28C212.161 110.335 212.363 108.363 212.766 108.363ZM208.366 115.341H208.672L208.821 116.103V118.225C208.855 118.429 208.957 118.531 209.128 118.531H209.277C209.421 118.531 210.23 118.429 211.705 118.225H212.766C212.91 118.225 213.062 118.377 213.222 118.68V119.136C211.382 119.28 210.321 119.432 210.04 119.592C208.62 119.592 207.91 119.189 207.91 118.382C207.91 117.962 207.86 117.556 207.761 117.164C207.86 115.948 208.062 115.341 208.366 115.341Z" fill="black"/>
<path d="M198.373 166.568C199.544 166.767 200.202 167.018 200.345 167.322L200.196 168.084V169.75C200.196 170.258 199.284 170.612 197.461 170.811C197.539 172.026 197.743 172.634 198.074 172.634H198.224C199.539 172.33 200.246 172.178 200.345 172.178C200.55 172.212 200.652 172.314 200.652 172.485V172.634C200.033 173.341 199.224 173.695 198.224 173.695C197.108 173.695 196.55 173.14 196.55 172.029C196.45 171.504 196.4 170.897 196.4 170.206C196.4 170.062 196.552 169.91 196.856 169.75H198.679C198.823 169.75 198.975 169.598 199.135 169.294V167.927L198.978 167.629C197.79 167.728 196.931 167.778 196.4 167.778H196.102L195.34 167.629V166.866L196.102 166.717H197.768C197.994 166.717 198.196 166.667 198.373 166.568ZM202.923 166.866L203.229 167.322V170.057H203.685C204.431 170.057 204.834 170.209 204.895 170.513V171.118L204.141 171.267H203.229C203.229 171.67 203.18 171.872 203.08 171.872L203.229 172.178V173.388C203.229 173.913 203.077 174.217 202.773 174.3H202.624C202.215 174.14 202.011 173.786 202.011 173.239V169.601C202.011 167.778 202.315 166.866 202.923 166.866ZM212.545 166.261H212.702C213.105 166.427 213.307 166.78 213.307 167.322L213.158 167.927C213.158 168.032 213.208 168.084 213.307 168.084L213.158 169.601V170.048C213.158 170.866 213.208 171.828 213.307 172.933C213.208 173.131 213.158 173.283 213.158 173.388H212.395C212.263 172.145 212.111 171.336 211.94 170.96L210.879 171.118H210.423C210.423 171.62 210.221 171.921 209.818 172.021C209.641 171.921 209.44 171.872 209.213 171.872C208.279 172.275 207.52 172.477 206.934 172.477C206.299 172.477 205.895 170.808 205.724 167.471C205.873 167.068 206.025 166.866 206.18 166.866L206.785 167.173C207.42 166.897 208.127 166.695 208.906 166.568C209.918 166.833 210.423 167.339 210.423 168.084H210.581C211.691 168.084 212.246 167.83 212.246 167.322C212.246 166.615 212.346 166.261 212.545 166.261ZM206.785 168.234C206.989 170.156 207.191 171.217 207.39 171.416C208.605 171.084 209.213 170.781 209.213 170.504V169.145L209.362 168.234C209.263 168.035 209.213 167.883 209.213 167.778H209.064C208.362 167.778 207.603 167.93 206.785 168.234ZM210.423 169.145V170.206L212.097 169.899V168.988H211.94C211.813 168.988 211.307 169.04 210.423 169.145ZM210.274 173.082L210.423 173.388V174.598L210.581 175.361L212.097 175.212H212.851C213.459 175.212 213.763 175.463 213.763 175.966L213.307 176.272H212.395C211.887 176.272 211.282 176.372 210.581 176.571C209.973 176.571 209.517 175.814 209.213 174.3C209.412 173.488 209.766 173.082 210.274 173.082Z" fill="black"/>
<path d="M158.073 209.719L158.687 210.166L158.529 211.235V214.269L158.687 214.567L158.985 214.418H159.897C161.112 214.661 161.72 215.266 161.72 216.233C161.261 218.559 160.855 219.722 160.502 219.722C160.38 219.722 160.129 219.57 159.747 219.266C160.35 217.857 160.651 216.796 160.651 216.084C160.551 215.68 160.25 215.479 159.747 215.479H159.134C158.88 215.479 158.678 215.934 158.529 216.846L158.231 216.995C157.822 216.785 157.618 216.531 157.618 216.233C157.518 214.459 157.468 213.398 157.468 213.05C157.369 213.05 157.319 213.001 157.319 212.901L156.557 213.05C156.457 213.05 156.408 213.001 156.408 212.901L156.101 213.05H155.952L154.891 212.752V212.445C154.891 212.296 155.093 212.144 155.496 211.99L155.803 212.139C156.206 212.039 156.56 211.99 156.863 211.99C157.057 212.089 157.209 212.139 157.319 212.139L157.775 209.868L158.073 209.719ZM155.496 210.166C156.004 210.299 156.258 210.451 156.258 210.622V210.929C156.258 211.056 155.347 211.307 153.524 211.683L153.681 211.99V212.901C153.681 213.647 153.833 214.05 154.137 214.111H155.654C155.852 214.144 155.952 214.246 155.952 214.418V214.716C155.952 214.898 155.446 215.05 154.435 215.172C153.927 214.973 153.573 214.874 153.374 214.874C153.275 215.177 152.971 215.329 152.463 215.329H152.165C150.745 215.329 150.035 214.114 150.035 211.683C149.532 211.556 149.28 211.407 149.28 211.235V211.078C149.28 210.879 150.09 210.628 151.709 210.324L152.314 210.473L152.62 210.324L153.374 210.473C153.623 210.473 154.33 210.371 155.496 210.166ZM151.104 211.683L151.253 211.99V212.901C151.253 213.675 151.455 214.13 151.858 214.269H152.769V214.111C152.565 212.293 152.363 211.385 152.165 211.385H152.007C151.736 211.385 151.435 211.484 151.104 211.683ZM166.792 206.992H167.099C167.53 206.992 167.834 208.509 168.01 211.542C167.867 212.045 167.51 212.296 166.941 212.296H166.336L166.187 212.909L166.336 213.208C166.237 213.407 166.187 213.559 166.187 213.664C166.287 213.862 166.336 214.014 166.336 214.119H167.555L168.615 213.97L168.914 214.426V214.724C168.814 215.028 168.513 215.18 168.01 215.18H167.099C166.629 215.18 165.82 215.282 164.671 215.487C164.113 215.382 163.709 215.329 163.461 215.329V215.487C163.262 215.382 163.11 215.329 163.005 215.329V214.575H163.154C163.491 214.575 164.198 214.473 165.276 214.269V212.603H164.82C164.704 212.603 164.148 212.705 163.154 212.909H163.005C162.701 212.169 162.549 210.854 162.549 208.965V207.755C162.549 207.605 162.701 207.454 163.005 207.299C163.408 207.299 163.61 207.904 163.61 209.114V209.876L163.759 210.175C164.659 209.677 165.621 209.426 166.643 209.42C166.544 208.15 166.494 207.393 166.494 207.15L166.792 206.992ZM163.759 210.937V211.691C165.466 211.387 166.477 211.235 166.792 211.235V210.788L166.643 210.481C165.328 210.785 164.367 210.937 163.759 210.937ZM165.881 216.548L166.494 216.697C167.389 216.597 167.944 216.548 168.16 216.548C168.707 216.747 169.06 217.048 169.22 217.451V219.581L169.071 220.335H168.309L168.16 219.581V217.907C168.16 217.708 168.057 217.608 167.853 217.608H167.555C167.35 217.636 167.248 217.735 167.248 217.907V219.581C167.248 220.183 166.997 220.484 166.494 220.484C166.339 220.357 166.187 219.752 166.038 218.669L166.187 218.363V217.758H166.038C164.784 217.857 164.126 217.907 164.066 217.907L163.61 217.302V217.153C164.118 217.153 164.875 216.951 165.881 216.548ZM178.544 209.868H178.693C179.097 210.034 179.298 210.387 179.298 210.929C179.298 211.133 179.248 211.235 179.149 211.235L179.298 211.99V213.199C179.298 215.514 179.45 217.335 179.754 218.661C179.655 219.169 179.403 219.423 179 219.423C178.547 219.423 178.243 216.694 178.088 211.235C178.392 210.749 178.544 210.293 178.544 209.868ZM173.389 211.385H173.688C174.726 211.385 175.486 212.396 175.967 214.418V214.874C175.967 215.885 175.055 216.642 173.232 217.144C171.11 216.735 170.049 215.777 170.049 214.269C170.795 212.346 171.909 211.385 173.389 211.385ZM171.259 214.269V214.567C171.259 215.346 171.867 215.851 173.083 216.084H173.232C174.143 216.084 174.701 215.628 174.906 214.716V214.418C174.889 213.76 174.483 213.053 173.688 212.296H173.389C171.969 212.755 171.259 213.412 171.259 214.269Z" fill="black"/>
<path d="M95.6348 209.561C95.7398 209.76 95.7923 209.912 95.7923 210.017C95.5879 211.094 95.4857 211.804 95.4857 212.147V212.296H95.6348C97.4581 212.462 98.3697 212.713 98.3697 213.05C98.3697 213.199 98.2177 213.351 97.9139 213.506C97.6045 213.506 96.6929 213.407 95.179 213.208V213.813C95.179 214.586 94.9774 215.042 94.574 215.18C94.2702 215.108 94.0685 214.904 93.9691 214.567C94.3061 211.23 94.7619 209.561 95.3365 209.561H95.6348ZM99.5796 210.017L99.7371 210.324V212.752H100.491C100.768 212.752 101.071 212.65 101.403 212.445C101.806 212.6 102.008 212.752 102.008 212.901V213.357C101.908 213.661 101.605 213.813 101.096 213.813H99.7371V214.874C99.7371 214.973 99.7868 215.023 99.8863 215.023L99.5796 216.084C100.696 216.084 101.254 216.49 101.254 217.302V217.907C101.254 219.222 100.798 219.879 99.8863 219.879C99.4664 219.879 99.0631 219.929 98.6763 220.028C97.4608 220.028 96.8531 219.271 96.8531 217.758V216.241C96.8531 216.092 97.005 215.94 97.3089 215.785H97.4581L97.9139 216.084H98.9747C98.7758 215.327 98.6763 214.619 98.6763 213.962V211.534C98.6763 210.523 98.9774 210.017 99.5796 210.017ZM97.9139 216.995C97.9139 217.1 97.8641 217.153 97.7647 217.153L98.063 218.968H98.2205C99.5354 218.968 100.193 218.766 100.193 218.363C100.193 217.91 100.243 217.606 100.342 217.451C100.243 217.258 100.193 217.106 100.193 216.995L98.3697 217.153C98.1708 217.048 98.0188 216.995 97.9139 216.995ZM111.613 209.122H111.912C112.287 209.122 112.541 209.829 112.674 211.244C112.47 211.636 112.367 212.191 112.367 212.909V215.934C112.367 216.166 112.417 216.371 112.517 216.548C112.517 216.885 112.163 217.136 111.456 217.302L111.613 217.6C111.713 219.622 111.762 220.733 111.762 220.932C111.762 221.639 111.207 221.992 110.097 221.992L109.798 221.843C109.445 221.943 109.24 221.992 109.185 221.992C107.975 221.992 107.37 221.639 107.37 220.932C107.37 219.948 107.32 219.445 107.221 219.423C107.32 219.247 107.37 219.045 107.37 218.818V218.363C107.37 218.263 107.32 218.213 107.221 218.213C107.37 217.103 107.572 216.548 107.826 216.548H108.133C108.232 218.001 108.331 218.807 108.431 218.968L108.738 218.818H110.553C110.553 218.454 110.503 217.998 110.403 217.451C110.503 217.048 110.804 216.846 111.307 216.846V215.329L111.157 213.514H107.519V212.909C108.177 212.705 108.633 212.603 108.887 212.603H111.008C111.207 212.603 111.307 212.503 111.307 212.304V211.55H111.008C110.782 211.55 110.58 211.6 110.403 211.699C110.298 211.699 110.246 211.65 110.246 211.55L109.185 211.699H108.133C108.028 211.699 107.975 211.749 107.975 211.849L107.677 211.699H107.519C107.017 212.213 106.765 213.274 106.765 214.882L106.309 215.329H106.011C105.856 215.329 105.704 215.128 105.555 214.724C105.959 212.647 106.16 211.385 106.16 210.937C105.497 210.639 104.79 210.49 104.039 210.49H103.434C103.191 210.285 102.989 210.183 102.829 210.183V209.727L103.889 209.578H104.345C105.997 209.578 106.956 210.083 107.221 211.094H107.37C107.707 210.791 108.566 210.639 109.948 210.639H111.157C111.461 210.578 111.613 210.175 111.613 209.429V209.122ZM108.431 219.722V220.932C108.834 220.932 109.036 220.984 109.036 221.089C110.146 220.984 110.702 220.832 110.702 220.633V220.177C110.702 220.034 110.55 219.882 110.246 219.722H108.431ZM115.011 208.65H115.318C115.462 208.65 115.614 208.802 115.774 209.106V209.263C115.442 209.683 115.188 210.39 115.011 211.385C116.73 211.815 117.589 212.423 117.589 213.208L117.291 213.357C116.732 212.849 115.871 212.595 114.705 212.595L114.556 213.506C114.655 213.677 114.705 213.932 114.705 214.269L114.257 214.567H113.951C113.719 214.567 113.567 214.316 113.495 213.813C113.937 210.371 114.442 208.65 115.011 208.65ZM118.956 209.868H119.263C119.489 209.868 119.641 210.423 119.719 211.534C119.614 211.534 119.561 211.586 119.561 211.691L119.868 211.84H120.929C121.028 211.84 121.078 211.791 121.078 211.691C121.487 211.84 121.691 211.992 121.691 212.147V212.595L120.622 212.901L120.324 212.752C120.152 212.851 119.898 212.901 119.561 212.901V213.962C119.561 214.188 119.614 214.39 119.719 214.567C119.614 214.744 119.561 214.948 119.561 215.18C119.766 215.208 119.868 215.307 119.868 215.479C119.868 217.136 119.058 218.2 117.44 218.669C117.136 218.669 116.984 218.769 116.984 218.968L117.589 219.274C118.583 218.871 119.191 218.669 119.412 218.669H119.719C119.918 218.697 120.017 218.796 120.017 218.968V219.125C119.244 219.832 118.282 220.186 117.133 220.186C116.453 220.186 116 219.68 115.774 218.669V218.213C115.895 218.053 116.804 217.647 118.5 216.995C118.5 216.824 118.603 216.52 118.807 216.084C118.608 215.984 118.456 215.934 118.351 215.934C117.031 216.238 116.119 216.39 115.616 216.39L115.467 216.084V215.636H115.923C116.868 215.332 117.829 215.078 118.807 214.874C118.603 214.503 118.5 214.1 118.5 213.664V211.534C118.5 210.423 118.652 209.868 118.956 209.868Z" fill="black"/>
<path d="M52.5827 164.174H53.0385C53.2374 164.207 53.3369 164.309 53.3369 164.481V164.779C53.3369 164.884 53.2871 164.937 53.1877 164.937C53.3921 165.39 53.4943 166.044 53.4943 166.901V168.417H55.9142C56.522 168.417 56.8259 168.721 56.8259 169.329L56.5192 169.478H53.4943C53.6932 171.5 53.7927 172.713 53.7927 173.116L53.3369 173.423H53.1877C52.5799 173.423 52.2761 170.644 52.2761 165.086C52.4805 165.086 52.5827 164.782 52.5827 164.174ZM46.2097 165.691C46.3202 165.691 46.4721 165.74 46.6655 165.84C47.3616 165.74 47.9197 165.691 48.3396 165.691H49.0937C50.5081 165.691 51.2153 167.207 51.2153 170.24C50.8893 170.395 49.6766 170.597 47.5771 170.845C47.5771 170.967 47.3754 171.066 46.9721 171.144C46.3644 171.144 45.8589 169.63 45.4555 166.602C45.66 166.055 45.9113 165.751 46.2097 165.691ZM46.5163 167.058C46.7981 168.975 47.102 169.934 47.4279 169.934C48.4114 169.63 49.2705 169.428 50.0053 169.329C49.9003 167.511 49.5965 166.602 49.0937 166.602C47.7125 166.702 46.8533 166.854 46.5163 167.058ZM60.6798 164.928C61.8511 165.127 62.5086 165.379 62.6522 165.682L62.5031 166.445V168.111C62.5031 168.619 61.5915 168.973 59.7682 169.171C59.8456 170.387 60.05 170.995 60.3815 170.995H60.5307C61.8456 170.691 62.5528 170.539 62.6522 170.539C62.8567 170.572 62.9589 170.674 62.9589 170.845V170.995C62.3401 171.702 61.5307 172.055 60.5307 172.055C59.4146 172.055 58.8566 171.5 58.8566 170.39C58.7572 169.865 58.7074 169.257 58.7074 168.566C58.7074 168.423 58.8594 168.271 59.1632 168.111H60.9865C61.1301 168.111 61.2821 167.959 61.4423 167.655V166.287L61.2848 165.989C60.097 166.088 59.2378 166.138 58.7074 166.138H58.4091L57.6466 165.989V165.227L58.4091 165.077H60.0749C60.3014 165.077 60.503 165.028 60.6798 164.928ZM65.2296 165.227L65.5363 165.682V168.417H65.9921C66.7379 168.417 67.1413 168.569 67.202 168.873V169.478L66.4479 169.627H65.5363C65.5363 170.031 65.4865 170.232 65.3871 170.232L65.5363 170.539V171.749C65.5363 172.274 65.3843 172.578 65.0805 172.66H64.9313C64.5224 172.5 64.318 172.147 64.318 171.6V167.961C64.318 166.138 64.6219 165.227 65.2296 165.227ZM69.8543 163.105C71.777 163.166 72.7384 163.367 72.7384 163.71V163.859C72.7384 164.064 72.6362 164.166 72.4317 164.166H70.1527C69.6499 164.193 69.3985 164.296 69.3985 164.472C69.498 165.367 69.5477 165.923 69.5477 166.138H69.6969C70.5588 166.039 71.2687 165.989 71.8267 165.989H72.4317L73.1859 165.832L73.4925 166.287V166.445C73.4925 166.765 72.4317 166.967 70.3102 167.05C70.3102 167.171 70.1057 167.274 69.6969 167.356C69.8019 168.368 70.1057 168.873 70.6085 168.873L72.4317 167.961L73.0367 168.417C73.0367 168.942 72.1776 169.395 70.4593 169.776C69.0449 169.776 68.3377 167.956 68.3377 164.315C68.1333 164.315 68.0311 164.113 68.0311 163.71C68.4621 163.356 69.0698 163.155 69.8543 163.105ZM75.1583 163.412H75.3157L76.0699 164.017L75.9207 164.315V165.227C75.9207 165.945 76.0229 166.503 76.2274 166.901C76.592 166.696 76.9953 166.594 77.4373 166.594H77.744L78.4981 166.743V167.199C78.4981 167.437 77.6887 167.638 76.0699 167.804V168.111C76.0699 168.293 76.1721 168.848 76.3765 169.776L75.7716 170.232C75.2246 170.232 74.8682 168.16 74.7025 164.017C74.8572 163.613 75.0091 163.412 75.1583 163.412ZM76.0699 170.39C77.2854 170.848 77.8931 171.506 77.8931 172.362V172.818C77.8931 173.652 77.3876 174.611 76.3765 175.694C75.6583 175.091 74.6472 174.688 73.3433 174.484C72.835 173.622 72.5809 172.915 72.5809 172.362C72.5809 171.047 73.7439 170.39 76.0699 170.39ZM73.6417 172.66V173.116C73.6417 173.724 74.5036 174.028 76.2274 174.028C76.6307 173.928 76.8323 173.625 76.8323 173.116V172.205C76.4843 171.597 76.0782 171.293 75.6141 171.293C74.2992 171.293 73.6417 171.749 73.6417 172.66Z" fill="black"/>
<path d="M46.6633 109.73C47.6909 109.73 48.8042 109.932 50.0031 110.335C51.4672 110.335 52.3264 110.893 52.5805 112.009C52.4037 113.097 52.2021 113.653 51.9755 113.675C51.9755 113.979 52.5308 114.534 53.6413 115.341V115.647C53.6413 115.852 53.4894 115.954 53.1855 115.954C52.7601 115.777 52.307 115.473 51.8264 115.042H51.5197C51.1496 116.258 50.796 116.865 50.4589 116.865C50.2545 116.617 50.1523 116.412 50.1523 116.252C50.3567 115.595 50.4589 115.142 50.4589 114.893C50.1827 114.893 49.5252 114.689 48.4865 114.28C48.155 115.396 47.9009 115.954 47.7241 115.954H47.2683L47.1191 115.341C48.1302 112.744 48.6357 111.28 48.6357 110.948C48.1661 110.777 47.307 110.625 46.0583 110.492V110.186C46.0583 109.932 46.26 109.78 46.6633 109.73ZM54.7021 110.335H55.1579L55.3154 111.097V113.219H55.4645C57.0833 113.291 57.8927 113.493 57.8927 113.824V113.981C57.8927 114.18 57.7905 114.28 57.5861 114.28H55.4645C55.4645 114.484 55.4148 114.586 55.3154 114.586L55.4645 114.893V116.103L55.3154 116.41H55.4645C55.3651 117.52 55.2131 118.075 55.0087 118.075H54.7021C54.5253 118.075 54.3761 117.57 54.2546 116.559C54.354 116.36 54.4037 116.208 54.4037 116.103C54.4037 114.689 54.3015 113.981 54.0971 113.981L54.2546 113.675V110.791C54.2546 110.647 54.4037 110.495 54.7021 110.335ZM49.6965 111.404C49.1937 112.642 48.9423 113.349 48.9423 113.526C49.9258 113.802 50.5335 114.053 50.7656 114.28C51.0639 113.65 51.3153 112.943 51.5197 112.158C51.5197 111.655 50.912 111.404 49.6965 111.404ZM59.476 108.653H60.6859C62.0064 108.653 62.8683 108.957 63.2716 109.564V109.722C63.2716 110.125 63.0175 110.885 62.5092 112.001C63.7136 112.465 64.3213 112.769 64.3324 112.912V113.368C64.1059 113.368 63.9042 113.418 63.7274 113.517L61.9042 112.912C61.3296 114.023 60.9235 114.631 60.6859 114.736C60.5423 114.736 60.3904 114.584 60.2301 114.28V114.122C60.2301 113.918 60.7384 112.907 61.755 111.089C62.0589 110.581 62.2108 110.175 62.2108 109.871C62.0174 109.871 60.8517 109.669 58.7135 109.266V108.81L59.476 108.653ZM66.0065 108.653H66.3131L66.6114 108.81L66.4623 110.633V111.694H66.7689L67.6805 111.545C68.3877 111.722 68.7413 111.923 68.7413 112.15V112.299C68.7413 112.603 67.9816 112.755 66.4623 112.755V113.368C66.4623 113.595 66.512 113.796 66.6114 113.973C66.512 114.15 66.4623 114.352 66.4623 114.578V114.885C67.1695 115.758 67.5231 116.415 67.5231 116.857V117.164C67.5231 117.976 67.0672 118.736 66.1556 119.443H65.6998C63.6777 119.443 62.6666 118.733 62.6666 117.313V117.164C62.6666 115.644 63.1722 114.885 64.1832 114.885C64.1832 114.824 64.639 114.672 65.5506 114.429L65.4015 113.667V109.871C65.523 109.114 65.7247 108.708 66.0065 108.653ZM63.5782 117.164C63.5782 117.694 63.9318 118.15 64.639 118.531C65.7606 118.531 66.4181 118.075 66.6114 117.164C66.3462 116.153 65.8407 115.647 65.0948 115.647C64.0838 115.647 63.5782 116.153 63.5782 117.164ZM76.3826 108.669H76.5401C76.9434 108.835 77.1451 109.189 77.1451 109.73L76.9959 110.335C76.9959 110.44 77.0456 110.492 77.1451 110.492L76.9959 112.009V112.457C76.9959 113.274 77.0456 114.236 77.1451 115.341C77.0456 115.539 76.9959 115.691 76.9959 115.796H76.2335C76.1009 114.553 75.9489 113.744 75.7777 113.368L74.7169 113.526H74.2611C74.2611 114.028 74.0594 114.33 73.6561 114.429C73.4793 114.33 73.2776 114.28 73.0511 114.28C72.1174 114.683 71.3577 114.885 70.7721 114.885C70.1367 114.885 69.7334 113.216 69.5621 109.879C69.7113 109.476 69.8632 109.274 70.0179 109.274L70.6229 109.581C71.2582 109.305 71.9654 109.103 72.7445 108.976C73.7555 109.241 74.2611 109.747 74.2611 110.492H74.4185C75.529 110.492 76.0843 110.238 76.0843 109.73C76.0843 109.023 76.1837 108.669 76.3826 108.669ZM70.6229 110.642C70.8273 112.564 71.029 113.625 71.2279 113.824C72.4433 113.493 73.0511 113.189 73.0511 112.912V111.553L73.2003 110.642C73.1008 110.443 73.0511 110.291 73.0511 110.186H72.9019C72.2003 110.186 71.4406 110.338 70.6229 110.642ZM74.2611 111.553V112.614L75.9351 112.307V111.396H75.7777C75.6506 111.396 75.145 111.448 74.2611 111.553ZM74.1119 115.49L74.2611 115.796V117.006L74.4185 117.769L75.9351 117.62H76.6893C77.297 117.62 77.6009 117.871 77.6009 118.374L77.1451 118.68H76.2335C75.7252 118.68 75.1202 118.78 74.4185 118.979C73.8108 118.979 73.355 118.222 73.0511 116.708C73.25 115.896 73.6036 115.49 74.1119 115.49Z" fill="black"/>
<path d="M129.743 1.67562L131.573 1.02442H133.025L134.697 0.848698L135.77 1.02438L137.937 1.2275L139.525 1.95804L140.637 2.79972L141.383 3.55714L142.579 5.77944L142.739 7.01059V10.1056L142.391 11.7354L141.87 13.4503L141.383 15.2506L140.968 16.6825L140.186 18.6724L139.431 20.94L138.572 23.2418L138.022 25.2345L137.094 27.7768L135.926 30.4566L135.462 31.6514L134.895 32.9426C134.895 32.9426 134.425 34.0773 133.819 34.0773C133.212 34.0773 132.84 33.1969 132.84 33.1969L132.611 32.5081L131.941 30.6386L131.376 29.2276L130.953 27.7768L130.389 26.3351L129.965 24.9241L129.683 23.4426L129.048 22.1727L128.625 20.5501L128.061 18.6724L127.507 16.9168L127.073 15.2506L126.156 12.7897L125.764 10.396L125.564 9.31502L125.564 7.76819L125.764 6.28711L126.635 4.12885L127.507 3.21574L128.215 2.59314L129.743 1.67562Z" fill="#3D3131" stroke="#3D3131" stroke-width="1.69726" stroke-linejoin="round"/>
<circle cx="134.095" cy="9.03185" r="3.39453" fill="#FFFBFA"/>
</svg>
